/* XPM */
static char *led5_xpm[] = {
/* width height ncolors chars_per_pixel */
"13 23 3 1",
/* colors */
"a c black",
"b c #800000",
"c c red",
/* pixels */
"aaaaaaaaaaaaa",
"aacccccccccaa",
"acacccccccaba",
"accacccccabaa",
"acccaaaaababa",
"acccaaaaaabaa",
"acccaaaaababa",
"acccaaaaaabaa",
"acccaaaaababa",
"accaaaaaaabaa",
"acacccccccaba",
"aacccccccccaa",
"abacccccccaca",
"aabaaaaaaacca",
"ababaaaaaccca",
"aabaaaaaaccca",
"ababaaaaaccca",
"aabaaaaaaccca",
"ababaaaaaccca",
"aabacccccacca",
"abacccccccaca",
"aacccccccccaa",
"aaaaaaaaaaaaa",
};
