/* XPM */
static char *led6_xpm[] = {
/* width height ncolors chars_per_pixel */
"13 23 3 1",
/* colors */
"a c black",
"b c #800000",
"c c red",
/* pixels */
"aaaaaaaaaaaaa",
"aaababababaaa",
"acaabababaaba",
"accaababaabaa",
"acccaaaaababa",
"acccaaaaaabaa",
"acccaaaaababa",
"acccaaaaaabaa",
"acccaaaaababa",
"accaaaaaaabaa",
"acacccccccaba",
"aacccccccccaa",
"acacccccccaca",
"accaaaaaaacca",
"acccaaaaaccca",
"acccaaaaaccca",
"acccaaaaaccca",
"acccaaaaaccca",
"acccaaaaaccca",
"accacccccacca",
"acacccccccaca",
"aacccccccccaa",
"aaaaaaaaaaaaa",
};
