/* XPM */
static char *ledOff_xpm[] = {
/* width height ncolors chars_per_pixel */
"13 23 3 1",
/* colors */
"a c black",
"b c #810000",
"c c red",
/* pixels */
"aaaaaaaaaaaaa",
"aaababababaaa",
"abaabababaaba",
"aabaababaabaa",
"ababaaaaababa",
"aabaaaaaaabaa",
"ababaaaaababa",
"aabaaaaaaabaa",
"ababaaaaababa",
"aabaaaaaaabaa",
"abaabababaaba",
"aaababababaaa",
"abaabababaaba",
"aabaaaaaaabaa",
"ababaaaaababa",
"aabaaaaaaabaa",
"ababaaaaababa",
"aabaaaaaaabaa",
"ababaaaaababa",
"aabaababaabaa",
"abaabababaaba",
"aaababababaaa",
"aaaaaaaaaaaaa",
};
