/* XPM */
static char *card_deck[] = {
/* width height ncolors chars_per_pixel */
"32 32 7 1",
/* colors */
"` c black",
"a c grey",
"b c red",
"c c white",
"d c slate grey",
"e c blue",
". c none",
/* pixels */
"..........```````````...........",
".........`ccccccccccc``.........",
".........`ccccccccccccc`........",
"..........```````````````.......",
"...........`cccccccccccc`a......",
".........````````````ccc`aa.....",
"........`cccccccccccc`cc`aa.....",
"........`ccbccccccbcc`cc`aa.....",
"........`cbbbccccbbbc`cc`aa.....",
"........`cbbbccccbbbc`c``aa.....",
"........`ccbccccccbcc``dd`a.....",
".......``````cc```````dddd`.....",
"......``dddd`cc`ddddd``dd`aa....",
".....`d`d```d``d````d`d``aaaa...",
".....`d`d`eeeeeeeee`d`dd`aaa....",
"......``d`eeeeeeeee`d`dd`aa.....",
".......`d`eeeeeeeee`d`dd`aa.....",
".......`d`eeeeeeeee`d`dd`aa.....",
".......`d`eeeeeeeee`d`dd`aa.....",
".......`d`eeeeeeeee`d`dd`aa.....",
".......`d`eeeeeeeee`d`dd`aa.....",
".......`d`eeeeeeeee`d`dd`aa.....",
".......`d`eeeeeeeee`d`dd`aa.....",
".......`d`eeeeeeeee`d`dd`aa.....",
".......`d`eeeeeeeee`d`dd`aa.....",
".......`d`eeeeeeeee`d`dd`aa.....",
".......`d`eeeeeeeee`d`dd`aa.....",
".......`d```````````d`d`aaa.....",
".......`ddddddddddddd``aaa......",
".......```````````````aaa.......",
".........aaaaaaaaaaaaaaa........",
".........aaaaaaaaaaaaaa........."
};
