/* XPM */
static char *dice_3_xpm[] = {
/* width height ncolors chars_per_pixel */
"32 32 3 1",
/* colors */
"a c black",
"b c white",
"c c none",
/* pixels */
"cccccaaaaaaaaaaaaaaaaaaaaccccccc",
"ccccaabbbbbbbbbbbbbbbbbbaacccccc",
"cccaabbbbbbbbbbbbbbbbbbbbaaccccc",
"ccaabbbbbbbbbbbbbbbbbbbbbbaccccc",
"ccabbbbbbbbbbbbbbbbbbbbbbbaccccc",
"ccabbbbaaabbbbbbbbbbbbbbbbaccccc",
"ccabbbbaaabbbbbbbbbbbbbbbbaccccc",
"ccabbbbaaabbbbbbbbbbbbbbbbaccccc",
"ccabbbbbbbbbbbbbbbbbbbbbbbaccccc",
"ccabbbbbbbbbbbbbbbbbbbbbbbaccccc",
"ccabbbbbbbbbbaaabbbbbbbbbbaccccc",
"ccabbbbbbbbbbaaabbbbbbbbbbaccccc",
"ccabbbbbbbbbbaaabbbbbbbbbbaccccc",
"ccabbbbbbbbbbbbbbbbbbbbbbbaccccc",
"ccabbbbbbbbbbbbbbbbbbbbbbbaccccc",
"ccabbbbbbbbbbbbbbbbaaabbbbaccccc",
"ccabbbbbbbbbbbbbbbbaaabbbbaccccc",
"ccabbbbbbbbbbbbbbbbaaabbbbaccccc",
"ccabbbbbbbbbbbbbbbbbbbbbbbaccccc",
"ccabbbbbbbbbbbbbbbbbbbbbbbaccccc",
"ccaabbbbbbbbbbbbbbbbbbbbbaaccccc",
"cccaabbbbbbbbbbbbbbbbbbbaacccccc",
"ccccaaaaaaaaaaaaaaaaaaaaaccccccc",
"cccccccccccccccccccccccccccccccc",
"cccccccccccccccccccccccccccccccc",
"cccccccccccccccccccccccccccccccc",
"cccccccccccccccccccccccccccccccc",
"cccccccccccccccccccccccccccccccc",
"cccccccccccccccccccccccccccccccc",
"cccccccccccccccccccccccccccccccc",
"cccccccccccccccccccccccccccccccc",
"cccccccccccccccccccccccccccccccc",
};
