/* XPM */
static char *tictactoe_xpm[] = {
/* width height ncolors chars_per_pixel */
"32 32 6 1",
/* colors */
"a c black",
"b c #c0c0c0",
"c c #ff0000",
"d c #0000ff",
"e c white",
". c none",
/* pixels */
"................................",
"................................",
".aaaaaaaaaaaaaaaaaaaaaaaaaaa....",
".abbbbbbbbbbbbbbbbbbbbbbbbbaa...",
".abbbbbbbbabbbbbbbabbbbbbbbaa...",
".abbdbbbdbabbcccbbabdbbbdbbaa...",
".abbbdbdbbabcbbbcbabbdbdbbbaa...",
".abbbbdbbbabcbbbcbabbbdbbbbaa...",
".abbbdbdbbabcbbbcbabbdbdbbbaa...",
".abbdbbbdbabbcccbbabdbbbdbbaa...",
".abbbbbbbbabbbbbbbabbbbbbbbaa...",
".abaaaaaaaaaaaaaaaaaaaaaaabaa...",
".abbbbbbbbabbbbbbbabbbbbbbbaa...",
".abbdbbbdbabbcccbbabbcccbbbaa...",
".abbbdbdbbabcbbbcbabcbbbcbbaa...",
".abbbbdbbbabcbbbcbabcbbbcbbaa...",
".abbbdbdbbabcbbbcbabcbbbcbbaa...",
".abbdbbbdbabbcccbbabbcccbbbaa...",
".abbbbbbbbabbbbbbbabbbbbbbbaa...",
".abaaaaaaaaaaaaaaaaaaaaaaabaa...",
".abbbbbbbbabbbbbbbabbbbbbbbaa...",
".abbbcccbbabdbbbdbabdbbbdbbaa...",
".abbcbbbcbabbdbdbbabbdbdbbbaa...",
".abbcbbbcbabbbdbbbabbbdbbbbaa...",
".abbcbbbcbabbdbdbbabbdbdbbbaa...",
".abbbcccbbabdbbbdbabdbbbdbbaa...",
".abbbbbbbbabbbbbbbabbbbbbbbaa...",
".abbbbbbbbbbbbbbbbbbbbbbbbbaa...",
".aaaaaaaaaaaaaaaaaaaaaaaaaaaa...",
"..aaaaaaaaaaaaaaaaaaaaaaaaaaa...",
"................................",
"................................",
};
