/* XPM */
static char *folders_xpm[] = {
/* width height ncolors chars_per_pixel */
"32 32 9 1",
/* colors */
"a c black",
"b c #c0c0c0",
"c c #808080",
"d c #00ff00",
"e c yellow",
"f c #0000ff",
"g c magenta",
"h c white",
"i c none",
/* pixels */
"iiiiiiiiiiiiiiiiiiiiiiiiiiiiiiii",
"iiiiiiiiiiiiiiiiiiiiiiiiiiiiiiii",
"iiiiiiiiiiiiiiiiiiiiiiiiiiiiiiii",
"iiiiiiiiiiiiiiiiiiiiiiiiiiiiiiii",
"iiiiiiiiiiiiiiiiiiiiiiiiiiiiiiii",
"iiiiiaaaaaaiiiiiiiiiiiiiiiiiiiii",
"iiiiaffffffaiiiiiiiiiiiiiiiiiiii",
"iiiacffaaaaaaaaaaaaaaaiiiiiiiiii",
"iiiaecaddddddaehehehehaiiiiiiiii",
"iiiacacddaaaaaaaaaaaaaaaiiiiiiii",
"iiiaaaecaggggggaehehehehaiiiiiii",
"iiiahacabggggggeaaaaaaaaaaiiiiii",
"iiiaeaaaebebebeaehehehehehaiiiii",
"iiiahahabaaaaaaeheheheheheaciiii",
"iiiaeaeaahehehehehehehehehacciii",
"iiiahahaheheheheheheheheheacciii",
"iiiaeaeaehehehehehehehehehacciii",
"iiiahahaheheheheheheheheheacciii",
"iiiaeaeaehehehehehehehehehacciii",
"iiiahahaheheheheheheheheheacciii",
"iiiaeaeaehehehehehehehehehacciii",
"iiiiaahaheheheheheheheheheacciii",
"iiiiiaeaehehehehehehehehehacciii",
"iiiiiiaaheheheheheheheheheacciii",
"iiiiiiiaehehehehehehehehehacciii",
"iiiiiiiiaaaaaaaaaaaaaaaaaaccciii",
"iiiiiiiiicccccccccccccccccccciii",
"iiiiiiiiiicccccccccccccccccciiii",
"iiiiiiiiiiiiiiiiiiiiiiiiiiiiiiii",
"iiiiiiiiiiiiiiiiiiiiiiiiiiiiiiii",
"iiiiiiiiiiiiiiiiiiiiiiiiiiiiiiii",
"iiiiiiiiiiiiiiiiiiiiiiiiiiiiiiii",
};
