#define Calculator_width 48
#define Calculator_height 48
static char Calculator_bits[] = {
   0x00, 0x00, 0x00, 0x00, 0x00, 0x00, 0x00, 0x00, 0x00, 0x00, 0x00, 0x00,
   0x00, 0x00, 0x00, 0x00, 0x00, 0x00, 0x00, 0x00, 0x00, 0x00, 0x00, 0x00,
   0x00, 0x0c, 0x00, 0x00, 0x18, 0x00, 0x00, 0x0f, 0x00, 0x00, 0x1e, 0x00,
   0x80, 0x0f, 0x00, 0x00, 0x1f, 0x00, 0xc0, 0x0f, 0x00, 0x80, 0x1f, 0x00,
   0xe0, 0x0e, 0x20, 0xc0, 0x1d, 0x00, 0x70, 0x0e, 0x20, 0xe0, 0x1c, 0x00,
   0x18, 0x0e, 0x20, 0x30, 0x1c, 0x00, 0x08, 0x0e, 0xfc, 0x11, 0x1c, 0x00,
   0x00, 0x0e, 0x20, 0x00, 0x1c, 0x00, 0x00, 0x0e, 0x20, 0x00, 0x1c, 0x00,
   0x00, 0x0e, 0x20, 0x00, 0x1c, 0x00, 0x00, 0x0e, 0x00, 0x00, 0x1c, 0x00,
   0x00, 0x0e, 0x00, 0x00, 0x1c, 0x00, 0x00, 0x0e, 0x00, 0x00, 0x1c, 0x00,
   0x00, 0x0e, 0x00, 0x00, 0x1c, 0x00, 0x00, 0x00, 0x00, 0x00, 0x00, 0x00,
   0x00, 0x00, 0x00, 0x00, 0x00, 0x00, 0x00, 0x00, 0x00, 0x00, 0x00, 0x00,
   0x00, 0x00, 0x00, 0x00, 0x00, 0x00, 0x00, 0x00, 0x00, 0x3c, 0x00, 0x00,
   0x00, 0x00, 0x00, 0x7e, 0x00, 0x00, 0x00, 0x00, 0x00, 0x7f, 0x00, 0x00,
   0x00, 0x00, 0x00, 0x67, 0x00, 0x00, 0x00, 0x00, 0x00, 0x63, 0x00, 0x00,
   0x00, 0x00, 0x00, 0x60, 0x00, 0x00, 0x00, 0x00, 0x00, 0x70, 0x00, 0x00,
   0x00, 0x7f, 0x00, 0x38, 0x00, 0x00, 0x00, 0x7f, 0x00, 0x1c, 0x00, 0x00,
   0x00, 0x00, 0x00, 0x0e, 0x00, 0x00, 0x00, 0x7f, 0x00, 0x07, 0x00, 0x00,
   0x00, 0x7f, 0x00, 0x43, 0x00, 0x00, 0x00, 0x00, 0x00, 0x63, 0x00, 0x00,
   0x00, 0x00, 0x00, 0x7e, 0x00, 0x00, 0x00, 0x00, 0x00, 0x7e, 0x00, 0x00,
   0x00, 0x00, 0x00, 0x3c, 0x00, 0x00, 0x00, 0x00, 0x00, 0x00, 0x00, 0x00,
   0x00, 0x00, 0x00, 0x00, 0x00, 0x00, 0x00, 0x00, 0x00, 0x00, 0x00, 0x00,
   0x00, 0x00, 0x00, 0x1c, 0x00, 0x00, 0x00, 0x00, 0x00, 0x1c, 0x00, 0x00,
   0x00, 0x00, 0x00, 0x1c, 0x00, 0x00, 0x00, 0x00, 0x00, 0x0c, 0x00, 0x00,
   0x00, 0x00, 0x00, 0x00, 0x00, 0x00, 0x00, 0x00, 0x00, 0x00, 0x00, 0x00};
