#define PenDemo_width 48
#define PenDemo_height 48
static unsigned char PenDemo_bits[] = {
   0x00, 0x00, 0x00, 0x00, 0x00, 0x00, 0x00, 0x00, 0x00, 0x00, 0x00, 0x00,
   0x00, 0x00, 0x00, 0x00, 0x00, 0x00, 0x00, 0x00, 0x00, 0x00, 0x00, 0x00,
   0x00, 0x00, 0x00, 0x00, 0x00, 0x00, 0x00, 0x00, 0x00, 0x00, 0x00, 0x00,
   0x00, 0xf8, 0x03, 0x00, 0x00, 0x00, 0x00, 0x04, 0x7c, 0x00, 0x00, 0x00,
   0x00, 0x02, 0x80, 0x07, 0x00, 0x00, 0x00, 0x02, 0x00, 0x08, 0x00, 0x00,
   0x00, 0xc1, 0x7f, 0x30, 0x00, 0x00, 0x00, 0x21, 0x80, 0x20, 0x00, 0x00,
   0x80, 0x20, 0x00, 0x41, 0x00, 0x00, 0x80, 0x10, 0x0e, 0x42, 0x00, 0x00,
   0x80, 0x10, 0x3b, 0x42, 0x00, 0xc0, 0x80, 0x10, 0x61, 0x42, 0x00, 0xe0,
   0x40, 0x90, 0x5c, 0x42, 0x00, 0xf0, 0x40, 0x90, 0x44, 0x42, 0x00, 0x78,
   0x40, 0x90, 0x44, 0x42, 0x00, 0x3c, 0x40, 0x90, 0x7c, 0x42, 0x00, 0x1e,
   0x40, 0x90, 0x00, 0x42, 0x00, 0x0f, 0x40, 0x10, 0x01, 0x23, 0x80, 0x07,
   0x40, 0x20, 0xfe, 0x21, 0xc0, 0x03, 0x40, 0x20, 0x00, 0x20, 0xe0, 0x01,
   0x40, 0xc0, 0x00, 0x10, 0xf0, 0x00, 0x40, 0x80, 0x03, 0x18, 0x78, 0x00,
   0x80, 0x00, 0xfc, 0x0f, 0x3c, 0x00, 0x80, 0x00, 0x00, 0x00, 0x0f, 0x00,
   0x00, 0x01, 0x00, 0xc0, 0x07, 0x00, 0x00, 0x02, 0x00, 0x60, 0x06, 0x00,
   0x00, 0x04, 0x00, 0x30, 0x03, 0x00, 0x00, 0x18, 0x00, 0x98, 0x01, 0x00,
   0x00, 0xe0, 0x00, 0xc8, 0x00, 0x00, 0x00, 0x00, 0x0f, 0x78, 0x00, 0x00,
   0x00, 0x00, 0xf8, 0x07, 0x00, 0x00, 0x00, 0x00, 0x00, 0x00, 0x00, 0x00,
   0x00, 0x00, 0x00, 0x00, 0x00, 0x00, 0x00, 0x00, 0x00, 0x00, 0x00, 0x00,
   0x00, 0x00, 0x00, 0x00, 0x00, 0x00, 0x00, 0x00, 0x00, 0x00, 0x00, 0x00,
   0x00, 0xe7, 0x22, 0xce, 0x45, 0x06, 0x00, 0x29, 0x26, 0x52, 0x6c, 0x09,
   0x00, 0x29, 0x26, 0x52, 0x6c, 0x09, 0x00, 0x67, 0x2a, 0xd2, 0x54, 0x09,
   0x00, 0x21, 0x3a, 0x52, 0x44, 0x09, 0x00, 0x21, 0x32, 0x52, 0x44, 0x09,
   0x00, 0xe1, 0x22, 0xce, 0x45, 0x06, 0x00, 0x00, 0x00, 0x00, 0x00, 0x00};
