#define SliderDemo_width 32
#define SliderDemo_height 32
static char SliderDemo_bits[] = {
   0xff, 0xff, 0xff, 0xff, 0x01, 0x00, 0x00, 0x80, 0x01, 0x82, 0x20, 0x80,
   0x01, 0x82, 0x20, 0x80, 0x81, 0x8f, 0x20, 0x80, 0x81, 0x88, 0x20, 0x80,
   0x81, 0x8f, 0x20, 0x80, 0x01, 0x82, 0x20, 0x80, 0x01, 0xe2, 0x23, 0x80,
   0x01, 0x22, 0x22, 0x80, 0x01, 0xe2, 0x23, 0x80, 0x01, 0x82, 0x20, 0x80,
   0x01, 0x82, 0x20, 0x80, 0x01, 0x82, 0xf8, 0x80, 0x01, 0x82, 0x88, 0x80,
   0x01, 0x82, 0xf8, 0x80, 0x01, 0x82, 0x20, 0x80, 0x01, 0x82, 0x20, 0x80,
   0x01, 0x82, 0x20, 0x80, 0x01, 0x00, 0x00, 0x80, 0x01, 0x00, 0x00, 0x80,
   0xff, 0xff, 0xff, 0xff, 0x00, 0x00, 0x00, 0x00, 0x00, 0x00, 0x00, 0x00,
   0x4c, 0x10, 0xc3, 0x39, 0x42, 0x10, 0x45, 0x48, 0x42, 0x10, 0x49, 0x48,
   0x44, 0x10, 0xc9, 0x38, 0x48, 0x10, 0x49, 0x28, 0x48, 0x10, 0x45, 0x48,
   0xc6, 0x11, 0xc3, 0x49, 0x00, 0x00, 0x00, 0x00};
