<?xml version="1.0" encoding="UTF-8" standalone="no"?>
<svg
   xmlns:dc="http://purl.org/dc/elements/1.1/"
   xmlns:cc="http://creativecommons.org/ns#"
   xmlns:rdf="http://www.w3.org/1999/02/22-rdf-syntax-ns#"
   xmlns:svg="http://www.w3.org/2000/svg"
   xmlns="http://www.w3.org/2000/svg"
   xmlns:sodipodi="http://sodipodi.sourceforge.net/DTD/sodipodi-0.dtd"
   xmlns:inkscape="http://www.inkscape.org/namespaces/inkscape"
   version="1.0"
   width="70"
   height="70"
   viewBox="0 0 121.33333 598"
   preserveAspectRatio="xMidYMid meet"
   id="svg3082"
   sodipodi:version="0.32"
   inkscape:version="0.48.2 r9819"
   sodipodi:docname="stxlibjava_web.svg"
   inkscape:output_extension="org.inkscape.output.svg.inkscape"
   inkscape:export-filename="/home/janfrog/work/smalltalk-logos/stx/stx-goodies.png"
   inkscape:export-xdpi="90"
   inkscape:export-ydpi="90">
  <defs
     id="defs3091">
    <inkscape:perspective
       sodipodi:type="inkscape:persp3d"
       inkscape:vp_x="0 : 35 : 1"
       inkscape:vp_y="0 : 1000 : 0"
       inkscape:vp_z="285 : 35 : 1"
       inkscape:persp3d-origin="142.5 : 23.333333 : 1"
       id="perspective2521" />
    <inkscape:perspective
       id="perspective2880"
       inkscape:persp3d-origin="0.5 : 0.33333333 : 1"
       inkscape:vp_z="1 : 0.5 : 1"
       inkscape:vp_y="0 : 1000 : 0"
       inkscape:vp_x="0 : 0.5 : 1"
       sodipodi:type="inkscape:persp3d" />
    <inkscape:perspective
       id="perspective2926"
       inkscape:persp3d-origin="0.5 : 0.33333333 : 1"
       inkscape:vp_z="1 : 0.5 : 1"
       inkscape:vp_y="0 : 1000 : 0"
       inkscape:vp_x="0 : 0.5 : 1"
       sodipodi:type="inkscape:persp3d" />
    <inkscape:perspective
       id="perspective2840"
       inkscape:persp3d-origin="0.5 : 0.33333333 : 1"
       inkscape:vp_z="1 : 0.5 : 1"
       inkscape:vp_y="0 : 1000 : 0"
       inkscape:vp_x="0 : 0.5 : 1"
       sodipodi:type="inkscape:persp3d" />
    <inkscape:perspective
       id="perspective2865"
       inkscape:persp3d-origin="0.5 : 0.33333333 : 1"
       inkscape:vp_z="1 : 0.5 : 1"
       inkscape:vp_y="0 : 1000 : 0"
       inkscape:vp_x="0 : 0.5 : 1"
       sodipodi:type="inkscape:persp3d" />
  </defs>
  <sodipodi:namedview
     inkscape:window-height="800"
     inkscape:window-width="1024"
     inkscape:pageshadow="2"
     inkscape:pageopacity="0.0"
     guidetolerance="10.0"
     gridtolerance="10.0"
     objecttolerance="10.0"
     borderopacity="1.0"
     bordercolor="#666666"
     pagecolor="#ffffff"
     id="base"
     inkscape:zoom="2"
     inkscape:cx="98.491379"
     inkscape:cy="-2.3004945"
     inkscape:window-x="1992"
     inkscape:window-y="139"
     inkscape:current-layer="svg3082"
     width="285px"
     height="70px"
     showgrid="false"
     inkscape:showpageshadow="false"
     inkscape:window-maximized="0" />
  <metadata
     id="metadata3084">
Created by potrace 1.7, written by Peter Selinger 2001-2005
<rdf:RDF>
  <cc:Work
     rdf:about="">
    <dc:format>image/svg+xml</dc:format>
    <dc:type
       rdf:resource="http://purl.org/dc/dcmitype/StillImage" />
    <dc:title></dc:title>
  </cc:Work>
</rdf:RDF>
</metadata>
  <path
     style="fill:#e76f00;display:none"
     d="m 397.65231,247.77318 h -6.24136 v -3.49125 h 16.80084 v 3.49125 h -6.19849 v 17.41946 h -4.36099 v -17.41946 z m 33.50981,0.90956 h -0.098 l -6.18318,16.51297 h -2.82974 l -6.14336,-16.51297 h -0.0766 v 16.51297 h -4.10986 V 244.285 h 6.04842 l 5.69624,14.80715 5.67787,-14.80715 h 6.02698 v 20.91071 h -4.01186 v -16.51297 z"
     id="path3"
     inkscape:connector-curvature="0" />
  <g
     id="g2841"
     transform="matrix(1.5958476,0,0,1.5958476,-187.83784,-4.0756306)">
    <path
       inkscape:connector-curvature="0"
       id="path5"
       d="m 102.681,291.324 c 0,0 -14.178,8.245 10.09,11.035 29.4,3.354 44.426,2.873 76.825,-3.259 0,0 8.518,5.341 20.414,9.967 -72.63,31.128 -164.376,-1.803 -107.329,-17.743"
       style="fill:#5382a1" />
    <path
       inkscape:connector-curvature="0"
       id="path7"
       d="m 93.806,250.704 c 0,0 -15.902,11.771 8.384,14.283 31.406,3.24 56.208,3.505 99.125,-4.759 0,0 5.936,6.018 15.27,9.309 -87.814,25.678 -185.623,2.025 -122.779,-18.833"
       style="fill:#5382a1" />
    <path
       inkscape:connector-curvature="0"
       id="path9"
       d="m 168.625,181.799 c 17.896,20.604 -4.702,39.145 -4.702,39.145 0,0 45.441,-23.458 24.572,-52.833 -19.491,-27.394 -34.438,-41.005 46.479,-87.934 0,0 -127.013,31.722 -66.349,101.622"
       style="fill:#e76f00" />
    <path
       inkscape:connector-curvature="0"
       id="path11"
       d="m 264.684,321.369 c 0,0 10.492,8.645 -11.555,15.333 -41.923,12.7 -174.488,16.535 -211.314,0.506 -13.238,-5.759 11.587,-13.751 19.396,-15.428 8.144,-1.766 12.798,-1.437 12.798,-1.437 -14.722,-10.371 -95.157,20.364 -40.857,29.166 148.084,24.015 269.943,-10.814 231.532,-28.14"
       style="fill:#5382a1" />
    <path
       inkscape:connector-curvature="0"
       id="path13"
       d="m 109.499,208.617 c 0,0 -67.431,16.016 -23.879,21.832 18.389,2.462 55.047,1.905 89.193,-0.956 27.906,-2.354 55.927,-7.359 55.927,-7.359 0,0 -9.84,4.214 -16.959,9.075 -68.475,18.009 -200.756,9.631 -162.674,-8.79 32.206,-15.568 58.392,-13.802 58.392,-13.802"
       style="fill:#5382a1" />
    <path
       inkscape:connector-curvature="0"
       id="path15"
       d="m 230.462,276.231 c 69.608,-36.171 37.424,-70.931 14.96,-66.248 -5.506,1.146 -7.961,2.139 -7.961,2.139 0,0 2.044,-3.202 5.948,-4.588 44.441,-15.624 78.619,46.081 -14.346,70.52 0,0.001 1.077,-0.962 1.399,-1.823"
       style="fill:#5382a1" />
    <path
       inkscape:connector-curvature="0"
       id="path17"
       d="m 188.495,4.399 c 0,0 38.55,38.563 -36.563,97.862 -60.233,47.568 -13.735,74.69 -0.025,105.678 C 116.748,176.217 90.946,148.292 108.256,122.302 133.663,84.151 204.049,65.654 188.495,4.399"
       style="fill:#e76f00" />
    <path
       inkscape:connector-curvature="0"
       id="path19"
       d="m 116.339,374.246 c 66.815,4.277 169.417,-2.373 171.847,-33.988 0,0 -4.671,11.985 -55.219,21.503 -57.028,10.732 -127.364,9.479 -169.081,2.601 10e-4,-0.001 8.54,7.068 52.453,9.884"
       style="fill:#5382a1" />
  </g>
</svg>
