/* XPM */
static char *garbage_open_xpm[] = {
/* width height ncolors chars_per_pixel */
"32 48 13 1",
/* colors */
"a c black",
"b c #400000",
"c c #A0A0A0",
"d c #F8FCF8",
"e c #404000",
"f c #004040",
"g c white",
"h c #303030",
"i c #585858",
"j c #808080",
"k c #D8DCD8",
"l c #C0C0C0",
"m c none",
/* pixels */
"mmmmmmmmmmmmmmmmmmmmmmmmmmmmmmmm",
"mmmmmmmmmmmmmmmmmmmmmmmmmmmmmmmm",
"mmmmmmmmmmmmmmmmmmmmmmmmmmmmmmmm",
"mmmmmmmmmmmmmammmmmmmmmmmmmmmmmm",
"mmmmmmmmmmmacaammmmmmmmmmmmmmmmm",
"mmmmmmmmmmafflaaammmmmmmmmmmmmmm",
"mmmmmmmmmakfiddclamammmmmmmmmmmm",
"mmmmmmmmmflkccddldcaammmmmmmmmmm",
"mmmmmmmmmacdkcddddkiaammmmmmmmmm",
"mmmmmmmmmmkddcddklkiiacammmmmmmm",
"mmmmmmmmmmmkkklddleccfkemmmmmmmm",
"mmmmmmmmmmmmkkcddklfbekemmmmmmmm",
"mmmmmmmmmmmmmkccdkkllffammmmmmmm",
"mmmmmmmmmmmmmmkjjdlljjcaammmmmmm",
"mmmmmmmmmmmmmmmcjjdeeaaacammmmmm",
"mmmmmmmmmmmaaaaccjilhiacccammmmm",
"mmmmmmmmaahhihifhciilijllcjmmmmm",
"mmmmmaaachhhhhhhhfciicllllaammmm",
"mmmmachhhhhhhhhhhhhcijilcccaammm",
"mmmmallhhhhahhhhhhaajjjiiicjammm",
"mmmmallcchhhhhhhhhahhjjiiiicammm",
"mmmmakkkcclchhhhhhhhhhaiiiiammmm",
"mmmmafcddkkccjjjjiiiijjaiiaammmm",
"mmmmmafjjkkkkkcccccccjjjaaammmmm",
"mmmmmacccccckkccccccciiiiiammmmm",
"mmmmmacccdcccjjjjiiiijjiaiammmmm",
"mmmmmacjckkkkclccjjjjijiaiammmmm",
"mmmmmacjckdlclkcjcccaijiaiammmmm",
"mmmmmacjckdjcckcjjcjaijiaiammmmm",
"mmmmmacjckdjcckcjjcjaijiaiammmmm",
"mmmmmacjckdjcckcjjcjaijiaiammmmm",
"mmmmmacjckdjcckcjjcjaijiaiammmmm",
"mmmmmacjckdjcckcjjcjaijiaiammmmm",
"mmmmmacjckdjcckcjjcjaijiaiammmmm",
"mmmmmacjckdjcckcjjcjaijiaiammmmm",
"mmmmmacjckdjcckcjjcjaijiaiammmmm",
"mmmmmacjckdjcckcjjcjaijiaiammmmm",
"mmmmmacjckdjcckcjjcjaijiaiammmmm",
"mmmmmacjckdjcckcjjcjaijiaiammmmm",
"mmmmmaccckdjcckcjjcjaijiiiammmmm",
"mmmmmacckkdjcckcjjcjiijiifammmmm",
"mmmmmajkkdddjkkciccjiijifaammmmm",
"mmmmmmaacddkkkkccccjiiiiaammmmmm",
"mmmmmmmmaaacllccccciiaaammmmmmmm",
"mmmmmmmmmmmaaaaaaaaaammmmmmmmmmm",
"mmmmmmmmmmmmmmmmmmmmmmmmmmmmmmmm",
"mmmmmmmmmmmmmmmmmmmmmmmmmmmmmmmm",
"mmmmmmmmmmmmmmmmmmmmmmmmmmmmmmmm",
};
