/* XPM */
static char *magnify3plus_xpm[] = {
/* width height ncolors chars_per_pixel */
"26 26 8 1",
/* colors */
"a c black",
"b c cyan",
"c c #000080",
"d c white",
"e c #708090",
"f c #C0C0C0",
"g c #A0522D",
"h c none",
/* pixels */
"hhhhhhhhhhhhhhhhhhhhhhhhhh",
"hhhhhhhhhhhhhhhhhhhhhhhhhh",
"hhhhhhhaaaaaaehhhhhhhhhhhh",
"hhhhhaaebebebaaehhhhhhhhhh",
"hhhhaebeeeeeebbaehhhhhhhhh",
"hhhaebeffaadffebaehhhhhhhh",
"hhhebeffdaadfdfebahhhhhhhh",
"hhabeffbdaaddfdfeaehhhhhhh",
"hhabfffddaaffdfdfeahhhhhhh",
"hhabfaaaaaaaaaadfeahhhhhhh",
"hhabdaaaaaaaaaaffeahhhhhhh",
"hhabdffffaaffecefeahhhhhhh",
"hhabbdfffaafeceefeahhhhhhh",
"hhhabbdffaaeceefeahhhhhhhh",
"hhhaabfddaaffffeaahhhhhhhh",
"hhhhaaeedddffeeagahhhhhhhh",
"hhhhhaaaaaaaaaagfahhhhhhhh",
"hhhhhhhaaaaaaaaegfahhhhhhh",
"hhhhhhhhhhhhhhfaegfahhhhhh",
"hhhhhhhhhhhhhhhhaegfahhhhh",
"hhhhhhhhhhhhhhhhhaegfahhhh",
"hhhhhhhhhhhhhhhhhhaegfahhh",
"hhhhhhhhhhhhhhhhhhhaegfahh",
"hhhhhhhhhhhhhhhhhhhhaeeahh",
"hhhhhhhhhhhhhhhhhhhhhaahhh",
"hhhhhhhhhhhhhhhhhhhhhhhhhh",
};
