/* XPM */
static char *magnify3_xpm[] = {
/* width height ncolors chars_per_pixel */
"26 26 8 1",
/* colors */
"a c black",
"b c cyan",
"c c #000080",
"d c white",
"e c #708090",
"f c #C0C0C0",
"g c #A0522D",
"h c none",
/* pixels */
"hhhhhhhhhhhhhhhhhhhhhhhhhh",
"hhhhhhhhhhhhhhhhhhhhhhhhhh",
"hhhhhhhaaaaaaehhhhhhhhhhhh",
"hhhhhaaebebebaaehhhhhhhhhh",
"hhhhaebeeeeeebbaehhhhhhhhh",
"hhhaebefffddffebaehhhhhhhh",
"hhhebeffddbdfdfebahhhhhhhh",
"hhabeffbdbdddfdfeaehhhhhhh",
"hhabfffddffffdfdfeahhhhhhh",
"hhabfffdffffefedfeahhhhhhh",
"hhabdffffffffecffeahhhhhhh",
"hhabdffffffffecefeahhhhhhh",
"hhabbdffffffeceefeahhhhhhh",
"hhhabbdffffeceefeahhhhhhhh",
"hhhaabfddffffffeaahhhhhhhh",
"hhhhaaeedddffeeagahhhhhhhh",
"hhhhhaaaaaaaaaagfahhhhhhhh",
"hhhhhhhaaaaaaaaegfahhhhhhh",
"hhhhhhhhhhhhhhfaegfahhhhhh",
"hhhhhhhhhhhhhhhhaegfahhhhh",
"hhhhhhhhhhhhhhhhhaegfahhhh",
"hhhhhhhhhhhhhhhhhhaegfahhh",
"hhhhhhhhhhhhhhhhhhhaegfahh",
"hhhhhhhhhhhhhhhhhhhhaeeahh",
"hhhhhhhhhhhhhhhhhhhhhaahhh",
"hhhhhhhhhhhhhhhhhhhhhhhhhh",
};
