/* XPM */
static char *menu_underlineFont_24x24_xpm[] = {
/* width height ncolors chars_per_pixel */
"24 24 2 1",
/* colors */
"a c black",
"b c none",
/* pixels */
"bbbbbbbbbbbbbbbbbbbbbbbb",
"bbbbbbbbbbbbbbbbbbbbbbbb",
"bbbbbbbbbbbbbbbbbbbbbbbb",
"bbbbbbbbbbbbbbbbbbbbbbbb",
"bbbbbbbbbbbbbbbbbbbbbbbb",
"bbbbbaaaaaabaaaaaabbbbbb",
"bbbbbbaaabbbbbaaabbbbbbb",
"bbbbbbaaabbbbbaaabbbbbbb",
"bbbbbbaaabbbbbaaabbbbbbb",
"bbbbbbaaabbbbbaaabbbbbbb",
"bbbbbbaaabbbbbaaabbbbbbb",
"bbbbbbaaabbbbbaaabbbbbbb",
"bbbbbbaaabbbbbaaabbbbbbb",
"bbbbbbaaabbbbbaaabbbbbbb",
"bbbbbbaaabbbbbaaabbbbbbb",
"bbbbbbaaabbbbbaaabbbbbbb",
"bbbbbbbaaabbbaaabbbbbbbb",
"bbbbbbbbaaaaaaabbbbbbbbb",
"bbbbbbbbbbbbbbbbbbbbbbbb",
"bbbbbbbbbbbbbbbbbbbbbbbb",
"bbbbbaaaaaaaaaaaaabbbbbb",
"bbbbbaaaaaaaaaaaaabbbbbb",
"bbbbbbbbbbbbbbbbbbbbbbbb",
"bbbbbbbbbbbbbbbbbbbbbbbb",
};
