/* XPM */
static char *menu_undo_32x32_xpm[] = {
/* width height ncolors chars_per_pixel */
"24 24 3 1",
/* colors */
"a c black",
"b c #000080",
"c c none",
/* pixels */
"cccccccccccccccccccccccc",
"cccccccccccccccccccccccc",
"cccccccccccccccccccccccc",
"cccccccccccccccccccccccc",
"cccccccccccccccccccccccc",
"cccccccccccccccccccccccc",
"cccccccccccccccccccccccc",
"ccccccccccccbbbbbccccccc",
"ccccccccccbbcccccbbccccc",
"ccccbccccbcccccccccbcccc",
"ccccbbccbcccccccccccbccc",
"ccccbbbbccccccccccccbccc",
"ccccbbbbccccccccccccbccc",
"ccccbbbbbcccccccccccbccc",
"ccccbbbbbbcccccccccbcccc",
"ccccccccccccccccccbccccc",
"ccccccccccccccccbbcccccc",
"cccccccccccccccccccccccc",
"cccccccccccccccccccccccc",
"cccccccccccccccccccccccc",
"cccccccccccccccccccccccc",
"cccccccccccccccccccccccc",
"cccccccccccccccccccccccc",
"cccccccccccccccccccccccc",
};
