/* XPM */
static char *menu_colorFont_24x24_xpm[] = {
/* width height ncolors chars_per_pixel */
"24 24 10 1",
/* colors */
"a c white",
"b c red",
"c c #008000",
"d c black",
"e c #800080",
"f c yellow",
"g c magenta",
"h c cyan",
"i c #C0C0C0",
"j c none",
/* pixels */
"jjjjjjjjjjjjjjjjjjjjjjjj",
"jjjjjjjjjjjjjjjjjjjjjjjj",
"jjjjjjjjjjjddddddjjjjjjj",
"jjjjjjjjjddfafafaddjjjjj",
"jjjjjjjjdafafadafafdjjjj",
"jjjjjjjdafafadgdafafdjjj",
"jjjjjjdafadafadafadafdjj",
"jjjjjjdfadedafafadcdadjj",
"jjjjjjdafadafadafadafdjj",
"jjjjjjdfafafadhdafafadjj",
"jjjjjjjdfafafadafadafdjj",
"jjjjjjjjdddfafafadbdadjj",
"jjjjjjjjjjjdfafdfadafdjj",
"jjjjjjjdjjjdafdidfafdjjj",
"jjjjjjdddjjdfafdfafadjjj",
"jjjjjjdddjjjdfafafadjjjj",
"jjjjjdjdddjjjddddddjjjjj",
"jjjjjdjjddjjjjjjjjjjjjjj",
"jjjjdjjjdddjjjjjjjjjjjjj",
"jjjjdddddddjjjjjjjjjjjjj",
"jjjdjjjjjdddjjjjjjjjjjjj",
"jjddddjjdddddjjjjjjjjjjj",
"jjjjjjjjjjjjjjjjjjjjjjjj",
"jjjjjjjjjjjjjjjjjjjjjjjj",
};
