/* XPM */
static char *menu_search_32x32_xpm[] = {
/* width height ncolors chars_per_pixel */
"24 24 3 1",
/* colors */
"a c black",
"b c #C0C0C0",
"c c none",
/* pixels */
"cccccccccccccccccccccccc",
"cccccccccccccccccccccccc",
"cccccccccccccccccccccccc",
"cccccccccccccccccccccccc",
"cccccccccccccccccccccccc",
"cccccccccccccccccccccccc",
"cccccccaaacccaaacccccccc",
"cccccccabacccabacccccccc",
"cccccccaaacccaaacccccccc",
"ccccccaaaaacaaaaaccccccc",
"ccccccabaaacabaaaccccccc",
"cccccaaaaaaaaaaaaacccccc",
"ccccaabaaabaabaaaaaccccc",
"ccccaabaaabaabaaaaaccccc",
"ccccaabaaaaaabaaaaaccccc",
"ccccaaaaaaacaaaaaaaccccc",
"ccccabaaacccccabaaaccccc",
"ccccabaaacccccabaaaccccc",
"ccccaaaaacccccaaaaaccccc",
"cccccccccccccccccccccccc",
"cccccccccccccccccccccccc",
"cccccccccccccccccccccccc",
"cccccccccccccccccccccccc",
"cccccccccccccccccccccccc",
};
