/* XPM */
static char *note_xpm[] = {
/* width height ncolors chars_per_pixel */
"37 30 14 1",
/* colors */
"a c black",
"b c white",
"c c #99CCCC",
"d c #6699CC",
"e c #3366CC",
"f c #FF6600",
"g c #FF9933",
"h c #99CCFF",
"i c #FF9966",
"j c #FF6633",
"k c #336699",
"l c #003399",
"m c #FFCC99",
"n c none",
/* pixels */
"nnnnnnnnnnnnnnnnnnnnnnnnnnnnnnnnnnnnn",
"nnnnnnnnnnnnnnnnnnnnnnnnnnnnnnnnnnnnn",
"nnnnnnnnnnnnnnnnnnnnnnnnnnnnnnnnnnnnn",
"nnnnnnnnnnnnnnnnnnnnnnnnaaaannnnnnnnn",
"nnnnnnnnnnnnnnnnnnnnnnnagiffannnnnnnn",
"nnnnnnnnnnnnnnnnnnnnnnnaaaaaahnnnnnnn",
"nnnnnnnnnnnnnhaaehnnnnnnaaaahhnnnnnnn",
"nnnnnnnnnnnnhalaaaaehnnnaffahnnnnnnnn",
"nnnnnnnnnnnhaahhhlaaaaaaajfaaahnnnnnn",
"nnnnnnnnnnhaahbbbbbhhlafffafiaannnnnn",
"nnnnnnnnnnaahbbbbbbbbblafiiaaaaahnnnn",
"nnnnnnnnnhaebbbmbbbbbbhaaaaaalilaaenn",
"nnnnnnnnhaahbblllhmbbbbeaaaalidglahnn",
"nnnnnnnndaebbhbbhllhmbbbblaidgdlahnnn",
"nnnnnnndaahbhllhbhhllmbbbbadideahnnnn",
"nnnnnnhaahbbbbhllbbhhllbbbdidialnnnnn",
"nnnnnhlahbbblebbmhlbbbmhbbhhcaahnnnnn",
"nnnhhaahbblhbmelbbbllbbbbhbhaahnnnnnn",
"naaaalhbmbbllhbhembmeblbbbhaahnnnnnnn",
"naaahhhbbmbbblllbhbbbhbhbhaahnnnnnnnn",
"nneaakhhhbbmbbbmllhhmbbbhlahnnnnnnnnn",
"nnnneaaaehhbbbbbbmlbaabhaahnnnnnnnnnn",
"nnnnnnheaaaaaehbbbbaaaaaahnnnnnnnnnnn",
"nnnnnnnnnhheaaalhhaadhaahnnnnnnnnnnnn",
"nnnnnnnnnnnnhhaaaaaaaaahnnnnnnnnnnnnn",
"nnnnnnnnnnnnnnnhhhldldlnnnnnnnnnnnnnn",
"nnnnnnnnnnnnnnnnnnhhhhnnnnnnnnnnnnnnn",
"nnnnnnnnnnnnnnnnnnnnnnnnnnnnnnnnnnnnn",
"nnnnnnnnnnnnnnnnnnnnnnnnnnnnnnnnnnnnn",
"nnnnnnnnnnnnnnnnnnnnnnnnnnnnnnnnnnnnn",
};
