/* XPM */
static char *palette2_xpm[] = {
/* width height ncolors chars_per_pixel */
"32 32 97 2",
/* colors */
"aa c white",
"ab c #ffff99",
"ac c yellow",
"ad c #ffcccc",
"ae c #ffcc99",
"af c #ffcc66",
"ag c #ffcc33",
"ah c #ffcc00",
"ai c #ff9999",
"aj c #ff9966",
"ak c #ff9933",
"al c #ff6699",
"am c #ff6666",
"an c #ff6633",
"ao c #ff6600",
"ap c #ff3399",
"aq c #ff3366",
"ar c #ff3300",
"as c #ff00cc",
"at c #ff0099",
"au c #ff0066",
"av c #eeeeee",
"aw c #dddddd",
"ax c #ccccff",
"ay c #cccccc",
"az c #cccc99",
"ba c #cccc66",
"bb c #cccc33",
"bc c #cc99cc",
"bd c #cc9999",
"be c #cc9966",
"bf c #cc9933",
"bg c #cc66cc",
"bh c #cc6699",
"bi c #cc6666",
"bj c #cc6633",
"bk c #cc33cc",
"bl c #cc3366",
"bm c #cc0033",
"bn c none",
"bo c #bbbbbb",
"bp c #aaaaaa",
"bq c #99cccc",
"br c #99cc99",
"bs c #99cc66",
"bt c #9999cc",
"bu c #999999",
"bv c #999966",
"bw c #999933",
"bx c #996699",
"by c #996666",
"bz c #996633",
"ca c #996600",
"cb c #9933ff",
"cc c #9933cc",
"cd c #993399",
"ce c #993366",
"cf c #993333",
"cg c #993300",
"ch c #9900ff",
"ci c #990066",
"cj c #990033",
"ck c #888888",
"cl c #777777",
"cm c #669999",
"cn c #6666cc",
"co c #666699",
"cp c #666666",
"cq c #666633",
"cr c #663366",
"cs c #663333",
"ct c #663300",
"cu c #660033",
"cv c #555555",
"cw c #550000",
"cx c #444444",
"cy c #336699",
"cz c #336666",
"da c #336633",
"db c #333399",
"dc c #333366",
"dd c #333333",
"de c #333300",
"df c #330066",
"dg c #330033",
"dh c #222222",
"di c #220000",
"dj c #111111",
"dk c #110000",
"dl c #0066ff",
"dm c #0033ff",
"dn c #003333",
"do c #003300",
"dp c #001100",
"dq c #000022",
"dr c #000011",
"ds c black",
/* pixels */
"bnbnbnbnbnbnbnbnbnbnbnbnbnbnbububububvbeadbnbnbnbnbnbnbnbnbnbnbn",
"bnbnbnbnbnbnbnbnavayawaxbubpbdbdbdbabdafbebabvbpbnbnbnbnbnbnbnbn",
"bnbnbnbnbnbnbnbnbtbtbdbdazaeazbeafaebebeazbababebpbnbnbnbnbnbnbn",
"bnbnbnbnbnaxbpbpbdbdbaafaibaajbebdbialamblambibabecxawbnbnbnbnbn",
"bnbnbnbnbubdazafbaararaoararbjbeafauauatauauapbebebecxbnbnbnbnbn",
"bnbnbnbubdbabeafaearaoaoaoarakbebeaqauatauaubibebebabyddbobnbnbn",
"bnbnaxbdaeaeaeaibeaoaoaraoaoakbebaasapauapapambebebebedddgbnbnbn",
"bnaxbuazaebeaebeaeaoaraoaoarbfbebeaqauatauatbibebebibebedjbubnbn",
"bnbubpafbebebaaebeararaoararanbebeauauauauauambebebibibacsdsbnbn",
"avbubaagafagagbbafbjanakbjakbebebabebabebvaubebebebjbebibydsclbn",
"ayazafahacacahacbdabbabebababebebababebiaucibxchchcbcbchbedsddbn",
"aybpagacahacacahbabdbebebebebabebicpcfceaucsbgchchcbchchbecxdsbn",
"axbebbacacahahacajbebebabebebabecscucucibmddcdchcbchchcbbydddsdc",
"aybaagahacahacacbebabebebababycqdhdncucjcsddbgcbchchchchbybfdjdd",
"ayazafahahacahahazbababebebabydddjdsdgdgcjcqcdchcbcbcbchbebedjds",
"awbebaaibabebabebabebebabebabydjdpdpdgdicsdabhbhccbhbkbxbvbvddds",
"aybvbebebebebebebebebebebebededrdkdsdscsddbybvbvbybybzbvbybzcsds",
"bnbtbdafbebababebebabebebyazbpdsdddocscxcqbibicncycocncybxbwdhds",
"bnbnbrbebdbabebebababacvaxbqddcpbzcqcxbebebebvdmdmdldldmcybvcsds",
"bnbnbcbebebabebabebfclaxbqdgcxcpcscqbebibvbibvdmdldmdmdmcnbzddds",
"bnbnbnbtbebubabebeddaybqdqdfcpcscqbybibabybybjdmdmdmdmdldbbjdads",
"bnbnbnbnbqbpbdbebeadcldncrcqcsbzbebibvbvbvbfbvdmdmdldmdmcobvdhds",
"bnbnbnbnbnbnbucsafafbydcbzcqcpbebibebebybvbebydmdldldmdmcybvctds",
"bnbnbnbnbnbnbybeajcfcpbzcxcqbebebvbebybvbebybybwbybzbybybzbydhdd",
"bnbnbnbnbnctajafcadhckbebybybibvbybybfbvcqdsdsdsbzbzbzbzbvbzdkdd",
"bnbnbnbnbzaeajcadccpcqbububvbybvbebzbvbiddcxcpcpbybvbzbvbzcqdsbn",
"bnbnbncsaiafcfcpckcpbobnaybtbebvbvbebvbyddcmcocobqbvbybibycpddbn",
"bnbnbibeafcfdaclcxbubnbnbnbnbpbubvbzbvbzdnclclcpaybzbycacldsclbn",
"bncwbeafcgddcpcpckbnbnbnbnbnbtbpbibzbzbscsczclczaabzbzbvdedsbnbn",
"byajafcgcvcpcxbubnbnbnbnbnbnbnbnbrbybvcebzazbeawbibvbzcsdsbubnbn",
"afafcfcxclcpbubnbnbnbnbnbnbnbnbnbnbtcpbzbybvbvbzbybvdsdsckbnbnbn",
"afcfclclczbubnbnbnbnbnbnbnbnbnbnbnbnawbocvdddsdsdsdsdjclbnbnbnbn",
};
