/* XPM */
static char *pencil_blue_masked_xpm[] = {
/* width height ncolors chars_per_pixel */
"32 32 9 1",
/* colors */
"a c black",
"b c #2020ff",
"c c white",
"d c #3f4f60",
"e c red",
"f c #8a0808",
"g c yellow",
"h c #73250d",
"j c none",
/* pixels */
"jjjjjjjjjbcbdbbbbbbababjjjjjjjjj",
"jjjjjjjjjcbcdbbbbbbaabajjjjjjjjj",
"jjjjjjjjjbcbdbbbbbbababjjjjjjjjj",
"jjjjjjjjjcbcdbbbbbbaabajjjjjjjjj",
"jjjjjjjjjbcbdbbbbbbababjjjjjjjjj",
"jjjjjjjjjcbcdbbbbbbaabajjjjjjjjj",
"jjjjjjjjjbcbdbbbbbbababjjjjjjjjj",
"jjjjjjjjjcbcdbbbbbbaabajjjjjjjjj",
"jjjjjjjjjbcbdbbbbbbababjjjjjjjjj",
"jjjjjjjjjcbcdbbbbbbaabajjjjjjjjj",
"jjjjjjjjjbcbdbbbbbbababjjjjjjjjj",
"jjjjjjjjjcbcdbbbbbbaabajjjjjjjjj",
"jjjjjjjjjbcbabbbbbbababjjjjjjjjj",
"jjjjjjjjjcbaeabbbbjfabajjjjjjjjj",
"jjjjjjjjjbaegeabbahffabjjjjjjjjj",
"jjjjjjjjjjececeaahffffjjjjjjjjjj",
"jjjjjjjjjjgegegegfhfffjjjjjjjjjj",
"jjjjjjjjjjecececehffffjjjjjjjjjj",
"jjjjjjjjjjjegegegfhffjjjjjjjjjjj",
"jjjjjjjjjjjhececehfffjjjjjjjjjjj",
"jjjjjjjjjjjjgegegfhfjjjjjjjjjjjj",
"jjjjjjjjjjjjececehffjjjjjjjjjjjj",
"jjjjjjjjjjjjjegaaffjjjjjjjjjjjjj",
"jjjjjjjjjjjjjhaaaafjjjjjjjjjjjjj",
"jjjjjjjjjjjjjjaaaaajjjjjjjjjjjjj",
"jjjjjjjjjjjjjjcaaajjjjjjjjjjjjjj",
"jjjjjjjjjjjjjjjcaajjjjjjjjjjjjjj",
"jjjjjjjjjjjjjjjcaajjjjjjjjjjjjjj",
"jjjjjjjjjjjjjjjjajjjjjjjjjjjjjjj",
"jjjjjjjjjjjjjjjjajjjjjjjjjjjjjjj",
"jjjjjjjjjjjjjjjjjjjjjjjjjjjjjjjj",
"jjjjjjjjjjjjjjjjjjjjjjjjjjjjjjjj",
};
