/* XPM */
static char *photo_xpm[] = {
/* width height ncolors chars_per_pixel */
"31 26 14 1",
/* colors */
"a c white",
"b c yellow",
"c c #bbbbbb",
"d c #aaaaaa",
"e c #888888",
"f c #777777",
"g c #669999",
"h c #555555",
"i c #550000",
"j c #444444",
"k c #222222",
"l c #111111",
"m c none",
"n c black",
/* pixels */
"mmmmmmmmmmmmmmmmmmmmmmmmmmmhhmm",
"mmmnnnmmmmmmmmmmmmmmmmmmhhhhhmm",
"mmnnnnnmmmmmmmmmmmmmmmmkkkkkkkm",
"mmndfknmmmmmmmmmmmmmmmmkahhkkkm",
"mnnnnnnnnnnnnnnnnnnnnnnnnnnnnnm",
"ndehlndfffffffffffffffffffffffn",
"ndehlndjjjjjjjjjjjjjjjnnnnnnnjn",
"nnnnnndjjjjjfffffjjjjjnbbcccnln",
"nddddddjjjffnnnnnffjjjncfckfnln",
"njjjjjjjffnngggggnnfflnckffknln",
"njjjjjjjfnggnnnnnggnflnnnnnnnln",
"njjjjjjfnggniiiiinggnflllllllln",
"nfjjjjjfngnkcckkkkngnfljjjjjjln",
"nfjjjjfngniicckkkkingnfljjjjjln",
"nfjjjjfngnicckkkkkingnfljjjjjln",
"nfjjjjfngnicckkkkkingnfljjjjkln",
"nfjjjjfngnkkkkkkkkingnfljjjjkln",
"nfjjjjfngnkkkkkkkiiignfljjjjkln",
"nfjjjjjfngnikkkkiingnfljjjjjkln",
"nfjjjjjfnggniiiiinggnfljjjjjkln",
"nfjjjjjjfnggnnnnnggnfljjjjjjkln",
"nfjjjjjjffnngggggnnffljjjjkkkln",
"nfffjjjkkkffnnnnnffjjllllllllln",
"nnnnnnnnnnnnfffffnnnnnnnnnnnnnn",
"nddddddddeeeeeeeeehhhhhhhhnnnnn",
"mnnnnnnnnnnnnnnnnnnnnnnnnnnnnnm",
};
