/* XPM */
static char *setup_windows_xpm[] = {
/* width height ncolors chars_per_pixel */
"63 39 12 1",
/* colors */
"a c black",
"b c #810000",
"c c #C2C2C2",
"d c #818100",
"e c #810081",
"f c white",
"g c red",
"h c #007F7F",
"i c yellow",
"j c magenta",
"k c #AAAAAA",
"l c none",
/* pixels */
"lllllllllllllllllllllllllllllllllllllllllllllllllllllllllllllll",
"lllllllllllllllllllllllllllllllllllllllllllllllllllllllllllllll",
"lllllllllllllllllllllllllllllllllllllllllllllllllllllllllllllll",
"lllllllllllllllllllllllllllllllllllllllllllllllllllllllllllllll",
"lllllllllllllllllllllllllllllllllllllllllllllllllllllllllllllll",
"lllllllllllllllllllllllllllllllllllllllllllllllllllllllllllllll",
"lllllllllllllllllllllllllllllllllllllllllllllllllllllllllllllll",
"lllllllllllllllllllllllllllllllllllllllllllllllllllllllllllllll",
"lllllllllllllllllllllllllllllllllllllllllllllllllllllllllllllll",
"lllllllllllllllllllllllllllllllllllllllllllllllllllllllllllllll",
"lllllllllllllllllllllllllllllllllllllllllllllllllllllllllllllll",
"lllllllllllllllllllllllllllllllllllllllllllllllllllllllllllllll",
"lllllllllllllllllllllllllllllllllllllllllllllllllllllllllllllll",
"llaaaaaaaaaaaaaaaaaaaaallllllllllllllllllllllllllllllllllllllll",
"llahhhhhhhhhhhhhhhhhhhallllllllllllllllllllllllllllllllllllllll",
"llaaaaaaaaaaaaaaaaaaaaalllllllllaaaaaalllllaaaaaaaaaaaaaallllll",
"llakkkkkkkkkkkkkkkkkkkallllllllacccccaaaaaaacccccccccccccalllll",
"llakkkkkkkkkkkkkkkkkkkallllllllaiiiiiajgjgjaiiiiiiiiiiiiiaallll",
"llakkkkkkkkkkaaaakkkkkallllllllaiiiiiacccccaiiiiiiiiiiiiiagalll",
"llakkkkkkaaaacfcfaaaaaaaaaaaaaaaaaaaaajgjeaaaaaaaaaaaaaaaaialll",
"llakkkkkkacfcfcfcfcfcfcfcfcfcfcaiiiiiagjgaiiiiiiiiiiiiiiiigaall",
"llakkkkkkafcfcfcfcfcfcfcfcfcfcfadddddajgbaddddddddddddddddgalal",
"llakkkkkkaaaafcfcaaaaaaaaaaaaaaaaaaaaagebbaaaaaaaaaaaaaaaaeaall",
"llakkkkkkkkakaaaaakakaaalalalaladddddaegebbadddddddddddddagalal",
"llakkkkkkkkkakakakakakalalalalaadddddagegegadddddddddddddaalall",
"llakkkkkkkkkkkkkkkkkkkallllllllaiiiiiaaaaaaaiiiiiiiiiiiiialalal",
"llakkkkkkkkkkkkkkkkkkkalllllllllaaaaaaalalaaaaaaaaaaaaaaalalall",
"llakkkkkkkkkkkkkkkkkkkallllllllllalalalalalalalalalalalalalalll",
"llakkkkkkkkkkkkkkkkkkkalllllllllllalalalllllllalalalalalalallll",
"llaaaaaaaaaaaaaaaaaaaaallllllllllllllllllllllllllllllllllllllll",
"llakkkkkkkkkkkkkkkkkkkallllllllllllllllllllllllllllllllllllllll",
"llaaaaaaaaaaaaaaaaaaaaallllllllllllllllllllllllllllllllllllllll",
"lllllllllllllllllllllllllllllllllllllllllllllllllllllllllllllll",
"lllllllllllllllllllllllllllllllllllllllllllllllllllllllllllllll",
"lllllllllllllllllllllllllllllllllllllllllllllllllllllllllllllll",
"lllllllllllllllllllllllllllllllllllllllllllllllllllllllllllllll",
"lllllllllllllllllllllllllllllllllllllllllllllllllllllllllllllll",
"lllllllllllllllllllllllllllllllllllllllllllllllllllllllllllllll",
"lllllllllllllllllllllllllllllllllllllllllllllllllllllllllllllll",
};
