/* XPM */
static char *setup_menus_xpm[] = {
/* width height ncolors chars_per_pixel */
"63 39 14 1",
/* colors */
"a c black",
"b c #810000",
"c c #818100",
"d c #810081",
"e c #818181",
"f c #c2c2c2",
"g c red",
"h c yellow",
"i c magenta",
"j c white",
"k c #aaaaaa",
"l c #7d7d7d",
"m c black",
"n c none",
/* pixels */
"nnnnnnnnnnnnnnnnnnnnnnnnnnnnnnnnnnnnnnnnnnnnnnnnnnnnnnnnnnnnnnn",
"nnnnnnnnnnnnnnnnnnnnnnnnnnnnnnnnnnnnnnnnnnnnnnnnnnnnnnnnnnnnnnn",
"nnnnnnnnnnnnnnnnnnnnnnnnnnnnnnnnnnnnnnnnnnnnnnnnnnnnnnnnnnnnnnn",
"nnnnnnnnnnnnnnnnnnnnnnnnnnnnnnnnnnnnnnnnnnnnnnnnnnnnnnnnnnnnnnn",
"nnnnnnnnnnnnnnnnnnnnnnnnnnnnnnnnnnnnnnnnnnnnnnnnnnnnnnnnnnnnnnn",
"nnnnnnnnnnnnnnnnnnnnnnnnnnnnnnnnnnnnnnnnnnnnnnnnnnnnnnnnnnnnnnn",
"nnnnnnnnnnnnnnnnnnnnnnnnnnnnnnnnnnnnnnnnnnnnnnnnnnnnnnnnnnnnnnn",
"nnnnnnnnnnnnnnnnnnnnnnnnnnnnnnnnnnnnnnnnnnnnnnnnnnnnnnnnnnnnnnn",
"nnnnnnnnnnnnnnnnnnnnnnnnnnnnnnnnnnnnnnnnnnnnnnnnnnnnnnnnnnnnnnn",
"nnnnnnnnnnnnnnnnnnnnnnnnnnnnnnnnnnnnnnnnnnnnnnnnnnnnnnnnnnnnnnn",
"nnnnnnnnnnnnnnnnnnnnnnnnnnnnnnnnnnnnnnnnnnnnnnnnnnnnnnnnnnnnnnn",
"nnaaaaaaaaaaaaaaaaaaaaaannnnnnnnnnnnnnnnnnnnnnnnnnnnnnnnnnnnnnn",
"nnajjjjjjjjjjjjjjjjjjjkannnnnnnnnnnnnnnnnnnnnnnnnnnnnnnnnnnnnnn",
"nnajkkkkkkkkkkkkkkkkkklannnnnnnnnnnnnnnnnnnnnnnnnnnnnnnnnnnnnnn",
"nnajkkkkkkkkkkkkkkkkkklannnnnnnnnnnnnnnnnnnnnnnnnnnnnnnnnnnnnnn",
"nnajlllllllllllllllllllannnnnnnnaaaaaannnnnaaaaaaaaaaaaaannnnnn",
"nnajaaaaaaaaaaaaaaaaaalannnnnnnafffffaaaaaaafffffffffffffannnnn",
"nnajjjjjjjjjjjjjjjjjjjlannnnnnnahhhhhaigigiahhhhhhhhhhhhhaannnn",
"nnajkkkkkkkkkaaaakkkkklannnnnnnahhhhhafffffahhhhhhhhhhhhhagannn",
"nnajkkkkkaaaakjkjaaaaaaaaaaaaaaaaaaaaaigidaaaaaaaaaaaaaaaahannn",
"nnajlllllafjfjfjfjfjfjfjfjfjfjfahhhhhagigahhhhhhhhhhhhhhhhgaann",
"nnajaaaaaajfjfjfjfjfjfjfjfjfjfjacccccaigbaccccccccccccccccganan",
"nnajjjjjjaaaajfjfaaaaaaaaaaaaaaaaaaaaagdbbaaaaaaaaaaaaaaaadaann",
"nnajkkkkkkkakaaaaakakakananananacccccadgdbbacccccccccccccaganan",
"nnajkkkkkkkkakakakakakaaanananaacccccagdgdgacccccccccccccaanann",
"nnajllllllllllleeeellllannnnnnnahhhhhaaaaaaahhhhhhhhhhhhhananan",
"nnajaaaaaaaaaaaaaaaaaalannnnnnnnaaaaaaananaaaaaaaaaaaaaaananann",
"nnajjjjjjjjjjjjjjjjjjjlannnnnnnnnanananananananananananananannn",
"nnajkkkkkkkkkkkkkkkkkklannnnnnnnnnananannnnnnnananananananannnn",
"nnajkkkkkkkkkkkkkkkkkklannnnnnnnnnnnnnnnnnnnnnnnnnnnnnnnnnnnnnn",
"nnaklllllllllllllllllllannnnnnnnnnnnnnnnnnnnnnnnnnnnnnnnnnnnnnn",
"nnaaaaaaaaaaaaaaaaaaaaaannnnnnnnnnnnnnnnnnnnnnnnnnnnnnnnnnnnnnn",
"nnaaaaaaaaaaaaaaaaaaaaaannnnnnnnnnnnnnnnnnnnnnnnnnnnnnnnnnnnnnn",
"nnnnnnnnnnnnnnnnnnnnnnnnnnnnnnnnnnnnnnnnnnnnnnnnnnnnnnnnnnnnnnn",
"nnnnnnnnnnnnnnnnnnnnnnnnnnnnnnnnnnnnnnnnnnnnnnnnnnnnnnnnnnnnnnn",
"nnnnnnnnnnnnnnnnnnnnnnnnnnnnnnnnnnnnnnnnnnnnnnnnnnnnnnnnnnnnnnn",
"nnnnnnnnnnnnnnnnnnnnnnnnnnnnnnnnnnnnnnnnnnnnnnnnnnnnnnnnnnnnnnn",
"nnnnnnnnnnnnnnnnnnnnnnnnnnnnnnnnnnnnnnnnnnnnnnnnnnnnnnnnnnnnnnn",
"nnnnnnnnnnnnnnnnnnnnnnnnnnnnnnnnnnnnnnnnnnnnnnnnnnnnnnnnnnnnnnn",
};
