/* XPM */
static char *setup_generic_xpm[] = {
/* width height ncolors chars_per_pixel */
"63 39 11 1",
/* colors */
"a c black",
"b c #810000",
"c c #818100",
"d c #810081",
"e c #c2c2c2",
"f c red",
"g c yellow",
"h c magenta",
"i c white",
"j c black",
"k c none",
/* pixels */
"kkkkkkkkkkkkkkkkkkkkkkkkkkkkkkkkkkkkkkkkkkkkkkkkkkkkkkkkkkkkkkk",
"kkkkkkkkkkkkkkkkkkkkkkkkkkkkkkkkkkkkkkkkkkkkkkkkkkkkkkkkkkkkkkk",
"kkkkkkkkkkkkkkkkkkkkkkkkkkkkkkkkkkkkkkkkkkkkkkkkkkkkkkkkkkkkkkk",
"kkkkkkkkkkkkkkkkkkkkkkkkkkkkkkkkkkkkkkkkkkkkkkkkkkkkkkkkkkkkkkk",
"kkkkkkkkkkkkkkkkkkkkkkkkkkkkkkkkkkkkkkkkkkkkkkkkkkkkkkkkkkkkkkk",
"kkkkkkkkkkkkkkkkkkkkkkkkkkkkkkkkkkkkkkkkkkkkkkkkkkkkkkkkkkkkkkk",
"kkkkkkkkkkkkkkkkkkkkkkkkkkkkkkkkkkkkkkkkkkkkkkkkkkkkkkkkkkkkkkk",
"kkkkkkkkkkkkkkkkkkkkkkkkkkkkkkkkkkkkkkkkkkkkkkkkkkkkkkkkkkkkkkk",
"kkkkkkkkkkkkkkkkkkkkkkkkkkkkkkkkkkkkkkkkkkkkkkkkkkkkkkkkkkkkkkk",
"kkkkkkkkkkkkkkkkkkkkkkkkkkkkkkkkkkkkkkkkkkkkkkkkkkkkkkkkkkkkkkk",
"kkkkkkkkkkkkkkkkkkkkkkkkkkkkkkkkkkkkkkkkkkkkkkkkkkkkkkkkkkkkkkk",
"kkkkkkkkkkkkkkkkkkkkkkkkkkkkkkkkkkkkkkkkkkkkkkkkkkkkkkkkkkkkkkk",
"kkkkkkkkkkkkkkkkkkkkkkkkkkkkkkkkkkkkkkkkkkkkkkkkkkkkkkkkkkkkkkk",
"kkkkkkkkkkkkkkkkkkkkkkkkkkkkkkkkkkkkkkkkkkkkkkkkkkkkkkkkkkkkkkk",
"kkkkkkkkkkkkkkkkkkkkkkkkkkkkkkkkkkkkkkkkkkkkkkkkkkkkkkkkkkkkkkk",
"kkkkkkkkkkkkkkkkkkkkkkkkkkkkkkkkaaaaaakkkkkaaaaaaaaaaaaaakkkkkk",
"kkkkkkkkkkkkkkkkkkkkkkkkkkkkkkkaeeeeeaaaaaaaeeeeeeeeeeeeeakkkkk",
"kkkkkkkkkkkkkkkkkkkkkkkkkkkkkkkagggggahfhfhagggggggggggggaakkkk",
"kkkkkkkkkkkkkaaaakkkkkkkkkkkkkkagggggaeeeeeagggggggggggggafakkk",
"kkkkkkkkkaaaaeieiaaaaaaaaaaaaaaaaaaaaahfhdaaaaaaaaaaaaaaaagakkk",
"kkkkkkkkkaeieieieieieieieieieieagggggafhfaggggggggggggggggfaakk",
"kkkkkkkkkaieieieieieieieieieieiacccccahfbaccccccccccccccccfakak",
"kkkkkkkkkaaaaieieaaaaaaaaaaaaaaaaaaaaafdbbaaaaaaaaaaaaaaaadaakk",
"kkkkkkkkkkkakaaaaakakakakakakakacccccadfdbbacccccccccccccafakak",
"kkkkkkkkkkkkakakakakakakakakakaacccccafdfdfacccccccccccccaakakk",
"kkkkkkkkkkkkkkkakakkkkkkkkkkkkkagggggaaaaaaagggggggggggggakakak",
"kkkkkkkkkkkkkkkkkkkkkkkkkkkkkkkkaaaaaaakakaaaaaaaaaaaaaaakakakk",
"kkkkkkkkkkkkkkkkkkkkkkkkkkkkkkkkkakakakakakakakakakakakakakakkk",
"kkkkkkkkkkkkkkkkkkkkkkkkkkkkkkkkkkakakakkkkkkkakakakakakakakkkk",
"kkkkkkkkkkkkkkkkkkkkkkkkkkkkkkkkkkkkkkkkkkkkkkkkkkkkkkkkkkkkkkk",
"kkkkkkkkkkkkkkkkkkkkkkkkkkkkkkkkkkkkkkkkkkkkkkkkkkkkkkkkkkkkkkk",
"kkkkkkkkkkkkkkkkkkkkkkkkkkkkkkkkkkkkkkkkkkkkkkkkkkkkkkkkkkkkkkk",
"kkkkkkkkkkkkkkkkkkkkkkkkkkkkkkkkkkkkkkkkkkkkkkkkkkkkkkkkkkkkkkk",
"kkkkkkkkkkkkkkkkkkkkkkkkkkkkkkkkkkkkkkkkkkkkkkkkkkkkkkkkkkkkkkk",
"kkkkkkkkkkkkkkkkkkkkkkkkkkkkkkkkkkkkkkkkkkkkkkkkkkkkkkkkkkkkkkk",
"kkkkkkkkkkkkkkkkkkkkkkkkkkkkkkkkkkkkkkkkkkkkkkkkkkkkkkkkkkkkkkk",
"kkkkkkkkkkkkkkkkkkkkkkkkkkkkkkkkkkkkkkkkkkkkkkkkkkkkkkkkkkkkkkk",
"kkkkkkkkkkkkkkkkkkkkkkkkkkkkkkkkkkkkkkkkkkkkkkkkkkkkkkkkkkkkkkk",
"kkkkkkkkkkkkkkkkkkkkkkkkkkkkkkkkkkkkkkkkkkkkkkkkkkkkkkkkkkkkkkk",
};
