/* XPM */
static char * sound_off_xpm[] = {
"39 37 10 1",
"       c none s none m none",
".      c red",
"X      s bottomShadowColor     m black c #646464646464",
"o      s iconGray1     m white c #e1e1e1e1e1e1",
"O      s iconGray3     m white c #afafafafafaf",
"+      s iconGray7     m black c #4b4b4b4b4b4b",
"@      s iconColor2    m white c white",
"#      s iconGray5     m black c #7d7d7d7d7d7d",
"$      s iconGray8     m black c #323232323232",
"%      s topShadowColor        m white c #c8c8c8c8c8c8",
"                                       ",
"                                       ",
"                                       ",
"   ...                           ...   ",
"    ...           XXXX          ...    ",
"     ...          XoooX        ...     ",
"      ...         XoOOOX      ...      ",
"       ...        XO++OOX    ...       ",
"        ...       X@+#OOOX  ...        ",
"         ...      X@++OOOOX...         ",
"          ...     X@++@OOO...          ",
"           ...    X@+#@@O...X          ",
"    @@@@    ...   X@++@@...OXXXXXXXX   ",
"    OOO@@@   ...  XO+#@...OOOOOOOOOXX  ",
"    +++OOO@@@ ... XOO#...@@O+OOOOOO$%  ",
"      ++++OOO  ...XO+...@@@@@@@@@@@@%  ",
"         ++++   ...O...@O@O@+@O@O@O$%  ",
"                 .....@O@O@O+O@O@O@$%  ",
"  @@@@@@@@@@@@@@ X...+O@O@O@+@O@O@O$%  ",
"  OOOOOOOOOOOOOO .....@#@#@#+#@#@#@$%  ",
"  ++++++++++++++...O...@#@#@+@#@#@#$%  ",
"               ...@O+...@#@#+#@#@#@$%  ",
"         @@@@ ...XXO++...###+######$%  ",
"      @@@@OOO...  XO++#...##+######$%  ",
"    @@@OOO++...O  XO++##...#+#####$$%  ",
"    OOO+++ ...O+  XO++###...+$$$$$$%%  ",
"    ++++  ...O+   X+++####...%%%%%%%   ",
"         ...O+    X+++###++...         ",
"        ...O+     X+++##++$%...        ",
"       ...O+      X+++#++$%  ...       ",
"      ...O+       X+++++$%    ...      ",
"     ...O+        XO+++$%      ...     ",
"    ...O+         XO++$%        ...    ",
"   ... +          X$$$%          ...   ",
"                  X%%%                 ",
"                                       ",
"                                       "};
