/* XPM */
static char * sprayOpWide_xpm[] = {
"32 32 6 1",
" 	s None	c None",
".	c white",
"X	c #FFFF0000FFFF",
"o	c black",
"O	c #ADADADADADAD",
"+	c #5A5A1F1F9090",
"                      .  ...X.. ",
"                       X.X....X ",
"                     X.....X.XX ",
"                  X...X.X.X.X.. ",
"                  ..XX.X..X..XX ",
"         oo      XX...X....XXX. ",
"         ooO   X..X..XX...X...X ",
"         oooo X...XX...X.X.XX.X ",
"         ooO   X..X.XX.X.X...X. ",
"         oo      X.X.XX....X... ",
"        oooo      ..XX...X.X..X ",
"      oooOOooo     X..XX....X.. ",
"     ooOOOOOOoo      X...X.X..X ",
"     oOOOOOOOOo       X.X....X. ",
"     ooOOOOOOoo        X..XX... ",
"     oXooooooXo          X..X.X ",
"     oXXXXXXXXo          X.X.X. ",
"     o+XXXXXXXo             ..X ",
"     o+XXXXoooo             X.. ",
"     o++XXoo..o              X. ",
"     o++XXo...o               X ",
"     o++XXo...o                 ",
"     o++XXo...o                 ",
"     o+++Xo...o                 ",
"oooooo+++Xoo..oooooooooooooooooo",
"ooo..o+++XXoooo...ooo...ooo...oo",
"...ooo+++XXXXXoooo...ooo...ooo..",
"..oooo++++XXXXooo...ooo...ooo...",
"oo...oo+++XXXoo..ooo...ooo...ooo",
"o...oo.oooooo...ooo...ooo...ooo.",
".ooo...ooo...ooo...ooo...ooo...o",
"ooo...ooo...ooo...ooo...ooo...oo"};
