/* XPM */
static char *sprayOpWide_red_xpm[] = {
/* width height ncolors chars_per_pixel */
"32 32 6 1",
/* colors */
"a c black",
"b c white",
"c c #ADADAD",
"d c #5A5A1F",
"e c #FF7F7F",
"f c none",
/* pixels */
"ffffffffffffffffffffffbfffffefff",
"fffffffffffffffffffffffefeffffef",
"fffffffffffffffffffffefffffefeef",
"ffffffffffffffffffefffefefefefff",
"ffffffffffffffffffffeefeffeffeef",
"fffffffffaaffffffeefffeffffeeeff",
"fffffffffaacfffeffeffeefffefffef",
"fffffffffaaaafefffeefffefefeefef",
"fffffffffaacfffeffefeefefefffeff",
"fffffffffaaffffffefefeeffffeffff",
"ffffffffaaaaffffffffeefffefeffef",
"ffffffaaaccaaafffffeffeeffffefff",
"fffffaaccccccaaffffffefffefeffef",
"fffffaccccccccafffffffefeffffeff",
"fffffaaccccccaaffffffffeffeeffff",
"fffffaeaaaaaaeaffffffffffeffefef",
"fffffaeeeeeeeeaffffffffffefefeff",
"fffffadeeeeeeeafffffffffffffffef",
"fffffadeeeeaaaafffffffffffffefff",
"fffffaddeeaabbaffffffffffffffeff",
"fffffaddeeabbbafffffffffffffffef",
"fffffaddeeabbbafffffffffffffffff",
"fffffaddeeabbbafffffffffffffffff",
"fffffadddeabbbafffffffffffffffff",
"aaaaaadddeaabbaaaaaaaaaaaaaaaaaa",
"aaabbadddeeaaaabbbaaabbbaaabbbaa",
"bbbaaadddeeeeeaaaabbbaaabbbaaabb",
"bbaaaaddddeeeeaaabbbaaabbbaaabbb",
"aabbbaadddeeeaabbaaabbbaaabbbaaa",
"abbbaabaaaaaabbbaaabbbaaabbbaaab",
"baaabbbaaabbbaaabbbaaabbbaaabbba",
"aaabbbaaabbbaaabbbaaabbbaaabbbaa",
};
