/* XPM */
static char *sprayOpNormal_xpm[] = {
/* width height ncolors chars_per_pixel */
"32 32 4 1",
/* colors */
"a c black",
"b c #FF7F7F",
"c c #606060",
"d c none",
/* pixels */
"dddddddddddddddddddddddddddddddd",
"dddddddddddddbddddbbbbbbdddddddd",
"dddddddddddddddddbddddddbddddddd",
"dddddddddddbbdddbddddddddbdddddd",
"dddddddbbdbddddbddddddddddbddddd",
"ddddbbdddbdbddbdddddddddddbddddd",
"ddbddbddbbddbdbddddddddddddbdddd",
"dbdddbbdddbdddbddddddddddddbdddd",
"ddbddbdbbdbdddbddddddddddddbdddd",
"ddddbdbdbbddbdbddddddddddddbdddd",
"dddddddbbdbdddbdddddddddddbddddd",
"dddddddddbdbdddbddddddddddbddddd",
"ddddddddddddbdddbddddddddbdddddd",
"dddddddddddddddddbddddddbddddddd",
"ddddddddddddddddddbbbbbbdddddddd",
"dddddddddddddddddddddddddddddddd",
"ddddddddddddddddddddaaaddddddddd",
"ddddddddddddddddddcadddacddddddd",
"dddddddddddddddddccdddddccdddddd",
"dddddddddddddddddadddddddadddddd",
"ddddddddddddddddadddddddddaddddd",
"ddddddddddddddcadddddddddddacddd",
"dddddddddddaaacdddddddddddddcaaa",
"dddddddddddddddddddddddddddddddd",
"daddaddaaddaaaddadddaddaaddadddd",
"daadadaddadaddadaadaadaddadadddd",
"daadadaddadaddadadadadaddadadddd",
"dadaadaddadaaaddadddadaaaadadddd",
"dadaadaddadadaddadddadaddadadddd",
"daddaddaaddaddadadddadaddadaaaad",
"dddddddddddddddddddddddddddddddd",
"dddddddddddddddddddddddddddddddd",
};
