/* XPM */
static char * sprayOpThin_xpm[] = {
"32 32 6 1",
" 	s None	c None",
".	c #FFFF0000FFFF",
"X	c white",
"o	c black",
"O	c #ADADADADADAD",
"+	c #5A5A1F1F9090",
"                                ",
"                                ",
"                                ",
"                                ",
"                         .XXX.. ",
"         oo           .XXXX...X ",
"         ooO    .X.XX..XXX.XXX. ",
"         oooo .XXX..XXX.X.X..X. ",
"         ooO      .X..X.X.XXX.X ",
"         oo           .XXXX.XX. ",
"        oooo  X                 ",
"      oooOOoooX                 ",
"     ooOOOOOOoo                 ",
"     oOOOOOOOOo                 ",
"     ooOOOOOOoo                 ",
"     o.oooooo.o                 ",
"     o........o                 ",
"     o+.......o                 ",
"     o+....oooo                 ",
"     o++..ooXXo                 ",
"     o++..oXXXo                 ",
"     o++..oXXXo                 ",
"     o++..oXXXo                 ",
"     o+++.oXXXo                 ",
"oooooo+++.ooXXoooooooooooooooooo",
"oooXXo+++..ooooXXXoooXXXoooXXXoo",
"XXXooo+++.....ooooXXXoooXXXoooXX",
"XXoooo++++....oooXXXoooXXXoooXXX",
"ooXXXoo+++...ooXXoooXXXoooXXXooo",
"oXXXooXooooooXXXoooXXXoooXXXoooX",
"XoooXXXoooXXXoooXXXoooXXXoooXXXo",
"oooXXXoooXXXoooXXXoooXXXoooXXXoo"};
