/* XPM */
static char *vidcam_xpm[] = {
/* width height ncolors chars_per_pixel */
"39 50 57 1",
/* colors */
"a c black",
"b c #7F3F55",
"c c #FFDF55",
"d c #C0C0C0",
"e c #FFDFFF",
"f c #7F5F00",
"g c #A0A0A4",
"h c #FFFBF0",
"i c #7F5FAA",
"j c yellow",
"k c #FFFFAA",
"l c #7F7F55",
"m c #551F00",
"n c #7F9FAA",
"o c #553F55",
"p c #555F00",
"q c #D4BFAA",
"r c #555FAA",
"s c #AA5F55",
"t c #D4DF55",
"u c #D4DFFF",
"v c #AA7FAA",
"w c #CCCCFF",
"x c #AA9F55",
"y c #2A1F00",
"z c #AABF00",
"A c #808000",
"B c #AABFAA",
"C c #2A3F55",
"D c #7F3F00",
"E c #FFCCFF",
"F c #FFDFAA",
"G c #7F5F55",
"H c #FFFF55",
"I c white",
"J c #7F7F00",
"K c #7F7FAA",
"L c #551F55",
"M c #7F9F55",
"N c #808080",
"O c #553F00",
"P c #D49FAA",
"Q c #D4BF55",
"R c #555F55",
"S c #AA5F00",
"T c #D4BFFF",
"U c #2A0000",
"V c #D4DF00",
"W c #D4DFAA",
"X c #AA9F00",
"Y c #C0DCC0",
"Z c #AA9FAA",
"0 c #2A1F55",
"1 c #AABF55",
"2 c #AABFFF",
"3 c #2A3F00",
"4 c none",
/* pixels */
"44444yaaaaaaaR4444444444444444444444444",
"444ZaYYgNBBBqRC4CaN44444444444444444444",
"44gCNeNyoRooooNZaRRG4444444444444444444",
"4NRNIRoNRRRRRBhuaYgoRGGRGv4444444444444",
"4oouGaghueueuYYZaqIgayayaCZ444444444444",
"4RaaaaaaaaaaaaaaaYhYuYgwgyy444444444444",
"yNhuhhheuhuhuheYaZBZYwYBZRa44444444oaaa",
"aNheYuuhYYheYuhYagYgNNqNgGa4444444ylYNa",
"aNIYhgNBeeNBYqZBaNqGayCyCRg4RLoooRRuIYa",
"yNIYYRNBYBRYqgYYaGKCya0aayNNoCoo3aYIhZa",
"aNIZRGYYNGGYZZwZaCaoBNBCaCaaYhhIeaYeBla",
"yNIYuvYZgwYvBuYYaaoNZYuylIYauIIhuagYuZa",
"agIgqYqYqYuYYqqgZNRNYwYyNIYaqBBuqaguYga",
"aNhgIZYTuhlqwuhuIIuehgEyohYaZYquBagYega",
"yNIgZggqYgNgquhhhYYhYNY0yZNaBuuYgaZqYga",
"aNIBNgZYZNBNZhhYYZqugGYCyNNaNqqZNaZYYga",
"agIYZNgBYZYZBhhYqwYYZRwyyKlaRNNlNaNuwga",
"aNIgaaaaaaaZuuugqYquBGYCaaaaNNRKNaoBFga",
"yNIYYagGoYaZYZlNNvBgNgNao444yaaaaaNNnNa",
"aNIueguYghNZYYZYBNoaayaay0R4KGNlNN3ogNa",
"yNugqBgqYZuNgPYqZoRGNNNNNRoG444444G03Ca",
"oCRoRoyRoCGoCoNRoaNIIIIIIulag444444GayC",
"4GaaaaaaaaaaaaaaaaguYYBYYgoag4444444444",
"44RyIuZNlgRglNNRaulaNZGgNNNaZ4444444444",
"4Rohug3aaaaaaRZRNyggaaaaaay444444444444",
"RRYeNyoNGNGNGoCgNRGNGRNGGRN444444444444",
"yNINyCg444444g3RNgyC4444444444444444444",
"CoGCy444444444ZyNR0G4444444444444444444",
"4Ray44444444444ZaaN44444444444444444444",
"444444444444444444444444444444444444444",
"444444444444444444444444444444444444444",
"4444444444444444444byS44444444444444444",
"4444444444sf444444DXNifb444444444444444",
"4444444444fCG44444fckWo3f44444444444444",
"444444444yVkYay44OjhtcIHpaO444444444444",
"44444444yVhHHhj3OVI23yBIjc2aa4444444444",
"444444sOzkuppYOfQhH3oNytkkHYXfOD4444444",
"4444443xkkRorCoWHkHoooCckH1gtXpNs444444",
"44444ozkkjyNZaYIkjhYC3BhHQCUCQHhCaf4444",
"4444yYIkjIZCaaJWhhjhHHIjkNawaKkjhoD4444",
"4444alhhkjhtAaJXM1hhhkjhH1oao1Hhoa44444",
"4444aJx1qkIhxaypAAQ1ehkHkH1N1HWROaG4444",
"4444a3JAAYqhuROOppJf1WWHhkHkHWiapf44444",
"4444yyAAJAJ1hhHfayJJJJAYhIhjuRaJy444444",
"444444bayAAAAxkIuYaapAXXABhhCOpa4444444",
"444444444yypXAx1WIYayyyJAXMop3D44444444",
"444444444Gs3O3JAxBZRaaGfOpJyO3444444444",
"444444444444mOAfJfapf44byfJJy4444444444",
"44444444444444ya3AAa444444aa44444444444",
"44444444444444444ay44444444444444444444",
};
