#define write_width 32
#define write_height 32
static unsigned char write_bits[] = {
   0x00, 0x00, 0x00, 0x00, 0xfe, 0xff, 0xff, 0x03, 0x02, 0x00, 0x00, 0x04,
   0x02, 0x00, 0x00, 0x08, 0x02, 0x00, 0x00, 0x10, 0x02, 0x00, 0x00, 0x20,
   0x02, 0x00, 0x00, 0x40, 0x02, 0x00, 0x00, 0x40, 0x02, 0x00, 0x00, 0x40,
   0x02, 0x00, 0x00, 0x40, 0x02, 0x00, 0x00, 0x40, 0x02, 0x00, 0x00, 0x40,
   0x02, 0x00, 0x00, 0xc0, 0x02, 0x00, 0x00, 0xc0, 0x02, 0x00, 0x00, 0x60,
   0x72, 0xff, 0xfe, 0x70, 0x02, 0x00, 0x00, 0x58, 0x02, 0x00, 0x00, 0x4c,
   0x02, 0x00, 0x00, 0x4a, 0x02, 0x00, 0x00, 0x45, 0x02, 0x00, 0x00, 0x43,
   0xf2, 0xed, 0xfb, 0x40, 0x02, 0x00, 0x00, 0x40, 0x02, 0x00, 0x00, 0x40,
   0x02, 0x00, 0x00, 0x40, 0x02, 0x00, 0x00, 0x40, 0x02, 0x00, 0x00, 0x40,
   0x02, 0x00, 0x00, 0x40, 0x02, 0x00, 0x00, 0x40, 0x02, 0x00, 0x00, 0x40,
   0xfe, 0xff, 0xff, 0x7f, 0x00, 0x00, 0x00, 0x00};
