#define write_width 32
#define write_height 32
static unsigned char write_bits[] = {
   0x00, 0x00, 0x00, 0x00, 0xfe, 0xff, 0xff, 0x03, 0x02, 0x00, 0x00, 0x04,
   0x02, 0x00, 0x00, 0x08, 0x02, 0x00, 0xc0, 0x10, 0x02, 0x00, 0x60, 0x20,
   0x02, 0x00, 0x30, 0x40, 0x02, 0x00, 0x18, 0x40, 0x02, 0x00, 0x0c, 0x40,
   0x02, 0x00, 0x06, 0x40, 0x02, 0x00, 0x03, 0x40, 0x02, 0x80, 0x01, 0x40,
   0x02, 0x40, 0x01, 0x40, 0x02, 0xa0, 0x00, 0x40, 0x02, 0x60, 0x00, 0x40,
   0xf2, 0x1e, 0x00, 0x40, 0x02, 0x00, 0x00, 0x40, 0x02, 0x00, 0x00, 0x40,
   0x02, 0x00, 0x00, 0x40, 0x02, 0x00, 0x00, 0x40, 0x02, 0x00, 0x00, 0x40,
   0x02, 0x00, 0x00, 0x40, 0x02, 0x00, 0x00, 0x40, 0x02, 0x00, 0x00, 0x40,
   0x02, 0x00, 0x00, 0x40, 0x02, 0x00, 0x00, 0x40, 0x02, 0x00, 0x00, 0x40,
   0x02, 0x00, 0x00, 0x40, 0x02, 0x00, 0x00, 0x40, 0x02, 0x00, 0x00, 0x40,
   0xfe, 0xff, 0xff, 0x7f, 0x00, 0x00, 0x00, 0x00};
