#define write_width 32
#define write_height 32
static unsigned char write_bits[] = {
   0x00, 0x00, 0x00, 0x00, 0xfe, 0xff, 0xff, 0x03, 0x02, 0x00, 0x00, 0x04,
   0x02, 0x00, 0x00, 0x08, 0x02, 0x00, 0x00, 0x10, 0x02, 0x00, 0x00, 0x20,
   0x02, 0x00, 0x00, 0x40, 0x02, 0x00, 0x00, 0x40, 0x02, 0x00, 0x00, 0x40,
   0x02, 0x00, 0x00, 0x40, 0x02, 0x00, 0x00, 0x46, 0x02, 0x00, 0x00, 0x43,
   0x02, 0x00, 0x80, 0x41, 0x02, 0x00, 0xc0, 0x40, 0x02, 0x00, 0x60, 0x40,
   0x72, 0xff, 0xfe, 0x40, 0x02, 0x00, 0x18, 0x40, 0x02, 0x00, 0x0c, 0x40,
   0x02, 0x00, 0x0a, 0x40, 0x02, 0x00, 0x05, 0x40, 0x02, 0x00, 0x03, 0x40,
   0xf2, 0xed, 0x00, 0x40, 0x02, 0x00, 0x00, 0x40, 0x02, 0x00, 0x00, 0x40,
   0x02, 0x00, 0x00, 0x40, 0x02, 0x00, 0x00, 0x40, 0x02, 0x00, 0x00, 0x40,
   0x02, 0x00, 0x00, 0x40, 0x02, 0x00, 0x00, 0x40, 0x02, 0x00, 0x00, 0x40,
   0xfe, 0xff, 0xff, 0x7f, 0x00, 0x00, 0x00, 0x00};
