#define man2_width 32
#define man2_height 64
static char man2_bits[] = {
   0x00, 0x00, 0x00, 0x00, 0x00, 0x00, 0x00, 0x00, 0x00, 0x00, 0x00, 0x00,
   0x00, 0x00, 0x00, 0x00, 0x00, 0x00, 0x0b, 0x00, 0x00, 0x80, 0x7f, 0x00,
   0x00, 0xe0, 0x7f, 0x00, 0x00, 0x70, 0x60, 0x00, 0x00, 0x74, 0x20, 0x00,
   0x00, 0x18, 0x26, 0x00, 0x00, 0x1c, 0x26, 0x00, 0x00, 0x3c, 0x20, 0x00,
   0x00, 0x3c, 0x40, 0x00, 0x00, 0x16, 0x48, 0x00, 0x00, 0x06, 0x5a, 0x00,
   0x00, 0x0c, 0x26, 0x00, 0x00, 0x0c, 0x2c, 0x00, 0x00, 0x30, 0x10, 0x00,
   0x00, 0x60, 0x1f, 0x00, 0x00, 0xc0, 0x08, 0x00, 0x00, 0x40, 0x08, 0x00,
   0x00, 0xf0, 0x1f, 0x00, 0x00, 0x18, 0x24, 0x00, 0x00, 0x58, 0x24, 0x00,
   0x00, 0x5e, 0x24, 0x00, 0x00, 0x5a, 0x24, 0x00, 0x80, 0x49, 0x24, 0x00,
   0xc0, 0x48, 0x24, 0x00, 0x60, 0x48, 0x2c, 0x00, 0x30, 0x4c, 0x28, 0x00,
   0x30, 0x4e, 0x18, 0x00, 0x20, 0x4c, 0xf8, 0x01, 0x60, 0x48, 0xc0, 0x03,
   0xc0, 0x88, 0xc1, 0x02, 0x80, 0x0d, 0xc1, 0x02, 0x00, 0x0d, 0x7e, 0x03,
   0x00, 0x0e, 0xd0, 0x01, 0x00, 0x0c, 0x10, 0x00, 0x00, 0x08, 0x18, 0x00,
   0x00, 0x08, 0x08, 0x00, 0x00, 0xf4, 0x1f, 0x00, 0x00, 0x06, 0x10, 0x00,
   0x00, 0x86, 0x11, 0x00, 0x00, 0x82, 0x10, 0x00, 0x00, 0xc2, 0x10, 0x00,
   0x00, 0xc3, 0x20, 0x00, 0x00, 0xc1, 0x20, 0x00, 0x80, 0xc1, 0x20, 0x00,
   0x80, 0xe0, 0x20, 0x00, 0xc0, 0xa0, 0x20, 0x00, 0x60, 0xb0, 0x21, 0x00,
   0x20, 0x10, 0x21, 0x00, 0x38, 0x08, 0x23, 0x00, 0x04, 0x08, 0x42, 0x00,
   0x04, 0x0c, 0x86, 0x00, 0x8e, 0x03, 0x84, 0x00, 0x7e, 0x00, 0x84, 0x01,
   0x7b, 0x00, 0x04, 0x01, 0x31, 0x00, 0xfc, 0x01, 0x63, 0x00, 0x90, 0x00,
   0x44, 0x00, 0xf8, 0x07, 0x7c, 0x00, 0x08, 0x08, 0x00, 0x00, 0x08, 0x08,
   0x00, 0x00, 0xf8, 0x07};
