#define man3_width 32
#define man3_height 64
static char man3_bits[] = {
   0x00, 0x00, 0x00, 0x00, 0x00, 0x00, 0x00, 0x00, 0x00, 0x00, 0x00, 0x00,
   0x00, 0x00, 0x00, 0x00, 0x00, 0x00, 0x0b, 0x00, 0x00, 0x80, 0x7f, 0x00,
   0x00, 0xe0, 0x7f, 0x00, 0x00, 0x70, 0x60, 0x00, 0x00, 0x74, 0x20, 0x00,
   0x00, 0x18, 0x26, 0x00, 0x00, 0x1c, 0x26, 0x00, 0x00, 0x3c, 0x20, 0x00,
   0x00, 0x3c, 0x40, 0x00, 0x00, 0x16, 0x48, 0x00, 0x00, 0x06, 0x5a, 0x00,
   0x00, 0x0c, 0x26, 0x00, 0x00, 0x0c, 0x2c, 0x00, 0x00, 0x30, 0x10, 0x00,
   0x00, 0x60, 0x1f, 0x00, 0x00, 0xc0, 0x08, 0x00, 0x00, 0x40, 0x08, 0x00,
   0x00, 0xf0, 0x1f, 0x00, 0x00, 0x18, 0x21, 0x00, 0x00, 0x18, 0x21, 0x00,
   0x00, 0x0c, 0x21, 0x00, 0x00, 0x84, 0x21, 0x00, 0x00, 0x86, 0x20, 0x00,
   0x00, 0xc2, 0x20, 0x00, 0x00, 0x42, 0x20, 0x00, 0x00, 0x42, 0x20, 0x00,
   0x00, 0x42, 0x10, 0x00, 0x00, 0xc2, 0x10, 0x00, 0x00, 0x84, 0x11, 0x00,
   0x00, 0x84, 0x13, 0x00, 0x00, 0xc4, 0x12, 0x00, 0x00, 0x58, 0x14, 0x00,
   0x00, 0x78, 0x14, 0x00, 0x00, 0xc8, 0x17, 0x00, 0x00, 0x08, 0x18, 0x00,
   0x00, 0x08, 0x08, 0x00, 0x00, 0xf8, 0x1f, 0x00, 0x00, 0x08, 0x08, 0x00,
   0x00, 0x08, 0x10, 0x00, 0x00, 0x08, 0x20, 0x00, 0x00, 0x10, 0x40, 0x00,
   0x00, 0x70, 0x80, 0x00, 0x00, 0xc0, 0x80, 0x00, 0x00, 0x80, 0xc1, 0x00,
   0x00, 0xe0, 0x60, 0x00, 0x00, 0x30, 0x30, 0x00, 0x00, 0x1c, 0x18, 0x00,
   0x00, 0x26, 0x14, 0x00, 0x00, 0x42, 0x13, 0x00, 0x00, 0xc6, 0x10, 0x00,
   0x00, 0x04, 0x11, 0x00, 0x00, 0x8c, 0x31, 0x00, 0x00, 0x98, 0x20, 0x00,
   0x00, 0xe0, 0x20, 0x00, 0x00, 0x80, 0x1f, 0x00, 0x00, 0x80, 0x04, 0x00,
   0x00, 0xc0, 0x3f, 0x00, 0x00, 0x40, 0x40, 0x00, 0x00, 0x40, 0x40, 0x00,
   0x00, 0xc0, 0x3f, 0x00};
