#define man7_width 32
#define man7_height 64
static char man7_bits[] = {
   0x00, 0x00, 0x00, 0x00, 0x00, 0x00, 0x00, 0x00, 0x00, 0x00, 0x00, 0x00,
   0x00, 0x00, 0x00, 0x00, 0x00, 0x00, 0x0b, 0x00, 0x00, 0x80, 0x7f, 0x00,
   0x00, 0xe0, 0x7f, 0x00, 0x00, 0x70, 0x60, 0x00, 0x00, 0x74, 0x20, 0x00,
   0x00, 0x18, 0x26, 0x00, 0x00, 0x1c, 0x26, 0x00, 0x00, 0x3c, 0x20, 0x00,
   0x00, 0x3c, 0x40, 0x00, 0x00, 0x16, 0x48, 0x00, 0x00, 0x06, 0x5a, 0x00,
   0x00, 0x0c, 0x26, 0x00, 0x00, 0x0c, 0x2c, 0x00, 0x00, 0x30, 0x10, 0x00,
   0x00, 0x60, 0x1f, 0x00, 0x00, 0xc0, 0x08, 0x00, 0x00, 0x40, 0x08, 0x00,
   0x00, 0xf0, 0x1f, 0x00, 0x00, 0x10, 0x20, 0x00, 0x00, 0x10, 0x22, 0x00,
   0x00, 0x18, 0x22, 0x00, 0x00, 0x08, 0x22, 0x00, 0x00, 0x0c, 0x23, 0x00,
   0x00, 0x84, 0x21, 0x00, 0x00, 0x84, 0x20, 0x00, 0x00, 0x84, 0x20, 0x00,
   0x00, 0x84, 0x10, 0x00, 0x00, 0x84, 0x10, 0x00, 0x00, 0x84, 0x11, 0x00,
   0x00, 0xc4, 0x13, 0x00, 0x00, 0x64, 0x12, 0x00, 0x00, 0xac, 0x12, 0x00,
   0x00, 0x38, 0x12, 0x00, 0x00, 0xf8, 0x13, 0x00, 0x00, 0x08, 0x18, 0x00,
   0x00, 0x08, 0x08, 0x00, 0x00, 0xf8, 0x1f, 0x00, 0x00, 0x08, 0x18, 0x00,
   0x00, 0x08, 0x30, 0x00, 0x00, 0x08, 0x70, 0x00, 0x00, 0x18, 0xe0, 0x00,
   0x00, 0x20, 0xa0, 0x00, 0x00, 0xc0, 0xa0, 0x01, 0x00, 0x80, 0x20, 0x01,
   0x00, 0xe0, 0xe0, 0x00, 0x00, 0xb0, 0x60, 0x00, 0x00, 0x9c, 0x20, 0x00,
   0x00, 0xa6, 0x20, 0x00, 0x00, 0xc2, 0x20, 0x00, 0x00, 0xc6, 0x20, 0x00,
   0x00, 0x84, 0x20, 0x00, 0x00, 0x8c, 0x20, 0x00, 0x00, 0x98, 0x20, 0x00,
   0x00, 0xe0, 0x20, 0x00, 0x00, 0x80, 0x1f, 0x00, 0x00, 0x80, 0x04, 0x00,
   0x00, 0xc0, 0x3f, 0x00, 0x00, 0x40, 0x40, 0x00, 0x00, 0x40, 0x40, 0x00,
   0x00, 0xc0, 0x3f, 0x00};
