/* XPM */
static char * ljet3 [] = {
/* width height ncolors cpp [x_hot y_hot] */
"64 56 11 1 0 0",
/* colors */
" 	s none	m none	c none",
".	s bottomShadowColor	m black	c #646464646464",
"X	s iconColor2	m white	c white",
"o	s iconGray1	m white	c #e1e1e1e1e1e1",
"O	s iconGray2	m white	c #c8c8c8c8c8c8",
"+	s topShadowColor	m white	c #c8c8c8c8c8c8",
"@	s iconGray4	m white	c #969696969696",
"#	s iconGray3	m white	c #afafafafafaf",
"$	s iconGray7	m black	c #4b4b4b4b4b4b",
"%	s iconGray6	m black	c #646464646464",
"&	s iconGray5	m black	c #7d7d7d7d7d7d",
/* pixels */
"                                                                ",
"                                                                ",
"                                                                ",
"                                                                ",
"          ...............................                       ",
"          .XXXXXXXXXXXXXXXXXXXXXXXXXXXXXX ......                ",
"         ..XXXXoooooooooooooooooooooXXXXXOOOOOOO.+              ",
"         .XXXXX@OOOOOOOOOOOOOOOOOOO#oXXXXXOOOOOOO.+             ",
"        .@XXXXX$@@@@@@@@@@@@@@@@@@@@#XXXXXOOOOOOOO$+            ",
"        .XXXXX@$$$$$$$$$$$$$$$$$$$$$@oXXXXXOOOOOOOO$+           ",
"       .#XXXXXOO#@@@@@@@@@@@@@@@@@@@@#XXXXXXOoOoOoOo$+          ",
"       .#XXXXoOoooooooooooooooooooooo#oXXXXXooooooooo$+         ",
"      .OXXXXXXXXXXXXXXXXXXXXXXXXXXXXXXXXoooXXooooooooo$+        ",
"      .OXXXXXXXXXXXXXXXXXXXXXXXXXXXXXXXXooooXXooooooooo$+       ",
"     .@XXXXXXXXXXXXXXXXXXXXXXXXXXXXXXXXXXoooXXoooooooooo$+      ",
"     .XXXXXXXXXXXXXXXXXXXXXXXXXXXXXXXXXXXXXXXXXXXXXXXXXXX$+     ",
"     .ooooooooooooooooooooooooooooooooooooooooooooooooooo$+     ",
"     .XXXXXXXXXXXXXXXXXXXXXXXXXXXXXXXXXXXXXXXXXXXXXXXXXXX$+     ",
"     .oXoXoXoXoXoXoXoXoXoXoXoXoXoXoXoXoXoXXoXoXo#o#o#o#oX$+     ",
"     .###################################################$+     ",
"     .XoXoXoXoXoXoXoXoXoXoXoXoXoXoXoXoXoXo#XXXXXXXXXXXXoo$+     ",
"     .oXoXoXoXoXoXoXoXoXoXoXoXoXoXoXoXoXoX#X@@%$$$$$@X@oo$+     ",
"     .XoXoXoXoXoXoXoXoXoXoXoXoXoXoXoXoXoXo#X##%$$$$$#X@oo$+     ",
"     .oXoXoXo#oOoOoOoOoOoOoOoOoOoOoOoOo#oX#Xoooooooooo@oo$+     ",
"     .XoXoXoX#XoXoXoXoXoXoXoXoXoXoXoXoX#Xo#X&o&o&o&o&X@oo$+     ",
"     .#XoXoXo#oXoXoXoXoXoXoXoXoXoXoXoXo#oX#X#&#&#&#&#X@oO%+     ",
"     .ooXoXoX..........................oXooXXXXXXXXXXX@o@&+     ",
"     .#XoXoX#..XXXX..............XXXX..Xo@&@&@&@&@&@&@&@@++     ",
"      .OXOXo$@%X%&&@&@&&@&@@&@&@@&&%X%@&X@oOoOoOoOoOoOoO$++     ",
"      .oOoOOO@@@@@@@@@@@@@@@@@@@@@@@@@@%oOOoOoOoOoOoOoOo$+      ",
"      .OoOoO@#@#@#@#@#@#@#@#@#@#@#@#@#@%%ooOoOoOoOoOoOoO$+      ",
"      .oOo@o@@@@@@@@@@@@@@@@@@@@@@@@@@@@$oOoOoOoOoOoOoOo$+      ",
"      .OoOo@O@@@@@@@@@@@@@@@@@@@@@@@@@@@@%oOoOoOoOoOoOoO$+      ",
"      .oOo#%%%%%%%%%%%%%%%%%%%%%%%%%%%%%%%OoOoOoOoOoOoOo$+      ",
"      .OoO@$$$$$$$$$$$$$$$$$$$$$$$$$$$$$$$oOoOoOoOoOoOo#$+      ",
"      .oOo#%%%%%%%%%%%%%%%%%%%%%%%%%%%%%%%OoOoOoOoOoOoOo&+      ",
"      .#oO@oooooooooooooooooooooooooooooo%oOoOoOoOoOoOo%+       ",
"      .#Oo#oooooooooooooooooooooooooooooo%#############&+       ",
"       .oO###############################%oOoOoOoOoOoOo%+       ",
"       .##O$.............................%#############$+       ",
"       .oOoOo$$$.......................OoOoOoOoOoOoOoOo$+       ",
"       .####%%%%%##%%%%%%%%%%%%%%##%%%%################$+       ",
"       .oOoO@@@@@@@@@@@@@@@@@@@@@@@@@@@%oOoOoOoOoOoOoOo$+       ",
"       .###@@#@#@#@#@#@#@#@#@#@#@#@#@#@%%##############$+       ",
"       .oOo@#@@@@@@@@@@@@@@@@@@@@@@@@@@@$OoOoOoOoOoOoOo$+       ",
"       .##@#O@@@@@@@@@@@@@@@@@@@@@@@@@@@@%#############$+       ",
"       .oO#%%%%%%%%%%%%%%%%%%%%%%%%%%%%%%%oOoOoOoOoOoOo$+       ",
"       .###$$$$$$$$$$$$$$$$$$$$$$$$$$$$$$$#############$+       ",
"       .$$#%%%%%%%%%%%%%%%%%%%%%%%%%%%%%%%$$$$$$$$$$$$$$+       ",
"       .&&#oooooooooooooooooooooooooooooo%&&&&&&&&&&&&&++       ",
"       +$$#oooooooooooooooooooooooooooooo%$$$$$$$$$$$$$+        ",
"        ++###############################%+++++++++++++         ",
"           ..............................%                      ",
"            ++++++++++++++++++++++++++++++                      ",
"                                                                ",
"                                                                "};
/********************************************************/
/**   (c) Copyright Hewlett-Packard Company, 1992.     **/
/********************************************************/
