/* XPM */
static char *serve_http_xpm[] = {
/* width height ncolors chars_per_pixel */
"31 17 7 1",
/* colors */
"a c blue",
"b c #C6C3C6",
"c c black",
"d c white",
"e c #000084",
"f c #848284",
"g c none",
/* pixels */
"ggggggggggggggggggggggggggggggg",
"ggggggggggggggggggggggggggggggg",
"gggggggggggcdgcdcccccccccdcccdg",
"gggggggggggcdgcdggcddgcddgcdgcd",
"gggggggggggcdgcdggcdggcdggcdgcd",
"gggggggggggccccdggcdggcdggcccdg",
"eeeeeeeggggcddcdggcdggcdgdcddgg",
"aaaaaaacgggcdgcdggcdggcdggcdggg",
"aaaaaaacfffffffffgcdggcdggcdggg",
"eeeeeeecbddddddddfffggggggggggg",
"eeeeeeecbddddddddddffgggggggggg",
"eeeeeeecbddddddcdddddfggggggggg",
"eeeeeeecbbbdddddcccccgggggggggg",
"eeeeeeecccbbbddddfffccccggggggg",
"eeeeeeecggcbbbbddddddddbfgggggg",
"cccccccggggccffffffffffccgggggg",
"gggggggggggggccccccccccgggggggg",
};
