/* XPM */
static char *small_debug_red_xpm[] = {
/* width height ncolors chars_per_pixel */
"20 20 15 1",
/* colors */
"a c black",
"b c #F0FFFE",
"c c #9FFFF2",
"d c #800066",
"e c #9FB9BF",
"f c #006680",
"g c white",
"h c #5F453F",
"i c #A4A1A0",
"j c #9FECFF",
"k c #C0C0C0",
"l c #7FFFF9",
"m c #9F3F8C",
"n c #F0A6BB",
"o c none",
/* pixels */
"oooooooooooooooooooo",
"oooooooooooooooooooo",
"oooooohooooooooooooo",
"ooooooaoooohoooooooo",
"oooooiaiooohoooooooo",
"oohaaahahoaioooooooo",
"ooooiannahahohaooooo",
"ooooohnhmnnmaikhhooo",
"oohaoiamgbnnmhiooooo",
"ooooaahnbgbnnmaooooo",
"oooooihnnbdnnmhaoooo",
"ooooohamnnnhnmaihhoo",
"oooooaihmnnnanhioooo",
"ooooohoahmmmnahooooo",
"oooohooohahahhfooooo",
"ooooooooaioooooooooo",
"oooooooohooooooooooo",
"ooooooohoooooooooooo",
"oooooooooooooooooooo",
"oooooooooooooooooooo",
};
