/* XPM */
static char *small_copy_xpm[] = {
/* width height ncolors chars_per_pixel */
"20 20 18 1",
/* colors */
"a c #3F3F5F",
"b c #FFDF9F",
"c c #DFDFBF",
"d c #5F5F5F",
"e c #3F3F9F",
"f c white",
"g c #008080",
"h c #FFFBF0",
"i c #5F9F9F",
"j c #9F9F9F",
"k c #808080",
"l c #BFBF9F",
"m c #9FBFBF",
"n c #FFDF7F",
"o c #FFFF9F",
"p c #C0C0C0",
"q c #3F7F7F",
"r c none",
/* pixels */
"rrrrrrrrrrrrrrrrrrrr",
"rrrrrrrrrrrrrrrrrrrr",
"rrrrrrrrrrrrrrrrrrrr",
"rrkkkkkkkrrrrrrrrrrr",
"rrkbffffjarrrrrrrrrr",
"rrkffffkkkkkkkrrrrrr",
"rrkfqimkbffffkdrrrrr",
"rrkfffckfffffkbdrrrr",
"rrkfqimkfqimfkdddrrr",
"rrkfffckfffffffcdrrr",
"rrkfqimkfgiiimfcdrrr",
"rrkfffckfffffffcdrrr",
"rrkfqimkfgiiimfcdrrr",
"rrkfffckfffffffcdrrr",
"rrkppppkfgiiimfcdrrr",
"rrkdddkkfffffffcdrrr",
"rrrrrrrkpppppppcdrrr",
"rrrrrrrkdddddddddrrr",
"rrrrrrrrrrrrrrrrrrrr",
"rrrrrrrrrrrrrrrrrrrr",
};
