/* XPM */
static char *small_new_project_xpm[] = {
/* width height ncolors chars_per_pixel */
"20 20 33 1",
/* colors */
"a c black",
"b c #FFFBF0",
"c c #FFDB9C",
"d c #FFFF9F",
"e c #FFDF7F",
"f c #BFBF9F",
"g c #5A5D5A",
"h c #3F9FBF",
"i c #3F7F9F",
"j c #5F5F5F",
"k c #3F3F5F",
"l c #3F5FBF",
"m c #9F9F9F",
"n c #DEBA5A",
"o c #FFDF3F",
"p c #5F3F3F",
"q c #DFDF9F",
"r c #BF5F3F",
"s c #FFFF5F",
"t c #FFFB9C",
"u c white",
"v c #FFDF9F",
"w c #DFDFBF",
"x c #7FBFBF",
"y c #BFBFBF",
"z c #3F7FBF",
"A c #808080",
"B c #3F3FBF",
"C c #808000",
"D c #9F5F3F",
"E c #000080",
"F c #BF9F5F",
"G c none",
/* pixels */
"GGGGGGGGGGGGGGGGGGGG",
"GGGGGGGGGGGGGGGGGGGG",
"GGGGGGGGqFGGsDsGsDsG",
"GGGGGGGGFrFGGoGGGoGG",
"GGGGGGGGGFpAGGsDsGGG",
"GGGGGGGGGGkaAGGoGGGG",
"GGGGGGGGGGGkaAGGGGGG",
"GGGGGGCCCCGGkaAGGGGG",
"GGGGGkctcnkGGkaAGGGG",
"GGGajjjjjjjjAwkaAGGG",
"GGGamxxxxxhxhzwkaAGG",
"GGGGgxxxxhxhhziGkyGG",
"GGGGgxxxhxhhhzEGGGGG",
"GGGGgxxhxhhhzlEGGGGG",
"GGGGgxhxhhhzzlEGGGGG",
"GGGGghhhzzzllBEGGGGG",
"GGGGgEEEEEEEEEgGGGGG",
"GGGGGGGGGGGGGGGGGGGG",
"GGGGGGGGGGGGGGGGGGGG",
"GGGGGGGGGGGGGGGGGGGG",
};
