/* XPM */
static char *small_new_folder_xpm[] = {
/* width height ncolors chars_per_pixel */
"20 20 29 1",
/* colors */
"a c black",
"b c #7F3F7F",
"c c #FFFBF0",
"d c #BEBF7F",
"e c #FFFF9F",
"f c #FFDF7F",
"g c #BFBF9F",
"h c #DFBF3F",
"i c #BF9F3F",
"j c #FFDF3F",
"k c #5F5F5F",
"l c #3F3F5F",
"m c #5F3F3F",
"n c #DFDF9F",
"o c #BF5F3F",
"p c #FFFF5F",
"q c white",
"r c #FFDF9F",
"s c #DFDFBF",
"t c #FFDF5F",
"u c #DFBF5F",
"v c #9F9F3F",
"w c #808080",
"x c #5F5F3F",
"y c #808000",
"z c #BFBFBF",
"A c #9F5F3F",
"B c #BF9F5F",
"C c none",
/* pixels */
"CCCCCCCCCCCCCCCCCCCC",
"CCCCCCCCCCCCCCCCCCCC",
"CCCCCCCnBCCpApqpApCC",
"CCCCCCCBoBCCjqqqjCCC",
"CCCCCCCCBmwCCpApCCCC",
"CCCCCCCCClawCCjCCCCC",
"CCCCyyyyCClawCCCCCCC",
"CCCkretuxCClawCCCCCC",
"CCyvvddvvyvslawCCCCC",
"CCyqeqeqrqthslawCCCC",
"CCyeqeerrththslawCCC",
"CCyqeerrththhyClzCCC",
"CCyeerrththhhxCCCCCC",
"CCyerrththhhhxCCCCCC",
"CCyhhhhhhhhhixCCCCCC",
"CCvxxxxxxxxxxvCCCCCC",
"CCCCCCCCCCCCCCCCCCCC",
"CCCCCCCCCCCCCCCCCCCC",
"CCCCCCCCCCCCCCCCCCCC",
"CCCCCCCCCCCCCCCCCCCC",
};
