/* XPM */
static char *small_deleteItem_xpm[] = {
/* width height ncolors chars_per_pixel */
"20 20 20 1",
/* colors */
"a c black",
"b c #BFBFBF",
"c c #3F3F5F",
"d c #FFDF9F",
"e c #800000",
"f c #9F3F3F",
"g c #DF3F3F",
"h c white",
"i c #FFFBF0",
"j c #9F9F9F",
"k c red",
"l c #BFBF9F",
"m c #DF9F9F",
"n c #FFDF7F",
"o c #DFBFBF",
"p c #FFFF9F",
"q c #7F3F7F",
"r c #BF3F3F",
"s c #FF3F3F",
"t c none",
/* pixels */
"tttttttttttttttttttt",
"tttttttttttttttttttt",
"tttttttttttttttttttt",
"tttttttttttttttttttt",
"tttttttttttttttttttt",
"ttttttmemttoemtttttt",
"tttttmesemofkemttttt",
"tttttesskefkkgettttt",
"tttttesskkkkgrettttt",
"ttttttekkkkgretttttt",
"ttttttmekkkreotttttt",
"ttttttfkkkkkretttttt",
"tttttfkkgrgggrettttt",
"tttttekgrefrgrettttt",
"tttttteretteretttttt",
"tttttttettttettttttt",
"tttttttttttttttttttt",
"tttttttttttttttttttt",
"tttttttttttttttttttt",
"tttttttttttttttttttt",
};
