/* XPM */
static char *small_home_xpm[] = {
/* width height ncolors chars_per_pixel */
"20 20 17 1",
/* colors */
"a c #DF9FBF",
"b c #DFDFBF",
"c c #000080",
"d c #A6CAF0",
"e c white",
"f c #800080",
"g c #FFFBF0",
"h c #7B9E39",
"i c #BFBF9F",
"j c #3F3F7F",
"k c #C0DCC0",
"l c #3F5F9F",
"m c #3F7FBF",
"n c #7FBF3F",
"o c #9F5FBF",
"p c #BFBF7F",
"q c none",
/* pixels */
"qqqqqqqqqqqqqqqqqqqq",
"qqqqqqqqqqqqqqqqqqqq",
"qqqqqqqqqqqqqqqqqqqq",
"qqqqqqqqqmqqqqqqqqqq",
"qqqqqlcqmdcqqqqqqqqq",
"qqqqqlcmkcdcqqqqqqqq",
"qqqqqlmkcbcdcqqqqqqq",
"qqqqqmkcbgbcdcqqqqqq",
"qqqqmkcbgegbcdcqqqqq",
"qqqmkcbgeggbbcdcqqqq",
"qqqccbeggbbbiiccqqqq",
"qqqqjgggfffiiicqqqqq",
"qqqqjggbfaciipcqqqqq",
"qqqqjgbbfocippcqqqqq",
"qqqqjbbpfocpppcqqqqq",
"qqqqjccccccccccqqqqq",
"qqqhhhhhhhhhhhhhqqqq",
"qqnnnnnnnnnnnnnnnqqq",
"qqqqqqqqqqqqqqqqqqqq",
"qqqqqqqqqqqqqqqqqqqq",
};
