/* XPM */
static char *small_search_help_xpm[] = {
/* width height ncolors chars_per_pixel */
"20 20 20 1",
/* colors */
"a c black",
"b c #DFDF7F",
"c c #3F3F5F",
"d c #FFDF9F",
"e c #5F5F5F",
"f c #3F7F9F",
"g c white",
"h c #A6CAF0",
"i c #FFFBF0",
"j c #7F7F5F",
"k c #808080",
"l c #BFBF9F",
"m c #9FBFBF",
"n c #FFDF7F",
"o c #5F5F3F",
"p c #F1EFE2",
"q c #FFFF9F",
"r c #A0A0A4",
"s c #ECE9D8",
"t c none",
/* pixels */
"tttttttttttttttttttt",
"tttttttttttttttttttt",
"ttttlkkklttttttttttt",
"tttkkbqbkktttttttttt",
"ttlkqqqqqklttttftttt",
"ttkbqqqqqbjtttfhattt",
"ttkqqqqqqqottfighatt",
"ttkbqqqqqbetfighfatt",
"ttlkqqqqqefaighfattt",
"tttkoqqbefmiahfatttt",
"ttttkqoefmggiaattttt",
"ttlooetcffmgimattttt",
"tttltttnnrfmhfattttt",
"ttttttnqqnrffatttttt",
"tttttnqigqncattttttt",
"ttttnqigiqnctttttttt",
"tttnqigiidlttttttttt",
"ttnqiggidltttttttttt",
"tttttttttttttttttttt",
"tttttttttttttttttttt",
};
