/* XPM */
static char *small_pin_view_xpm[] = {
/* width height ncolors chars_per_pixel */
"20 20 19 1",
/* colors */
"a c #385898",
"b c #389898",
"c c #3878B8",
"d c #000080",
"e c white",
"f c #008080",
"g c #B8B8B8",
"h c #D8D8B8",
"i c #F8F8F0",
"j c #7B9E39",
"k c #808080",
"l c #585858",
"m c #383898",
"n c #387898",
"o c #3858B8",
"p c #7FBF3F",
"q c #585838",
"r c #385858",
"s c none",
/* pixels */
"ssssssssssssssssssss",
"ssssssssssssssssssss",
"ssssssssssssssssssss",
"ssssssssssssssabssss",
"sssddddddssssgndcsss",
"sssaifoodssssnamdnss",
"sssddddddssdnamdmdss",
"ssskhhhhlssnamdmgsss",
"ssskeeeelssgrdmgssss",
"ssskeeeelssqgadsssss",
"ssskeeeelsqsssssssss",
"ssskeeeelsssssssssss",
"ssskeeeelsssssssssss",
"ssskeeeelsssssssssss",
"ssskhhhhlsssssssssss",
"sssklllllsssssssssss",
"ssssssssssssssssssss",
"ssssssssssssssssssss",
"ssssssssssssssssssss",
"ssssssssssssssssssss",
};
