/* XPM */
static char *small_arrowDown_xpm[] = {
/* width height ncolors chars_per_pixel */
"20 20 15 1",
/* colors */
"a c #FFFF3F",
"b c #FFDF9F",
"c c #5F5F5F",
"d c #3F3F9F",
"e c #7F5F3F",
"f c white",
"g c #FFFBF0",
"h c #808080",
"i c #BFBF9F",
"j c #FFDF3F",
"k c #FFDF7F",
"l c #FFFF9F",
"m c #7F7F3F",
"n c #DF9F3F",
"o c none",
/* pixels */
"oooooooooooooooooooo",
"oooooooooooooooooooo",
"oooooooooooooooooooo",
"oooooooooooooooooooo",
"oooooooeeeeeoooooooo",
"ooooooomajneoooooooo",
"ooooooomljneoooooooo",
"ooooooomljneoooooooo",
"ooooooomljneoooooooo",
"ooooooomljneoooooooo",
"oooommmmljneeeeooooo",
"ooooomfllajjneoooooo",
"oooooomflajneooooooo",
"ooooooomflneoooooooo",
"oooooooomneooooooooo",
"oooooooooeoooooooooo",
"oooooooooooooooooooo",
"oooooooooooooooooooo",
"oooooooooooooooooooo",
"oooooooooooooooooooo",
};
