/* XPM */
static char *small_import_xpm[] = {
/* width height ncolors chars_per_pixel */
"20 20 18 1",
/* colors */
"a c #FFDF9F",
"b c #000080",
"c c #3F3F9F",
"d c white",
"e c #FFFBF0",
"f c #3F9FBF",
"g c #BFBF9F",
"h c #FFDF7F",
"i c #BFDFBF",
"j c #DFDF9F",
"k c #FFFF9F",
"l c #FFFF5F",
"m c #3F5F9F",
"n c #9F5F3F",
"o c #7F3F7F",
"p c #3F7FBF",
"q c #BF9F5F",
"r c none",
/* pixels */
"rrrrrrrrrrrrrrrrrrrr",
"rrrrrrrrrrrrrrrrrrrr",
"rrrrrrrrrrrrrrrrrrrr",
"rrrrrrrrrrrrrrrrrrrr",
"rrrrmirrrrrrrrrrrrrr",
"rrrrrcirrrrrrrrrrrrr",
"rrrrrrmirrrrrrrrrrrr",
"rrrrrrrcirrrrrrrrrrr",
"rrrrrrrrmirbrrrrrrrr",
"rrmmmcrrrpbbrrmmmcrr",
"rrmffcrrrbbbrrmffcrr",
"rrmfccrrbbbbrrmcfcrr",
"rrmfcrrrrrrrrrrmfcrr",
"rrmfcrrrrrrrrrrmfcrr",
"rrmfmmmmmmmmmmmmfcrr",
"rrmffffffffffffffcrr",
"rrmcccccccccccccccrr",
"rrrrrrrrrrrrrrrrrrrr",
"rrrrrrrrrrrrrrrrrrrr",
"rrrrrrrrrrrrrrrrrrrr",
};
