/* XPM */
static char *hp_xpm[] = {
/* width height ncolors chars_per_pixel */
"121 32 28 1",
/* colors */
"a c #F2F5FA",
"b c #F7F8FB",
"c c #9CB0D8",
"d c #2450A7",
"e c #CACFCE",
"f c #829BCD",
"g c #FEFDFE",
"h c #4B70AF",
"i c #EDEEED",
"j c #6A8FC6",
"k c #395973",
"l c #FBFBFC",
"m c #60788B",
"n c #FDFDFE",
"o c #E7E7E7",
"p c #FEFEFF",
"q c #E5EAF5",
"r c #CBD5EA",
"s c #F0F0F0",
"t c #EDF1F8",
"u c #B5C3E1",
"v c #F7F7F7",
"w c #03369A",
"x c #DAE1F0",
"y c #FBFCFD",
"z c white",
"A c #D9D8D5",
"B c #C8C9C4",
/* pixels */
"zzzzzzzzzzzzzzzzzzzzzzzzzzzzzzzzzzzzzzzzzzzzzzzzzzzzzzzzzzzzzzzzzzzzzzzzzzzzzzzzzzzzzzzzzzzzzzzzzzzzzzzzzzzzzzzzzzzzzzzzz",
"zzzzzzzzzzzzzzzzzzzzzzzzzzzzzzzzzzzzzzzzzzzzzzzzzzzzzzzzzzzzzzzzzzzzzzzzzzzzzzzzzzzzzzzzzzzzzzzzzzzzzzzzzzzzzzzzzzzzzzzzz",
"zzzzzzzzzzzzzzzzzzzzzzzzzzzzzzzzzzzzzzzzzzzzzzzzzzzzzzzzzzzzzzzzzzzzzzzzzzzzzzzzzzzzzzzzzzzzzzzzzzzzzzzzzzzzzzzzzzzzzzzzz",
"zzzzzzzzzzzzzzzzzzzzzzzzzzzzzzzzzzzzzzzzzzzzzzzzzzzzzzzzzzzzzzzzzzzzzzzzzzzzzzzzzzzzzzzzzzzzzzzzzzzzzzzzzzzzzzzzzzzzzzzzz",
"zzzzzzzzzzzzzzzzzzzzzzzzzzzzzzzzzzzzzzzzzzzzzzzzzzzzzzzzzzzzzzzzzzzzzzzzzzzzzzzzzzzzzzzzzzzzzzzzzzzzzzzzzzzzzzzzzzzzzzzzz",
"zzzzzzzzzzzzzzzzzzzzzzzzzzzzzzzzzzzzzzzzzzzzzzzzzzzzzzzzzzzzzzzzzzzzzzzzzzzzzzzzzzzzzzzzzzzzzzzzzzzzzzzzzzzzzzzzzzzzzzzzz",
"zzzzzicjfffffffffjuqffxcjjffffffffffjfrzzzzzqffizzzrfcagujjjfjjrxfcgztcjrzzrfctcctzzzznufjjfjjuvcjfffjjuicjfffjjrqcuzzzzz",
"zzzzzuhdddddddddddfedhrjwdddddddddddddfazzzzxdhxzzzudhtqmwdddwdcxdhtzxhdczzcdfqhhqzzzztjddddddfqjwdddddfxhwdddwdcxjczzzzz",
"zzzzzdwwwwwwwwwwwdrfwhxfhdwwwwwwwwwwwwduzzzzrddxzzzuwhtudwdddddcihdrzuwwjvbhwcxddqzzzzrdwddddwfijwwwwwwfqhwwwwdwcofuzzzzz",
"zzzzzdwwwwwwwwwwjxqhwcpgxuchwwwwwwwwwwwczzzzrddrbaacwhtuwhrruuuqzjwfgjwwdqxddxodhxzzzzewdcruuuxgArcddurxbrrfwhurqaxizzzzz",
"zzzzzwwwwwwwwwwcgzcwdxzzzzztfwwwwwwwwwwczzzzxdwhjhhhwhauwdmjjmctzuwhxhdddruwhgqddozzzzrddhjjjfizzzrddqzzzzzudhgzzzzzzzzzz",
"zzzzzdwwwwwwwwcgzajwjlzzzzzzgcwwwwwwwwwczzzzAdwddddwwhtudwddddjqzxddfdjfwfjwczxdhqzzzzrdwddddhxzzzrddxzzzzzuwhvzzzzzzzzzz",
"zzzzzwwwwwwwwjvzzxdwezzzzzzzzzfwwwwwwwwczzzzrddurrxcwhauwjxqqxtzzbjwdwcrddddqzxdhtzzzzrwdrqqxtzzzzrddqzzzzzuwjazzzzzzzzzz",
"zzzzzdwwwwwwdrzzpcwwjcrpxcfffrqhwwwwwwwczzzzrddxzzzuwhtcwhcucccubzcwwdethwwjgzxddfccfucddccccccazzrddxzzzzzuwhvzzzzzzzzzz",
"zzzzzwwwwwwwjlzzamwddwjtjwddwhqcwwwwwwwczzzzrddxzzzcwhtrdwwwwwwhtzxhwdxgfwwczzqhwwwwwdchwwwwwwdxzzrddxzzzzzcdhazzzzzzzzzz",
"zzzzzdwwwwwwfpzzrddcjwjxdwffwdqrdwwwwwwczzzzicctzzzxcuaguffffffugznrfuyzxcctzzgrcffffcqrcfffffcizzqccazzzzzxcugzzzzzzzzzz",
"zzzzzwwwwwwduzzgfwhxhwuuwdrjwfgqhwwwwwwczzzzznnzzzzzppzzznnnnnnpzzzznzzzzpnzzzzzpnnnnpzzpnnnnnpzzzznnzzzzzzpnpzzzzzzzzzzz",
"zzzzzdwwwwwdezzihwcuwdxjwfBdwuzihwwwwwwczzzzzzzzzzzzzzzzzzzzzzzzzzzzzzzzzzzzzzzzzzzzzzzzzzzzzzzzzzzzzzzzzzzzzzzzzzzzzzzzz",
"zzzzzwwwwwwduzzrwdrjwjxdwucwhqzqhwwwwwwczzzzzzzzzzzzzzzzzzzzzzzzzzzzzzzzzzzzzzzzzzzzzzzzzzzzzzzzzzzzzzzzzzzzzzzzzzzzzzzzz",
"zzzzzdwwwwwwczpfwjrdwecwhxhwjgzrdwwwwwwczzzzbxrrrrrxgzzzarrtzzzzzqruuurizgxrazzpxuxpzzxrxgzzzbxrrrrrxzzgxrrrrrrazzzzzzzzz",
"zzzzzwwwwwwwjlqdwcfwhqjwhjwdBzzcwwwwwwwczzzzxhddddddcgzzcddjazzzehdddddhrgjhrzpcddrzzxhdhuzzzxhddddwhcgtjddddddftzzzzzzzz",
"zzzzzdwwwwwwdxqmjrchuxdwdddfgzamwwwwwwwczzzzrdwhhhhwdrzxdddwczzthwhjjjdwfahwxzcdwctznfwdwhvzzrwwhhhhwdrthwhjhhdwczzzzzzzz",
"zzzzzwwwwwwwwfgttltqzcwdurxazzuwwwwwwwwczzzzrddrbaqjwczcwjuwhizxddrzzlrfuvhwccwduzzzxdduhwuzzrddxaathwcthdxggljwfyzzzzzzz",
"zzzzzdwwwwwwwdczzzzzxhwfzzzzzrdwwwwwwwwczzzzrddrttqhwuthdrnhwczrddxzzzznpthwdwwczzzzcwjzuwhazrddxblqjwcahdizzzcwjgzzzzzzz",
"zzzzzwwwwwwwwwdcgzzzuwwrzzzzrhwwwwwwwwwczzzzrdwddhdwdiuwdrijwjzrddxzzzzzzthwddwjazzihwfiuddrzrdwhhhdwdrahdqzzzfwjgzzzzzzz",
"zzzzzdwwwwwwwwwdfrnyjwhtznxcdwwwwwwwwwwczzzzxdwdhddhugjwwdddwdxoddxzzzqcrahdrudwftzudwdddwwfzrdwddddwhtthdqppnfwjlzzzzzzz",
"zzzzzdwwwwwwwwwwwdcxdwfrfjdwwwwwwwwwwwwuzzzzrddutqqtzudwjhhhdwfthwmccchwjahwrzrdwjqhwhhhhhwdxxwdrvtuwdxtkwjffjdwczzzzzzzz",
"zzzzzfddddddddddddfuhhrfddddddddddddddjqzzzzrhhxzzzzgfdftattrkhxuddddddhugjhrzzuhhuhhrvtaqjduxhhqzztjdxajddddddmxzzzzzzzz",
"zzzzzgxrArxrArxrrrtsrxgxerrxrxrxrxrxrAtzzzzzlrxbzzzzyxrazzzzzxrvnqrrrerxnnxrazzzxrqxqzzzzztrqgrxgzzgxxbnxrrrrrrtzzzzzzzzz",
"zzzzzzzzzzzzzzzzzzzzzzzzzzzzzzzzzzzzzzzzzzzzzzzzzzzzzzzzzzzzzzzzzzzzzzzzzzzzzzzzzzzzzzzzzzzzzzzzzzzzzzzzzzzzzzzzzzzzzzzzz",
"zzzzzzzzzzzzzzzzzzzzzzzzzzzzzzzzzzzzzzzzzzzzzzzzzzzzzzzzzzzzzzzzzzzzzzzzzzzzzzzzzzzzzzzzzzzzzzzzzzzzzzzzzzzzzzzzzzzzzzzzz",
"zzzzzzzzzzzzzzzzzzzzzzzzzzzzzzzzzzzzzzzzzzzzzzzzzzzzzzzzzzzzzzzzzzzzzzzzzzzzzzzzzzzzzzzzzzzzzzzzzzzzzzzzzzzzzzzzzzzzzzzzz",
};
