/* XPM */
static char *java2_xpm[] = {
/* width height ncolors chars_per_pixel */
"52 88 32 1",
/* colors */
"a c #E74E60",
"b c #8F82CD",
"c c #7B227B",
"d c #DF192F",
"e c #FBE2E5",
"f c #B8B0E0",
"g c #DE041A",
"h c #F08893",
"i c #F4ACB4",
"j c #B0346A",
"k c #863E90",
"l c #CA3459",
"m c #DDDBF1",
"n c #EE7A84",
"o c #F19AA4",
"p c #DD9FB6",
"q c #F8BFC4",
"r c #CCC8EA",
"s c #4638B4",
"t c #F1EBF4",
"u c #EB6B7A",
"v c #C90D34",
"w c #A19BDA",
"x c #E33448",
"y c #5B4CBB",
"z c #4F2CA4",
"A c #D05D7E",
"B c white",
"C c #796FC9",
"D c #E1CBE0",
"E c #7D5AB2",
"F c #F8CFD4",
/* pixels */
"BBBBBBBBBBBBBBBBBBBBBBBBBBBBBBBBBBBBBBBBBBBBBBBBBBBB",
"BBBBBBBBBBBBBBBBBBBBBBBBBBBBDeDBBBBBBBBBBBBBBBBBBBBB",
"BBBBBBBBBBBBBBBBBBBBBBBBBuxdxxaxaeBBBBBBBBBBBBBBBBBB",
"BBBBBBBBBBBBBBBBBBBBBBBudxhFeDeFaxnBBBBBBBBBBBBBBBBB",
"BBBBBBBBBBBBBBBBBiiDBBxdoBBBBBBBBFxhBBBBBBBBBBBBBBBB",
"BBBBBBBBBBBBBBFxdaoBBdxBBBBBBBBBBBBaFBBBBBBBBBBBBBBB",
"BBBBBBBBBBBBexgdoBBBaxBBBBBBBBBBBBBiuBBBBBBBBBBBBBBB",
"BBBBBBBBBBBudgaBBBBoxBFoBBBBBBBBBBBBotBBBBBBBBBBBBBB",
"BBBBBBBBBBaddnBBBBBxhBiaBBBBBBBBBBBBueBBBBBBBBBBBBBB",
"BBBBBBBBBuxaxBBBBBixBBoaBBBBBBBBBBBBueBBBBBBBBBBBBBB",
"BBBBBBBBndFdBBBBBBanBBunBBBBBBBBBBBBoeBBBBBBBBBBBBBB",
"BBBBBBBBdFaaBBBBBBxFBBaiBBBBBBBBBBBFuBBBBBBBBBBBBBBB",
"BBBBBBBauBxFBBBBBFaBBBxeBqBBBBBBBBBanBBBBBBBBBBBBBBB",
"BBBBBBedtFdBBBBBBFuBBoxBFaBBBBBBBBFdeBBBBBBBBBBBBBBB",
"BBBBBBuaBnxBBBBBBinBBxuBDxBBBBBBBBduBBxuBBBBBBBBBBBB",
"BBBBBBxiBauBBBBBBnoBFdBBFgxBBBBBBddBBagiBBBBBBBBBBBB",
"BBBBBFxBBanBBBBBBaqBuxBugdDnxtBBdgiBBgnBBBBBBBBBBBBB",
"BBBBBFxBBanBBBBBBaFBxhddxxxddoFddeBBdgFBBBBBBBBBBBBB",
"BBBBBFaBBnxBBBBBBaFBdgdBxgdBBBnxBBndgeBBBBBBBBBBBBBB",
"BBBBBFxBBFdBBBBBBxBuguBugaBiaaBBFxxdxBBBBBBBBBBBBBBB",
"BBBBBFxBBBahBBBBBxogxBudFFxxhFBhdhBdeBBBBBBBBBBBBBBB",
"BBBBBBxBBBFdhBBBBdddBhdehxhBBBudiBhxBBBBBBBBBBBBBBBB",
"BBBBBBxiBBBqxxuqFgddagxaaBBdnnxFBBhaBBBBBBBBBBBBBBBB",
"BBBBBBnaBBBBBhxxdgddgndxBBddodeBBBiaBBBBBBBBBBBBBBBB",
"BBBBBBBdFBBBBBBBxxBxxBxBBddBdiBBBBexBBBBBBBBBBBBBBBB",
"BBBBBBBhxBBBBBBBxdFgedoBadBauBBBBBBuaBBBBBBBBBBBBBBB",
"BBBBBBBBxxBBBBBBedxdadnhgiedBBBBBBBBdhBBBBBBBBBBBBBB",
"BBBBBBBBBxxiBBBBBiggdFigdBaaBBBBBBBBFxFBBBBBBBBBBBBB",
"BBBBBBBBBBndxunuxddggFBdaBxhBBBBBBBBBixBBBBBBBBBBBBB",
"BBBBBBBBBBBBoaxxaiBhgdxgqBnhBBBBBBBBBBnhBBBBBBBBBBBB",
"BBBBBBBBBBBBBBBBBBBBgxigxaiheBBBBBBBBBBiBBBBBBBBBBBB",
"BBBBBBBBBBBBBBBBBBBtxdhanoxuaiBBBBBBBBBBBBBBBBBBBBBB",
"BBBBBBBBBBBBBBBrrqfwzjkkzqBaiuhBBBBBBBrCyysssCtBBBBB",
"BBBBBBBBBBBmbCCCCfrtivqmnnBuFBiueBBBBbyyyssssssbBBBB",
"BBBBBBBBtbyCCbrtBtfwkcEbbAeuFBBhaBBtbsssssyssssskBBB",
"BBBBBBBwssCCCwffwbfflnFomkkzwqbkzEyCsssCbCtCsssCsbBB",
"BBBBBBBbyCssyyyysssszyyyyCszssssssbCsbBBBrCsfysBssBB",
"BBBBBBBBbCysCCCCyCyzEyCCyszCyCEjqBtymBBBBmssByyBCsBB",
"BBBBBBBBBrrCCbmBttjnrrrrrvpBBFgnBtfCkCbBBCsrBybBbsBB",
"BBBBBBBBtkCCsssCCkjrrmmmAlBBigaCsssswrtBBsbBfsBBfyBB",
"BBBBBBBBBBtmBtbyyyyCCCbEcbBuguBtrmtBBBBBCyBBCbBByfBB",
"BBBBBBBBBBBtfysCbbfBBBqgFBediBBBBBBBBBBbytBCsBByCBBB",
"BBBBBBBBBBBwssCtBBBBBBnuBBBBtrqbCbBBBBbCtBksmByyBBBB",
"BBBBBBBBBBBtybCssCCCCCCCCyCyCCCCfBBrmtbtBbCrBsyBBBBB",
"BBBBBBBBBBBBrsssCbbbbbbbbbbfffmrfkCCrBBBbCmrsyBBBBBB",
"BBBBBBBBBBBBCybCssCCCCCCCCCCCCCbfrrBBBBtbrCsCBBBBBBB",
"BBBBBBBBBBBtyffCfBBBBBBBBBBBBBrbCCBBBBBmCsymBBBBBBBB",
"BBBBBBBBBBBBrysssyCbbfbbbkCCyyCCwBBBfbCsCfBBBBBBBBBB",
"BBBBBBBBBBBBBksysssssssssCCCbbfwbCCtbCbtBBBBBBBBBBBB",
"BBBBBBBBBBBBBCCCysCCysyCCCCCyssssCrBBBBBBBBBBBBBBBBB",
"BBBBBBBBBmrrtBCsssssssyyyyyssssyfBBBBBBBBBBBBBBBBBBB",
"BBBBBtbyssyCrBBtysssyyyyysssyyCCqBBBBBBBBBBBtBBBBBBB",
"BBBrCssybtBBBBBBBtwCsssssssyCCCrmBBBBBBBBBBBbtBBBBBB",
"BBmsyfyrBBBBBBBBBBBBBBttBBBBBBBBBBBBBBBBBBBwsrBBBBBB",
"BBmyBBbsyCCbwqrtttBBBBBBBttttttttBBtBttrwCysCBBBBrBB",
"BCCysCtkbCCCCssysssssssssssssssssszsssssyCbtBBBtCCBB",
"BtCyssssssyysCyyyyyyCCCCCyyssssssssCCkfBBBBBrrkCCtBB",
"BBBBtfkCCsssssssssssszszssssssssysyssCsCCyyyCCftBBBB",
"BBBBBBBBBfysyCwmttBBtrffbbbbbCCCyysssssyCbfmBBBBBBBB",
"BBBBBBBBBBBrCyssyyyyCCCCCCCCCCCCCCbwrtBBBBBBBBBBBBBB",
"BBBBBBBBBBBBBBBBBBBBBBBBBBBBBBBBBBBBBBBBBBBBBBBBBBBB",
"BBBBBBBBBBBBBBBBBBBBBBBBBBBBBBBBBBBBBBBBBBBBBBBBBBBB",
"BBBBBugggggdFBBBBBBBBBBBBBBBBBBBBBBBBBBBBBBBBBBBBBBB",
"BBBBBBexggxBBBBBBBBBBBBBBBBBBBBBBBBBBBBBBBBBBBBBBBBB",
"BBBBBBBFggiBBBBBBBBBBBBBBBBBBBBBBBBBBBBBBBBBBBBBBBBB",
"BBBBBBBFggqBBBBBBBBuBBBquhhuoBBBBBiuhnnBBBqnBFuhnDBB",
"BBBBBBBeggqBBBBBBBagiBBixggdhBBBBBoxgduBBBggBehudeBB",
"BBBBBBBDggqBBBBBBBggxBBBBxgaBBBBBBBngeBBBqggoBBBFBBB",
"BBBBBBBeggqBBBBBBhdggBBBBeggBBBBBBBgxBBBBxggxBBBBBBB",
"BBBBBBBDggqBBBBBBdudgiBBBBdgnBBBBBogDBBBtdiggBBBBBBB",
"BBBBBBBeggqBBBBBFgBugaBBBBugdBBBBBdxBBBBudBdgFBBBBBB",
"BBBBBBBDggqBBBBBadBeggBBBBBggFBBBegFBBBBdnBngxBBBBBB",
"BBBBBBBeggqBBBBBdoBBdgiBBBBxgaBBBaxBBBBqgBBBggBBBBBB",
"BBBBBBBDggqBBBBFgnhhxgxBBBBFggBBBghBBBBadhhhggiBBBBB",
"BBBBBBBeggqBBBBagddddggBBBBBdghBndBBBBBdddddggxBBBBB",
"BBBBBBBDggqBBBBgoBBBBdgoBBBBogdBduBBBBogBBBBFggBBBBB",
"BBBBBBBeggqBBBngBBBBBagxBBBBBggudtBBBBdxBBBBBdgoBBBB",
"BBBBBBBFggqBBBddBBBBBFggBBBBBxggaBBBBFgoBBBBBagxBBBB",
"BBBBBBBFggFBBFgiBBBBBBdgiBBBBFggDBBBBagBBBBBBFggBBBB",
"BBBBBBBqggeehdgnFBBBBodggnDBBBgdBBBFuggoBBBBDhggxhBB",
"BBBBBBBoggBFaaaaiBBBBuauaaFBBBnnBBBiaaaaBBBBFaaaauBB",
"BBBBBBBhgdBBBBBBBBBBBBBBBBBBBBBBBBBBBBBBBBBBBBBBBBBB",
"BBBBBBBaghBBBBBBBBBBBBBBBBBBBBBBBBBBBBBBBBBBBBBBBBBB",
"BBBBBBBgdBBBBBBBBBBBBBBBBBBBBBBBBBBBBBBBBBBBBBBBBBBB",
"BBBxgdddeBBBBBBBBBBBBBBBBBBBBBBBBBBBBBBBBBBBBBBBBBBB",
"BBBdggxBBBBBBBBBBBBBBBBBBBBBBBBBBBBBBBBBBBBBBBBBBBBB",
"BBBBBBBBBBBBBBBBBBBBBBBBBBBBBBBBBBBBBBBBBBBBBBBBBBBB",
"BBBBBBBBBBBBBBBBBBBBBBBBBBBBBBBBBBBBBBBBBBBBBBBBBBBB",
};
