/* XPM */
static char *os-freebsd2_xpm[] = {
/* width height ncolors chars_per_pixel */
"111 33 157 2",
/* colors */
"aa c white",
"ab c #A5A5A5",
"ac c #ADADAD",
"ad c #B5B5B5",
"ae c #BDBDBD",
"af c #C6C6C6",
"ag c #CECECE",
"ah c #D6D6D6",
"ai c #DEDEDE",
"aj c #E7E7E7",
"ak c #8C8484",
"al c #E7D6D6",
"am c #BDA5A5",
"an c #736363",
"ao c #B59494",
"ap c #DEADAD",
"aq c #634A4A",
"ar c #C69494",
"as c #B57373",
"at c #DE8484",
"au c #AD5252",
"av c #D66363",
"aw c #E76363",
"ax c #CE4A4A",
"ay c #DE4A4A",
"az c #E74242",
"ba c #CE3939",
"bb c #FF524A",
"bc c #B53931",
"bd c #C6635A",
"be c #D69C94",
"bf c #A5635A",
"bg c #C66352",
"bh c #D68473",
"bi c #DEBDB5",
"bj c #945A42",
"bk c #CEBDB5",
"bl c #A5735A",
"bm c #947B6B",
"bn c #CEA58C",
"bo c #FFE7D6",
"bp c #9C6B4A",
"bq c #94735A",
"br c #E7D6C6",
"bs c #D6CEC6",
"bt c #BD9C73",
"bu c #BD9463",
"bv c #C6A573",
"bw c #BDB5A5",
"bx c #9C9484",
"by c #DECEAD",
"bz c #9C8C6B",
"ca c #EFE7D6",
"cb c #CEC6B5",
"cc c #ADA594",
"cd c #F7EFD6",
"ce c #EFE7CE",
"cf c #E7DEBD",
"cg c #EFD67B",
"ch c #BDA552",
"ci c #DED6B5",
"cj c #C6BD94",
"ck c #DED6AD",
"cl c #DECE7B",
"cm c #CEC694",
"cn c #EFEFE7",
"co c #F7F7EF",
"cp c #FFFFF7",
"cq c #BDBDB5",
"cr c #F7F7E7",
"cs c #FFFFEF",
"ct c #C6DEDE",
"cu c #ADBDC6",
"cv c #94B5CE",
"cw c #527B9C",
"cx c #94A5BD",
"cy c #738CAD",
"cz c #4A6384",
"da c #526384",
"db c #E7E7EF",
"dc c #CECED6",
"dd c #BDBDC6",
"de c #9C9CA5",
"df c #6B6B73",
"dg c #ADADBD",
"dh c #A5A5B5",
"di c #ADADC6",
"dj c #8C8CA5",
"dk c #525263",
"dl c #8C8CAD",
"dm c #63637B",
"dn c #7B7B9C",
"do c #5A5A73",
"dp c #7B7BA5",
"dq c #63638C",
"dr c #393952",
"ds c #424263",
"dt c #31314A",
"du c #4A4A73",
"dv c #292942",
"dw c #212139",
"dx c #635A94",
"dy c #423973",
"dz c #31295A",
"ea c #42396B",
"eb c #736B8C",
"ec c #524A6B",
"ed c #423163",
"ee c #7B7384",
"ef c #393142",
"eg c #181021",
"eh c #4A4252",
"ei c #292131",
"ej c #100818",
"ek c #635273",
"el c #635A6B",
"em c #42394A",
"en c #211829",
"eo c #BDB5BD",
"ep c #9C949C",
"eq c #8C848C",
"er c #7B737B",
"es c #6B636B",
"et c #948494",
"eu c #635263",
"ev c #524252",
"ew c #392939",
"ex c #080008",
"ey c #100010",
"ez c #52394A",
"fa c #CEBDC6",
"fb c #73636B",
"fc c #6B3952",
"fd c #391829",
"fe c #84737B",
"ff c #63525A",
"fg c #947B84",
"fh c #633142",
"fi c #7B4252",
"fj c #5A2131",
"fk c #945263",
"fl c #733142",
"fm c #84394A",
"fn c #732939",
"fo c #9C394A",
"fp c #A5737B",
"fq c #942939",
"fr c #8C525A",
"fs c #843942",
"ft c #A52939",
"fu c #B51021",
"fv c #7B2129",
"fw c #BD3942",
"fx c #CE2931",
"fy c #BD2129",
"fz c #FF424A",
"ga c black",
/* pixels */
"aaaaaaaaaaaaaaaaaaaaaaaaaaaaaaaaaaaaaaaaaaaaaaaaaaaaaaaaaaaaaaaaaaaaaaaaaaaaaaaaaaaaaaaaaaaaaaaaaaaaaaaaaaaaaaaaaaaaaaaaaaaaaaaaaaaaaaaaaaaaaaaaaaaaaaaaaaaaaaaaaaaaaaaaaaaaaaaaaaaaaaaaaaaaaaaacoeoaaaaaaaaaaaaaaaaaaaaaaaaaa",
"aaaaaaaaaaaaaaaaaaaaaaaaaaaaaaaaaaaaaaaaaaaaaaaaaaaaaaaaaaaaaaaaaaaaaaaaaaaaaaaaaaaaaaaaaaaaaaaaaaaaaaaaaaaaaaaaaaaaaaaaaaaaaaaaaaaaaaaaaaaaaaaaaaaaaaaaaaaaaaaaaaaaaaaaaaaaaaajfpaaaaaaaaaaaaaaaaeofvaaaaaaaaaaaaaaaaaaaaaaaa",
"aaaaaaaaaaaaaaaaaaaaaaaaaaaaaaaaaaaaaaaaaaaaaaaaaaaaaaaaaaaaaaaaaaaaaaaaaaaaaaaaaaaaaaaaaaaaaaaaaaaaaaaaaaaaaaaaaaaaaaaaaaaaaaaaaaaaaaaaaaaaaaaaaaaaaaaaaaaaaaaaaaaaaaaaaaaaaafhagaaaaaaaaaacocnaadbenfqaaaaaaaaaaaaaaaaaaaaaa",
"aaaaaaaaaaaaaaaaaaaaaaaaaaaaaaaaaaaaaaaaaaaaaaaaaaaaaaaaaaaaaaaaaaaaaaaaaaaaaaaaaaaaaaaaaaaaaaaaaaaaaaaaaaaaaaaaaaaaaaaaaaaaaaaaaaaaaaaaaaaaaaaaaaaaaaaaaaaaaaaaaaaaaaaaaaaaagfjaiaaaaaaagdkehflfkefdwftbeaaaaaaaaaaaaaaaaaaaa",
"aaaaaaaaaaaaaaaaaaaaaaaaaaaaaaaaaaaaaaaaaaaaaaaaaaaaaaaaaaaaaaaaaaaaaaaaaaaaaaaaaaaaaaaaaaaaaaaaaaaaaaaaaaaaaaaaaaaaaaaaaaaaaaaaaaaaaaaaaaaaaaaaaaaaaaaaaaaaaaaaaaaaaaaaaaaadsewaxalcoepeuefezbcfubafsfvapaaaaaaaaaaaaaaaaaaaa",
"aaaaaaaaaaaaaaaaaaaaaaaaaaaaaaaaaaaaaaaaaaaaaaaaaaaaaaaaaaaaaaaaaaaaaaaaaaaaaaaaaaaaaaaaaaaaaaaaaaaaaaaaaaaaaaaaaaaaaaaaaaaaaaaaaaaaaaaaaaaaaaaaaaaaaaaaaaaaaaaaaaaaaaaaaaaaetenfjfxfwfiflfhfqbiaraubsfsasaaaaaaaaaaaaaaaaaaaa",
"aaaaaaaaaaaaaaaaaaaaaaaaaaaaaaaaaaaaaaaaaaaaaaaaaaaaaaaaaaaaaaaaaaaaaaaaaaaaaaaaaaaaaaaaaaaaaaaaaaaaaaaaaaaaaaaaaaaaaaaaaaaaaaaaaaaaaaaaaaaaaaaaaaaaaaaaaaaaaaaaaaaaaaaaaaaaaaendweifnfhfhfqfoaiaabmbsamaoaaaaaaaaaaaaaaaaaaaa",
"aaaaaaaaaaaaaaaaaaaaaaaaaaaaaaaaaaaaaaaaaaaaaaaaaaaaaaaaaaaaaaaaaaaaaaaaaaaaaaaaaaaaaaaaaaaaaaaaaaaaaaaaaaaaaaaaaaaaaaaaaaaaaaaaaaaaaaaaaaaaaaaaaaaaaaaaaaaaaaaaaaaaaaaaaaaaaaagejdwenewfjbcfoahcoccfgbwbkaaaaaaaaaaaaaaaaaaaa",
"aaaaaaaaaaaaaaaaaaaaaaaaaaaaaaaaaaaaaaaaaaaaaaaaaaaaaaaaaaaaaaaaaaaaaaaaaaaaaaaaaaaaaaaaaaaaaaaaaaaaaaaaaaaaaaaaaaaaaaaaaaaaaaaaaaaaaaaaaaaaaaaaaaaaaaaaaaaaaaaaaaaaaaaaaaaaaaaaddegdveffcfyftctcodkemdwefaaaaaaaaaaaaaaaaaaaa",
"aaaaaaaaaaaaaaaaaaaaaaaaaaaaaaaaaaaaaaaaaaaaaaaaaaaaaaaaaaaaaaaaaaaaaaaaaaaaaaaaaaaaaaaaaaaaaaaaaaaaaaaaaaaaaaaaaaaaaaaaaaaaaaaaaaaaaaaaaaaaaaaaaaaaaaaaaaaaaaaaaaaaaaaaaaaaaaaaaacpdvefeffwfyaecodwejeifvapaaaaaaaaaaaaaaaaaa",
"aaaaaaaaaaaaaaaaaaaaaaaaaaaaaaaaaaaaaaaaaaaaaaaaaaaaaaaaaaaaaaaaaaaaaaaaaaaaaaaaaaaaaaaaaaaaaaaaaaaaaaaaaaaaaaaaaaaaaaaaaaaaaaaaaaaaaaaaaaaaaaaaaaaaaaaaaaaaaaaaaaaaaaaaaaaaaaaaaaaadvewewfmfxfrctdffjbaaxavaaaaaaaaaaaaaaaaaa",
"aaaaaaaaaaaaaaaaaaaaaaaaaaaaaaaaaaaaaaaaaaaaaaaaaaaaaaaaaaaaaaaaaaaaaaaaaaaaaaaaaaaaaaaaaaaaaaaaaaaaaaaaaaaaaaaaaaaaaaaaaaaaaaaaaaaaaaaaaaaaaaaaaaaaaaaaaaaaaaaaaaaaaaaaaaaaaaaaaaaaehdreffnfzazaxaudsaubdawcpaaaaaaaaaaaaaaaa",
"aaaaaaaaaaaaaaaaaaaaaaaaaaaaaaaaaaaaaaaaaaaaaaaaaaaaaaaaaaaaaaaaaaaaaaaaaaaaaaaaaaaaaaaaaaaaaaaaaaaaaaaaaaaaaaaaaaaaaaaaaaaaaaaaaaaaaaaaaaaaaaaaaaaaaaaaaaaaaaaaaabcaaaaaaaaaaaaaaaaeqemeveffwazfzfzayaufcaraaaabvcbaaaaaaaaaa",
"aaaaaaaaaaaaaaaaaaaaaaaaaaaaaaaaaaaaaaaaaaaaaaaaaaaaaaaaaaaaaaaaaaaaaaaaaaaaaaaaaaaaaaaaaaaaaaaaaaaaaaaaaaaaaaaaaaaaaaaaaaaaaaaaaaaaaaaaaaaaaaaaaaaaaaaaaaaaaaaafjasaaaaaaaaaaaaaaaaaaeqdvemefeffhfwaxfcaccoaaclbqbybkaaaaaaaa",
"aaaaaaaaaaaaaaaaaaaaaaaaaaaaaaaaaaaaaaaaaaaaaaaaaaaaaaaaaaaaaaaaaaaaaaaaaaaaaaaaaaaaaaaaaaaaaaaaaaaaaaaaaaaaaaaaaaaaaaaaaaaaaaaaaaaaaaaaaaaaaaaaaaaaaaaaaaaaaaambcbcaaaaaaaaaaaaaaaaaaaaeudwdsefdwfjemcqaaaaaacgbpchbraaaaaaaa",
"aaaaaaaaaaaaaaaaaaaaaaaaaaaaaaaaaaaaaaaaaaaaaaaaaaaaaaaaaaaaaaaaaaaaaaaaaaaaaaaaaaaaaaaaaaaaaaaaaaaaaaaaaaaaaaaaaaaaaaaaaaaaaaaaaaaaaaaaaaaaaaaaaaaaaaaaaaaaaaezfoaoaaaaaaaaaaaaaacpaacpadfcftfiezfdcfcrbnamafbubjbubvcrcscscs",
"aaaaaaaaaaaaaaaaaaaaaaaaaaaaaaaaaaaaaaaaaaaaaaaaaaaaaaaaaaaaaaaaaaaaaaaaaaaaaaaaaaaaaaaaaaaaaaaaaaaaaaaaaaaaaaaaaaaaaaaaaaaaaaaaaaaaaaaaaaaaaaaaaaaaaaaaaaaadjeubzfeaaaacpaacpcpcpaacpcddsbgfzfzayfqbhbpflfocecscrbrbtcdcscscs",
"aaaaaaaaaaaaaaaaaacoaceoadadadadadadaaaaaaaaaaaaaaaaaaaaaaaaaaaaaaaaaaaaaaaaaaaaaaaaaaaaaaaaaaaaaaaaaaagadadcqadadadcqadahaaaaaacoadadadadadadacaiaaaaadadeoererercqadcqcocpaaaacpcpcpcfeafifffifwfsewdtefbdcocscpcscscpcscscs",
"aaaaaaaaaaaaaaaaaaacgagagagagagagagaagaaaaaaaaaaaaaaaaaaaaaaaaaaaaaaaaaaaaaaaaaaaaaaaaaaaaaaaaaaaaaacpeigagagagagagagagagaewaaaggagagagagagagagaegaaajgagagagagagagagagagaaicpcpaacpaaeedkdsdrftayaxdwdtevatcdcscscpcscscscscs",
"aaaaaaaaaaaaaaaacoacgagagaevacepabadaaaaaaaaaaaaaaaaaaaaaaaaaaaaaaaaaaaaaaaaaaaaaaaaaaaaaaaaaaaaaaaacneigagaexetepakeggagagaaaengagagadfacababcqajcpahexgagaexetetffgagagaefcpaacpcpaabxelekdkfobbfzfhehfealcpcpcpcscscscscscs",
"aaaaaaaaaaaaaaaaaadfeyeygaeeaacpcnaaaaajehdkfeaieveufeaaaafeeveuefeweueveucoaaaaacdkfbdkefeuesdkacaadbeigaexegcdaiacewgaeyegabewexeyeyetajaiahaiaaaietegexexegcmbcepegexexeuaacpaacpcpakdtdrdrdrffbdffcacpcscpcscscscpcscscscs",
"aaaaaaaaaaaaaaaaaadfegegeyeeaacncnfaeoeteyeyejeyeyeyejaaeuexeyejevffeigaexegaaagexeyeyemffeheyeyexabcoewegegendcageteiejegemacewejegegeyenenenegevahepegegeyeifmftepegegeyesaacpcpaacpdkewfjdwehdsdvehcscpcscscpcscscscscscscs",
"aaaaaaaaaaaaaaaacpdfegenenenenenenegeeabeieneneheoagahaienenenehaiafelegenenepelegeneicqahepeienegehacemegenenegenenenenewafademegenenenenenenenejeqabeienendvcjbfepenenegeecpaacpceebaqfwfhemdteffwaucscpcpcscpcscpcscscscscs",
"aaaaaaaaaaaaaaaaaaeedwdvdwdkepepdeaeajetefdwdwdbaaaaaaaidvdwdwemeeesdrdwdweieteleidwdweedfeudvdwendkacehdwdvdvdfdfdfemdwdwdkadeuendwdwdwdwdwdvdvendfabewdwdwefcrcfepdvdweielabcqdeeweffhezdrduanayfzaxcrcpcscpcscpcscscscscscs",
"aaaaaaaaaaaaaaaacpeedtdtdwagaaaaaaaaaaetdrdvdtaaaaaaaaahemdtdtdtehdsehehdkdmepdfdtdtdtemdsdsehdkdoeqacdkdtefdraiahaceldvdtdradepdodsdkehdkehefdtdveqacdtdtdvehcocrepdtdtdvdmftanefememememdseafifoffaxbecscpcscpcscscpcscscscs",
"aaaaaaaaaaaaaaaaaaeedrdrdtaiaaaaaaaacpetdsdrdraaaaaaaaaidrdzdrdkaeafafafahcoafdodtdzdracbsaeafafcocoabdkdtdrdscocobwecdrdrdsaibsbsbsafaeaceedrdrdtebabdzdrdrdscocoepdrdrdtdfbobtduemdvdrdsdsbxciaddrfifzbicscpcscpcscscscscscs",
"aaaaaaaaaaaaaaaacpeqdseadzaiaaaaaaaacpetdsdsedcpaaaaaaaidudsdreadiddddddaedhadeedreadsdjafdddddddgddacdoeadseadedjdndudsdrduaaacdjdldedeeedodseadsacabeadsdsdudedjdmdseadzdjakdkczdrewefesckaacpcsehdrezfhcacpcdcecrcpcscscscs",
"aaaaaaaaaaaaaaaaaaeedududoaiaaaaaaaacpeedudqdqcoaaaaaacnetdodududududududqdnaaaidmdududududududxdoaicndududududueadsdudqetaaaaeqdreaeaeaeadududodcaaagdududududyeadududqdecodtdsdsfffiffcpcpcpcpcpadeaezbfblblekcncpcscscscscs",
"aaaaaaaaaaaaaaaacodbajcoaaaaaaaaaaaaaadbajcoaaaaaaaaaaaacocncncocococncnaaaaaacococncncncocncocoaaaacncncncndbdbcncncncoaaaaaadbcncncodbcodbcoaaaaaacodbcncncncnajcncnaaaacodadseveuaqezagcpcpcpcpcoczehffanancwcvcncscscscscs",
"aaaaaaaaaaaaaaaaaaaaaaaaaaaaaaaaaaaaaaaaaaaaaaaaaaaaaaaaaaaaaaaaaaaaaaaaaaaaaaaaaaaaaaaaaaaaaaaaaaaaaaaaaaaaaaaaaaaaaaaaaaaaaaaaaaaaaaaaaaaaaaaaaaaaaaaaaaaaaaaaaaaaaacpaaaacocyczdkfcevbkcpcpcpcpcrehdkduczcycuajcpcscpcscscs",
"aaaaaaaaaaaaaaaaaaaaaaaaaaaaaaaaaaaaaaaaaaaaaaaaaaaaaaaaaaaaaaaaaaaaaaaaaaaaaaaaaaaaaaaaaaaaaaaaaaaaaaaaaaaaaaaaaaaaaaaaaaaaaaaaaaaaaaaaaaaaaaaaaaaaaaaaaaaaaaaaaaaaaaaaaacpaacodicxdadpctcpcpcpcpaiczdacwahcscpcscscscscscscs",
"aaaaaaaaaaaaaaaaaaaaaaaaaaaaaaaaaaaaaaaaaaaaaaaaaaaaaaaaaaaaaaaaaaaaaaaaaaaaaaaaaaaaaaaaaaaaaaaaaaaaaaaaaaaaaaaaaaaaaaaaaaaaaaaaaaaaaaaaaaaaaaaaaaaaaaaaaaaaaaaaaaaaaacpaacpaacpaacpcucycwcwdicncpcpcncpcpcpcpcpcscpcscscscscs",
"aaaaaaaaaaaaaaaaaaaaaaaaaaaaaaaaaaaaaaaaaaaaaaaaaaaaaaaaaaaaaaaaaaaaaaaaaaaaaaaaaaaaaaaaaaaaaaaaaaaaaaaaaaaaaaaaaaaaaaaaaaaaaaaaaaaaaaaaaaaaaaaaaaaaaaaaaaaaaaaaaacpaaaacpaacpaacpcpaaaacpcococpcpcpcpcpcscpcscscpcscscpcscscs",
};
