/* XPM */
static char *os-freebsd_xpm[] = {
/* width height ncolors chars_per_pixel */
"48 48 125 2",
/* colors */
"aa c white",
"ab c #181818",
"ac c #212121",
"ad c #292929",
"ae c #9C9C9C",
"af c #ADADAD",
"ag c #B5B5B5",
"ah c #E7E7E7",
"ai c #EFEFEF",
"aj c #F7F7F7",
"ak c #EFE7E7",
"al c #D6CECE",
"am c #E7CECE",
"an c #BDA5A5",
"ao c #EFCECE",
"ap c #D6A5A5",
"aq c #E7EFEF",
"ar c #D6EFEF",
"as c #BDE7EF",
"at c #B5D6DE",
"au c #A5C6CE",
"av c #9CD6E7",
"aw c #A5CEDE",
"ax c #A5C6D6",
"ay c #73B5DE",
"az c #84BDE7",
"ba c #5A9CCE",
"bb c #428CC6",
"bc c #6BA5D6",
"bd c #29425A",
"be c #4A94D6",
"bf c #9CB5CE",
"bg c #84A5C6",
"bh c #425A73",
"bi c #39638C",
"bj c #427BB5",
"bk c #7394BD",
"bl c #4A73A5",
"bm c #94A5BD",
"bn c #6B84A5",
"bo c #294263",
"bp c #ADBDD6",
"bq c #7B8494",
"br c #A5ADBD",
"bs c #ADB5CE",
"bt c #6B7394",
"bu c #CECED6",
"bv c #A5A5AD",
"bw c #313139",
"bx c #737394",
"by c #7B7394",
"bz c #635A73",
"ca c #736B7B",
"cb c #6B6373",
"cc c #4A3952",
"cd c #CEC6CE",
"ce c #DED6DE",
"cf c #BDB5BD",
"cg c #ADA5AD",
"ch c #948C94",
"ci c #847B84",
"cj c #524A52",
"ck c #393139",
"cl c #5A3952",
"cm c #6B5263",
"cn c #4A3142",
"co c #7B6373",
"cp c #846B7B",
"cq c #7B5A6B",
"cr c #392931",
"cs c #312129",
"ct c #634252",
"cu c #9C7384",
"cv c #5A3142",
"cw c #946B7B",
"cx c #D6BDC6",
"cy c #947B84",
"cz c #523942",
"da c #9C848C",
"db c #EFD6DE",
"dc c #AD949C",
"dd c #634A52",
"de c #422931",
"df c #734252",
"dg c #8C5263",
"dh c #5A3942",
"di c #D6B5BD",
"dj c #945263",
"dk c #844252",
"dl c #734A52",
"dm c #6B424A",
"dn c #5A3139",
"do c #A55263",
"dp c #9C4A5A",
"dq c #944252",
"dr c #8C394A",
"ds c #CE9CA5",
"dt c #6B3942",
"du c #A54A5A",
"dv c #94394A",
"dw c #DEADB5",
"dx c #733942",
"dy c #BD5263",
"dz c #A54252",
"ea c #CE949C",
"eb c #A56B73",
"ec c #B5737B",
"ed c #733139",
"ee c #BD4A5A",
"ef c #E75A6B",
"eg c #BD4252",
"eh c #CE848C",
"ei c #B56B73",
"ej c #D67B84",
"ek c #CE394A",
"el c #C6636B",
"em c #AD3942",
"en c #EF4252",
"eo c #EF394A",
"ep c #EF3142",
"eq c #D62939",
"er c #FF2939",
"es c #DE636B",
"et c #D64A52",
"eu c #DE3942",
/* pixels */
"aaaaaaaaaaaaaaaaaaaaaaaaaaaaaaaaaaaaaaaaaaaaaaaaaaaaaaaaajbuaaaaaaaaaaaaaaaaaaaaaaaaaaaaaaaaaaaa",
"aaaaaaaaaaaaaaaaaaaaaaaaaaaaaaaaaaaaaaaaaaaaaaaaaaaaaaaaaabvdaceaaaaaaaaaaaaaaaaaaaaaaaaaaaaaaaa",
"aaaaaaaaaaaaaaaaaaaaaaaaaaaaaaaaaianceaaaaaaaaaaaaaaaaaaaaaachdgagaaaaaaaaaaaaaaaaaaaaaaaaaaaaaa",
"aaaaaaaaaaaaaaaaaaaaaaaaaaaaaaajdaecaaaaaaaaaaaaaaaaaaaaaaaaahcododsaaaaaaaaaaaaaaaaaaaaaaaaaaaa",
"aaaaaaaaaaaaaaaaaaaaaaaaaaaaaabvdpdiaaaaaaaaaaaaajcdcfcdceaaajcadldydwaaaaaaaaaaaaaaaaaaaaaaaaaa",
"aaaaaaaaaaaaaaaaaaaaaaaaaaaabucmdzdbaaaaaaaabudacqcjdhdgelcwcicjdmeeesaiaaaaaaaaaaaaaaaaaaaaaaaa",
"aaaaaaaaaaaaaaaaaaaaaaaaaaaabqczdudiaaaaaaaeczcrdededmdzdududqdudldyeodwaaaaaaaaaaaaaaaaaaaaaaaa",
"aaaaaaaaaaaaaaaaaaaaaaaaaaajcmcndregehcxdcdhdecvdncneeeselesehapeldyetapaaaaaaaaaaaaaaaaaaaaaaaa",
"aaaaaaaaaaaaaaaaaaaaaaaaaaajcbcsdedzepekeedfdxdfdxdvejahakehapaaaoeidycxaaaaaaaaaaaaaaaaaaaaaaaa",
"aaaaaaaaaaaaaaaaaaaaaaaaaaaadcdedectduegeedudkdkdodydwaaaaajeaaiaadiecahaaaaaaaaaaaaaaaaaaaaaaaa",
"aaaaaaaaaaaaaaaaaaaaaaaaaaaaceccckcncldfdldkdjdpeeefaoaaaaaaamaoaaajdcahaaaaaaaaaaaaaaaaaaaaaaaa",
"aaaaaaaaaaaaaaaaaaaaaaaaaaaaaacfctcsdedhcjcndldqeeefdbaaaaaaahagahascfalaaaaaaaaaaaaaaaaaaaaaaaa",
"aaaaaaaaaaaaaaaaaaaaaaaaaaaaaaaacdctcsdndncndhdjetendbaaaaaubgaebvblbqanaaaaaaaaaaaaaaaaaaaaaaaa",
"aaaaaaaaaaaaaaaaaaaaaaaaaaaaaaaaaacecqdndndedhdjeeendiaaaabgbicjcmbwcccwahaaaaaaaaaaaaaaaaaaaaaa",
"aaaaaaaaaaaaaaaaaaaaaaaaaaaaaaaaaaaaahdddecndndleeeteaaaaabgbocldgczdpenecajaaaaaaaaaaaaaaaaaaaa",
"aaaaaaaaaaaaaaaaaaaaaaaaaaaaaaaaaaaaahdddedeczdkdueeeialaacebhcodyeueeeueudiaaaaaaaaaaaaaaaaaaaa",
"aaaaaaaaaaaaaaaaaaaaaaaaaaaaaaaaaaaaajdddedhcndhdpdzeedoeheadlcteeeoegeteqdwajbrasaaaaaaaaaaaaaa",
"aaaaaaaaaaaaaaaaaaaaaaaaaaaaaaaaaaaaaacpdedndedhdkeuepereoetdrdectdkdoegducdbsbraaaaaaaaaaaaaaaa",
"aaaaaaaaaaaaaaaaaaaaaaaaaaaaaaaaaaaaaabudddecncndtdvekepeoenegdzdydpdmdpafcebraaaibparaaaaaaaaaa",
"aaaaaaaaaaaaaaaaaaaaaaaaaaaaaaaaaaaaaaaacgdecsdecndddldldueeetdydqdxcybuaabubraibmbraiaaaaaaaaaa",
"aaaaaaaaaaaaaaaaaaaaaaaaaaaaaaaaaaaaaaaaaacgdmczdhczczdmdmdgdgdkdgcfajaiaaajcibtbuaaaaajaraaaaaa",
"aaaaaaaaaaaaaaaaaaaaaaaaaaaaaaaaaaaaaaaaaaaaagdhdmckdhctczdmdmcyahajehegeabvbzbnbfahbubfaraaaaaa",
"aaaaaaaaaaaaaaaaaaaaaaaaaaaaaaaaaaaaaaaaaaaaaicmdtdkdkdhdndmcwaiaabucveqedbtaiahbrbgbsaqaaaaaaaa",
"aaaaaaaaaaaaaaaaaaaaaaaaaaaaaaaaaaaaaaaaaaaacfcjdzeuetegetekdjahajcfcndtdvanaaaaaaaaaaaaaaaaaaaa",
"aaaaaaaaaaaaaaaaaaaaaaaaaaaaaaaaaaaaaaaaaaaacidheeegdueeekekdpcmddddcndreoeeaqaaaaaaaaaaaaaaaaaa",
"aaaaaaaaaaaaaaaaaaaaaaaaaaaaaaaaaaaaaaaaaaaicmdtdpdldhdmemeuetdncrdhdednemebaiaaaaaaaaaaaaaaaaaa",
"aaaaaaaaaaaaaaaaaaaaaaaaaaaaaaaaaaaaaaaaaacedmdndhdmdhdpeperepedcrdedecvcoaiaaaaaaaaaaaaaaaaaaaa",
"aaaaaaaaaaaaaaaaaaaaaaaaaaaaaaaaaaaaaaaaaacdczdndhddcmdqeuerepeqdncndaamajaaaaaaaaaaaaaaaaaaaaaa",
"aaaaaaaaaaaaaaaaaaaaaaaaaaaaaaaaaaaaaaaaaacfdndndhczczdedxegetemedchaaaaaaaaaaaaaaaaaaaaaaaaaaaa",
"aaaaaaaaaaaaaaaaaaaaaaaaaaaaaaaaaaaaaaaaaaceczdedhdndedededhdddmczbuaaaaaaaaaaaaaaaaaaaaaaaaaaaa",
"aaaaaaaaaaaaaaaaaaaaaaaaaaaaaaaaaaaaaaaaaaaacmcsdncncrdeckczczcndrdiaaaaaaaaaaaaaaaaaaaaaaaaaaaa",
"aaaaaaaaaaaaaaaaaaaaaaaaaaaaaaaaaaaaaaaaaaajcmdecrcscrcrckczddekeqehaaaaaaaaaaaaaaaaaaaaaaaaaaaa",
"aaaaaaaaaaaaaaaaaaaaaaaaaaaaaaaaaaaaaaaaaacdczcrcrdecncndhdtegepeuagaaaaaaaaaaaaaaaaaaaaaaaaaaaa",
"aaaaaaaaaaaaaaaaaaaaaaaaaaaaaaaaaaaaaaaaaacicscrcrdecndhdqegeuetebaiaaaaaaaaaaaaaaaaaaaaaaaaaaaa",
"aaaaaaaaaaaaaaaaaaaaaaaaaaaaaaaaaaaaaaaacfcncrdecndednczdmdqdkdlcxaaaaaaaaaaaaaaaaaaaaaaaaaaaaaa",
"aaaaaaaaaaaaaaaaaaaaaaaaaaaaaaaaaaaaaaahcmdecncndeckcnckdeckdmcmcdaaaaaaaaaaaaaaaaaaaaaaaaaaaaaa",
"aaaaaaaaaaaaaaaaaaaaaaaaaaaaaaaaaaajcdcqdecndddhczczdldgczdmebcocdaaaaaaaaaaaaaaaaaaaaaaaaaaaaaa",
"aaaaaaaaaaaaaaaaaaaaaaaaaaaaaaaicfcmcndncmcfaebzczdhcqcucqcqdacudaagcdceaiajaiajaaaaaaaaaaaaaaaa",
"aaaaaaaaaaaaaaaaaaaaaaajcdagcidddedecqagaaaicobxbzdncmcmcbcocpcwcycycwcobnbmauatceaqaaaaaaaaaaaa",
"aaaaaaaaaaaaaaajceancpcjczczcndmcicfahahcfchdhdhdhdndmdmdgdgbybmcdbucxbmbcazawasatauceaaaaaaaaaa",
"aaaaaaaaaaaacdcwdlddcochagbvbvaechcicicjadbhcodhededdxededcmbkazavasasasbsayazawatbpbuaaaaaaaaaa",
"aaaaaaaaaacxcqcqanaiaaaaaaahcgaecicabzadabboblbjbtbtcbbzbzcbbbbebcazaxataubgavatasaraaaaaaaaaaaa",
"aaajcecfaecbdlcfaaaaaiagaiaacebrcicacmbwadabadbdbibbbbbbbebbbbbababcaxauauakaaaaaaaaaaaaaaaaaaaa",
"aiafaecicbcjczcpdiakcxeeeiceaaahcdbqcacacjckbwcradbwbwbwbobhbnbkbfbpbuaiaaaaaaaaaaaaaaaaaaaaaaaa",
"aabubvcicicaccadcrdddgduemdzecalaiaiaiahbucfbragafcgbvcfcxceaiajaaaaaaaaaaaaaaaaaaaaaaaaaaaaaaaa",
"aaajbubvcicibwaccscrdedmcqebebeianajaaaaaaaaaaaaaaaaaaaaaaaaaaaaaaaaaaaaaaaaaaaaaaaaaaaaaaaaaaaa",
"aaaaaaajcdagbvaeaeafcfceaiajajajajaaaaaaaaaaaaaaaaaaaaaaaaaaaaaaaaaaaaaaaaaaaaaaaaaaaaaaaaaaaaaa",
"aaaaaaaaaaaaaaaaaaaaaaaaaaaaaaaaaaaaaaaaaaaaaaaaaaaaaaaaaaaaaaaaaaaaaaaaaaaaaaaaaaaaaaaaaaaaaaaa",
};
