/* XPM */
static char *os-irix_xpm[] = {
/* width height ncolors chars_per_pixel */
"48 48 59 1",
/* colors */
"a c #222224",
"b c #525254",
"c c #828284",
"d c #B2B2B4",
"e c #E2E2E4",
"f c #161614",
"g c #464644",
"h c #767674",
"i c #A6A6A4",
"j c #D6D6D4",
"k c #2A2A2C",
"l c #5A5A5C",
"m c #8A8A8C",
"n c #BABABC",
"o c #EAEAEC",
"p c #1E1E1C",
"q c #4E4E4C",
"r c #7E7E7C",
"s c #AEAEAC",
"t c #DEDEDC",
"u c #323234",
"v c #626264",
"w c #929294",
"x c #C2C2C4",
"y c #F2F2F4",
"z c #262624",
"A c #565654",
"B c #868684",
"C c #B6B6B4",
"D c #E6E6E4",
"E c #3A3A3C",
"F c #6A6A6C",
"G c #9A9A9C",
"H c #CACACC",
"I c #FAFAFC",
"J c #2E2E2C",
"K c #5E5E5C",
"L c #8E8E8C",
"M c #BEBEBC",
"N c #EEEEEC",
"O c #424244",
"P c #727274",
"Q c #A2A2A4",
"R c #D2D2D4",
"S c #363634",
"T c #666664",
"U c #969694",
"V c #C6C6C4",
"W c #F6F6F4",
"X c #1A1A1C",
"Y c #4A4A4C",
"Z c #7A7A7C",
"0 c #AAAAAC",
"1 c #DADADC",
"2 c #3E3E3C",
"3 c #6E6E6C",
"4 c #9E9E9C",
"5 c #CECECC",
"6 c #FEFEFC",
/* pixels */
"666666666666666666666666666666666666666666666666",
"666666666666666666666666666666666666666666666666",
"666666666666666666666666666666666666666666666666",
"666666666666666666666666666666666666666666666666",
"666666666666666666666666666666666666666666666666",
"666666666666666666666666666666666666666666666666",
"666666666666666666666666666666666666666666666666",
"666666666666666666666666666666666666666666666666",
"6666666666666666666W0r566HZdW6666666666666666666",
"66666666666666666WMqFHGRtgazYMW66666666666666666",
"666666666666666oiTTHVBAR1vOkzfbso666666666666666",
"6666666666666W0KZMVrrrceemmr2aaklsW6666666666666",
"66666666666WHbrRRB3GwGwtewwwQrSzkzECW66666666666",
"66666666666GfJP4lLMxdiLttLG0VMGAzEhdGW6666666666",
"66666666666UzzkkqnWD0QL1tBG4tICEFH5hBW6666666666",
"66666666666oibkJJkhtnGh11hL0jhbn1UKLt66666666666",
"6666666666W6tw3bJkzEPrTtt3hvbmNChhiR6NI666666666",
"666666666wqGWy5ZTYaJSOb1tquL1HhZLHNWQbiW66666666",
"66666666VzkkvHyysZ3SzSuqK31Rm3QdNW53hHsG66666666",
"66666666eZuakEcR6tUrFuzzxeiZcsj6tm3sjB3H66666666",
"66666666oC0KXkuYQyWRZrKaBm4LnNWQT4D43Udt66666666",
"66666666osdn42aJJA5iOPrdiGrhsHhreVPcCs0166666666",
"66666666N0dmsMhuzJg2uYmCCFY2b3M14PQdrd0t66666666",
"66666666WddUQy10AXJgqYd6IHvKCeC3i5yChd0D66666666",
"66666666Idswi5hPV4OapHsCVPby1rBdAFRC3d0N66666666",
"666666666ddUmTQeQrQhEmc3Ol24BGLTSSYTZCsy66666666",
"666666666CsBQtnhB01Cd0i1uGCiCDsKAgk2mCdI66666666",
"666666666CdLUccneWxQsd4Tb4ddQMINwTbgwdC666666666",
"666666666xsG4Q5IemBsddLddUddiAB1Ixc2hsC666666666",
"666666666DcZMNWdPC1dsdw1e4dCw2J2iyNnBst666666666",
"66666666666IIHmGeVhLddUttUdCGqSJabsy666666666666",
"666666666666BmwjGcVn0s4tD4ssCnTgEkZMN66666666666",
"66666666666WSkA2c1WC0s4tD4s0xWRFOiehH66666666666",
"66666666666IiAaJpTRnid4eeQd0VR3KtChQI66666666666",
"666666666666tQrSfklZ0sGeeGddUbQ1Ucdo666666666666",
"6666666666666WxUva2vsd4teGsdi1Vh4jI6666666666666",
"6666666666666661irSOssQee4s0n0rnD666666666666666",
"66666666666666I6NncP0die1mddUw5y6666666666666666",
"6666666666666666IIDc40soewsiCD666666666666666666",
"6666666666666666666oxx166jMRy6666666666666666666",
"666666666666666666666I6666I666666666666666666666",
"666666666666666666666666666666666666666666666666",
"666666666666666666666666666666666666666666666666",
"666666666666666666666666666666666666666666666666",
"666666666666666666666666666666666666666666666666",
"666666666666666666666666666666666666666666666666",
"666666666666666666666666666666666666666666666666",
"666666666666666666666666666666666666666666666666",
};
