/* XPM */
static char *os2_xpm[] = {
/* width height ncolors chars_per_pixel */
"35 35 102 2",
/* colors */
"aa c black",
"ab c #000010",
"ac c #000021",
"ad c #000039",
"ae c #000042",
"af c #000052",
"ag c #00006B",
"ah c #000073",
"ai c #00007B",
"aj c #000084",
"ak c #000094",
"al c #00009C",
"am c #0000AD",
"an c #0000BD",
"ao c #0000CE",
"ap c #0000D6",
"aq c #0000E7",
"ar c #0000EF",
"as c #0000F7",
"at c #0000FF",
"au c #0008C6",
"av c #001000",
"aw c #001042",
"ax c #001800",
"ay c #002100",
"az c #003100",
"ba c #003152",
"bb c #004200",
"bc c #004A00",
"bd c #005200",
"be c #005A00",
"bf c #006300",
"bg c #006B00",
"bh c #007300",
"bi c #007B00",
"bj c #008400",
"bk c #008C00",
"bl c #008CFF",
"bm c #009400",
"bn c #009C00",
"bo c #00A500",
"bp c #00A54A",
"bq c #00AD00",
"br c #00B500",
"bs c #00BD00",
"bt c #00BD21",
"bu c #00C600",
"bv c #00CE00",
"bw c #00D600",
"bx c #00DE00",
"by c #00E700",
"bz c #00EF00",
"ca c #00F700",
"cb c green",
"cc c #00FF21",
"cd c #00FF63",
"ce c #00FF73",
"cf c #080008",
"cg c #080808",
"ch c #101010",
"ci c #212121",
"cj c #21D621",
"ck c #292929",
"cl c #310031",
"cm c #311831",
"cn c #390039",
"co c #423142",
"cp c #424242",
"cq c #4A424A",
"cr c #522952",
"cs c #524252",
"ct c #525252",
"cu c #52FF52",
"cv c #5A5A5A",
"cw c #733973",
"cx c #737373",
"cy c #7B427B",
"cz c #844284",
"da c #8C6B8C",
"db c #8C8C8C",
"dc c #943194",
"dd c #946394",
"de c #949494",
"df c #9C739C",
"dg c #9C949C",
"dh c #9C9C9C",
"di c #A5A5A5",
"dj c #A5FFA5",
"dk c #B5B5B5",
"dl c #BDADBD",
"dm c #C663C6",
"dn c #CECECE",
"do c #D663D6",
"dp c #D6D6D6",
"dq c #D6FFD6",
"dr c #E7E7E7",
"ds c #EFFFEF",
"dt c #FFCEFF",
"du c #FFD6FF",
"dv c #FFE7FF",
"dw c #FFF7FF",
"dx c white",
/* pixels */
"aaaaaaaaaaaaaaaaaaaaaaaaaaaaaaaaaaaaaaaaaaaaamamaaaaaaaqataaadatafaaag",
"aaaaaaaaaaaaaaaaaaaaaaaaaaaaaaaaaaaaaaaaaaaaanataaaaaaaqataaadataeaaaa",
"aaaaaaaaaaaaaaaaaaaaaaaaaaaaaaaaaaaaaaaaaaaaaiataaaaaaaqataaadataeaqah",
"aaaaaaaaaaaaaaaaaaaaaaaaaaaaaaaaaaaaaaaaaaaaaaataaaaaaaqataaacatadatan",
"aaaaaaaaaaaaaaaaaaaaaaaaaaaaaaaaaaaaaaaaaaaaaaatakaaaaaqataaabatadatal",
"aaaaaaaaaaaaaaaaaaaaaaaaaaaaaaaxbgbqbobqbobqbjawataaaaaoatasatatacatat",
"aaaaaaaaaaaaaaaaaaaaaaaaaabrcbcbbvbibibibibibwcbcdbvavaaaratatapaaabat",
"aaaaaaaaaaaaaaaaaaaaaabocbbxaxaaaaaaaaaaaaaaaaaaaablcbbraaaaaaaaaaaaaa",
"aaaaaaaaaaaaaaaaaaazcbbwaaaaaaaaaaaaaaaaaaaaaaaaaaaeatbtcbazaaaaaaaaaa",
"aaaaaaaaaaaaaaaabjcbbbaaaaaaaaaaaaaaaaaaaaaaaaaabgbfajatbacbbjaaaaaaaa",
"aaaaaaaaaaaaaabkcbaaaaaaaaaaaaaaaaaaaaaaaaaaaaaacbbcaaaaataucbboaaaaaa",
"aaaaaaaaaaaabbcbaaaaaaaaaaaaaaaaaaaaaaaaaaaaaaaacbaaaaaaaaaqatceazaaaa",
"aaaaaaaaaaaacbazaaaaaaaaaaaaaaaaaaaaaaaaaaaaaabebkaaaaaaaaaaabbaccatao",
"aaaaaaaaaabibwaaaabdcbcbcbbraacacbcbcbayaaaaaabxbmbwcbcbbuaaaaaacabpal",
"aaaaaaaaaacbayaaaacbcbcbcbcbaacbcbcbcbcbaaaaaabobycbcbcbcbbiaaaaaacbaa",
"cpaaaaaaazcbaaaaaacbbraabqcbaacbbdaacbcbaaaaaxbobrcbaabccbbqaaaaaacbbd",
"dndrcmaabzbuaaaaaacbbraabqcbaacbbdaacbcbaaaabibdbwcbaaaycbboaaaaaabgbs",
"aacqdwcycbbgaaaaaacbbuaabscbaacbcbaaaaaaaaaabuaaaybeaacbcbbhaaaaaabfbz",
"aaaaaadvdqaaaaaaaacbbuaabucbaacbcbcbaaaaaaaabzaaaaaabdcbcbaaaaaaaaavbu",
"aaaaaaaadxcwaaaaaacbbuaabucbaaaacbcbcbaaaabcbxaaaaaacbcbbbaaaaaaaaaabs",
"aaaaaaaacjdxclaaaacbbuaabucbaaaaaacbcbcbaabqbdaaaacbcbboaaaaaaaaaaazbx",
"ctcvaaaacbcudtaaaacbbuaabscbaabcaaaacbcbaaboaaaabvcbcbaaaaaaaaaaaabgbx",
"dxdxdwaabibmdmczaacbbsaabrcbbccbbbaacacbbbbnaaaacbcbaxaaaaaaaaaaaabsbh",
"dndxdxcraacbcfduaacbbqaabocbbbcbayaabxcbbxavaaaacbcbaaaaaaaaaaaaaacbaa",
"aacqdxcsaabxbbdocncbcbazcbcbaycbcbbdcbcbbvaaaaaacbcbcbcbcbbbaaaabmcbaa",
"aadbdxcvaaaabudddcbocbcbcbbzaacbcbcbcbbobdaaaaaacbcbcbcbcbbcaaaacbazaa",
"aadxdxaaaaaabkdjdmaaaaaaaaaaaaaaaaaaaabhbmaaaaaaaaaaaaaaaaaaaabxbraaaa",
"dedxdnaaaaaaaacudvaaaaaaaaaaaaaaaaaaaabyayaaaaaaaaaaaaaaaaaabkcbaaaaaa",
"dxdxaaaaaaaaaacldsbqaaaaaaaaaaaaaaaaaacaaaaaaaaaaaaaaaaaaabwcbaaaaaaaa",
"dxaaaaaaaaaaaadadlcacaaaaaaaaaaaaaaabjbvaaaaaaaaaaaaaaaacacbaaaaaaaaaa",
"dhaaaaaaaaaaaadgdfaabncbboaaaaaaaaaaaaaaaaaaaaaaaaaabocbbuaaaaaaaaaaaa",
"aaaaaaaaaaaaaadxcoaaaaaxbucbbsbgazaaaaaaaaaaazbgbscbbvayaaaaaaaaaaaaaa",
"aaaachaaaaaacidxaaaaaaaaaaaabcbucbcbcbcbcbcbcbbsbfaaaaaaaaaaaaaaaaaaaa",
"dxdxdxchaaaadecxaaaaaaaaaaaaaaaaaaaaaaaaaaaaaaaaaaaaaaaaaaaaaaaaaaaaaa",
"didkdpaaaackdpaaaaaaaaaaaaaaaaaaaaaaaaaaaaaaaaaaaaaaaaaaaaaaaaaaaaaaaa",
};
