/* XPM */
static char *os-sco_xpm[] = {
/* width height ncolors chars_per_pixel */
"48 48 24 1",
/* colors */
"a c #006666",
"b c #CCCC00",
"c c #CC9933",
"d c #999966",
"e c #669999",
"f c #003399",
"g c #666633",
"h c #FFCC00",
"i c #CCCC33",
"j c #6699CC",
"k c #336666",
"l c #006699",
"m c #000066",
"n c #669933",
"o c yellow",
"p c #FFFFCC",
"q c #FFCC33",
"r c #666666",
"s c #003366",
"t c #CC9900",
"u c #999933",
"v c white",
"w c #669966",
"x c #000099",
/* pixels */
"vvvvvvvvvvvvvvvvvvvvvvvvvvvvvvvvvvvvvvvvvvvvvvvv",
"vvvvvvvvvvvvvvvvvvvvvvvvvvvvvvvvvvvvvvvvvvvvvvvv",
"vvvvvvvvvvvvvvvvvvvvvvvvvvvvvvvvvvvvvvvvvvvvvvvv",
"vvvvvvvvvvvvvvvvvvvvvvvvvvvvvvvvvvvvvvvvvvvvvvvv",
"vvvvvvvvvvvvvvvvvvvvvvvvvvvvvvvvvvvvvvvvvvvvvvvv",
"vvvvvvvvvvvvvvvvvvvvvvvvvvvvvvvvvvvvvvvvvvvvvvvv",
"vvvvvvvvvvvvvvvvvvvvvvvvvvvvvvvvvvvvvvvvvvvvvvvv",
"vvvvvvvvvvvvvvvvvvvvvvvvvvvvvvvvvvvvvvvvvvvvvvvv",
"vvvvvvvvvvvvvvvvvvvvvvvvvvvvvvvvvvvvvvvvvvvvvvvv",
"vvvvvvvvvvvvvvvvvvvvvvvvvvvvvvvvvvvvvvvvvvvvvvvv",
"ppvvvvvvvvvvvvvvvvvvvvvvvvvvvvvvvvvvvvvvvvvvvvvp",
"hhhhhhhhhhhhhhhhhhhhhhhhhhhhhhhhhhhhhhhhhhhhhhhh",
"qqqhhhhhhhhhhhhhhhhhhhhhhhhhhhhhhhhhhhhhhhhhhhhq",
"qhhhhhhhhhhhhhhhhhhhhhhhhhhhhhhhhhhttttbhhhhhhhh",
"hhhhhhqqhqhhqhhhqhqhqhhhhhhhiunkasfffffffakuchhh",
"hhhhqqqqqqqqqqqqqqqqqqqqqhhhurkkkkrrrrrrrkkkrchh",
"qhhqqqqqqqqqqqqqqqqqqqqhhhhqcuuurrrrrrwuuiqhhhhh",
"hhhhqqqqqqqqqqqqqqqqqqqqcwkfffffffffffffffsaruhh",
"hhhqqqqqqqqqqqqqqqqqhhhhcuuuuuwfruuduuuuuuuuuuhh",
"hhhhqqqqqqqqqqqqqqqqqicuuwkkkkafsassssfsakkrwuut",
"qhhqqqqqqqqqqqqqhhhqurkkkkkkkkkkkskkkrrrkkkkkkkk",
"hhhqqqqqqqqqqqhhhhhqccccuuudddddkawduuuccqqhhhhh",
"hhhhqqqqqqqqqqiuwkksffffffffffffffffffffffffskrg",
"hhhqqqqqqqqqhquunuuuuuuuuuuuuuuuukkccuuuuuuuuwgg",
"qhhqqqqqhhhhqqicuuuuwrrkkkkkkkkkksarrrduucihhhhh",
"hhhhqqqqiuwksfffxxxxfffffffffffsfsfffffffffffskg",
"hhhqqqqqiuuuuuuuuciiiiiiccccuuucrfrccckkiicccuuu",
"hhhhqqqqqhhhhhhhhhiuuuwrkkkkkskkafskkkffrruuucbh",
"qhhqqqqqqqqqqqcrksfffffffffffffffsslfxfffffffsss",
"hhhqqqqqqqqqqqiuccciiiiiqqqqhhhuxkhhkkhhqiiiccct",
"hhhhqqqqqqqqqqhhhhhhhhhhhhhhhhouxkhrfhhhhhhhhhhh",
"hhhhqqqqqqqqqqqqqqqhqqqqqqqqqhhcffffihhhqqqqhhhh",
"hhhhhqhqhqhqhqhqhqhqhhhhhhhhhhhqfxfiohhhhhhhhhhh",
"hhhhhhhhhhhhhhhhhhhhhhhhhhhhhhhhkxfiohhhhhhhhhhh",
"hhhhhhhhhhhhhhhhhhhhhhhhhhhhhhoocsxsbohhhhhhhhhh",
"mmmmmmmmmmmmmmmmmmmmmmmmmmmmmmmmmssxsmmmmmmmmmmm",
"mmmmmmmmmmmmmmmmmmmmmmmmmmmmmmmmmmsmmmmmmmmmmmmm",
"jjjejjjjjjjjjjjjjjjjjjjjjjjjjjeeeeeeeeejjjjjjjjj",
"vvvvvvvvvvvvvvvvvvvvvvvvvvvvvvvvvvvvvvvvvvvvvvvv",
"vvvvvvvvvvvvvvvvvvvvvvvvvvvvvvvvvvvvvvvvvvvvvvvv",
"vvvvvvvvvvvvvvvvvvvvvvvvvvvvvvvvvvvvvvvvvvvvvvvv",
"vvvvvvvvvvvvvvvvvvvvvvvvvvvvvvvvvvvvvvvvvvvvvvvv",
"vvvvvvvvvvvvvvvvvvvvvvvvvvvvvvvvvvvvvvvvvvvvvvvv",
"vvvvvvvvvvvvvvvvvvvvvvvvvvvvvvvvvvvvvvvvvvvvvvvv",
"vvvvvvvvvvvvvvvvvvvvvvvvvvvvvvvvvvvvvvvvvvvvvvvv",
"vvvvvvvvvvvvvvvvvvvvvvvvvvvvvvvvvvvvvvvvvvvvvvvv",
"vvvvvvvvvvvvvvvvvvvvvvvvvvvvvvvvvvvvvvvvvvvvvvvv",
"vvvvvvvvvvvvvvvvvvvvvvvvvvvvvvvvvvvvvvvvvvvvvvvv",
};
