/* XPM */
static char *win95_xpm[] = {
/* width height ncolors chars_per_pixel */
"33 35 115 2",
/* colors */
"aa c black",
"ab c #000042",
"ac c #000063",
"ad c #00006B",
"ae c #000084",
"af c #00008C",
"ag c #000094",
"ah c #0000A5",
"ai c #0000C6",
"aj c #0000DE",
"ak c #001000",
"al c #003100",
"am c #006300",
"an c #007300",
"ao c #008C00",
"ap c #00A500",
"aq c #00E700",
"ar c green",
"as c #080808",
"at c #0808F7",
"au c #084A08",
"av c #08C608",
"aw c #08FF08",
"ax c #101010",
"ay c #181818",
"az c #18F718",
"ba c #212121",
"bb c #212921",
"bc c #292929",
"bd c #29FF29",
"be c #313100",
"bf c #313121",
"bg c #313131",
"bh c #3131CE",
"bi c #393939",
"bj c #39B539",
"bk c #39FF39",
"bl c #424200",
"bm c #424242",
"bn c #42EF42",
"bo c #42FF42",
"bp c #4A4AF7",
"bq c #525252",
"br c #52527B",
"bs c #52FFFF",
"bt c #5A5A5A",
"bu c #636300",
"bv c #636363",
"bw c #63637B",
"bx c #63F763",
"by c #6B6B63",
"bz c #6B6B6B",
"ca c #6B6BE7",
"cb c #731818",
"cc c #737373",
"cd c #7B7373",
"ce c #7B7B7B",
"cf c #7BF77B",
"cg c #840000",
"ch c #844A4A",
"ci c #848484",
"cj c #84CE84",
"ck c #84F784",
"cl c #8C0000",
"cm c #8C8484",
"cn c #8C8C00",
"co c #8C8C8C",
"cp c #948C8C",
"cq c #949400",
"cr c #9C6363",
"cs c #9C9C9C",
"ct c #A50000",
"cu c #A5A5A5",
"cv c #ADADAD",
"cw c #B5B529",
"cx c #B5B5B5",
"cy c #BD5A5A",
"cz c #BDBD4A",
"da c #BDBDBD",
"db c #BDFFFF",
"dc c #C6C610",
"dd c #C6C6C6",
"de c #C6FFFF",
"df c #CECECE",
"dg c #D62121",
"dh c #D6D694",
"di c #D6D6D6",
"dj c #DEDEDE",
"dk c #DEFFFF",
"dl c #E70000",
"dm c #E7E700",
"dn c #E7E7E7",
"do c #E7E7F7",
"dp c #E7FFFF",
"dq c #EFCECE",
"dr c #EFEF00",
"ds c #EFEFEF",
"dt c #F7F731",
"du c #F7F773",
"dv c #FFE7E7",
"dw c #FFF7F7",
"dx c yellow",
"dy c #FFFF21",
"dz c #FFFF4A",
"ea c #FFFF6B",
"eb c #FFFF84",
"ec c #FFFF8C",
"ed c #FFFFAD",
"ee c #FFFFBD",
"ef c #FFFFCE",
"eg c #FFFFD6",
"eh c #FFFFDE",
"ei c #FFFFEF",
"ej c #FFFFF7",
"ek c none",
/* pixels */
"ekekekekekekekekekekekekekekekekekekekekekekekekekekekekekekekekek",
"ekekekekekekekekekekekekekekekekekekekekekekekekekekekekekekekekek",
"ekekekekekekekekekekekekekekekekekekekekekekekekekekekekekekekekek",
"ekekekekekekekekekekekekekekekekekekekekekekekekekekekekekekekekek",
"ekekekekekekekekekekekekekekekekekekekekekekekekekekekekekekekekek",
"ekekekekekekekekekekekekekekekekekekekekasasasaaaaaaaaaaaaekekekek",
"ekekekekekekekekekekekekekekekekekekbcbgbibibibgbaaxaaaaaaaaaaaaek",
"aaekekekekekekekekekekekekekekbtekbtbzcecocpcmcdbtbmbbakakaaaaaaaa",
"aaekekekaaekekekekekdjekekdjddcvekcxdfdjdsdwdvdqcsccbnazapalaaaaaa",
"ekekaaaaasekekcvdscebgaaaxbqdaekekdjbmbibmbmbibmbibvbxbdaqaqanaaaa",
"ekekaaaaekekcudnbcaaaaaaaaaaaacsekdaaaaaaaaaaaaaaabvcfbkawaraoaaaa",
"cldkekekekekdjbiaaaaaaaaaaaaaaaxdscoaaaaaaaaaaaaaabzckboawaraoaaaa",
"dldbekdechekdfaaaaaabadabmaaaaaacociaaaaaabgbibmbmcockbkawaraoaaaa",
"cgdkdbbscyekcoaaaaaaccekcvaaaaaabqbqaaaaaaekekekekdjcjbjavaqaoaaaa",
"ekekctdgcrekceaaaaaaceekdaaaaaaabmbiaaaaaxcecudsekdjcobmauaoamaaaa",
"ekekclcbekdpcsaaaaaabvekceaaaaaabvaaaaaaaaaaaaaxcsekcsbqayaaaaaaaa",
"aaekekekekdpdjaaaaaaaabmaaaaaaaacoaaaaaaaaaaaaaaaadfdabybfaaaaaaaa",
"aaekekekbgekekccaaaaaaaaaaaaaaaacsbabibqbgaaaaaaaabqegducwbeaaaaaa",
"ekekaaaabaekekdsbqaaaaaxaaaaaabmdsekekekekcoaaaaaaaxeiebdtdmbuaaaa",
"ekekaaaaekekccdfekdjdabmaaaaaacsekekekekekdaaaaaaaaaejecdtdxcnaaaa",
"aeehekekekekbqekekekdaaaaaaabaekcecidjekdsbtaaaaaabgehebdtdxcnaaaa",
"ajeeekeeabekekekekekbcaaaaaaceekbmaaaaaaaaaaaaaaaaceeeeadydxcnaaaa",
"afeheedzagekeiefekcsaaaaaaaxdsekbaaaaaaaaaaaaaaabgdndhczdcdrcnaaaa",
"ekekahajadejedbpdsayaaaaaacsekekbaaaaaaaaaaaaabgdscvbzbcblcqbuaaaa",
"ekekafacekedatbhdfbrbwcecedoekekekdfcebmbibvcvdncvbzbiaxaaaaaaaaaa",
"aaekekekekedaiekekcaehekekekekceekcvdddidjdicxcobvbgayaaaaaaaaaaaa",
"aaekekekaaekeiekekeibmekekbmbibiekbtbzceccccekekekekekekaaaaaaaaaa",
"ekekaaaaaaekekaaekasayekekasasasekaybaekekekekekekekekekekekekaaaa",
"ekekaaaaekekaaaaekaaaaekekaaekekekekekekekekekekekekekekekekekekek",
"ekekekekekekaaekekaaekekekekekekekekekekekekekekekekekekekekekekek",
"ekekekekekekekekekekekekekekekekekekekekekekekekekekekekekekekekek",
"ekekekekekekekekekekekekekekekekekekekekekekekekekekekekekekekekek",
"ekekekekekekekekekekekekekekekekekekekekekekekekekekekekekekekekek",
"ekekekekekekekekekekekekekekekekekekekekekekekekekekekekekekekekek",
"ekekekekekekekekekekekekekekekekekekekekekekekekekekekekekekekekek",
};
