/* XPM */
static char *smiley_frown_xpm[] = {
/* width height ncolors chars_per_pixel */
"15 15 3 1",
/* colors */
"a c black",
"b c yellow",
"c c none",
/* pixels */
"cccccaaaaaccccc",
"cccaabbbbbaaccc",
"ccabbbbbbbbbacc",
"cabbbbbbbbbbbac",
"cabbbbbbbbbbbac",
"abbbaabbbaabbba",
"abbbaabbbaabbba",
"abbbbbbbbbbbbba",
"abbbbbbbbbbbbba",
"abbbbaaaaabbbba",
"cabbabbbbbabbac",
"cabbbbbbbbbbbac",
"ccabbbbbbbbbacc",
"cccaabbbbbaaccc",
"cccccaaaaaccccc",
};
