#define __width 48
#define __height 48
#define __x_hot -1
#define __y_hot -1
static char __bits[] = {
   0x00, 0x00, 0x00, 0x00, 0x00, 0x00, 0x00, 0xff, 0xff, 0xff, 0x00, 0x00,
   0x00, 0x01, 0x00, 0x80, 0x01, 0x00, 0x00, 0x01, 0x00, 0x80, 0x02, 0x00,
   0x00, 0x01, 0x00, 0x80, 0x04, 0x00, 0x00, 0x01, 0x00, 0x80, 0x08, 0x00,
   0x00, 0x01, 0x00, 0x80, 0x10, 0x00, 0x00, 0x99, 0x4a, 0xa9, 0x20, 0x00,
   0x00, 0x99, 0x2e, 0xa9, 0x40, 0x00, 0x00, 0x99, 0x4e, 0x93, 0xff, 0x00,
   0x00, 0x01, 0x00, 0x00, 0x80, 0x00, 0x00, 0x01, 0x00, 0x00, 0x80, 0x00,
   0x00, 0x01, 0x00, 0x00, 0x80, 0x00, 0x00, 0x01, 0x00, 0x00, 0x80, 0x00,
   0x00, 0x01, 0x00, 0x00, 0x80, 0x00, 0x00, 0xb9, 0xab, 0x10, 0x80, 0x00,
   0x00, 0xb9, 0xea, 0x18, 0x80, 0x00, 0x00, 0xa9, 0xaa, 0x10, 0x80, 0x00,
   0x00, 0x01, 0x00, 0x00, 0x80, 0x00, 0x00, 0x81, 0x4d, 0x75, 0x93, 0x00,
   0x00, 0x81, 0x4d, 0x27, 0x8b, 0x00, 0x00, 0x81, 0x54, 0x25, 0x91, 0x00,
   0x00, 0x01, 0x00, 0x00, 0x80, 0x00, 0x00, 0x81, 0x02, 0x45, 0x84, 0x00,
   0x00, 0x01, 0x31, 0xe2, 0x84, 0x00, 0x00, 0x81, 0x02, 0x45, 0xa4, 0x00,
   0x00, 0x01, 0x00, 0x00, 0x80, 0x00, 0x00, 0x81, 0x26, 0x95, 0xc4, 0x00,
   0x00, 0x81, 0x12, 0xa7, 0xa9, 0x00, 0x00, 0x81, 0x22, 0x93, 0xc5, 0x00,
   0x00, 0x01, 0x00, 0x00, 0x80, 0x00, 0x00, 0x01, 0xd8, 0x54, 0x99, 0x00,
   0x00, 0x01, 0xd8, 0x74, 0x8b, 0x00, 0x00, 0x01, 0x48, 0x75, 0x9a, 0x00,
   0x00, 0x01, 0x00, 0x00, 0x80, 0x00, 0x00, 0x81, 0x00, 0x00, 0x80, 0x00,
   0x00, 0x81, 0x01, 0x00, 0x80, 0x00, 0x00, 0x81, 0x00, 0x00, 0x80, 0x00,
   0x00, 0x01, 0x00, 0x00, 0x80, 0x00, 0x00, 0x09, 0x00, 0x00, 0x80, 0x00,
   0x00, 0x19, 0x00, 0x00, 0x80, 0x00, 0x00, 0x09, 0x00, 0x00, 0x80, 0x00,
   0x00, 0x01, 0x00, 0x00, 0x80, 0x00, 0x00, 0x01, 0x00, 0x00, 0x80, 0x00,
   0x00, 0x01, 0x00, 0x00, 0x80, 0x00, 0x00, 0x01, 0x00, 0x00, 0x80, 0x00,
   0x00, 0xff, 0xff, 0xff, 0xff, 0x00, 0x00, 0x00, 0x00, 0x00, 0x00, 0x00};
