#define ComprFile_width 48
#define ComprFile_height 48
static char ComprFile_bits[] = {
   0x00, 0x00, 0x00, 0x00, 0x00, 0x00, 0x00, 0x00, 0x00, 0x00, 0x00, 0x00,
   0x00, 0x20, 0xe0, 0x07, 0x04, 0x00, 0x00, 0x22, 0xe0, 0x07, 0x44, 0x00,
   0x00, 0x44, 0xe0, 0x07, 0x22, 0x00, 0x60, 0x48, 0xe0, 0x07, 0x12, 0x06,
   0x80, 0x91, 0xe0, 0x07, 0x89, 0x01, 0x00, 0xa6, 0xfe, 0x7f, 0x65, 0x00,
   0x00, 0x00, 0xfe, 0x7f, 0x00, 0x00, 0x00, 0x1f, 0xfe, 0x7f, 0x00, 0x00,
   0x00, 0xf1, 0x00, 0x00, 0x0e, 0x00, 0x00, 0x01, 0xff, 0xff, 0x11, 0x00,
   0x00, 0x01, 0x00, 0x00, 0x20, 0x00, 0x00, 0x01, 0x00, 0x00, 0x40, 0x00,
   0x00, 0x01, 0x00, 0x00, 0x80, 0x00, 0x00, 0x01, 0x00, 0x10, 0x80, 0x00,
   0x00, 0xf3, 0x01, 0xfb, 0xbf, 0x00, 0x00, 0x04, 0xfe, 0x6e, 0xa0, 0x00,
   0x00, 0x03, 0x00, 0x00, 0x20, 0x00, 0x00, 0x9f, 0x3f, 0x00, 0x98, 0x00,
   0x00, 0xfa, 0xc0, 0xff, 0x8f, 0x00, 0x00, 0x03, 0x04, 0x00, 0x80, 0x00,
   0x00, 0xe4, 0x0f, 0x0e, 0x7e, 0x00, 0x00, 0x39, 0xf0, 0xf3, 0x91, 0x00,
   0x00, 0x06, 0x80, 0x01, 0x60, 0x00, 0x00, 0x81, 0x03, 0x80, 0xff, 0x00,
   0x00, 0xfd, 0x04, 0x7f, 0x80, 0x00, 0x00, 0x01, 0xf8, 0x01, 0x8f, 0x00,
   0x00, 0x01, 0x00, 0x00, 0x80, 0x00, 0x00, 0x01, 0x00, 0x00, 0x80, 0x00,
   0x00, 0x01, 0x00, 0x00, 0x80, 0x00, 0x00, 0x01, 0x00, 0x00, 0x80, 0x00,
   0x00, 0x01, 0x00, 0x00, 0x80, 0x00, 0x00, 0x01, 0x00, 0x00, 0x80, 0x00,
   0x00, 0x01, 0x00, 0x00, 0x80, 0x00, 0x00, 0x01, 0xfe, 0x7f, 0x80, 0x00,
   0x00, 0xf1, 0x03, 0xc0, 0x9f, 0x00, 0x00, 0x1f, 0x00, 0x00, 0xf0, 0x00,
   0x00, 0x00, 0xfe, 0x7f, 0x00, 0x00, 0x00, 0xa6, 0xfe, 0x7f, 0x65, 0x00,
   0x80, 0x91, 0xe0, 0x07, 0x89, 0x01, 0x60, 0x48, 0xe0, 0x07, 0x12, 0x06,
   0x00, 0x44, 0xe0, 0x07, 0x22, 0x00, 0x00, 0x22, 0xe0, 0x07, 0x44, 0x00,
   0x00, 0x20, 0xe0, 0x07, 0x04, 0x00, 0x00, 0x00, 0xe0, 0x07, 0x00, 0x00,
   0x00, 0x00, 0x00, 0x00, 0x00, 0x00, 0x00, 0x00, 0x00, 0x00, 0x00, 0x00};
