#define core_width 48
#define core_height 48
#define core_x_hot -1
#define core_y_hot -1
static char core_bits[] = {
   0x00, 0x00, 0x00, 0x00, 0x00, 0x00, 0x00, 0x00, 0x00, 0x00, 0x00, 0x00,
   0x00, 0x00, 0x00, 0x00, 0x00, 0x00, 0x00, 0x00, 0x00, 0x18, 0x00, 0x00,
   0x00, 0x00, 0x00, 0x08, 0x00, 0x00, 0x00, 0x00, 0x00, 0x08, 0x00, 0x00,
   0x00, 0x00, 0x00, 0x08, 0x02, 0x00, 0x00, 0x00, 0x00, 0x10, 0x02, 0x00,
   0x00, 0x00, 0x00, 0x10, 0x04, 0x00, 0x00, 0x00, 0x00, 0x20, 0x04, 0x00,
   0x00, 0x00, 0x00, 0x20, 0x04, 0x00, 0x00, 0x00, 0x40, 0x20, 0x44, 0x00,
   0x00, 0x00, 0xc0, 0x20, 0x32, 0x00, 0x00, 0x00, 0x80, 0x20, 0x13, 0x00,
   0x00, 0x00, 0x80, 0x10, 0x21, 0x00, 0x00, 0x00, 0x80, 0x08, 0x41, 0x00,
   0x00, 0x00, 0x40, 0x84, 0x40, 0x00, 0x00, 0x00, 0x40, 0x84, 0x41, 0x00,
   0x00, 0x00, 0x20, 0x02, 0x63, 0x00, 0x00, 0x00, 0x10, 0x03, 0x22, 0x00,
   0x00, 0x00, 0x10, 0x01, 0x30, 0x00, 0x00, 0x00, 0x08, 0x03, 0x10, 0x00,
   0x00, 0x00, 0x08, 0x06, 0x10, 0x00, 0x00, 0x00, 0x08, 0x08, 0x10, 0x00,
   0x00, 0x00, 0x08, 0x00, 0x10, 0x00, 0x00, 0x00, 0x10, 0x00, 0x10, 0x00,
   0x00, 0x00, 0x00, 0xe0, 0x10, 0x00, 0x00, 0x00, 0x00, 0x30, 0x11, 0x00,
   0x00, 0x00, 0x00, 0x10, 0x01, 0x00, 0x00, 0x00, 0x00, 0x1c, 0x01, 0x00,
   0x00, 0x00, 0x80, 0x07, 0x01, 0x00, 0x00, 0x00, 0x70, 0x00, 0x01, 0x00,
   0x00, 0x00, 0x1c, 0x80, 0x01, 0x00, 0x00, 0x00, 0x04, 0x80, 0x00, 0x00,
   0x00, 0x00, 0x06, 0x80, 0x00, 0x00, 0x00, 0x00, 0x02, 0x60, 0x00, 0x00,
   0x00, 0x80, 0xff, 0xff, 0x01, 0x00, 0x00, 0xe0, 0x00, 0x00, 0x03, 0x00,
   0x00, 0x20, 0x00, 0x00, 0x06, 0x00, 0x00, 0x20, 0x00, 0x00, 0x04, 0x00,
   0x00, 0xf8, 0xff, 0xbf, 0x07, 0x00, 0x00, 0x06, 0x00, 0xe0, 0x3f, 0x00,
   0x00, 0x03, 0x00, 0x00, 0x60, 0x00, 0x00, 0x01, 0x00, 0x00, 0x40, 0x00,
   0x00, 0x01, 0x00, 0x00, 0x40, 0x00, 0x00, 0x01, 0x00, 0x00, 0xc0, 0x00,
   0x00, 0x07, 0x00, 0x00, 0xc0, 0x00, 0x00, 0xfc, 0xff, 0xff, 0x7f, 0x00};
