#define DrawObj_width 48
#define DrawObj_height 48
#define DrawObj_x_hot -1
#define DrawObj_y_hot -1
static char DrawObj_bits[] = {
   0x00, 0x00, 0x00, 0x00, 0x00, 0x00, 0x00, 0xff, 0xff, 0xff, 0x00, 0x00,
   0x00, 0x01, 0x00, 0x80, 0x01, 0x00, 0x00, 0x01, 0x00, 0x80, 0x02, 0x00,
   0x00, 0x01, 0x00, 0x80, 0x04, 0x00, 0x00, 0x01, 0x00, 0x80, 0x08, 0x00,
   0x00, 0x21, 0x84, 0x90, 0x10, 0x00, 0x00, 0x01, 0x00, 0x80, 0x20, 0x00,
   0x00, 0x01, 0x00, 0x80, 0x40, 0x00, 0x00, 0x01, 0x00, 0x80, 0xff, 0x00,
   0x00, 0x01, 0x00, 0x00, 0x80, 0x00, 0x00, 0x21, 0x84, 0xff, 0x83, 0x00,
   0x00, 0x01, 0x80, 0xaa, 0x82, 0x00, 0x00, 0x01, 0x80, 0x55, 0x83, 0x00,
   0x00, 0x81, 0xff, 0xaa, 0x82, 0x00, 0x00, 0x81, 0x80, 0x55, 0x83, 0x00,
   0x00, 0xa1, 0x84, 0xaa, 0x82, 0x00, 0x00, 0x81, 0x80, 0x55, 0x83, 0x00,
   0x00, 0x81, 0x80, 0xaa, 0x82, 0x00, 0x00, 0x81, 0x80, 0x55, 0x83, 0x00,
   0x00, 0x81, 0x80, 0xaa, 0x82, 0x00, 0x00, 0xa1, 0x84, 0xff, 0x83, 0x00,
   0x00, 0x81, 0x00, 0x04, 0x80, 0x00, 0x00, 0x81, 0x00, 0x04, 0x80, 0x00,
   0x00, 0x81, 0x00, 0x04, 0x80, 0x00, 0x00, 0x81, 0x00, 0x04, 0x80, 0x00,
   0x00, 0xa1, 0x84, 0x14, 0x82, 0x00, 0x00, 0x81, 0x00, 0x04, 0x80, 0x00,
   0x00, 0x81, 0xff, 0x07, 0x80, 0x00, 0x00, 0x01, 0x00, 0x00, 0x80, 0x00,
   0x00, 0x01, 0x00, 0x00, 0x80, 0x00, 0x00, 0x21, 0x84, 0x10, 0x82, 0x00,
   0x00, 0x01, 0x00, 0x00, 0x81, 0x00, 0x00, 0x81, 0x00, 0x80, 0x80, 0x00,
   0x00, 0x01, 0x01, 0x40, 0x80, 0x00, 0x00, 0x01, 0x02, 0x20, 0x80, 0x00,
   0x00, 0x21, 0x84, 0x10, 0x82, 0x00, 0x00, 0x01, 0x08, 0x08, 0x80, 0x00,
   0x00, 0x01, 0x10, 0x04, 0x80, 0x00, 0x00, 0x01, 0x20, 0x02, 0x80, 0x00,
   0x00, 0x01, 0x40, 0x01, 0x80, 0x00, 0x00, 0x21, 0x84, 0x10, 0x82, 0x00,
   0x00, 0x01, 0x40, 0x01, 0x80, 0x00, 0x00, 0x01, 0x20, 0x02, 0x80, 0x00,
   0x00, 0x01, 0x00, 0x00, 0x80, 0x00, 0x00, 0x01, 0x00, 0x00, 0x80, 0x00,
   0x00, 0xff, 0xff, 0xff, 0xff, 0x00, 0x00, 0x00, 0x00, 0x00, 0x00, 0x00};
