#define LogicTool_width 48
#define LogicTool_height 48
#define LogicTool_x_hot -1
#define LogicTool_y_hot -1
static char LogicTool_bits[] = {
   0x00, 0x00, 0x00, 0x01, 0x00, 0x00, 0x00, 0x00, 0x80, 0x02, 0x00, 0x00,
   0x00, 0x00, 0x40, 0x04, 0x00, 0x00, 0x00, 0x00, 0x20, 0x08, 0x00, 0x00,
   0x00, 0x00, 0x10, 0x10, 0x00, 0x00, 0x00, 0x00, 0x08, 0x20, 0x00, 0x00,
   0x00, 0x00, 0x04, 0x40, 0x00, 0x00, 0x00, 0x00, 0x02, 0xa7, 0x00, 0x00,
   0x00, 0x00, 0x81, 0x18, 0x01, 0x00, 0x00, 0x80, 0x40, 0x10, 0x02, 0x00,
   0x00, 0x40, 0x20, 0x20, 0x04, 0x00, 0x00, 0x20, 0x40, 0x20, 0x08, 0x00,
   0x00, 0x10, 0xa0, 0x20, 0x10, 0x00, 0x00, 0x08, 0x10, 0x11, 0x20, 0x00,
   0x00, 0x04, 0x08, 0x0a, 0x40, 0x00, 0x00, 0x02, 0x04, 0x05, 0x80, 0x00,
   0x00, 0x01, 0x82, 0x00, 0x00, 0x01, 0x80, 0x00, 0x41, 0x00, 0x00, 0x02,
   0x40, 0x80, 0x80, 0x00, 0x00, 0x04, 0x20, 0x40, 0x00, 0x01, 0x00, 0x08,
   0x10, 0x20, 0x80, 0x00, 0x00, 0x10, 0x08, 0x10, 0x40, 0xe0, 0x1f, 0x20,
   0x04, 0x08, 0x27, 0x30, 0x20, 0x40, 0x02, 0x84, 0x18, 0x18, 0xc0, 0x80,
   0x01, 0x42, 0x10, 0x08, 0x80, 0x41, 0x02, 0x21, 0x20, 0x04, 0x00, 0x27,
   0x84, 0x10, 0x20, 0xc6, 0x00, 0x14, 0x08, 0x20, 0x20, 0x2e, 0x01, 0x0c,
   0x10, 0x50, 0xfc, 0xf3, 0x3f, 0x78, 0x20, 0x88, 0xff, 0xc1, 0x3f, 0x70,
   0x40, 0x04, 0x05, 0x02, 0x01, 0x78, 0x80, 0x80, 0x02, 0x04, 0x00, 0x38,
   0x00, 0x41, 0x00, 0x18, 0x00, 0x3c, 0x00, 0x22, 0x00, 0x60, 0x00, 0x1c,
   0x00, 0x04, 0x00, 0x80, 0x7f, 0x1e, 0x00, 0x08, 0x00, 0x00, 0xc8, 0x0f,
   0x00, 0x10, 0x00, 0x00, 0x04, 0x0e, 0x00, 0x20, 0x00, 0x00, 0x02, 0x00,
   0x00, 0x40, 0x00, 0x00, 0x01, 0x00, 0x00, 0x80, 0x00, 0x80, 0x00, 0x00,
   0x00, 0x00, 0x01, 0x40, 0x00, 0x00, 0x00, 0x00, 0x02, 0x20, 0x00, 0x00,
   0x00, 0x00, 0x04, 0x10, 0x00, 0x00, 0x00, 0x00, 0x08, 0x08, 0x00, 0x00,
   0x00, 0x00, 0x10, 0x04, 0x00, 0x00, 0x00, 0x00, 0x20, 0x02, 0x00, 0x00,
   0x00, 0x00, 0x40, 0x01, 0x00, 0x00, 0x00, 0x00, 0x80, 0x00, 0x00, 0x00};
