#define LogicObj_width 48
#define LogicObj_height 48
#define LogicObj_x_hot -1
#define LogicObj_y_hot -1
static char LogicObj_bits[] = {
   0x00, 0x00, 0x00, 0x00, 0x00, 0x00, 0x00, 0xff, 0xff, 0xff, 0x00, 0x00,
   0x00, 0x01, 0x00, 0x80, 0x01, 0x00, 0x00, 0x01, 0x00, 0x80, 0x02, 0x00,
   0x00, 0x01, 0x00, 0x80, 0x04, 0x00, 0x00, 0x01, 0x1c, 0x80, 0x08, 0x00,
   0x00, 0x01, 0x10, 0x80, 0x10, 0x00, 0x00, 0x01, 0x10, 0x80, 0x20, 0x00,
   0x00, 0x01, 0x10, 0x80, 0x40, 0x00, 0x00, 0x01, 0x10, 0x80, 0xff, 0x00,
   0x00, 0x01, 0x10, 0x00, 0x80, 0x00, 0x00, 0x61, 0x10, 0x00, 0x80, 0x00,
   0x00, 0xa1, 0x00, 0x00, 0x80, 0x00, 0x00, 0x21, 0x01, 0x7e, 0x80, 0x00,
   0x00, 0x21, 0x1a, 0x82, 0x81, 0x00, 0x00, 0x3d, 0xe4, 0x03, 0x82, 0x00,
   0x00, 0x21, 0x1a, 0x02, 0x82, 0x00, 0x00, 0x21, 0x01, 0x02, 0x84, 0x00,
   0x00, 0xa1, 0x00, 0x02, 0xbc, 0x00, 0x00, 0x61, 0x00, 0x02, 0x84, 0x00,
   0x00, 0x01, 0x00, 0x02, 0x82, 0x00, 0x00, 0x01, 0x80, 0x03, 0xba, 0x00,
   0x00, 0x01, 0x80, 0x82, 0xa1, 0x00, 0x00, 0x01, 0x80, 0x7e, 0xa0, 0x00,
   0x00, 0x01, 0x80, 0x00, 0xa0, 0x00, 0x00, 0x01, 0x80, 0x00, 0xa0, 0x00,
   0x00, 0x01, 0x80, 0x00, 0xa0, 0x00, 0x00, 0x01, 0x80, 0x00, 0x80, 0x00,
   0x00, 0xf1, 0x83, 0x00, 0x80, 0x00, 0x00, 0x11, 0x8c, 0x00, 0x80, 0x00,
   0x00, 0x1d, 0x90, 0x00, 0x80, 0x00, 0x00, 0x11, 0x90, 0x30, 0x80, 0x00,
   0x00, 0x11, 0xa0, 0x48, 0x80, 0x00, 0x00, 0x11, 0xe0, 0x48, 0x80, 0x00,
   0x00, 0x11, 0x20, 0x48, 0x80, 0x00, 0x00, 0x11, 0x10, 0x48, 0x80, 0x00,
   0x00, 0x1d, 0x10, 0x30, 0x80, 0x00, 0x00, 0x11, 0x0c, 0x00, 0x80, 0x00,
   0x00, 0xf1, 0x03, 0x00, 0x80, 0x00, 0x00, 0x01, 0x00, 0x00, 0x80, 0x00,
   0x00, 0x01, 0x00, 0x00, 0x80, 0x00, 0x00, 0x01, 0x00, 0x00, 0x80, 0x00,
   0x00, 0x01, 0x00, 0x00, 0x80, 0x00, 0x00, 0x01, 0x00, 0x00, 0x80, 0x00,
   0x00, 0x01, 0x00, 0x00, 0x80, 0x00, 0x00, 0x01, 0x00, 0x00, 0x80, 0x00,
   0x00, 0xff, 0xff, 0xff, 0xff, 0x00, 0x00, 0x00, 0x00, 0x00, 0x00, 0x00};
