#define MusicObj_width 48
#define MusicObj_height 48
static char MusicObj_bits[] = {
   0x00, 0x00, 0x00, 0x00, 0x00, 0x00, 0x00, 0xff, 0xff, 0xff, 0x00, 0x00,
   0x00, 0x01, 0x00, 0x80, 0x01, 0x00, 0x00, 0x01, 0x00, 0x80, 0x02, 0x00,
   0x00, 0x01, 0x00, 0x80, 0x04, 0x00, 0x00, 0x01, 0x00, 0x80, 0x08, 0x00,
   0x00, 0x01, 0x00, 0x80, 0x10, 0x00, 0x00, 0x01, 0x00, 0x80, 0x20, 0x00,
   0x00, 0x01, 0x00, 0x80, 0x40, 0x00, 0x00, 0x01, 0x00, 0x80, 0xff, 0x00,
   0x00, 0x01, 0x00, 0x00, 0x80, 0x00, 0x00, 0x01, 0x00, 0x00, 0x80, 0x00,
   0x00, 0x01, 0x00, 0x00, 0x80, 0x00, 0x00, 0x01, 0x00, 0x00, 0x80, 0x00,
   0x00, 0x01, 0x00, 0x00, 0x80, 0x00, 0x00, 0x01, 0x00, 0x00, 0x80, 0x00,
   0x00, 0x01, 0x00, 0x00, 0x80, 0x00, 0x00, 0x01, 0x00, 0x00, 0x80, 0x00,
   0x00, 0x01, 0x00, 0x00, 0x80, 0x00, 0x00, 0x01, 0x00, 0x00, 0x80, 0x00,
   0x00, 0x01, 0x00, 0x00, 0x80, 0x00, 0x00, 0x01, 0x00, 0x00, 0x80, 0x00,
   0x00, 0xc1, 0x01, 0x00, 0x9c, 0x00, 0x00, 0xdd, 0xfd, 0xff, 0x9d, 0x00,
   0x00, 0xc1, 0x01, 0x00, 0x9c, 0x00, 0x00, 0x01, 0x39, 0x00, 0x90, 0x00,
   0x00, 0x3d, 0xb9, 0xff, 0x97, 0x00, 0x00, 0x01, 0x39, 0x00, 0x90, 0x00,
   0x00, 0x1d, 0x21, 0x00, 0x90, 0x00, 0x00, 0x5d, 0xad, 0x0f, 0x96, 0x00,
   0x00, 0x1d, 0x21, 0xe0, 0x90, 0x00, 0x00, 0x11, 0x20, 0xe0, 0x80, 0x00,
   0x00, 0xd5, 0x2f, 0xe7, 0x9e, 0x00, 0x00, 0x11, 0x20, 0x87, 0x80, 0x00,
   0x00, 0x11, 0x00, 0x87, 0x80, 0x00, 0x00, 0xd5, 0x7f, 0xb4, 0x9e, 0x00,
   0x00, 0x11, 0x00, 0x84, 0x80, 0x00, 0x00, 0x01, 0x00, 0x84, 0x80, 0x00,
   0x00, 0x01, 0x00, 0x84, 0x80, 0x00, 0x00, 0x01, 0x00, 0x04, 0x80, 0x00,
   0x00, 0x01, 0x00, 0x04, 0x80, 0x00, 0x00, 0x01, 0x00, 0x00, 0x80, 0x00,
   0x00, 0x01, 0x00, 0x00, 0x80, 0x00, 0x00, 0x01, 0x00, 0x00, 0x80, 0x00,
   0x00, 0x01, 0x00, 0x00, 0x80, 0x00, 0x00, 0x01, 0x00, 0x00, 0x80, 0x00,
   0x00, 0xff, 0xff, 0xff, 0xff, 0x00, 0x00, 0x00, 0x00, 0x00, 0x00, 0x00};
