#define RTFTextObj_width 48
#define RTFTextObj_height 48
static char RTFTextObj_bits[] = {
   0x00, 0x00, 0x00, 0x00, 0x00, 0x00, 0x00, 0xff, 0xff, 0xff, 0x00, 0x00,
   0x00, 0x01, 0x00, 0x80, 0x01, 0x00, 0x00, 0xdd, 0x6e, 0x80, 0x02, 0x00,
   0x00, 0xdd, 0x6e, 0x80, 0x04, 0x00, 0x00, 0x01, 0x00, 0x80, 0x08, 0x00,
   0x00, 0xed, 0xed, 0xee, 0x10, 0x00, 0x00, 0x01, 0x00, 0x80, 0x20, 0x00,
   0x00, 0xbd, 0xf7, 0xbb, 0x40, 0x00, 0x00, 0x01, 0x00, 0x80, 0xff, 0x00,
   0x00, 0xed, 0x6d, 0x6f, 0x80, 0x00, 0x00, 0x01, 0x00, 0x00, 0x80, 0x00,
   0x00, 0xbd, 0xfd, 0x76, 0x80, 0x00, 0x00, 0x01, 0x00, 0x00, 0x80, 0x00,
   0x00, 0x6d, 0xdf, 0x7b, 0x80, 0x00, 0x00, 0x01, 0x00, 0x00, 0x80, 0x00,
   0x00, 0x01, 0x00, 0x00, 0x80, 0x00, 0x00, 0x01, 0x00, 0x00, 0x80, 0x00,
   0x00, 0xdd, 0xbb, 0x77, 0x80, 0x00, 0x00, 0xdd, 0xbb, 0x77, 0x80, 0x00,
   0x00, 0x01, 0x00, 0x00, 0x80, 0x00, 0x00, 0xed, 0xfd, 0x7d, 0x80, 0x00,
   0x00, 0x01, 0x00, 0x00, 0x80, 0x00, 0x00, 0xbd, 0xbe, 0x6d, 0x80, 0x00,
   0x00, 0x01, 0x00, 0x00, 0x80, 0x00, 0x00, 0x75, 0xdd, 0x5e, 0x80, 0x00,
   0x00, 0x01, 0x00, 0x00, 0x80, 0x00, 0x00, 0x7d, 0xdb, 0x7b, 0x80, 0x00,
   0x00, 0x01, 0x00, 0x00, 0x80, 0x00, 0x00, 0x7d, 0xef, 0x6e, 0x80, 0x00,
   0x00, 0x01, 0x00, 0x00, 0x80, 0x00, 0x00, 0x01, 0x00, 0x00, 0x80, 0x00,
   0x00, 0x01, 0x00, 0x00, 0x80, 0x00, 0x00, 0xdd, 0xef, 0x0f, 0x80, 0x00,
   0x00, 0xdd, 0xef, 0x0f, 0x80, 0x00, 0x00, 0x01, 0x00, 0x00, 0x80, 0x00,
   0x00, 0xdd, 0xee, 0x6e, 0x80, 0x00, 0x00, 0x01, 0x00, 0x00, 0x80, 0x00,
   0x00, 0x6d, 0x6f, 0x7b, 0x80, 0x00, 0x00, 0x01, 0x00, 0x00, 0x80, 0x00,
   0x00, 0x75, 0xef, 0x7d, 0x80, 0x00, 0x00, 0x01, 0x00, 0x00, 0x80, 0x00,
   0x00, 0xdd, 0x7b, 0x77, 0x80, 0x00, 0x00, 0x01, 0x00, 0x00, 0x80, 0x00,
   0x00, 0x01, 0x00, 0x00, 0x80, 0x00, 0x00, 0x01, 0x00, 0x00, 0x80, 0x00,
   0x00, 0xff, 0xff, 0xff, 0xff, 0x00, 0x00, 0x00, 0x00, 0x00, 0x00, 0x00};
