#define SoundObj_width 48
#define SoundObj_height 48
static char SoundObj_bits[] = {
   0x00, 0x00, 0x00, 0x00, 0x00, 0x00, 0x00, 0xff, 0xff, 0xff, 0x00, 0x00,
   0x00, 0x01, 0x00, 0x80, 0x01, 0x00, 0x00, 0x01, 0x00, 0x80, 0x02, 0x00,
   0x00, 0x01, 0x00, 0x80, 0x04, 0x00, 0x00, 0x01, 0x00, 0x80, 0x08, 0x00,
   0x00, 0x01, 0x00, 0x80, 0x10, 0x00, 0x00, 0x01, 0x00, 0x80, 0x20, 0x00,
   0x00, 0x01, 0x00, 0x80, 0x40, 0x00, 0x00, 0x01, 0x00, 0x80, 0xff, 0x00,
   0x00, 0x01, 0x00, 0x00, 0x80, 0x00, 0x00, 0x01, 0x00, 0x00, 0x80, 0x00,
   0x00, 0x01, 0x00, 0x00, 0x80, 0x00, 0x00, 0x01, 0x00, 0x00, 0x80, 0x00,
   0x00, 0x01, 0x00, 0x00, 0x80, 0x00, 0x00, 0x01, 0x00, 0x00, 0x80, 0x00,
   0x00, 0x01, 0x00, 0x00, 0x80, 0x00, 0x00, 0x01, 0x00, 0x08, 0x80, 0x00,
   0x00, 0x01, 0x00, 0x08, 0x80, 0x00, 0x00, 0x01, 0x00, 0x1c, 0x80, 0x00,
   0x00, 0x01, 0x00, 0x14, 0x80, 0x00, 0x00, 0x31, 0x00, 0x14, 0x80, 0x00,
   0x00, 0x31, 0x00, 0x14, 0x80, 0x00, 0x00, 0x39, 0x00, 0x16, 0x80, 0x00,
   0x00, 0x29, 0x00, 0x12, 0x80, 0x00, 0x00, 0x29, 0x00, 0x12, 0x98, 0x00,
   0x00, 0x29, 0x60, 0x12, 0x98, 0x00, 0x00, 0x6d, 0x70, 0x13, 0xa8, 0x00,
   0x00, 0x45, 0x50, 0x21, 0xa8, 0x00, 0x00, 0x45, 0x50, 0x21, 0xac, 0x00,
   0x00, 0x41, 0xd0, 0x21, 0xa4, 0x00, 0x00, 0x41, 0xd8, 0x20, 0xa4, 0x00,
   0x00, 0xc1, 0xc8, 0x20, 0xa4, 0x00, 0x00, 0xc1, 0xc8, 0x40, 0x86, 0x00,
   0x00, 0x81, 0x04, 0x40, 0x82, 0x00, 0x00, 0x81, 0x04, 0x40, 0x82, 0x00,
   0x00, 0x81, 0x04, 0x00, 0x82, 0x00, 0x00, 0x81, 0x06, 0x40, 0x81, 0x00,
   0x00, 0x81, 0x03, 0xc0, 0x81, 0x00, 0x00, 0x01, 0x03, 0x80, 0x81, 0x00,
   0x00, 0x01, 0x03, 0x80, 0x80, 0x00, 0x00, 0x01, 0x00, 0x80, 0x80, 0x00,
   0x00, 0x01, 0x00, 0x00, 0x80, 0x00, 0x00, 0x01, 0x00, 0x00, 0x80, 0x00,
   0x00, 0x01, 0x00, 0x00, 0x80, 0x00, 0x00, 0x01, 0x00, 0x00, 0x80, 0x00,
   0x00, 0xff, 0xff, 0xff, 0xff, 0x00, 0x00, 0x00, 0x00, 0x00, 0x00, 0x00};
