#define TextObj_width 48
#define TextObj_height 48
#define TextObj_x_hot -1
#define TextObj_y_hot -1
static char TextObj_bits[] = {
   0x00, 0x00, 0x00, 0x00, 0x00, 0x00, 0x00, 0xff, 0xff, 0xff, 0x00, 0x00,
   0x00, 0x01, 0x00, 0x80, 0x01, 0x00, 0x00, 0x7d, 0x2f, 0xfa, 0x02, 0x00,
   0x00, 0x11, 0x41, 0xa1, 0x04, 0x00, 0x00, 0x11, 0x81, 0xa0, 0x08, 0x00,
   0x00, 0x11, 0x87, 0xa0, 0x10, 0x00, 0x00, 0x11, 0x81, 0xa0, 0x20, 0x00,
   0x00, 0x11, 0x41, 0xa1, 0x40, 0x00, 0x00, 0x11, 0x2f, 0xa2, 0xff, 0x00,
   0x00, 0x01, 0x00, 0x00, 0x80, 0x00, 0x00, 0x01, 0x00, 0x00, 0x80, 0x00,
   0x00, 0x01, 0x00, 0x00, 0x80, 0x00, 0x00, 0x01, 0x00, 0x00, 0x80, 0x00,
   0x00, 0x01, 0x00, 0x00, 0x80, 0x00, 0x00, 0x01, 0x00, 0x00, 0x80, 0x00,
   0x00, 0xd5, 0x12, 0xe1, 0xaa, 0x00, 0x00, 0x5d, 0x92, 0x42, 0xae, 0x00,
   0x00, 0xd5, 0x36, 0x41, 0xaa, 0x00, 0x00, 0x01, 0x00, 0x00, 0x80, 0x00,
   0x00, 0x01, 0x00, 0x00, 0x80, 0x00, 0x00, 0x69, 0x26, 0x69, 0xae, 0x00,
   0x00, 0x69, 0x56, 0x2f, 0xa4, 0x00, 0x00, 0x69, 0x26, 0x69, 0xa4, 0x00,
   0x00, 0x01, 0x00, 0x00, 0x80, 0x00, 0x00, 0x01, 0x00, 0x00, 0x80, 0x00,
   0x00, 0xad, 0x00, 0x00, 0x80, 0x00, 0x00, 0x45, 0x00, 0x00, 0x80, 0x00,
   0x00, 0xad, 0x02, 0x00, 0x80, 0x00, 0x00, 0x01, 0x00, 0x00, 0x80, 0x00,
   0x00, 0x01, 0x00, 0x00, 0x80, 0x00, 0x00, 0xd5, 0x12, 0x01, 0x80, 0x00,
   0x00, 0x5d, 0x92, 0x02, 0x80, 0x00, 0x00, 0xd5, 0x36, 0x09, 0x80, 0x00,
   0x00, 0x01, 0x00, 0x00, 0x80, 0x00, 0x00, 0x01, 0x00, 0x00, 0x80, 0x00,
   0x00, 0x01, 0x00, 0x00, 0x80, 0x00, 0x00, 0x01, 0x00, 0x00, 0x80, 0x00,
   0x00, 0x01, 0x00, 0x00, 0x80, 0x00, 0x00, 0x01, 0x00, 0x00, 0x80, 0x00,
   0x00, 0x01, 0x00, 0x00, 0x80, 0x00, 0x00, 0x01, 0x00, 0x00, 0x80, 0x00,
   0x00, 0x01, 0x00, 0x00, 0x80, 0x00, 0x00, 0x01, 0x00, 0x00, 0x80, 0x00,
   0x00, 0x01, 0x00, 0x00, 0x80, 0x00, 0x00, 0x01, 0x00, 0x00, 0x80, 0x00,
   0x00, 0xff, 0xff, 0xff, 0xff, 0x00, 0x00, 0x00, 0x00, 0x00, 0x00, 0x00};
