#define ToolObj_width 48
#define ToolObj_height 48
static char ToolObj_bits[] = {
   0x00, 0x00, 0x00, 0x00, 0x00, 0x00, 0x00, 0x00, 0x00, 0x00, 0x00, 0x00,
   0x00, 0x00, 0x00, 0x00, 0x00, 0x00, 0x00, 0x00, 0x00, 0x00, 0x00, 0x00,
   0x00, 0x00, 0x00, 0x00, 0x00, 0x00, 0x00, 0x80, 0x03, 0x00, 0x00, 0x00,
   0x00, 0xe0, 0x07, 0x00, 0xe0, 0x00, 0x00, 0xc0, 0x0f, 0x00, 0x10, 0x01,
   0x00, 0x80, 0x1f, 0x00, 0x28, 0x02, 0x00, 0x00, 0x1f, 0x00, 0x24, 0x04,
   0x00, 0x00, 0x1f, 0x00, 0x42, 0x08, 0x00, 0x81, 0x1f, 0x00, 0x91, 0x08,
   0x00, 0x83, 0x1f, 0x80, 0x08, 0x0b, 0x80, 0xe7, 0x1f, 0x40, 0x44, 0x04,
   0x80, 0xff, 0x1f, 0x20, 0x22, 0x02, 0x80, 0xff, 0x1f, 0x10, 0x11, 0x01,
   0x00, 0xff, 0x3f, 0x88, 0x88, 0x00, 0x00, 0xfe, 0x7f, 0x44, 0x44, 0x00,
   0x00, 0xfc, 0xff, 0x22, 0x22, 0x00, 0x00, 0x00, 0xff, 0x11, 0x11, 0x00,
   0x00, 0x00, 0xfe, 0x8b, 0x08, 0x00, 0x00, 0x00, 0xfc, 0x47, 0x04, 0x00,
   0x00, 0x00, 0xf8, 0x2f, 0x02, 0x00, 0x00, 0x00, 0xf0, 0x1f, 0x01, 0x00,
   0x00, 0x00, 0xe8, 0xbf, 0x00, 0x00, 0x00, 0x00, 0xc4, 0x7f, 0x00, 0x00,
   0x00, 0x00, 0x8c, 0xff, 0x00, 0x00, 0x00, 0x00, 0x18, 0xff, 0x01, 0x00,
   0x00, 0x00, 0x30, 0xfe, 0x03, 0x00, 0x00, 0x00, 0x78, 0xfc, 0x07, 0x00,
   0x00, 0x00, 0xdc, 0xfa, 0x0f, 0x00, 0x00, 0x00, 0x8e, 0xf1, 0x1f, 0x00,
   0x00, 0x00, 0x07, 0xe0, 0x3f, 0x00, 0x00, 0x80, 0x03, 0xc0, 0x7f, 0x00,
   0x00, 0xc0, 0x01, 0x80, 0xff, 0x00, 0x00, 0xe0, 0x00, 0x00, 0xff, 0x01,
   0x00, 0x70, 0x00, 0x00, 0xfe, 0x03, 0x00, 0x38, 0x00, 0x00, 0xfc, 0x03,
   0x00, 0x1c, 0x00, 0x00, 0xf8, 0x01, 0x00, 0x8e, 0x6f, 0x4c, 0xf0, 0x00,
   0x00, 0x07, 0x92, 0x52, 0x60, 0x00, 0xc0, 0x03, 0x92, 0x52, 0x00, 0x00,
   0x60, 0x01, 0x92, 0x52, 0x00, 0x00, 0xb0, 0x01, 0x92, 0x52, 0x00, 0x00,
   0xe0, 0x00, 0x62, 0xcc, 0x01, 0x00, 0x40, 0x00, 0x00, 0x00, 0x00, 0x00,
   0x00, 0x00, 0x00, 0x00, 0x00, 0x00, 0x00, 0x00, 0x00, 0x00, 0x00, 0x00};
