#define b_alignCH_width 16
#define b_alignCH_height 16
static unsigned char b_alignCH_bits[] = {
   0x00, 0x00, 0xfe, 0x7f, 0xfe, 0x7f, 0x80, 0x00, 0xc0, 0x01, 0xe0, 0x03,
   0xf0, 0x07, 0xf8, 0x0f, 0x00, 0x00, 0xfe, 0x7f, 0xfe, 0x7f, 0x80, 0x00,
   0xc0, 0x01, 0xe0, 0x03, 0xf0, 0x07, 0xf8, 0x0f};
