#define b_alignL_width 16
#define b_alignL_height 16
static unsigned char b_alignL_bits[] = {
   0x11, 0x00, 0x19, 0x00, 0x1d, 0x00, 0xff, 0x7f, 0x1d, 0x00, 0x19, 0x00,
   0x11, 0x00, 0x01, 0x00, 0x01, 0x00, 0x11, 0x00, 0x19, 0x00, 0x1d, 0x00,
   0xff, 0x7f, 0x1d, 0x00, 0x19, 0x00, 0x11, 0x00};
