/* XPM */
static char *ui_submenu_open[] = {
	"20 20 4 1",
	". c none",
	"b c black   m black g4 black",
	"w c white   m white g4 white",
	"x c #0000FF m black g4 black",
	"....................",
	"....................",
	"bbbbbbbbbbbbbbbb....",
	"bwwwwwwwwwwwwwwb....",
	"bwwwwwwwwwwwwwwb....",
	"bwwwwwwwwwwwwwwb....",
	"bbbbbbbbbbbbbbbb....",
	"bwwwwwwwwwwwwwwb....",
	"bwwwxxxxxxxxxxxxxxxx",
	"bwwwxwwwwwwwwwwwwwwx",
	"bbbbxwwwwwwwwwwwwwwx",
	"bwwwxwwwwwwwwwwwwwwx",
	"bwwwxxxxxxxxxxxxxxxx",
	"bwwwxwwwwwwwwwwwwwwx",
	"bbbbxwwwwwwwwwwwwwwx",
	"bwwwxwwwwwwwwwwwwwwx",
	"bwwwxxxxxxxxxxxxxxxx",
	"bwwwwwwwwwwwwwwb....",
	"bbbbbbbbbbbbbbbb....",
	"....................",
};
