#define CBrowser_width 48
#define CBrowser_height 48
#define CBrowser_x_hot -1
#define CBrowser_y_hot -1
static char CBrowser_bits[] = {
   0x00, 0x00, 0x00, 0x00, 0x00, 0x00, 0x00, 0x00, 0xf0, 0x07, 0x00, 0x00,
   0x00, 0x00, 0x1e, 0x3c, 0x00, 0x00, 0x00, 0x80, 0x15, 0xd4, 0x00, 0x00,
   0x00, 0x40, 0x1b, 0x68, 0x01, 0x00, 0x00, 0xa0, 0x55, 0xd8, 0x02, 0x00,
   0x00, 0x90, 0xba, 0xb8, 0x04, 0x00, 0x00, 0x48, 0x15, 0xc9, 0x08, 0x00,
   0x00, 0xc4, 0x0a, 0x86, 0x11, 0x00, 0x00, 0x64, 0x05, 0x02, 0x11, 0x00,
   0x00, 0xa2, 0x0a, 0x81, 0x21, 0x00, 0x00, 0x62, 0x9d, 0x40, 0x21, 0x00,
   0x00, 0xa2, 0x6a, 0xa0, 0x21, 0x00, 0x00, 0x61, 0x2d, 0x50, 0x41, 0x00,
   0x00, 0xa1, 0x1a, 0x88, 0x41, 0x00, 0x00, 0x61, 0x0d, 0x04, 0x41, 0x00,
   0x00, 0xa1, 0x0a, 0x82, 0x41, 0x00, 0x00, 0x61, 0x1d, 0x45, 0x41, 0x00,
   0x00, 0xa5, 0xaa, 0xa8, 0x41, 0x00, 0x00, 0x1b, 0x4d, 0xd4, 0x40, 0x00,
   0x00, 0x0a, 0x0a, 0xac, 0x20, 0x00, 0x00, 0x06, 0x0d, 0xf4, 0x28, 0x00,
   0x00, 0x82, 0x1a, 0x4c, 0x34, 0x00, 0x00, 0xc4, 0x15, 0x86, 0x12, 0x00,
   0x00, 0xa4, 0x1a, 0x02, 0x11, 0x00, 0x00, 0x18, 0x15, 0x06, 0x0a, 0x00,
   0x00, 0x10, 0x1a, 0x0a, 0x04, 0x00, 0x00, 0x20, 0x37, 0x16, 0x02, 0x00,
   0x00, 0xc0, 0x2a, 0x2b, 0x01, 0x00, 0x00, 0x80, 0x34, 0xc5, 0x00, 0x00,
   0x00, 0x00, 0x6d, 0x43, 0x00, 0x00, 0x00, 0x00, 0x5a, 0x35, 0x00, 0x00,
   0x00, 0x00, 0xfc, 0x1f, 0x00, 0x00, 0x00, 0x00, 0x28, 0x0a, 0x00, 0x00,
   0x00, 0x00, 0xc8, 0x09, 0x00, 0x00, 0x00, 0x00, 0x10, 0x04, 0x00, 0x00,
   0x00, 0x00, 0x10, 0x04, 0x00, 0x00, 0x00, 0x00, 0xf0, 0x07, 0x00, 0x00,
   0x00, 0x00, 0xb0, 0x06, 0x00, 0x00, 0x00, 0x00, 0x70, 0x07, 0x00, 0x00,
   0x00, 0x00, 0xd0, 0x05, 0x00, 0x00, 0x00, 0x00, 0x10, 0x04, 0x00, 0x00,
   0x00, 0x00, 0x50, 0x05, 0x00, 0x00, 0x00, 0x00, 0x50, 0x05, 0x00, 0x00,
   0x00, 0x00, 0x10, 0x04, 0x00, 0x00, 0x00, 0x00, 0x30, 0x06, 0x00, 0x00,
   0x00, 0x00, 0xc0, 0x01, 0x00, 0x00, 0x00, 0x00, 0x00, 0x00, 0x00, 0x00};
