#define FBrowser_width 48
#define FBrowser_height 48
static char FBrowser_bits[] = {
   0x00, 0x00, 0x00, 0x00, 0x00, 0x00, 0xfc, 0xff, 0xff, 0xff, 0xff, 0x3f,
   0x04, 0x00, 0x00, 0x00, 0x00, 0x20, 0xf4, 0x3f, 0x00, 0x00, 0x00, 0x20,
   0x04, 0x00, 0x00, 0x00, 0x00, 0x20, 0xf4, 0x01, 0x00, 0x00, 0x00, 0x20,
   0x04, 0x00, 0x00, 0x00, 0x00, 0x20, 0xf4, 0x0f, 0x00, 0x00, 0x00, 0x20,
   0x04, 0x00, 0x00, 0x00, 0x00, 0x20, 0xf4, 0x01, 0x00, 0x00, 0x00, 0x20,
   0x04, 0x00, 0x00, 0x00, 0x00, 0x20, 0xfc, 0xff, 0xff, 0xff, 0xff, 0x3f,
   0x04, 0x00, 0x00, 0x00, 0x00, 0x20, 0xf4, 0x03, 0x00, 0x00, 0x00, 0x20,
   0x04, 0x00, 0x00, 0x00, 0x00, 0x20, 0xf4, 0xe0, 0x00, 0x00, 0x00, 0x20,
   0x04, 0x00, 0x00, 0x00, 0x00, 0x20, 0xf4, 0x3b, 0x00, 0x00, 0x00, 0x20,
   0x04, 0x00, 0x00, 0x00, 0x00, 0x20, 0x74, 0x3f, 0x00, 0x00, 0x00, 0x20,
   0x04, 0x00, 0x00, 0x00, 0x00, 0x20, 0xf4, 0x3b, 0x00, 0x00, 0x00, 0x20,
   0x04, 0x00, 0x00, 0x00, 0x00, 0x20, 0x74, 0x37, 0x00, 0x00, 0x00, 0x20,
   0x04, 0x00, 0x00, 0x00, 0x00, 0x20, 0xf4, 0x7d, 0x1f, 0x00, 0x00, 0x20,
   0x04, 0x00, 0x00, 0x00, 0x00, 0x20, 0xf4, 0xbb, 0x0f, 0x00, 0x00, 0x20,
   0x04, 0x00, 0x00, 0x00, 0x00, 0x20, 0xf4, 0xdf, 0x01, 0x00, 0x00, 0x20,
   0x04, 0x00, 0x00, 0x00, 0x00, 0x20, 0x74, 0xdf, 0x03, 0x00, 0x00, 0x20,
   0x04, 0x00, 0x00, 0x00, 0x00, 0x20, 0xf4, 0xcf, 0x01, 0x00, 0x00, 0x20,
   0x04, 0x00, 0x00, 0x00, 0x00, 0x20, 0xfc, 0xff, 0xff, 0xff, 0xff, 0x3f,
   0x00, 0x00, 0x00, 0x00, 0x00, 0x00, 0x00, 0x78, 0x12, 0x3c, 0x0e, 0x00,
   0x00, 0x08, 0x12, 0x04, 0x11, 0x00, 0x00, 0x08, 0x12, 0x04, 0x01, 0x00,
   0x00, 0x08, 0x12, 0x04, 0x01, 0x00, 0x00, 0x08, 0x12, 0x04, 0x02, 0x00,
   0x00, 0x38, 0x12, 0x1c, 0x0c, 0x00, 0x00, 0x08, 0x12, 0x04, 0x10, 0x00,
   0x00, 0x08, 0x12, 0x04, 0x10, 0x00, 0x00, 0x08, 0x12, 0x04, 0x11, 0x00,
   0x00, 0x08, 0xf2, 0x3c, 0x0e, 0x00, 0x00, 0x00, 0x00, 0x00, 0x00, 0x00};
