/* XPM */
static char *FBrowser16x16_xpm[] = {
/* width height ncolors chars_per_pixel */
"16 16 6 1",
/* colors */
"a c black",
"b c white",
"c c #808080",
"d c yellow",
"e c #C0C0C0",
"f c none",
/* pixels */
"ffffffffffffffff",
"ffffffffffffffff",
"ffcccccfffffffff",
"fcdededcffffffff",
"cdedededccccccff",
"cbbbbbbbbbbbbcaf",
"cbdedededededcaf",
"cbedededededecaf",
"cbdedededededcaf",
"cbedededededecaf",
"cbdedededededcaf",
"cbedededededecaf",
"cbdedededededcaf",
"ccccccccccccccaf",
"faaaaaaaaaaaaaaf",
"ffffffffffffffff",
};
