#define Inspector_width 48
#define Inspector_height 48
static char Inspector_bits[] = {
   0x00, 0x00, 0x00, 0x00, 0x00, 0x00, 0x00, 0x00, 0x00, 0x00, 0x00, 0x00,
   0x00, 0x00, 0x00, 0x00, 0x00, 0x00, 0x00, 0x00, 0x00, 0x00, 0x00, 0x00,
   0x00, 0x00, 0x00, 0x00, 0x00, 0x00, 0x00, 0x00, 0x00, 0x00, 0x00, 0x00,
   0x00, 0x00, 0x00, 0x00, 0x00, 0x00, 0x00, 0xf8, 0x03, 0x20, 0x00, 0x00,
   0x00, 0xfe, 0x0f, 0xe0, 0x00, 0x00, 0x80, 0x1f, 0x3f, 0x80, 0x01, 0x00,
   0xc0, 0x03, 0x78, 0x80, 0x03, 0x00, 0xc0, 0x01, 0x70, 0x40, 0x0e, 0x00,
   0xe0, 0x00, 0xe0, 0x40, 0x18, 0x00, 0x60, 0x00, 0xc0, 0x20, 0x70, 0x00,
   0x70, 0x00, 0xc0, 0x21, 0xc0, 0x00, 0x70, 0x00, 0xc0, 0xa1, 0x83, 0x01,
   0x30, 0x00, 0x80, 0xa1, 0x83, 0x01, 0x30, 0x00, 0x80, 0xa1, 0xc3, 0x00,
   0x30, 0x00, 0x80, 0x21, 0x70, 0x00, 0x70, 0x00, 0xc0, 0x41, 0x1c, 0x00,
   0x70, 0x00, 0xc0, 0x81, 0x07, 0x00, 0x60, 0x00, 0xc0, 0x80, 0x03, 0x00,
   0xe0, 0x00, 0xe0, 0xc0, 0x00, 0x00, 0xc0, 0x01, 0x70, 0x70, 0x00, 0x00,
   0xc0, 0x07, 0x7c, 0x20, 0x00, 0x00, 0x80, 0x1f, 0x3f, 0x00, 0x00, 0x00,
   0x00, 0xfe, 0x7f, 0x00, 0x00, 0x00, 0x00, 0xf8, 0xe3, 0x00, 0x00, 0x00,
   0x00, 0x00, 0xc0, 0x01, 0x00, 0x00, 0x00, 0x00, 0x80, 0x03, 0x00, 0x00,
   0x00, 0x00, 0x00, 0x07, 0x00, 0x00, 0x00, 0x00, 0x00, 0x0e, 0x00, 0x00,
   0x00, 0x00, 0x00, 0x1c, 0x00, 0x00, 0x00, 0x00, 0x00, 0x38, 0x00, 0x00,
   0x00, 0x00, 0x00, 0x70, 0x00, 0x00, 0x00, 0x00, 0x00, 0xe0, 0x00, 0x00,
   0x00, 0x00, 0x00, 0xc0, 0x01, 0x00, 0x00, 0x00, 0x00, 0x80, 0x01, 0x00,
   0x00, 0x00, 0x00, 0x00, 0x00, 0x00, 0x00, 0x00, 0x00, 0x00, 0x00, 0x00,
   0x00, 0x00, 0x00, 0x00, 0x00, 0x00, 0x00, 0x00, 0x00, 0x00, 0x00, 0x00,
   0x00, 0x00, 0x00, 0x00, 0x00, 0x00, 0x00, 0x00, 0x00, 0x00, 0x00, 0x00,
   0x00, 0x00, 0x00, 0x00, 0x00, 0x00, 0x00, 0x00, 0x00, 0x00, 0x00, 0x00,
   0x00, 0x00, 0x00, 0x00, 0x00, 0x00, 0x00, 0x00, 0x00, 0x00, 0x00, 0x00};
