#define xbm_width 16
#define xbm_height 16
static char xbm_bits[] = {
0xFF, 0xFF, 
0x89, 0x88, 
0x89, 0x88, 
0x89, 0x88, 
0xFF, 0xFF, 
0x01, 0x80, 
0x35, 0x80, 
0x01, 0x80, 
0x19, 0x80, 
0x01, 0x80, 
0x59, 0x80, 
0x01, 0x80, 
0xDD, 0x80, 
0x01, 0x80, 
0x01, 0x80, 
0xFF, 0xFF, 
};
