#define Smalltalk_width 48
#define Smalltalk_height 48
#define Smalltalk_x_hot -1
#define Smalltalk_y_hot -1
static char Smalltalk_bits[] = {
   0x00, 0x00, 0x00, 0x00, 0x00, 0x00, 0x00, 0x00, 0xf0, 0x07, 0x00, 0x00,
   0x00, 0x00, 0x1e, 0x3c, 0x00, 0x00, 0x00, 0x80, 0x15, 0xd4, 0x00, 0x00,
   0x00, 0x40, 0x1b, 0x68, 0x01, 0x00, 0x00, 0xa0, 0x15, 0xd8, 0x02, 0x00,
   0x00, 0x90, 0x1a, 0xa8, 0x04, 0x00, 0x00, 0x48, 0x15, 0xd8, 0x08, 0x00,
   0x00, 0xc4, 0x1a, 0xa8, 0x11, 0x00, 0x00, 0x64, 0x0d, 0x58, 0x11, 0x00,
   0x00, 0xa2, 0x0a, 0xa8, 0x21, 0x00, 0x00, 0x62, 0x0d, 0x58, 0x21, 0x00,
   0x00, 0xa2, 0x0a, 0xa8, 0x21, 0x00, 0x00, 0x61, 0x0d, 0x58, 0x41, 0x00,
   0x00, 0xa1, 0x0a, 0xac, 0x41, 0x00, 0x00, 0x61, 0x0d, 0x54, 0x41, 0x00,
   0x00, 0xa1, 0x0a, 0xac, 0x41, 0x00, 0x00, 0x61, 0x0d, 0x54, 0x41, 0x00,
   0x00, 0xa1, 0x0a, 0xac, 0x41, 0x00, 0x00, 0x61, 0x0d, 0xd4, 0x40, 0x00,
   0x00, 0xc2, 0x0a, 0xac, 0x20, 0x00, 0x00, 0x42, 0x0d, 0xd4, 0x20, 0x00,
   0x00, 0xc2, 0x1a, 0x6c, 0x20, 0x00, 0x00, 0x84, 0x15, 0x56, 0x10, 0x00,
   0x00, 0x84, 0x1a, 0x6a, 0x10, 0x00, 0x00, 0x88, 0x15, 0x36, 0x08, 0x00,
   0x00, 0x10, 0x1b, 0x2a, 0x04, 0x00, 0x00, 0x20, 0x36, 0x36, 0x02, 0x00,
   0x00, 0x40, 0x2a, 0x2b, 0x01, 0x00, 0x00, 0x80, 0x34, 0x95, 0x00, 0x00,
   0x00, 0x00, 0x6d, 0x5b, 0x00, 0x00, 0x00, 0x00, 0x5a, 0x35, 0x00, 0x00,
   0x00, 0x00, 0xfc, 0x1f, 0x00, 0x00, 0x00, 0x00, 0x28, 0x0a, 0x00, 0x00,
   0x00, 0x00, 0xc8, 0x09, 0x00, 0x00, 0x00, 0x00, 0x10, 0x04, 0x00, 0x00,
   0x00, 0x00, 0x10, 0x04, 0x00, 0x00, 0x00, 0x00, 0xf0, 0x07, 0x00, 0x00,
   0x00, 0x00, 0xb0, 0x06, 0x00, 0x00, 0x00, 0x00, 0x70, 0x07, 0x00, 0x00,
   0x00, 0x00, 0xd0, 0x05, 0x00, 0x00, 0x00, 0x00, 0x10, 0x04, 0x00, 0x00,
   0x00, 0x00, 0x50, 0x05, 0x00, 0x00, 0x00, 0x00, 0x50, 0x05, 0x00, 0x00,
   0x00, 0x00, 0x10, 0x04, 0x00, 0x00, 0x00, 0x00, 0x30, 0x06, 0x00, 0x00,
   0x00, 0x00, 0xc0, 0x01, 0x00, 0x00, 0x00, 0x00, 0x00, 0x00, 0x00, 0x00};
