#define Workspace32x32_width 32
#define Workspace32x32_height 32
static unsigned char Workspace32x32_bits[] = {
   0x00, 0x00, 0x00, 0x00, 0x80, 0xff, 0xff, 0x01, 0x80, 0x00, 0x00, 0x01,
   0x80, 0x1e, 0x00, 0x01, 0x80, 0x00, 0x00, 0x01, 0x80, 0x1e, 0x00, 0x01,
   0x80, 0x00, 0x00, 0x01, 0x80, 0x1e, 0x00, 0x01, 0x80, 0x00, 0x00, 0x01,
   0x80, 0x1e, 0x00, 0x01, 0x80, 0x00, 0x00, 0x01, 0x80, 0x1e, 0x00, 0x01,
   0x80, 0x00, 0x00, 0x01, 0x80, 0xff, 0xff, 0x01, 0x00, 0x00, 0x00, 0x00,
   0x00, 0x00, 0x00, 0x00, 0x40, 0x64, 0x4e, 0x02, 0x40, 0x94, 0x52, 0x02,
   0x40, 0x94, 0x52, 0x01, 0x40, 0x94, 0xce, 0x00, 0x40, 0x95, 0x4a, 0x01,
   0xc0, 0x96, 0x52, 0x02, 0x40, 0x64, 0x52, 0x02, 0x00, 0x00, 0x00, 0x00,
   0xc0, 0x1c, 0x63, 0x0e, 0x20, 0xa5, 0x94, 0x02, 0x20, 0xa4, 0x14, 0x02,
   0xc0, 0x9c, 0x17, 0x06, 0x00, 0x85, 0x14, 0x02, 0x20, 0x85, 0x94, 0x02,
   0xc0, 0x84, 0x64, 0x0e, 0x00, 0x00, 0x00, 0x00};
