/* XPM */
static char *Bubble9_xpm[] = {
/* width height ncolors chars_per_pixel */
"38 38 5 1",
/* colors */
"a c black",
"b c #AAAAAA",
"c c white",
"d c #F8FCF8",
"e c none",
/* pixels */
"eeeeeeeeeeeeeeeaaaaaaaaeeeeeeeeeeeeeee",
"eeeeeeeeeeeeaaaccccccccaaaeeeeeeeeeeee",
"eeeeeeeeeeaaccccccccccccccaaeeeeeeeeee",
"eeeeeeeeaaccccccccccccccccccaaeeeeeeee",
"eeeeeeeaccccccccccccccccccccccaeeeeeee",
"eeeeeeaccccccccccccccccccccccccaeeeeee",
"eeeeeaccccccccccccccccccccccccccaeeeee",
"eeeeaccccccccccccccccccccccccccccaeeee",
"eeeaccccccccccccccccccccccccccccccaeee",
"eeeaccccccccccccccccccccccccccccccaeee",
"eeaccccccccccccccccccccccccccccccccaee",
"eeaccccccccccccccccccccccccccccccccaee",
"eaccccccccccccdddaaaadddccccccccccccae",
"eaccccccccccccddaadaaaddccccccccccccae",
"aaccccccccccccdaadddaaddccccccccccccaa",
"acccccccccccccdaaddddaadccccccccccccca",
"acccccccccccccdaaddddaadccccccccccccca",
"acccccccccccccdaaddddaadccccccccccccca",
"acccccccccccccdaaadddaadccccccccccccca",
"acccccccccccccddaaaaaaadccccccccccccca",
"acccccccccccccddddddaaddccccccccccccca",
"acccccccccccccddddddaaddccccccccccccca",
"acccccccccccccdddddaadddccccccccccccca",
"eaccccccccccccdddaaaddddccccccccccccae",
"eaccccccccccccdaaaddddddccccccccccccae",
"eaccccccccccccddddddddddccccccccccccae",
"eeaccccccccccccccccccccccccccccccccaee",
"eeaccccccccccccccccccccccccccccccccaee",
"eeeaccccccccccccccccccccccccccccccaeee",
"eeeaccccccccccccccccccccccccccccccaeee",
"eeeeaccccccccccccccccccccccccccccaeeee",
"eeeeeaccccccccccccccccccccccccccaeeeee",
"eeeeeeaccccccccccccccccccccccccaeeeeee",
"eeeeeeeaccccccccccccccccccccccaeeeeeee",
"eeeeeeeeaaccccccccccccccccccaaeeeeeeee",
"eeeeeeeeeeaaccccccccccccccaaeeeeeeeeee",
"eeeeeeeeeeeeaaaccccccccaaaeeeeeeeeeeee",
"eeeeeeeeeeeeeeeaaaaaaaaeeeeeeeeeeeeeee",
};
