#define leftArrow_width 14
#define leftArrow_height 14
static unsigned char leftArrow_bits[] = {
   0x00, 0x00, 0x00, 0x00, 0x00, 0x00, 0x00, 0x00, 0x10, 0x00,
   0x18, 0x00, 0x1c, 0x00, 0xfe, 0x1f, 0xff, 0x1f, 0xfe, 0x1f, 0x1c, 0x00,
   0x18, 0x00, 0x10, 0x00, 0x00, 0x00};
