/* XPM */
static char *noteBook_bg_xpm[] = {
/* width height ncolors chars_per_pixel */
"48 38 4 1",
/* colors */
"a c black",
"b c white",
"c c #808080",
"d c #C0C0C0",
/* pixels */
"dbbbbbbacccddddddddddddadbbbbbbbbbbbbbbbbbbbbbbb",
"bbbbbbdcaccccdddbbbbbbbbbdbddbdbdbbbbbbbbbbbbbbb",
"bbbbbbddcaccccdddbdbbbbbbbbbbbbbbdbdbbbbbbbbbbbb",
"bbbbbbddddcacaccdcddddddbdbbbbbbbbbbdbbbbbbbbbbb",
"bbbbbbddcddcdcccacccccddcddddddbdbdbbddbbbbbbbbb",
"bbbbbbbdddddddddddcccccacccccccdcddddbddbbbbbbbb",
"bbbbbbbddcddddddddddddcacdcccccaccccccddbbbbbbbb",
"bbbbbbbbdddcddcdddddddcacddddddddcacccccdbbbbbbb",
"bbbbbbbbbddddddddcddcdcaccddcddcdcaaaccadbbbbbbb",
"bbbbbbbbbbbdddcdddddddcacddddddddcaacaacbbbbbbbb",
"bbbbbbbbbbbbbdbddddcddcacddcddcdddccaacdbbbbbbbb",
"bbbbbbbbbbbbbbbbbbbbbbcacbbbbbbbbbbbbdbbbbbbbbbb",
"bbbbbbbbbbbbbbbbbbbbbbdacbbbbbbbbbbbbbbbbbbbbbbb",
"bbbbbbbbbdbbbbbbbbbbbbdacbbbbbbbbbbbbbbbbbbbbbbb",
"bbbbbbbdcaaabbbbbbbbbbdadbbbbbbbbbbbbbbbbbbbbbbb",
"bbbbbbbcaccaadbbbbbbbbdacbbbbbbbbbbbbbbbbbbbbbbb",
"bbbbbbbacdcdacbbbbbbbbdacbbbbbbbbbbbbbbbbbbbbbbb",
"bbbbbbdaccddccbbbbbbbbdacbbbbbbbbbbbbbbbbbbbbbbb",
"bbbbbbbaccccddddddddbddccbbbbbbbbbbbbbbbbbbbbbbb",
"dbbbbbdcaccccdddbbbbdbbdbdbddbdbbbbbbbbbbbbbbbbb",
"bbbbbbddcacccccdddbbbbbbbbbbbbbdbdbbbbbbbbbbbbbb",
"bbbbbbddddcacccccccddddbdbbbbbbbbbbdbbbbbbbbbbbb",
"bbbbbbddddddccccccccccdcdcdddddbbdbbdbdbbbbbbbbb",
"bbbbbbbdcdcddddddddccccacccccccdcdddbdddbbbbbbbb",
"bbbbbbbdddddddddddddbdcaccdccccaccccccddbbbbbbbb",
"bbbbbbbbdddcdddcdcddcdcacddddddddcaaccccdbbbbbbb",
"bbbbbbbbbddddcddddddddcacddcdcdcdcacaccadbbbbbbb",
"bbbbbbbbbbbdddddddcdddcacddddddddcaacaacbbbbbbbb",
"bbbbbbbbbbbbbbddddddcdcacddcdddddddaaacdbbbbbbbb",
"bbbbbbbbbbbbbbbbbbbbbbcacbbbbbdbbbbbbbbbbbbbbbbb",
"bbbbbbbbbbbbbbbbbbbbbbdacbbbbbbbbbbbbbbbbbbbbbbb",
"bbbbbbbbbbbbbbbbbbbbbbdacbbbbbbbbbbbbbbbbbbbbbbb",
"bbbbbbbbbddbbbbbbbbbbbdacbbbbbbbbbbbbbbbbbbbbbbb",
"bbbbbbbdcaaadbbbbbbbbbdacbbbbbbbbbbbbbbbbbbbbbbb",
"bbbbbbbcacccadbbbbbbbbdadbbbbbbbbbbbbbbbbbbbbbbb",
"bbbbbbbacdccacbbbbbbbbdacbbbbbbbbbbbbbbbbbbbbbbb",
"bbbbbbdaccddccbbbbbbbbdacbbbbbbbbbbbbbbbbbbbbbbb",
"bbbbbbbacccddddddddbdddccbbbbbbbbbbbbbbbbbbbbbbb",
};
