/* XPM */
static char *BOOK_xpm[] = {
/* width height ncolors chars_per_pixel */
"32 32 5 1",
/* colors */
"a c black",
"b c #C8ACA0",
"c c #FDFDFD",
"d c #C0C0C0",
"e c none",
/* pixels */
"eeeeeeeeaaeeeeeeeeeeeeeeeeeeeeee",
"eeeeeeeeadaaeeeeeeeeeeeeeeeeeeee",
"eeeeeeeeaccdaeeeeeeeeeeeeeeeeeee",
"eeeeeeeeacccdaeeeeeeeeeeeeeeeeee",
"eeeeeeeeaccccdaeeeeeeeeeeeeeeeee",
"eeeeeaaaacccccdaeeeeeeeaaaaeeeee",
"eeeeadccaccccccaeeeeaaadcccaeeee",
"eeaadcccaccccccdaeaadccccccaaaee",
"eabaccccacccccccaaddcccccccabbae",
"eabacccdacccccccadddcccccccdabae",
"eabacccadcccccccadddccccccccabae",
"eabacccaccccccccadddccccccccabae",
"eabacccaccccccccadddccccccccabae",
"eabacccaccccccccaddddcccccccabae",
"eabacccaccccccccaddddcccccccabae",
"eabacccaccccccccaddddcccccccabae",
"eabacccaccccccccaddddcccccccabba",
"abadcccaccccccccaddddcccccccdaba",
"abaccccaaadcccccaddddccccccccaba",
"abacccccccaadcccaddddccccccccaba",
"abacccccccddadccaddddccccccccaba",
"abacccccccdddadcaddddccccccccaba",
"abacccccccddddadaddddccccccccaba",
"abaaaaccccdddddaaddddcccccaaaaba",
"abadddaaccddddddaddddcccaadddaba",
"abaaadddaaadddddaddddaaadddaaaba",
"aabbbaaadddaaaddadaaadddaaabbbaa",
"eeaaabbbaaadddaaaadddaaabbaaaaee",
"eeeeeaaaabbaaaddddaaabbaaaeeeeee",
"eeeeeeeeeaaabbaaaabbaaaeeeeeeeee",
"eeeeeeeeeeeeaabbbbaaeeeeeeeeeeee",
"eeeeeeeeeeeeeeaaaaeeeeeeeeeeeeee",
};
