/* XPM */
static char *BOOKS_xpm[] = {
/* width height ncolors chars_per_pixel */
"37 38 10 1",
/* colors */
"a c black",
"b c #0000BF",
"c c #00BFBF",
"d c #0000FF",
"e c magenta",
"f c #808080",
"g c #C0C0C0",
"h c #BF00BF",
"i c #BF0000",
"j c none",
/* pixels */
"jjjjjjjjjjjjjjjjjjjjjjjjjjjjjjjjjjjjj",
"jjjjjjjjjjjjjjjjjjjjjjjjjjjjjjjjjjjjj",
"jjjjjjjjjjjjjjjjjjjjjjjjjjjjjjjjjjjjj",
"jjjjjjjjjjjjjjjjjaajjjjjjjjjjjjjjjjjj",
"jjjjjjjjjjjjjjjaahhajjjjjjjjjjjjjjjjj",
"jjjjjjjjjjjjjaeeeehhajjjjjjjjjjjjjjjj",
"jjjjjjjjjjjaaheeeeeehajjjjjjjjjjjjjjj",
"jjjjjjjjjaahheeeeeeeehajjjjjjjjjjjjjj",
"jjjjjjjahhheeeeeeeeeeehajjjjjjjjjjjjj",
"jjjjjaahheeeeeeeeeeeeeehajjjjjjjjjjjj",
"jjjjaeahheeeeeeeeeeeeeeehajjjjjjjjjjj",
"jjjjaheaeeeeeeeeeeeeeeeeehajjjjjjjjjj",
"jjjjahheaheeeeeeeeeeeeeeeehajjjjjjjjj",
"jjjjahhheheeeeeeeeeeeeeeeehaajjjjjjjj",
"jjjjjahheehhheeeeeeeeeehhaaajjjjjjjjj",
"jjjjjjahheehhheeeeeeeehaaffaajjjjjjjj",
"jjjjjjjaheeehheeeeeehaaffffaiajjjjjjj",
"jjjjjjjaiheeehheeehaaffffffaaiajjjjjj",
"jjjjjjjaiihheeahhaaffffffaiiiiaajjjjj",
"jjjjjjjjaiieehaaaffffffaaiiiaaajjjjjj",
"jjjjjjjaaaiihhaffffffaiiiiaaffajjjjjj",
"jjjjjjacabaiihaffffaaiiiaaffffajjjjjj",
"jjjjjjabdabaiiaffaaiiiaaffffffaajjjjj",
"jjjjjjbbbcbbaiaaaaiiaaffffffaajjjjjjj",
"jjjjjjabbbdbaaiiiaaaffffffaaaaajjjjjj",
"jjjjjjjabbbcbaaiiaffffffaaaaaajjjjjjj",
"jjjjjjjjabbbdbbaiaffffaaaaaffajjjjjjj",
"jjjjjjjjjabbbcbbaaffaaaaaffffajjjjjjj",
"jjjjjjjjjjabbbdbbaaaaaaffffffaajjjjjj",
"jjjjjjjjjjjabbbcbabaaffffffaajjjjjjjj",
"jjjjjjjjjjjjabbbdaaffffffaajjjjjjjjjj",
"jjjjjjjjjjjjjbbbaffffffaajjjjjjjjjjjj",
"jjjjjjjjjjjjjjabaffffaajjjjjjjjjjjjjj",
"jjjjjjjjjjjjjjjaaffaajjjjjjjjjjjjjjjj",
"jjjjjjjjjjjjjjjjaaajjjjjjjjjjjjjjjjjj",
"jjjjjjjjjjjjjjjjjjjjjjjjjjjjjjjjjjjjj",
"jjjjjjjjjjjjjjjjjjjjjjjjjjjjjjjjjjjjj",
"jjjjjjjjjjjjjjjjjjjjjjjjjjjjjjjjjjjjj",
};
