/* XPM */
static char * greenlight_xpm[] = {
"38 40 9 1",
" 	c grey87",
".	c grey46",
"X	c grey71",
"o	c #61859A69AEBA",
"O	c #514482079658",
"+	c #5D759E79A289",
"@	s iconColor1	m black	c black",
"#	c #30C251445D75",
"$	c green",
"                                     .",
" XXXXXXXXXXXXXXXXXXXXXXXXXXXXXXXXXXXX.",
" X..................................X.",
" X.XXXXXXXXXXXXXXXXXXXXXXXXXXXXXXXX X.",
" X.XXXXXXXXXXoooooooooooXXXXXXXXXXX X.",
" X.XXXXXXXXXoOOOOOOOOOOO..XXXXXXXXX X.",
" X.XXXXXXXooOOOOOOOOOOOOO.XXXXXXXXX X.",
" X.XXXXXXXo+OOOOOOOOOOOOOO.XXXXXXXX X.",
" X.XXXXXXXo++++@@@@@@@++++.XXXXXXXX X.",
" X.XXXXXXXo+++####O####+++.XXXXXXXX X.",
" X.XXXXXXXo++##OOOOOOO##++.XXXXXXXX X.",
" X.XXXXXXXo++##OOOOOOO##++.XXXXXXXX X.",
" X.XXXXXXXo++##OOOOOOO##++.XXXXXXXX X.",
" X.XXXXXXXo++#OOOOOOOOO#++.XXXXXXXX X.",
" X.XXXXXXXo++++OOOOOOO++++.XXXXXXXX X.",
" X.XXXXX$Xo++++OOOOOOO++++.X$XXXXXX X.",
" X.XXXXXX$o++++OOOOOOO++++.$XXXXXXX X.",
" X.XXXXXXX$+++++++O+++++++$XXXXXXXX X.",
" X.XXXXXXXo$+++++++++++++$.XXXXXXXX X.",
" X.XXXXXXXo+$+++++++++++$+.XXXXXXXX X.",
" X.XXXXXXXo++$+@@@@@@@+$++.XXXXXXXX X.",
" X.XXXXXXXo+++$###$###$+++.XXXXXXXX X.",
" X.XXXXXXXo++##$$$$$$$##++.XXXXXXXX X.",
" X.XXXXXXXo++##$$$$$$$##++.XXXXXXXX X.",
" X.XXXXXXXo++##$$$$$$$##++.XXXXXXXX X.",
" X.XX$$$$$$$$$$$$$$$$$$$$$$$$$$XXXX X.",
" X.XXXXXXXo++++$$$$$$$++++.XXXXXXXX X.",
" X.XXXXXXXo++++$$$$$$$++++.XXXXXXXX X.",
" X.XXXXXXXo++++$$$$$$$++++.XXXXXXXX X.",
" X.XXXXXXXo+++$+++$+++$+++.XXXXXXXX X.",
" X.XXXXXXXo++$+++++++++$++.XXXXXXXX X.",
" X.XXXXXXXo+$+++++++++++$+.XXXXXXXX X.",
" X.XXXXXXX.$.............$.XXXXXXXX X.",
" X.XXXXXXX$XXXXXXXXXXXXXXX$XXXXXXXX X.",
" X.XXXXXX$XXXXXXXXXXXXXXXXX$XXXXXXX X.",
" X.XXXXX$XXXXXXXXXXXXXXXXXXX$XXXXXX X.",
" X.XXXXXXXXXXXXXXXXXXXXXXXXXXXXXXXX X.",
" X                                  X.",
" XXXXXXXXXXXXXXXXXXXXXXXXXXXXXXXXXXXX.",
"......................................"};
