/* XPM */
static char *pushbutt_in_xpm[] = {
/* width height ncolors chars_per_pixel */
"32 29 70 1",
/* colors */
"a c black",
"b c #730808",
"c c #BD7373",
"d c #CE2929",
"e c #DE1810",
"f c #523939",
"g c #EFF7F7",
"h c #4A4A4A",
"i c #AD5A5A",
"j c #BD5252",
"k c #D6DEE7",
"l c #4A2929",
"m c #8C0808",
"n c #BDCECE",
"o c #421008",
"p c #BD1010",
"q c #A5A5A5",
"r c #C6D6D6",
"s c #CE1810",
"t c #D61010",
"u c #8C1810",
"v c #941010",
"w c #9C9C9C",
"x c #C69494",
"y c #521010",
"z c #E74242",
"A c #BDC6C6",
"B c #A51810",
"C c #ADADAD",
"D c #5A5A5A",
"E c #6B1010",
"F c #7B0808",
"G c #9C3939",
"H c #BDA5A5",
"I c #390808",
"J c #C6CECE",
"K c #B55A5A",
"L c #C61010",
"M c #CEBDBD",
"N c #CEDEDE",
"O c #C6ADAD",
"P c #841010",
"Q c #6B6B6B",
"R c #520808",
"S c #B51818",
"T c #ADB5BD",
"U c #B5B5B5",
"V c #CED6D6",
"W c #944242",
"X c #9C1010",
"Y c #737373",
"Z c #422929",
"0 c #AD1810",
"1 c #848484",
"2 c #313131",
"3 c #DEE7E7",
"4 c #B54239",
"5 c #B58C8C",
"6 c #734239",
"7 c #7B7B7B",
"8 c #A57373",
"9 c #4A3131",
". c #E7EFEF",
", c #424242",
"` c #949C9C",
"^ c #4A1010",
"* c #422121",
": c #8C8C8C",
"; c #393939",
"< c none",
/* pixels */
"<<<<<<<<<<<<<<<<<<<<<<<<<<<<<<<<",
"<<<<<<<<<<<<<<<<<<<<<<<<<<<<<<<<",
"<<<<<<<<<<<<:C::C:A:`<<<<<<<<<<<",
"<<<<<<<<<<C:333333grkUw<<<<<<<<<",
"<<<<<<<<::3335KiWcHNkA:`C<<<<<<<",
"<<<<<<<:C33xtttsLL0m8grkqU<<<<<<",
"<<<<<<:333SttLpppppp0WCNn`U<<<<<",
"<<<<<:C33SetppppppppSSEUkq7<<<<<",
"<<<<<C33jezppppppppppSBy.A1D<<<<",
"<<<<:33xtzSSpppppppppp0E:JwQ<<<<",
"<<<<C33jedpppppppppppp0vD7UY7<<<",
"<<<:C33ttpppppppppppppS0fDQUD<<<",
"<<<:333tspppppppppppppS0*DD,hV<<",
"<<<:333tLpppppppppppppSXIDh,;<<<",
"<<<:333sLpppppppppppppSvIDh,;<<<",
"<<<:333pLpppppppppppppBv*Dh,;<<<",
"<<<:C334pppppppppppppSXFZD,;;<<<",
"<<<<C33O0ppppppppppppBv^hh,;h<<<",
"<<<<:33TGSpppppppppp0vRoh,;;Y<<<",
"<<<<:C33rm0SSppppppBvFIh,,22C<<<",
"<<<<<w33AMbX000S000u^Ih,,;2;<<<<",
"<<<<<<1VC336EPP0PERIoh,;;;2C<<<<",
"<<<<<<C`UCJCQfloI*9hD,,;;2q<<<<<",
"<<<<<<<C:qqAV1QYQDDD,,2,2q<<<<<<",
"<<<<<<<<qQ:`CA1YDDh,;;22q<<<<<<<",
"<<<<<<<<<<1QY1w,,,,,,,,<<<<<<<<<",
"<<<<<<<<<<<<1:YQDDhhY<<<<<<<<<<<",
"<<<<<<<<<<<<<<<<<V<<V<<<<<<<<<<<",
"<<<<<<<<<<<<<<<<<<<<<<<<<<<<<<<<",
};
