/* XPM */
static char *pushbutt_xpm[] = {
/* width height ncolors chars_per_pixel */
"32 29 73 1",
/* colors */
"a c black",
"b c #730808",
"c c #BD7373",
"d c #CE2929",
"e c #DE1810",
"f c #523939",
"g c #EFF7F7",
"h c #4A4A4A",
"i c #AD5A5A",
"j c #BD5252",
"k c #D6DEE7",
"l c #4A2929",
"m c #8C0808",
"n c #BDCECE",
"o c #421008",
"p c #BD1010",
"q c #A5A5A5",
"r c #C6D6D6",
"s c #CE1810",
"t c #D61010",
"u c #8C1810",
"v c #941010",
"w c #9C9C9C",
"x c #C69494",
"y c #521010",
"z c #E74242",
"A c #BDC6C6",
"B c #A51810",
"C c #ADADAD",
"D c #5A5A5A",
"E c #6B1010",
"F c #7B0808",
"G c #9C3939",
"H c #BDA5A5",
"I c #390808",
"J c #C6CECE",
"K c #B55A5A",
"L c #C61010",
"M c #CEBDBD",
"N c #CEDEDE",
"O c #C6ADAD",
"P c #841010",
"Q c #6B6B6B",
"R c #421010",
"S c #520808",
"T c #B51818",
"U c #ADB5BD",
"V c #B5B5B5",
"W c #CED6D6",
"X c #944242",
"Y c #9C1010",
"Z c #737373",
"0 c #422929",
"1 c #AD1810",
"2 c #848484",
"3 c #313131",
"4 c #DEE7E7",
"5 c #B54239",
"6 c #B58C8C",
"7 c #734239",
"8 c #7B7B7B",
"9 c #A57373",
". c #4A3131",
", c #E7EFEF",
"` c #424242",
"^ c #949C9C",
"* c #4A1010",
": c #422121",
"; c #8C8C8C",
"< c #393939",
"> c #BDB5B5",
"? c #391818",
"% c none",
/* pixels */
"%%%%%%%%%%%%%%%%%%%%%%%%%%%%%%%%",
"%%%%%%%%%%%%%%%%%%%%%%%%%%%%%%%%",
"%%%%%%%%%%6KiXcHNkA;^%%%%%%%%%%%",
"%%%%%%%%xtttsLL1m9grkVw%%%%%%%%%",
"%%%%%%%TttLpppppp1XCNkkqC%%%%%%%",
"%%%%%%TetppppppppTTEVkkWqV%%%%%%",
"%%%%%jezppppppppppTByV44n^V%%%%%",
"%%%%xtzTTpppppppppp1E*>,kq8%%%%%",
"%%%%jedpppppppppppp1v*Rq,A2D%%%%",
"%%%%ttpppppppppppppT1I*l;JwQ%%%%",
"%%%WtspppppppppppppT1I*oD8wZ8%%%",
"%%%6tLpppppppppppppTYS*RfDQ8D%%%",
"%%%%sLpppppppppppppTvIRR:DD`hW%%",
"%%%WpLpppppppppppppBvIRRIDh`<%%%",
"%%%W5pppppppppppppTYFIRoIDh`<%%%",
"%%%%O1ppppppppppppBv*R*I:Dh`<%%%",
"%%%%UGTpppppppppp1vSoRRI0D`<<%%%",
"%%%%Vrm1TTppppppBvFIIRIIhh`<h%%%",
"%%%%AAMbY111T111u*IoRRI?h`<3Z%%%",
"%%%%%C447EPP1PESIoRRRIID``3<C%%%",
"%%%%%wnkACR**:R**R*RIIh``<3`%%%%",
"%%%%%%2WVnC:R**RRRII?Dh`<<`C%%%%",
"%%%%%%C^VCJCQfloI:.hD``<<<w%%%%%",
"%%%%%%%C;qqAW2QZQDDD``3`<q%%%%%%",
"%%%%%%%%qQ;^CA2ZDDh`<<hhq%%%%%%%",
"%%%%%%%%%%2QZ2w;DD```h`%%%%%%%%%",
"%%%%%%%%%%%%2;ZQDDhhZ%%%%%%%%%%%",
"%%%%%%%%%%%%%%%%%W%%W%%%%%%%%%%%",
"%%%%%%%%%%%%%%%%%%%%%%%%%%%%%%%%",
};
