/* XPM */
static char *QUESTION5_xpm[] = {
/* width height ncolors chars_per_pixel */
"15 15 17 1",
/* colors */
"a c black",
"b c #00C0E0",
"c c #20E0E0",
"d c #000080",
"e c #60E0E0",
"f c #0000C0",
"g c #0020E0",
"h c #0060E0",
"i c #00A0E0",
"j c #00E0E0",
"k c #40E0E0",
"l c #0000A0",
"m c #80E0E0",
"n c #C0C0C0",
"o c #0000E0",
"p c #0040E0",
"q c none",
/* pixels */
"qqqqaaaaaaaqqqq",
"qqqahpgooofaqqq",
"qqahppgoooflaqq",
"qahfmmmmmmmfdaq",
"ahheeeeeeeeedda",
"appkkoooookkdda",
"aggmmoooooccdda",
"aooffooojjjjdda",
"aoooooojjjlldda",
"aooooojjjllddda",
"affffffffldddda",
"qallllbbbldddaq",
"qqadddiiidddaqq",
"qqqadddddddaqqq",
"qqqqaaaaaaaqqqq",
};
