/* XPM */
static char *screw_xpm[] = {
/* width height ncolors chars_per_pixel */
"15 15 24 1",
/* colors */
"a c black",
"b c #282828",
"c c #505050",
"d c #787878",
"e c #A0A0A0",
"f c #181818",
"g c #404040",
"h c #686868",
"i c #909090",
"j c #B8B8B8",
"k c #080808",
"l c #303030",
"m c #585858",
"n c #808080",
"o c #202020",
"p c #484848",
"q c #707070",
"r c #989898",
"s c #101010",
"t c #383838",
"u c #606060",
"v c #888888",
"w c #B0B0B0",
"x c none",
/* pixels */
"xxxxxxxxxxxxxxx",
"xxxxxvwehgxxxxx",
"xxxqrenvdugxxxx",
"xxnejrppcpupxxx",
"xiividobgpmucxx",
"xrvmggobtgcmcix",
"xvmbsfakksltgix",
"xqcbsokksogttix",
"xmcgtgobcddcgix",
"xgggtgbtheihgix",
"xxpptgbtcnnmlxx",
"xxgppcgppmmlxxx",
"xxxlpmcmpclxxxx",
"xxxxxotbbxxxxxx",
"xxxxxxxxxxxxxxx",
};
