/* XPM */
static char *thumbsDown_xpm[] = {
/* width height ncolors chars_per_pixel */
"15 15 32 1",
/* colors */
"a c black",
"b c #997A3F",
"c c #E3C07B",
"d c #FFE9BF",
"e c #72613C",
"f c #B89758",
"g c #B18531",
"h c #63512D",
"i c #433721",
"j c #9B7F4D",
"k c #CEB37E",
"l c #D8D8D8",
"m c #695835",
"n c #BB8F3B",
"o c #D4B984",
"p c #574727",
"q c #B6924C",
"r c #CFAE6F",
"s c #B39B6D",
"t c #BB9E65",
"u c #9D7529",
"v c #86631E",
"w c #3E3016",
"x c #EED29C",
"y c #D2AE68",
"z c #2F220B",
"A c #CCAF76",
"B c #EBCA8B",
"C c #53421F",
"D c #897041",
"E c #FFE4AF",
"F c none",
/* pixels */
"FFFaaaaaaaaFFFF",
"FFaskfiwvvvaaFF",
"FFaphfAfCzuguaa",
"FaskthhqbCgyygu",
"Fapmkkfpwqcccyn",
"askthhqbpAExEBr",
"aimAAqwptEojxEB",
"afqDAfptEojoddx",
"aArbiwjBoeoEBfa",
"FaaaaaaaaaxBqaF",
"FFFFFFFFFaxraFF",
"FFFFFFFFaodyaFF",
"FFFFFFFFaxEnaFF",
"FFFFFFFFaoBuaFF",
"FFFFFFFFFwzzFFF",
};
