/* XPM */
static char *albania_xpm[] = {
/* width height ncolors chars_per_pixel */
"32 20 23 1",
/* colors */
"a c black",
"b c #420800",
"c c #731008",
"d c #B51808",
"e c #7B1008",
"f c #080000",
"g c #841008",
"h c #C61808",
"i c #100000",
"j c #520800",
"k c #8C1008",
"l c #180000",
"m c #210000",
"n c #5A0800",
"o c #941008",
"p c #9C1008",
"q c #290000",
"r c #A51808",
"s c #DE2110",
"t c #310800",
"u c #6B1008",
"v c #AD1808",
"w c #390800",
/* pixels */
"ssssssssssssssssssssssssssssssss",
"ssssssssssssssssssssssssssssssss",
"ssssssssssssssssssssssssssssssss",
"ssssssssssssssssssssssssssssssss",
"ssssssssssdvdgtospteddvsssssssss",
"ssssssssssobrmmtsbmlonesssssssss",
"sssssssssspqnaatamaajtgsssssssss",
"ssssssssssonwaalafaawjgsssssssss",
"ssssssssssolniaaaaafjmesssssssss",
"ssssssssssobbwlaaaltbbgsssssssss",
"sssssssssskmecgaaakucqcsssssssss",
"ssssssssssputnrfafpuwuosssssssss",
"sssssssssssgqbjaaajbtcssssssssss",
"sssssssssssoahcaaauhaessssssssss",
"sssssssssssssssrarssssssssssssss",
"ssssssssssssssseaussssssssssssss",
"ssssssssssssssssssssssssssssssss",
"ssssssssssssssssssssssssssssssss",
"ssssssssssssssssssssssssssssssss",
"ssssssssssssssssssssssssssssssss",
};
