/* XPM */
static char *brazil_xpm[] = {
/* width height ncolors chars_per_pixel */
"32 20 4 1",
/* colors */
"` c #008000",
". c yellow",
"* c #000080",
"w c white",
/* pixels */
"````````````````````````````````",
"````````````````````````````````",
"```````````````..```````````````",
"`````````````......`````````````",
"```````````...****...```````````",
"`````````....******....`````````",
"```````....**********....```````",
"`````.....************.....`````",
"```......wwwwwww*******......```",
"`........wwwwwwwwwww***........`",
"`........*******wwwwwww........`",
"```......*w*********www......```",
"`````.....**w**w**w***.....`````",
"```````....***w**w***....```````",
"`````````....******....`````````",
"```````````...****...```````````",
"`````````````......`````````````",
"```````````````..```````````````",
"````````````````````````````````",
"````````````````````````````````",
};

