/* XPM */
static char *czech_xpm[] = {
/* width height ncolors chars_per_pixel */
"32 20 3 1",
/* colors */
"a c #F6FFF6",
"b c #0000FF",
"c c red",
/* pixels */
"bbaaaaaaaaaaaaaaaaaaaaaaaaaaaaaa",
"bbbbaaaaaaaaaaaaaaaaaaaaaaaaaaaa",
"bbbbbbaaaaaaaaaaaaaaaaaaaaaaaaaa",
"bbbbbbbaaaaaaaaaaaaaaaaaaaaaaaaa",
"bbbbbbbbbaaaaaaaaaaaaaaaaaaaaaaa",
"bbbbbbbbbbbaaaaaaaaaaaaaaaaaaaaa",
"bbbbbbbbbbbbaaaaaaaaaaaaaaaaaaaa",
"bbbbbbbbbbbbbbaaaaaaaaaaaaaaaaaa",
"bbbbbbbbbbbbbbbbaaaaaaaaaaaaaaaa",
"bbbbbbbbbbbbbbbbbaaaaaaaaaaaaaaa",
"bbbbbbbbbbbbbbbbbccccccccccccccc",
"bbbbbbbbbbbbbbbbcccccccccccccccc",
"bbbbbbbbbbbbbbcccccccccccccccccc",
"bbbbbbbbbbbbcccccccccccccccccccc",
"bbbbbbbbbbbccccccccccccccccccccc",
"bbbbbbbbbccccccccccccccccccccccc",
"bbbbbbbccccccccccccccccccccccccc",
"bbbbbbcccccccccccccccccccccccccc",
"bbbbcccccccccccccccccccccccccccc",
"bbcccccccccccccccccccccccccccccc",
};
