/* XPM */
static char *israel2_xpm[] = {
/* width height ncolors chars_per_pixel */
"32 20 2 1",
/* colors */
"a c #0000FF",
"b c white",
/* pixels */
"bbbbbbbbbbbbbbbbbbbbbbbbbbbbbbbb",
"bbbbbbbbbbbbbbbbbbbbbbbbbbbbbbbb",
"aaaaaaaaaaaaaaaaaaaaaaaaaaaaaaaa",
"aaaaaaaaaaaaaaaaaaaaaaaaaaaaaaaa",
"bbbbbbbbbbbbbbbaabbbbbbbbbbbbbbb",
"bbbbbbbbbbbbbbabbabbbbbbbbbbbbbb",
"bbbbbbbbbbaaaaabbaaaaabbbbbbbbbb",
"bbbbbbbbbbbabaaaaaababbbbbbbbbbb",
"bbbbbbbbbbbababbbbababbbbbbbbbbb",
"bbbbbbbbbbbbabbbbbbabbbbbbbbbbbb",
"bbbbbbbbbbbbabbbbbbabbbbbbbbbbbb",
"bbbbbbbbbbbababbbbababbbbbbbbbbb",
"bbbbbbbbbbbabaaaaaababbbbbbbbbbb",
"bbbbbbbbbbaaaaabbaaaaabbbbbbbbbb",
"bbbbbbbbbbbbbbabbabbbbbbbbbbbbbb",
"bbbbbbbbbbbbbbbaabbbbbbbbbbbbbbb",
"aaaaaaaaaaaaaaaaaaaaaaaaaaaaaaaa",
"aaaaaaaaaaaaaaaaaaaaaaaaaaaaaaaa",
"bbbbbbbbbbbbbbbbbbbbbbbbbbbbbbbb",
"bbbbbbbbbbbbbbbbbbbbbbbbbbbbbbbb",
};
