/* XPM */
static char *philipines_xpm[] = {
/* width height ncolors chars_per_pixel */
"32 22 46 1",
/* colors */
"a c #EEEEC2",
"b c #F29999",
"c c #EEEEDA",
"d c #2C59A5",
"e c #EAEAA5",
"f c #FF9D9D",
"g c #2C5DAA",
"h c #F2F69D",
"i c #FF5D5D",
"j c #EAEABA",
"k c #D6B6C2",
"l c red",
"m c #F2F2F6",
"n c #EAEAC6",
"o c #F2F2B6",
"p c #FAFAE6",
"q c #E6E69D",
"r c #F6F6D2",
"s c #FACEB6",
"t c #F2F699",
"u c yellow",
"v c #F6F6DE",
"w c #FAFAD6",
"x c #F2F2F2",
"y c #FAFAE2",
"z c #CED6B2",
"A c #EAEA85",
"B c #99B2CE",
"C c #9DB2CA",
"D c #D6DEEE",
"E c #5D81BE",
"F c #EAEA48",
"G c #F2F2CA",
"H c #FA9989",
"I c #EAEA9D",
"J c #FAFAEE",
"K c #DEDE78",
"L c #F6F6CE",
"M c #FAFAC6",
"N c #FF5959",
"O c #812050",
"P c #EEEEAA",
"Q c #FFD6D6",
"R c white",
"S c #F2F2EE",
"T c #E2E291",
/* pixels */
"dddddddddddddddddddddddddddddddd",
"dddddddddddddddddddddddddddddddd",
"Bddddddddddddddddddddddddddddddd",
"mBgddddddddddddddddddddddddddddd",
"mnzEdddddddddddddddddddddddddddd",
"mnMmCddddddddddddddddddddddddddd",
"mmmmmDEddddddddddddddddddddddddd",
"mxRRGymCgddddddddddddddddddddddd",
"mmLPqjPmDEdddddddddddddddddddddd",
"mSvqFFeJmmCgdddddddddddddddddddd",
"mcTKuuKemwtkOOOOOOOOOOOOOOOOOOOO",
"mxpAFFImmmHlllllllllllllllllllll",
"mmroqaPmQillllllllllllllllllllll",
"mmmmmmmfllllllllllllllllllllllll",
"mmmmRQilllllllllllllllllllllllll",
"mnhmflllllllllllllllllllllllllll",
"mmsNllllllllllllllllllllllllllll",
"mbllllllllllllllllllllllllllllll",
"blllllllllllllllllllllllllllllll",
"llllllllllllllllllllllllllllllll",
"llllllllllllllllllllllllllllllll",
"llllllllllllllllllllllllllllllll",
};
