/* XPM */
static char *slovenia_xpm[] = {
/* width height ncolors chars_per_pixel */
"32 20 3 1",
/* colors */
"a c red",
"b c #0000FF",
"c c white",
/* pixels */
"cccccccccccccccccccccccccccccccc",
"cccccccccccccccccccccccccccccccc",
"cccccccbcccccccccccccccccccccccc",
"cccccbbbbbcccccccccccccccccccccc",
"cccccbbbbbcccccccccccccccccccccc",
"cccccbbbbbcccccccccccccccccccccc",
"bbbbbbcccbbbbbbbbbbbbbbbbbbbbbbb",
"bbbbbbcccbbbbbbbbbbbbbbbbbbbbbbb",
"bbbbbbbcbbbbbbbbbbbbbbbbbbbbbbbb",
"bbbbbbbbbbbbbbbbbbbbbbbbbbbbbbbb",
"bbbbbbbbbbbbbbbbbbbbbbbbbbbbbbbb",
"bbbbbbbbbbbbbbbbbbbbbbbbbbbbbbbb",
"bbbbbbbbbbbbbbbbbbbbbbbbbbbbbbbb",
"aaaaaaaaaaaaaaaaaaaaaaaaaaaaaaaa",
"aaaaaaaaaaaaaaaaaaaaaaaaaaaaaaaa",
"aaaaaaaaaaaaaaaaaaaaaaaaaaaaaaaa",
"aaaaaaaaaaaaaaaaaaaaaaaaaaaaaaaa",
"aaaaaaaaaaaaaaaaaaaaaaaaaaaaaaaa",
"aaaaaaaaaaaaaaaaaaaaaaaaaaaaaaaa",
"aaaaaaaaaaaaaaaaaaaaaaaaaaaaaaaa",
};
