/* XPM */
static char *turkey_xpm[] = {
/* width height ncolors chars_per_pixel */
"32 20 2 1",
/* colors */
"a c red",
"b c white",
/* pixels */
"aaaaaaaaaaaaaaaaaaaaaaaaaaaaaaaa",
"aaaaaaaaaaaaaaaaaaaaaaaaaaaaaaaa",
"aaaaaaaaaaaaaaaaaaaaaaaaaaaaaaaa",
"aaaaaaaaaaaaaaaaaaaaaaaaaaaaaaaa",
"aaaaaaaaaaaaaaaaaaaaaaaaaaaaaaaa",
"aaaaaabbbbaaaaaaaaaaaaaaaaaaaaaa",
"aaaaabbaaabaaaaaaaaaaaaaaaaaaaaa",
"aaaabbaaaaaaababbaaaaaaaaaaaaaaa",
"aaaabbaaaaaaaabbaaaaaaaaaaaaaaaa",
"aaaabbaaaaaaaabbbbaaaaaaaaaaaaaa",
"aaaabbaaaaaaabbbaaaaaaaaaaaaaaaa",
"aaaabbaaaabaabaabaaaaaaaaaaaaaaa",
"aaaaabbaabaaaaaaaaaaaaaaaaaaaaaa",
"aaaaaabbbaaaaaaaaaaaaaaaaaaaaaaa",
"aaaaaaaaaaaaaaaaaaaaaaaaaaaaaaaa",
"aaaaaaaaaaaaaaaaaaaaaaaaaaaaaaaa",
"aaaaaaaaaaaaaaaaaaaaaaaaaaaaaaaa",
"aaaaaaaaaaaaaaaaaaaaaaaaaaaaaaaa",
"aaaaaaaaaaaaaaaaaaaaaaaaaaaaaaaa",
"aaaaaaaaaaaaaaaaaaaaaaaaaaaaaaaa",
};
