/* XPM */
static char *usa_xpm[] = {
/* width height ncolors chars_per_pixel */
"32 20 3 1",
/* colors */
"c c #ff0000",
"d c #0000ff",
"e c white",
/* pixels */
"edededededededcccccccccccccccccc",
"dededededededeeeeeeeeeeeeeeeeeee",
"edededededededeeeeeeeeeeeeeeeeee",
"dededededededecccccccccccccccccc",
"edededededededcccccccccccccccccc",
"dededededededeeeeeeeeeeeeeeeeeee",
"edededededededeeeeeeeeeeeeeeeeee",
"dededededededecccccccccccccccccc",
"edededededededcccccccccccccccccc",
"eeeeeeeeeeeeeeeeeeeeeeeeeeeeeeee",
"eeeeeeeeeeeeeeeeeeeeeeeeeeeeeeee",
"cccccccccccccccccccccccccccccccc",
"cccccccccccccccccccccccccccccccc",
"eeeeeeeeeeeeeeeeeeeeeeeeeeeeeeee",
"eeeeeeeeeeeeeeeeeeeeeeeeeeeeeeee",
"cccccccccccccccccccccccccccccccc",
"cccccccccccccccccccccccccccccccc",
"eeeeeeeeeeeeeeeeeeeeeeeeeeeeeeee",
"eeeeeeeeeeeeeeeeeeeeeeeeeeeeeeee",
"cccccccccccccccccccccccccccccccc",
};
