/* XPM */
static char *audioPlayer_xpm[] = {
/* width height ncolors chars_per_pixel */
"410 19 13 1",
/* colors */
"a c #808480",
"b c #606060",
"c c #C8CCC8",
"d c #A0A4A0",
"e c black",
"f c #F8FCF8",
"g c #505050",
"h c #484848",
"i c #989C98",
"j c #B0B4B0",
"k c #707070",
"l c #404040",
"m c #585858",
/* pixels */
"fffffflllllllfffffffffffffffffffffffffffffffffffffffbbbbbbbffffffffffffffffffffffffffffffffffffffffffffffffhhhhhhhffffffffffffffffffffffffffffffffffffffffbbbbbbbffffffffffffffffffffffffffffffffffffffffffffffffffffffffffffffbbbbbbbffffffffffffffffffffffffffffffffffffffffffffffffffffffbbbbbbbffffffffffffffffffffffffffffffffffffffffffffffffffffffffffffffffffffffffffffffffffbbbbbbbffffffffffffffffffffffffffffff",
"fffflldjjjjjgeefffffffffffffffffffffffffffffffffffbbdjjjjjkeeffffffffffffffffffffffffffffffffffffffffffffhhaiiiiibeeffffffffffffffffffffffffffffffffffffbbdjjjjjkeeffffffffffffffffffffffffffffffffffffffffffffffffffffffffffbbdjjjjjkeeffffffffffffffffffffffffffffffffffffffffffffffffffbbdjjjjjkeeffffffffffffffffffffffffffffffffffffffffffffffffffffffffffffffffffffffffffffffbbdjjjjjkeeffffffffffffffffffffffffffff",
"fffldjcccjjkkkgefffffffffffffffffffffffffffffffffmjjcccjjaaakeffffffffffffffffffffffffffffffffffffffffffhaijjjiiaaabeffffffffffffffffffffffffffffffffffmjjcccjjaaakeffffffffffffffffffffffffffffffffffffffffffffffffffffffffmjjcccjjaaakeffffffffffffffffffffffffffffffffffffffffffffffffmjjcccjjaaakeffffffffffffffffffffffffffffffffffffffffffffffffffffffffffffffffffffffffffffmjjcccjjaaakefffffffffffffffffffffffffff",
"ffljccjjjkkkkkkgefffffffffffffffffffffffffffffffbjccjjjaaaaaakeffffffffffffffffffffffffffffffffffffffffhijjiiiaaaaaabeffffffffffffffffffffffffffffffffbjccjjjaaaaaakeffffffffffffffffffffffffffffffffffffffffffffffffffffffbjccjjjaaaaaakeffffffffffffffffffffffffffffffffffffffffffffffbjccjjjaaaaaakeffffffffffffffffffffffffffffffffffffffffffffffffffffffffffffffffffffffffffbjccjjjaaaaaakeffffffffffffffffffffffffff",
"fldccjjkkkkkkkkkleffffffffffeffffffffffffffffffbjccjjaaaaaaaaameffffffffffffffffffffffffffffffffffffffhajjiiaaaaaaaaaheffffffffffffffffffffffffffffffbjccjjaaaaaaaaameffffffffffffffffffffffffffffffffffffffffffffffffffffbjccjjaaaaaaaaameffffffffffffffffffffffffffffffffffffefffffffbjccjjaaaaaaaaameffffffffffffffffffffffffffffffffffffffffffffffffffffffffffffffffffefffffbjccjjaaaaaaaaamefffeefffefffffffffffffeff",
"fljcjjkkfkkkkkkkgeffffeeeeffeffffffffffffffffffmjcjdaaaaaaaaaakeffffeeeeffffffffffffffffffffffffffffffhijiiaaaaaaaaaabefffffeeeefefffffffffffffffffffmjffjaaafaaaafakefffffeeeeffffffffffffffffffeffffffffffffffffffffffffmjcjdafaaaafaaakefffeeeefffffffffffffffffefffffffffffefffffffmjcjfaaaafaaaaakeffffeeeeeffffffffffffeffffffeeeeefffffffffffffffffffffffffffffffffefffffmjfjdaafaaaaffakefffeefffefffffffffffffeff",
"ldccjkkkffkkkkkkglefffefffefefffffffffffffffffmjccjfffaaafffaakbefffefffeffffffffffffffffffffffffffffhajjiafffffffaaabhefffefffffeffffffffffffffffffmjcffaaaffaaaffakbeffffefffefffffffffffffffffffffffffffffffffffffffffmjccjaffaaaffaaakbeffefffeffffffffffffffffffffffffffffeffffffmjccjffaaaffaaaakbefffeffffffffffffffffeffffffefffffffffffffffffffffffffffffffffffffeffffmjcffaaaffaaaffakbeffefeffeffeeeffefffefeee",
"ljcjkkkkfffkkkkkglefffefffefeffeeeffefffefffffbjcjafffaaafffaakmefffefffeffeeeffefffeffeeeffeeeffffffhijiaafffffffaaabhefffefffffeeeffeeeffeeeefffffbjcffaafffaafffakmeffffefffefefeffeeeffefffefeffeeeffefffeffeeeffffffbjcjafffaafffaaakmeffefffefffeeeffeffeffefefeeeefffeeeeffffffbjcjafffaafffaaakmefffeffffffeeefffeeefeeeffffeffffffeeeffefefeffeffeffeeeffefeffeeeeffffbjcfffaafffaaffakmeffefeffefefffeffefeffeff",
"ljcjkkkkffffkkkkglefffefffefefffffefefffefffffbjcjafffaaafffaabbefffefffefffffefefffefeffffefffefffffhijiaafffffffaaabheffffeeeffefffefffefefffeffffbjcffaffffaffffabbeffffefffefeeffefffefefffefefefffefefffefefffffffffbjcjffffaffffaaabbeffefffeffefffefeffeffefefefffefefffeffffffbjcjaffffaffffaabbefffeeeeefffffefeffffeffffffeeeeefefffefeeffeffeffefffffefeeffefffeffffbjcffffaffffaffabbeffeffefefeeeeefffefffeff",
"ljckkkkkfffffkkkglefffeeeeffeffeeeeffefeffffffbjcaafffaaafffaakbefffeeeefffeeeefefffefeefffeeeeefffffhijaaafffffffaaabhefffffffefefffefffefefffeffffbjcffffffffffffakbeffffeeeeffefffeeeeeffefeffefefffefefffefeeffffffffbjcffffffffffaaakbeffeeeefffeeeeefefefefefefefffefefffeffffffbjcaaffffffffffakbefffeffffffeeeefeefffeffffffefffffefffefefffefefefeffeeeefefffefffeffffbjcffffffffffffakbeffeffefefefffffffefffeff",
"ljckkkkkffffkkkgglefffefffffefefffeffefeffffffbjcaafffaaafffakbbefffefffffefffefefffefffeefefffffffffhijaaafffffffaabbhefffffffefefffefffefefffeffffbjcffaffffaffffkbbeffffefffffefffeffffffefeffefefffefefffefffeeffffffbjcaffffaffffaakbbeffeffefffefffffefefefefefefffefefffeffffffbjcaaffffaffffakbbefffefffffefffefffeefeffffffefffffefffefefffefefefefefffefefffefffeffffbjcffffaffffaffkbbeffefffeefefffeffefeffeff",
"ljckkkkkfffkkkkgglefffefffffefefffefffefffffffbjcaafffaaafffabkbefffefffffefffefefffeffffefefffefffffhijaaafffffffaabbhefffffffefefffefffefefffeffffbjcffaafffaafffbkbeffffefffffefffefffefffefffefefffefefffeffffeffffffbjcaafffaafffaabkbeffefffeffefffeffefffeffefefffefefffeffffffbjcaafffaafffaabkbefffefffffefffeffffefeffffffefffffefffefeffffefffeffefffefefffefffeffffbjcfffaafffaaffbkbeffefffeeffeeeffefffeffee",
"ljjkkkkkffkkkkggllefffefffffeffeeeefffefffffffbjjaafffaaafffkkbmefffeffffffeeeeffeeeefeeefffeeeffffffhiiaaafffffffabbhhefffeeeefffeeffeeeffeeeefffffbjjffaaaffaaaffkbmeffffefffffeffffeeeffffefffeffeeefffeeeefeeefffffffbjjaaaffaaaffakkbmeffeffffeffeeefffefffeffefefffeffeeeeffffffbjjaaffaaaffaakkbmefffeffffffeeeefeeefffeeffffeffffffeeeffeffffefffefffeeeefeffffeeeeffffbjjffaaaffaaaffkbmeffffffffffffffffffffffff",
"fljjkkkkfkkkkkgglefffffffffffffffffffefffffffffbjjaaaaaaaaaabkmeffffffffffffffffffffffffffffffffffffffhiiaaaaaaaaaabbheffffffffffffffffffffefffffffffbjffaaaafaaaafkmeffffffffffffffffffffffffffffffffffffffffffffffffffffbjjaaafaaaafabkmeffffffffffffffffffffffffffffffffffffffffffffbjjafaaaafaaabkmeffffffffffffffffffffffffffffffffffffffffffffffffffffffffffffffffffffffffbjfaaaafaaaaffkmefffffffffffffffffffffffff",
"flgjkkkkkkkkgggllefffffffffffffffffffefffffffffbbjaaaaaaaakkkmbeffffffffffffffffffffffffffffffffffffffhbiaaaaaaaabbbhheffffffffffffffffffffefffffffffbbjaaaaaaaakkkmbeffffffffffffffffffffffffffffffffffffffffffffffffffffbbjaaaaaaaakkkmbeffffffffffffffffffffffffffffffffffffffffffffbbjaaaaaaaakkkmbeffffffffffffffffffffffffffffffffffffffffffffffffffffffffffffffffffffffffbbjaaaaaaaakkkmbefffffffffffffffffffffffff",
"fflgkkkkkkggggllefffffffffffffffffffffffffffffffbkaaaaaakkbkmbeffffffffffffffffffffffffffffffffffffffffhbaaaaaabbbbhheffffffffffffffffffffffffffffffffbkaaaaaakkkbmbeffffffffffffffffffffffffffffffffffffffffffffffffffffffbkaaaaaakkbkmbeffffffffffffffffffffffffffffffffffffffffffffffbkaaaaaakkbkmbeffffffffffffffffffffffffffffffffffffffffffffffffffffffffffffffffffffffffffbkaaaaaakkkbmbeffffffffffffffffffffffffff",
"fffegggggggglllefffffffffffffffffffffffffffffffffekkkkkkbkmbbeffffffffffffffffffffffffffffffffffffffffffebbbbbbbbhhheffffffffffffffffffffffffffffffffffekkkkkkbkmbbeffffffffffffffffffffffffffffffffffffffffffffffffffffffffekkkkkkbkmbbeffffffffffffffffffffffffffffffffffffffffffffffffekkkkkkbkmbbeffffffffffffffffffffffffffffffffffffffffffffffffffffffffffffffffffffffffffffekkkkkkbkmbbefffffffffffffffffffffffffff",
"ffffeellllllleefffffffffffffffffffffffffffffffffffeemmmbbmbeeffffffffffffffffffffffffffffffffffffffffffffeehhhhhhheeffffffffffffffffffffffffffffffffffffeemmmbbmbeeffffffffffffffffffffffffffffffffffffffffffffffffffffffffffeemmmbbmbeeffffffffffffffffffffffffffffffffffffffffffffffffffeemmmbbmbeeffffffffffffffffffffffffffffffffffffffffffffffffffffffffffffffffffffffffffffffeemmmbbmbeeffffffffffffffffffffffffffff",
"ffffffeeeeeeefffffffffffffffffffffffffffffffffffffffeeeeeeeffffffffffffffffffffffffffffffffffffffffffffffffeeeeeeeffffffffffffffffffffffffffffffffffffffffeeeeeeeffffffffffffffffffffffffffffffffffffffffffffffffffffffffffffffeeeeeeeffffffffffffffffffffffffffffffffffffffffffffffffffffffeeeeeeeffffffffffffffffffffffffffffffffffffffffffffffffffffffffffffffffffffffffffffffffffeeeeeeeffffffffffffffffffffffffffffff",
};
