/* XPM */
static char *latin_xpm[] = {
/* width height ncolors chars_per_pixel */
"32 20 3 1",
/* colors */
"a c black",
"b c red",
"c c yellow",
/* pixels */
"cccccccccccccccccccccccccccccccc",
"cccccccccccccccccccccccccccccccc",
"cccccccccccccccccccccccccccccccc",
"cccccaccaccccccccccccccccccccccc",
"cccccaaaaccccccccccccccccccccccc",
"cccccaaaaaaaaaaaaaaaaaaaaccccccc",
"ccccaaaaaaaaaaaaaaaaaaaaaacccccc",
"ccccaaaaaaaaaaaaaaaaaaaaacaccccc",
"cccccccccaaaaaaaaaaaaaaaaccacccc",
"ccccccccccaaaaaaaaaaaaaaaacacccc",
"bbbbbbbbbbbaaaabbaaabaabaababbbb",
"bbbbbbbbbbbaaaabbaabbaabaaabbbbb",
"bbbbbbbbbbbaaabbaaaaaaabababbbbb",
"bbbbbbbbbbbaaababaaaaaabaabbbbbb",
"bbbbbbbbbbbaaabbbaaaaaabaabbbbbb",
"bbbbbbbbbbaaaaaaaaaaaaaaaabbbbbb",
"bbbbbbaaaaaaaaaaaaaaaaaaaaabbbbb",
"bbbbbbbbbbbbbbbbbbbbbbbbbbbbbbbb",
"bbbbbbbbbbbbbbbbbbbbbbbbbbbbbbbb",
"bbbbbbbbbbbbbbbbbbbbbbbbbbbbbbbb",
};
