/* XPM */
static char *welsh_xpm[] = {
/* width height ncolors chars_per_pixel */
"32 20 38 1",
/* colors */
"a c #39292A",
"b c #75342F",
"c c #BA3133",
"d c #1D1427",
"e c #DA4449",
"f c #701E22",
"g c #A42929",
"h c red",
"i c #5B1410",
"j c #C7ADA0",
"k c #184126",
"l c #5E4141",
"m c #5E1A25",
"n c #279F1A",
"o c #29512C",
"p c #745863",
"q c #4A0F0D",
"r c #C8303A",
"s c #A27069",
"t c #3F4B34",
"u c #C08F7B",
"v c #31060A",
"w c #4D1327",
"x c #852523",
"y c #AC644C",
"z c #AC3A36",
"A c #351212",
"B c #143114",
"C c white",
"D c #942B29",
"E c #CB3030",
"F c #C63833",
"G c #573327",
"H c #642B25",
"I c #411815",
"J c #322B11",
"K c #202D2D",
"L c #D53A37",
/* pixels */
"CCCCCCCCCCCCCCCCCCCCCCCCCCCCCCCC",
"CCCCCCCCCCCCCCCCCCCCCCCCCCCCCCCC",
"CCCCCCCCCCCCCCCCCCCCCCCCCCCCCCCC",
"CCCCCCCCCCCCsaCCCCCCCCCCCCCCCCCC",
"CCCCCCCCbDqzfjCCCCCepCDzCCCCCCCC",
"CCCCCCiCIAfgbCCCCmLfgeLCCCyCCCCC",
"CCCCCCCCCDIaDlCCmffmbfbCCCfCCCCC",
"CCCCCafbCCDIglCIcbLgegCChCelCCCC",
"CCCCCCmCCqLmzsCLxFegLIuDCDCCCCCC",
"CCCCCCeCCzgmfqIxHFfgwlCCaLCCCCCC",
"nnnnnbDanrDDrDiIEfFfvFeegannnnnn",
"nnnnnnKgfgfgmgDAIqKFiKctnnnnnnnn",
"nnnnnnnordiJfAiIxHdnBaJmGKnnnnnn",
"nnnnnnnnAnfIqonBgfFfnnnbmnnnnnnn",
"nnnnnnkKnGcnnKxnkJgnnnnftnnnnnnn",
"nnnnnnvxFcJnnoqFcIonKbFFFtnnnnnn",
"nnnnnnnnnnnnnnnnnnnnnnnnnnnnnnnn",
"nnnnnnnnnnnnnnnnnnnnnnnnnnnnnnnn",
"nnnnnnnnnnnnnnnnnnnnnnnnnnnnnnnn",
"nnnnnnnnnnnnnnnnnnnnnnnnnnnnnnnn",
};
