#define cutterM_width 16
#define cutterM_height 16
static char cutterM_bits[] = {
   0x40, 0x04, 0xc0, 0x06, 0xc0, 0x06, 0x40, 0x04, 0x80, 0x02, 0x00, 0x01,
   0xc0, 0x07, 0x40, 0x04, 0x60, 0x0c, 0x60, 0x0c, 0x60, 0x0c, 0x60, 0x0c,
   0x60, 0x0c, 0x60, 0x0c, 0x60, 0x0c, 0x40, 0x04};
