#define d_ff_width 64
#define d_ff_height 64
static char d_ff_bits[] = {
   0x00, 0x00, 0x00, 0x00, 0x00, 0x00, 0x00, 0x00, 0x00, 0x00, 0x00, 0x00,
   0x00, 0x00, 0x00, 0x00, 0x00, 0x00, 0x00, 0x00, 0x00, 0x00, 0x00, 0x00,
   0x00, 0x00, 0x00, 0x00, 0x00, 0x00, 0x00, 0x00, 0xf0, 0xff, 0xff, 0xff,
   0xff, 0xff, 0xff, 0x0f, 0x10, 0x00, 0x00, 0x00, 0x00, 0x00, 0x00, 0x08,
   0x10, 0x00, 0x00, 0x00, 0x00, 0x00, 0x00, 0x08, 0x10, 0x00, 0x00, 0x00,
   0x00, 0x00, 0x00, 0x08, 0x90, 0x03, 0x00, 0x00, 0x00, 0x00, 0xe0, 0x08,
   0x90, 0x04, 0x00, 0x00, 0x00, 0x00, 0x10, 0x09, 0x90, 0x08, 0x00, 0x00,
   0x00, 0x00, 0x10, 0x09, 0x90, 0x08, 0x00, 0x00, 0x00, 0x00, 0x10, 0x09,
   0x9f, 0x08, 0x00, 0x00, 0x00, 0x00, 0x10, 0xf9, 0x90, 0x08, 0x00, 0x00,
   0x00, 0x00, 0x10, 0x09, 0x90, 0x08, 0x00, 0x00, 0x00, 0x00, 0x50, 0x09,
   0x90, 0x04, 0x00, 0x00, 0x00, 0x00, 0x90, 0x09, 0x90, 0x03, 0x00, 0x00,
   0x00, 0x00, 0xe0, 0x09, 0x10, 0x00, 0x00, 0x00, 0x00, 0x00, 0x00, 0x0a,
   0x10, 0x00, 0x00, 0x00, 0x00, 0x00, 0x00, 0x08, 0x10, 0x00, 0x00, 0x00,
   0x00, 0x00, 0x00, 0x08, 0x10, 0x00, 0x00, 0x00, 0x00, 0x00, 0x00, 0x08,
   0x10, 0x00, 0x00, 0x00, 0x00, 0x00, 0x00, 0x08, 0x10, 0x00, 0x00, 0x00,
   0x00, 0x00, 0x00, 0x08, 0x10, 0x00, 0x00, 0x00, 0x00, 0x00, 0x00, 0x08,
   0x10, 0x00, 0x00, 0x00, 0x00, 0x00, 0x00, 0x08, 0x10, 0x00, 0x00, 0x00,
   0x00, 0x00, 0x00, 0x08, 0x10, 0x00, 0x00, 0x7c, 0x3e, 0x00, 0x00, 0x08,
   0x30, 0x00, 0x00, 0x04, 0x02, 0x00, 0x00, 0x08, 0x50, 0x00, 0x00, 0x04,
   0x02, 0x00, 0x00, 0x08, 0x90, 0x00, 0x00, 0x04, 0x02, 0x00, 0x00, 0x08,
   0x10, 0x01, 0x00, 0x3c, 0x1e, 0x00, 0x00, 0x08, 0x1f, 0x02, 0x00, 0x04,
   0x02, 0x00, 0x00, 0x08, 0x10, 0x01, 0x00, 0x04, 0x02, 0x00, 0x00, 0x08,
   0x90, 0x00, 0x00, 0x04, 0x02, 0x00, 0x00, 0x08, 0x50, 0x00, 0x00, 0x04,
   0x02, 0x00, 0x00, 0x08, 0x30, 0x00, 0x00, 0x04, 0x02, 0x00, 0x00, 0x08,
   0x10, 0x00, 0x00, 0x00, 0x00, 0x00, 0x00, 0x08, 0x10, 0x00, 0x00, 0x00,
   0x00, 0x00, 0x00, 0x08, 0x10, 0x00, 0x00, 0x00, 0x00, 0x00, 0x00, 0x08,
   0x10, 0x00, 0x00, 0x00, 0x00, 0x00, 0x00, 0x08, 0x10, 0x00, 0x00, 0x00,
   0x00, 0x00, 0x00, 0x08, 0x10, 0x00, 0x00, 0x00, 0x00, 0x00, 0x00, 0x08,
   0x10, 0x00, 0x00, 0x00, 0x00, 0x00, 0x00, 0x08, 0x10, 0x00, 0x00, 0x00,
   0x00, 0x00, 0x00, 0x08, 0x10, 0x00, 0x00, 0x00, 0x00, 0x00, 0x00, 0x08,
   0x10, 0x00, 0x00, 0x00, 0x00, 0x00, 0xf0, 0x09, 0x10, 0x00, 0x00, 0x00,
   0x00, 0x00, 0x00, 0x08, 0x10, 0x00, 0x00, 0x00, 0x00, 0x00, 0xe0, 0x08,
   0x10, 0x00, 0x00, 0x00, 0x00, 0x00, 0x10, 0x09, 0x10, 0x00, 0x00, 0x00,
   0x00, 0x00, 0x10, 0x09, 0x10, 0x00, 0x00, 0x00, 0x00, 0x00, 0x10, 0x09,
   0x10, 0x00, 0x00, 0x00, 0x00, 0x00, 0x10, 0xf9, 0x10, 0x00, 0x00, 0x00,
   0x00, 0x00, 0x10, 0x09, 0x10, 0x00, 0x00, 0x00, 0x00, 0x00, 0x50, 0x09,
   0x10, 0x00, 0x00, 0x00, 0x00, 0x00, 0x90, 0x09, 0x10, 0x00, 0x00, 0x00,
   0x00, 0x00, 0xe0, 0x09, 0x10, 0x00, 0x00, 0x00, 0x00, 0x00, 0x00, 0x0a,
   0x10, 0x00, 0x00, 0x00, 0x00, 0x00, 0x00, 0x08, 0x10, 0x00, 0x00, 0x00,
   0x00, 0x00, 0x00, 0x08, 0xf0, 0xff, 0xff, 0xff, 0xff, 0xff, 0xff, 0x0f,
   0x00, 0x00, 0x00, 0x00, 0x00, 0x00, 0x00, 0x00, 0x00, 0x00, 0x00, 0x00,
   0x00, 0x00, 0x00, 0x00, 0x00, 0x00, 0x00, 0x00, 0x00, 0x00, 0x00, 0x00,
   0x00, 0x00, 0x00, 0x00, 0x00, 0x00, 0x00, 0x00};
