#define icon_width 64
#define icon_height 64
static char icon_bits[] = {
   0x00, 0x00, 0x00, 0x00, 0x00, 0x00, 0x00, 0x00, 0x00, 0x00, 0x00, 0x00,
   0x00, 0x00, 0x00, 0x00, 0x00, 0x00, 0x00, 0x00, 0x00, 0x00, 0x00, 0x00,
   0xfe, 0xff, 0xff, 0xff, 0xff, 0xff, 0xff, 0x7f, 0x02, 0x00, 0x00, 0x00,
   0x00, 0x00, 0x00, 0x40, 0x02, 0x00, 0x00, 0x00, 0x00, 0x00, 0x00, 0x40,
   0x02, 0x00, 0x00, 0x00, 0x00, 0x00, 0x00, 0x40, 0x02, 0x80, 0x01, 0x00,
   0x00, 0x00, 0x00, 0x40, 0x02, 0xc0, 0x01, 0x00, 0x00, 0x00, 0x00, 0x40,
   0x02, 0x40, 0x01, 0xf0, 0x03, 0x00, 0x00, 0x40, 0x02, 0x00, 0x01, 0x10,
   0x04, 0x00, 0x00, 0x40, 0x02, 0x00, 0xf9, 0x1f, 0x0c, 0x00, 0x00, 0x40,
   0x02, 0x00, 0x01, 0x10, 0x08, 0x00, 0x00, 0x40, 0x02, 0x00, 0x01, 0x10,
   0xf8, 0x00, 0x00, 0x40, 0x02, 0x00, 0x00, 0x10, 0x88, 0x00, 0x00, 0x40,
   0x02, 0x00, 0xc0, 0x1f, 0x88, 0x00, 0x00, 0x40, 0x02, 0x00, 0x40, 0x10,
   0x84, 0x30, 0x00, 0x40, 0x02, 0x00, 0x40, 0xf0, 0x87, 0xd0, 0x00, 0x40,
   0x02, 0x00, 0x40, 0x00, 0x80, 0x10, 0x03, 0x40, 0x02, 0x00, 0x40, 0x00,
   0x80, 0x1f, 0x1c, 0x40, 0x02, 0x00, 0x40, 0x00, 0x00, 0x10, 0x03, 0x40,
   0x02, 0x00, 0x40, 0x00, 0x00, 0xd0, 0x00, 0x40, 0x02, 0x00, 0x40, 0x00,
   0x00, 0x30, 0x00, 0x40, 0x02, 0x00, 0x40, 0x00, 0x00, 0x00, 0x00, 0x40,
   0x02, 0x00, 0x40, 0x00, 0x00, 0x00, 0x00, 0x40, 0x02, 0xfc, 0x40, 0x00,
   0x00, 0x00, 0x00, 0x40, 0x02, 0x04, 0x41, 0x00, 0x00, 0x00, 0x00, 0x40,
   0xe2, 0x07, 0x43, 0xc0, 0x0f, 0x00, 0x00, 0x40, 0x02, 0x04, 0x42, 0x40,
   0x10, 0x00, 0x00, 0x40, 0x02, 0x04, 0xfe, 0x7f, 0x30, 0x00, 0x00, 0x40,
   0x02, 0x04, 0x02, 0x40, 0x20, 0x00, 0x00, 0x40, 0xe2, 0x07, 0x02, 0x40,
   0xe0, 0x07, 0x00, 0x40, 0x02, 0x04, 0x01, 0x40, 0x20, 0x04, 0x00, 0x40,
   0x02, 0xfc, 0x01, 0x7c, 0x20, 0x04, 0x00, 0x40, 0x02, 0x00, 0x00, 0x44,
   0x10, 0x04, 0x00, 0x40, 0x02, 0x00, 0x00, 0xc4, 0x1f, 0x04, 0x00, 0x40,
   0x02, 0x00, 0x00, 0x04, 0x00, 0x04, 0x00, 0x40, 0x02, 0x00, 0x00, 0x04,
   0x00, 0x04, 0x00, 0x40, 0x02, 0x00, 0x00, 0x04, 0x00, 0xfc, 0x07, 0x40,
   0x02, 0x00, 0x00, 0x04, 0x00, 0x00, 0x00, 0x40, 0x02, 0x00, 0x00, 0x04,
   0x00, 0x00, 0x00, 0x40, 0x02, 0x00, 0x00, 0x04, 0x00, 0x00, 0x00, 0x40,
   0x02, 0x00, 0x00, 0x00, 0x00, 0x00, 0x00, 0x40, 0x02, 0x00, 0x00, 0x00,
   0x00, 0x00, 0x00, 0x40, 0x02, 0x00, 0x00, 0x06, 0x00, 0x00, 0x00, 0x40,
   0x04, 0x00, 0x00, 0x09, 0x00, 0x00, 0x00, 0x20, 0xf8, 0x3f, 0x00, 0x09,
   0x00, 0x00, 0xfc, 0x1f, 0x00, 0x20, 0x00, 0x09, 0x00, 0x00, 0x04, 0x00,
   0x00, 0x20, 0x00, 0x09, 0x00, 0x00, 0x04, 0x00, 0x00, 0x20, 0x00, 0x09,
   0x00, 0x00, 0x04, 0x00, 0x00, 0x20, 0x00, 0x06, 0x00, 0x00, 0x04, 0x00,
   0x00, 0x20, 0x00, 0x00, 0x00, 0x00, 0x04, 0x00, 0x00, 0x40, 0x00, 0x00,
   0x00, 0x00, 0x02, 0x00, 0x00, 0x80, 0xff, 0xff, 0xff, 0xff, 0x01, 0x00,
   0x00, 0x00, 0x00, 0x00, 0x00, 0x00, 0x00, 0x00, 0x00, 0x00, 0x00, 0x00,
   0x00, 0x00, 0x00, 0x00, 0x00, 0x00, 0x00, 0x00, 0x00, 0x00, 0x00, 0x00,
   0x00, 0x00, 0x00, 0x00, 0x00, 0x00, 0x00, 0x00, 0x00, 0x00, 0x00, 0x00,
   0x00, 0x00, 0x00, 0x00, 0x00, 0x00, 0x00, 0x00, 0x00, 0x00, 0x00, 0x00,
   0x00, 0x00, 0x00, 0x00, 0x00, 0x00, 0x00, 0x00, 0x00, 0x00, 0x00, 0x00,
   0x00, 0x00, 0x00, 0x00, 0x00, 0x00, 0x00, 0x00, 0x00, 0x00, 0x00, 0x00,
   0x00, 0x00, 0x00, 0x00, 0x00, 0x00, 0x00, 0x00};
