#define inverter_width 64
#define inverter_height 64
static char inverter_bits[] = {
   0x00, 0x00, 0x00, 0x00, 0x00, 0x00, 0x00, 0x00, 0x00, 0x00, 0x00, 0x00,
   0x00, 0x00, 0x00, 0x00, 0x00, 0x00, 0x00, 0x00, 0x00, 0x00, 0x00, 0x00,
   0x00, 0x00, 0x00, 0x00, 0x00, 0x00, 0x00, 0x00, 0x00, 0x00, 0x00, 0x00,
   0x00, 0x00, 0x00, 0x00, 0x00, 0x00, 0x00, 0x00, 0x00, 0x00, 0x00, 0x00,
   0x00, 0x00, 0x00, 0x00, 0x00, 0x00, 0x00, 0x00, 0x00, 0x00, 0x00, 0x00,
   0x00, 0x00, 0x00, 0x00, 0x00, 0x00, 0x00, 0x00, 0x00, 0x00, 0x00, 0x00,
   0x00, 0x00, 0x00, 0x00, 0x00, 0x00, 0x00, 0x00, 0x00, 0x00, 0x00, 0x00,
   0x00, 0x00, 0x00, 0x00, 0x00, 0x38, 0x00, 0x00, 0x00, 0x00, 0x00, 0x00,
   0x00, 0xc8, 0x00, 0x00, 0x00, 0x00, 0x00, 0x00, 0x00, 0x08, 0x03, 0x00,
   0x00, 0x00, 0x00, 0x00, 0x00, 0x08, 0x0c, 0x00, 0x00, 0x00, 0x00, 0x00,
   0x00, 0x08, 0x30, 0x00, 0x00, 0x00, 0x00, 0x00, 0x00, 0x08, 0xc0, 0x00,
   0x00, 0x00, 0x00, 0x00, 0x00, 0x08, 0x00, 0x03, 0x00, 0x00, 0x00, 0x00,
   0x00, 0x08, 0x00, 0x0c, 0x00, 0x00, 0x00, 0x00, 0x00, 0x08, 0x00, 0x30,
   0x00, 0x00, 0x00, 0x00, 0x00, 0x08, 0x00, 0xc0, 0x00, 0x00, 0x00, 0x00,
   0x00, 0x08, 0x00, 0x00, 0x03, 0x00, 0x00, 0x00, 0x00, 0x08, 0x00, 0x00,
   0x0c, 0x00, 0x00, 0x00, 0x00, 0x08, 0x00, 0x00, 0x30, 0x00, 0x00, 0x00,
   0x00, 0x08, 0x00, 0x00, 0xc0, 0x00, 0x00, 0x00, 0x00, 0x08, 0x00, 0x00,
   0x00, 0x03, 0x00, 0x00, 0x00, 0x08, 0x00, 0x00, 0x00, 0x0c, 0x00, 0x00,
   0x00, 0x08, 0x00, 0x00, 0x00, 0x30, 0x80, 0x0f, 0x00, 0x08, 0x00, 0x00,
   0x00, 0xc0, 0x40, 0x10, 0x00, 0x08, 0x00, 0x00, 0x00, 0x00, 0x23, 0x20,
   0x00, 0x08, 0x00, 0x00, 0x00, 0x00, 0x2c, 0x20, 0xff, 0x0f, 0x00, 0x00,
   0x00, 0x00, 0x30, 0xe0, 0x00, 0x08, 0x00, 0x00, 0x00, 0x00, 0x2c, 0x20,
   0x00, 0x08, 0x00, 0x00, 0x00, 0x00, 0x23, 0x20, 0x00, 0x08, 0x00, 0x00,
   0x00, 0xc0, 0x40, 0x10, 0x00, 0x08, 0x00, 0x00, 0x00, 0x30, 0x80, 0x0f,
   0x00, 0x08, 0x00, 0x00, 0x00, 0x0c, 0x00, 0x00, 0x00, 0x08, 0x00, 0x00,
   0x00, 0x03, 0x00, 0x00, 0x00, 0x08, 0x00, 0x00, 0xc0, 0x00, 0x00, 0x00,
   0x00, 0x08, 0x00, 0x00, 0x30, 0x00, 0x00, 0x00, 0x00, 0x08, 0x00, 0x00,
   0x0c, 0x00, 0x00, 0x00, 0x00, 0x08, 0x00, 0x00, 0x03, 0x00, 0x00, 0x00,
   0x00, 0x08, 0x00, 0xc0, 0x00, 0x00, 0x00, 0x00, 0x00, 0x08, 0x00, 0x30,
   0x00, 0x00, 0x00, 0x00, 0x00, 0x08, 0x00, 0x0c, 0x00, 0x00, 0x00, 0x00,
   0x00, 0x08, 0x00, 0x03, 0x00, 0x00, 0x00, 0x00, 0x00, 0x08, 0xc0, 0x00,
   0x00, 0x00, 0x00, 0x00, 0x00, 0x08, 0x30, 0x00, 0x00, 0x00, 0x00, 0x00,
   0x00, 0x08, 0x0c, 0x00, 0x00, 0x00, 0x00, 0x00, 0x00, 0x08, 0x03, 0x00,
   0x00, 0x00, 0x00, 0x00, 0x00, 0xc8, 0x00, 0x00, 0x00, 0x00, 0x00, 0x00,
   0x00, 0x38, 0x00, 0x00, 0x00, 0x00, 0x00, 0x00, 0x00, 0x00, 0x00, 0x00,
   0x00, 0x00, 0x00, 0x00, 0x00, 0x00, 0x00, 0x00, 0x00, 0x00, 0x00, 0x00,
   0x00, 0x00, 0x00, 0x00, 0x00, 0x00, 0x00, 0x00, 0x00, 0x00, 0x00, 0x00,
   0x00, 0x00, 0x00, 0x00, 0x00, 0x00, 0x00, 0x00, 0x00, 0x00, 0x00, 0x00,
   0x00, 0x00, 0x00, 0x00, 0x00, 0x00, 0x00, 0x00, 0x00, 0x00, 0x00, 0x00,
   0x00, 0x00, 0x00, 0x00, 0x00, 0x00, 0x00, 0x00, 0x00, 0x00, 0x00, 0x00,
   0x00, 0x00, 0x00, 0x00, 0x00, 0x00, 0x00, 0x00, 0x00, 0x00, 0x00, 0x00,
   0x00, 0x00, 0x00, 0x00, 0x00, 0x00, 0x00, 0x00, 0x00, 0x00, 0x00, 0x00,
   0x00, 0x00, 0x00, 0x00, 0x00, 0x00, 0x00, 0x00};
