#define OutputOn_width 64
#define OutputOn_height 64
static char OutputOn_bits[] = {
   0x00, 0x00, 0x00, 0x00, 0x00, 0x00, 0x00, 0x00, 0x00, 0x00, 0x00, 0x00,
   0x00, 0x04, 0x00, 0x00, 0x00, 0x00, 0x00, 0x00, 0x00, 0x04, 0x00, 0x00,
   0x00, 0x00, 0x00, 0x00, 0x00, 0x04, 0x00, 0x00, 0x00, 0x00, 0x00, 0x00,
   0x00, 0x00, 0x00, 0x00, 0x00, 0x00, 0x00, 0x10, 0x00, 0x00, 0x80, 0x00,
   0x00, 0x00, 0x00, 0x20, 0x80, 0x3f, 0x40, 0x00, 0x00, 0x00, 0x00, 0x40,
   0x70, 0xc0, 0x21, 0x00, 0x00, 0x00, 0x00, 0x00, 0x08, 0x00, 0x02, 0x00,
   0x00, 0x00, 0x00, 0x00, 0x06, 0x00, 0x0c, 0x00, 0x00, 0x00, 0x00, 0x00,
   0x01, 0x00, 0x10, 0x00, 0x00, 0x00, 0x00, 0x00, 0x01, 0x00, 0x10, 0x00,
   0x00, 0x00, 0x00, 0x80, 0x00, 0x00, 0x20, 0x00, 0x00, 0x00, 0x00, 0x40,
   0x00, 0x00, 0x40, 0x00, 0x00, 0x00, 0x00, 0x40, 0x00, 0x00, 0x40, 0x00,
   0x00, 0x00, 0x00, 0x40, 0x00, 0x00, 0x40, 0x00, 0x00, 0x00, 0x00, 0x20,
   0xc0, 0x71, 0x80, 0x00, 0x00, 0x00, 0x00, 0x20, 0x20, 0x8a, 0x80, 0x00,
   0x00, 0x00, 0x00, 0x27, 0x10, 0x04, 0x81, 0x00, 0x00, 0x00, 0x00, 0x20,
   0x10, 0x0a, 0x81, 0x1c, 0x00, 0x00, 0x00, 0x20, 0x10, 0x11, 0x81, 0x00,
   0x00, 0x00, 0x00, 0x20, 0x10, 0x0a, 0x81, 0x00, 0x00, 0x00, 0x00, 0x20,
   0x10, 0x04, 0x81, 0x00, 0x00, 0x00, 0x00, 0x40, 0x20, 0x80, 0x40, 0x00,
   0x00, 0x00, 0x00, 0x40, 0x40, 0x40, 0x40, 0x00, 0x00, 0x00, 0x00, 0x40,
   0x80, 0x20, 0x40, 0x00, 0x00, 0x00, 0x00, 0x80, 0x00, 0x11, 0x20, 0x00,
   0x00, 0x00, 0x00, 0x00, 0x01, 0x11, 0x10, 0x00, 0x00, 0x00, 0x00, 0x00,
   0x01, 0x11, 0x10, 0x00, 0x00, 0x00, 0x00, 0x00, 0x02, 0x11, 0x08, 0x00,
   0x00, 0x00, 0x00, 0x00, 0x0c, 0x11, 0x06, 0x00, 0x00, 0x00, 0x00, 0x40,
   0x30, 0x91, 0x41, 0x00, 0xff, 0x0f, 0x00, 0x20, 0x20, 0x91, 0x80, 0x00,
   0x00, 0x08, 0x00, 0x10, 0x20, 0x91, 0x00, 0x01, 0x00, 0x08, 0x00, 0x00,
   0x20, 0x91, 0x00, 0x00, 0x00, 0x08, 0x00, 0x00, 0x20, 0x91, 0x00, 0x00,
   0x00, 0x08, 0x00, 0x00, 0x20, 0x91, 0x00, 0x00, 0x00, 0x08, 0x00, 0x00,
   0x20, 0x91, 0x00, 0x00, 0x00, 0x08, 0x00, 0x00, 0x20, 0x91, 0x00, 0x00,
   0x00, 0x08, 0x00, 0x00, 0x20, 0x91, 0x00, 0x00, 0x00, 0x08, 0x00, 0x00,
   0xe0, 0xff, 0x00, 0x00, 0x00, 0x08, 0x00, 0x00, 0x60, 0xc0, 0x00, 0x00,
   0x00, 0x08, 0x00, 0x00, 0x60, 0xc0, 0x00, 0x00, 0x00, 0x08, 0x00, 0x00,
   0x60, 0xc0, 0x00, 0x00, 0x00, 0x08, 0x00, 0x00, 0x60, 0xc0, 0x00, 0x00,
   0x00, 0x08, 0x00, 0x00, 0xc0, 0x7f, 0x00, 0x00, 0x00, 0x08, 0x00, 0x00,
   0xc0, 0x7f, 0x00, 0x00, 0x00, 0x08, 0x00, 0x00, 0xc0, 0x7f, 0x00, 0x00,
   0x00, 0x08, 0x06, 0x00, 0xc0, 0x7f, 0x00, 0x00, 0x00, 0x08, 0x1a, 0x00,
   0x80, 0x3f, 0x00, 0x00, 0x00, 0x08, 0x62, 0x00, 0x00, 0x04, 0x00, 0x00,
   0x00, 0x08, 0x82, 0x01, 0x00, 0x04, 0x00, 0x00, 0x00, 0xf8, 0x03, 0xfe,
   0x01, 0x04, 0x00, 0x00, 0x00, 0x00, 0x82, 0x01, 0x02, 0x04, 0x00, 0x00,
   0x00, 0x00, 0x62, 0x00, 0x04, 0x04, 0x00, 0x00, 0x00, 0x00, 0x1a, 0x00,
   0x08, 0x04, 0x00, 0x00, 0x00, 0x00, 0x06, 0x00, 0x10, 0x04, 0x00, 0x00,
   0x00, 0x00, 0x00, 0x00, 0x10, 0x02, 0x00, 0x00, 0x00, 0x00, 0x00, 0x00,
   0xe0, 0x01, 0x00, 0x00, 0x00, 0x00, 0x00, 0x00, 0x00, 0x00, 0x00, 0x00,
   0x00, 0x00, 0x00, 0x00, 0x00, 0x00, 0x00, 0x00, 0x00, 0x00, 0x00, 0x00,
   0x00, 0x00, 0x00, 0x00, 0x00, 0x00, 0x00, 0x00, 0x00, 0x00, 0x00, 0x00,
   0x00, 0x00, 0x00, 0x00, 0x00, 0x00, 0x00, 0x00};
