#define OutputOff_width 64
#define OutputOff_height 64
static char OutputOff_bits[] = {
   0x00, 0x00, 0x00, 0x00, 0x00, 0x00, 0x00, 0x00, 0x00, 0x00, 0x00, 0x00,
   0x00, 0x00, 0x00, 0x00, 0x00, 0x00, 0x00, 0x00, 0x00, 0x00, 0x00, 0x00,
   0x00, 0x00, 0x00, 0x00, 0x00, 0x00, 0x00, 0x00, 0x00, 0x00, 0x00, 0x00,
   0x00, 0x00, 0x00, 0x00, 0x00, 0x00, 0x00, 0x00, 0x00, 0x00, 0x00, 0x00,
   0x00, 0x00, 0x00, 0x00, 0x80, 0x3f, 0x00, 0x00, 0x00, 0x00, 0x00, 0x00,
   0xf0, 0xff, 0x01, 0x00, 0x00, 0x00, 0x00, 0x00, 0xf8, 0xff, 0x03, 0x00,
   0x00, 0x00, 0x00, 0x00, 0xfe, 0xff, 0x0f, 0x00, 0x00, 0x00, 0x00, 0x00,
   0xff, 0xff, 0x1f, 0x00, 0x00, 0x00, 0x00, 0x00, 0xff, 0xff, 0x1f, 0x00,
   0x00, 0x00, 0x00, 0x80, 0xff, 0xff, 0x3f, 0x00, 0x00, 0x00, 0x00, 0xc0,
   0xff, 0xff, 0x7f, 0x00, 0x00, 0x00, 0x00, 0xc0, 0xff, 0xff, 0x7f, 0x00,
   0x00, 0x00, 0x00, 0xc0, 0xff, 0xff, 0x7f, 0x00, 0x00, 0x00, 0x00, 0xe0,
   0x3f, 0x8e, 0xff, 0x00, 0x00, 0x00, 0x00, 0xe0, 0xdf, 0x75, 0xff, 0x00,
   0x00, 0x00, 0x00, 0xe0, 0xef, 0xfb, 0xfe, 0x00, 0x00, 0x00, 0x00, 0xe0,
   0xef, 0xf5, 0xfe, 0x00, 0x00, 0x00, 0x00, 0xe0, 0xef, 0xee, 0xfe, 0x00,
   0x00, 0x00, 0x00, 0xe0, 0xef, 0xf5, 0xfe, 0x00, 0x00, 0x00, 0x00, 0xe0,
   0xef, 0xfb, 0xfe, 0x00, 0x00, 0x00, 0x00, 0xc0, 0xdf, 0x7f, 0x7f, 0x00,
   0x00, 0x00, 0x00, 0xc0, 0xbf, 0xbf, 0x7f, 0x00, 0x00, 0x00, 0x00, 0xc0,
   0x7f, 0xdf, 0x7f, 0x00, 0x00, 0x00, 0x00, 0x80, 0xff, 0xee, 0x3f, 0x00,
   0x00, 0x00, 0x00, 0x00, 0xff, 0xee, 0x1f, 0x00, 0x00, 0x00, 0x00, 0x00,
   0xff, 0xee, 0x1f, 0x00, 0x00, 0x00, 0x00, 0x00, 0xfe, 0xee, 0x0f, 0x00,
   0x00, 0x00, 0x00, 0x00, 0xfc, 0xee, 0x07, 0x00, 0x00, 0x00, 0x00, 0x00,
   0xf0, 0xee, 0x01, 0x00, 0xff, 0x0f, 0x00, 0x00, 0xe0, 0xee, 0x00, 0x00,
   0x00, 0x08, 0x00, 0x00, 0xe0, 0xee, 0x00, 0x00, 0x00, 0x08, 0x00, 0x00,
   0xe0, 0xee, 0x00, 0x00, 0x00, 0x08, 0x00, 0x00, 0xe0, 0xee, 0x00, 0x00,
   0x00, 0x08, 0x00, 0x00, 0xe0, 0xee, 0x00, 0x00, 0x00, 0x08, 0x00, 0x00,
   0xe0, 0xee, 0x00, 0x00, 0x00, 0x08, 0x00, 0x00, 0xe0, 0xee, 0x00, 0x00,
   0x00, 0x08, 0x00, 0x00, 0xe0, 0xee, 0x00, 0x00, 0x00, 0x08, 0x00, 0x00,
   0xe0, 0xff, 0x00, 0x00, 0x00, 0x08, 0x00, 0x00, 0x60, 0xc0, 0x00, 0x00,
   0x00, 0x08, 0x00, 0x00, 0x60, 0xc0, 0x00, 0x00, 0x00, 0x08, 0x00, 0x00,
   0x60, 0xc0, 0x00, 0x00, 0x00, 0x08, 0x00, 0x00, 0x60, 0xc0, 0x00, 0x00,
   0x00, 0x08, 0x00, 0x00, 0xc0, 0x7f, 0x00, 0x00, 0x00, 0x08, 0x00, 0x00,
   0xc0, 0x7f, 0x00, 0x00, 0x00, 0x08, 0x00, 0x00, 0xc0, 0x7f, 0x00, 0x00,
   0x00, 0x08, 0x06, 0x00, 0xc0, 0x7f, 0x00, 0x00, 0x00, 0x08, 0x1a, 0x00,
   0x80, 0x3f, 0x00, 0x00, 0x00, 0x08, 0x62, 0x00, 0x00, 0x04, 0x00, 0x00,
   0x00, 0x08, 0x82, 0x01, 0x00, 0x04, 0x00, 0x00, 0x00, 0xf8, 0x03, 0xfe,
   0x01, 0x04, 0x00, 0x00, 0x00, 0x00, 0x82, 0x01, 0x02, 0x04, 0x00, 0x00,
   0x00, 0x00, 0x62, 0x00, 0x04, 0x04, 0x00, 0x00, 0x00, 0x00, 0x1a, 0x00,
   0x08, 0x04, 0x00, 0x00, 0x00, 0x00, 0x06, 0x00, 0x10, 0x04, 0x00, 0x00,
   0x00, 0x00, 0x00, 0x00, 0x10, 0x02, 0x00, 0x00, 0x00, 0x00, 0x00, 0x00,
   0xe0, 0x01, 0x00, 0x00, 0x00, 0x00, 0x00, 0x00, 0x00, 0x00, 0x00, 0x00,
   0x00, 0x00, 0x00, 0x00, 0x00, 0x00, 0x00, 0x00, 0x00, 0x00, 0x00, 0x00,
   0x00, 0x00, 0x00, 0x00, 0x00, 0x00, 0x00, 0x00, 0x00, 0x00, 0x00, 0x00,
   0x00, 0x00, 0x00, 0x00, 0x00, 0x00, 0x00, 0x00};
