#define place_width 16
#define place_height 16
#define place_x_hot 0
#define place_y_hot 0
static char place_bits[] = {
   0xff, 0xff, 0xff, 0xff, 0x03, 0x00, 0x03, 0x00, 0x03, 0x00, 0x03, 0x00,
   0x03, 0x00, 0x03, 0x00, 0x03, 0x00, 0x03, 0x00, 0x03, 0x00, 0x03, 0x00,
   0x03, 0x00, 0x03, 0x00, 0x03, 0x00, 0x03, 0x00};
