#define solderM_width 16
#define solderM_height 16
static char solderM_bits[] = {
   0x00, 0x00, 0x00, 0x00, 0x00, 0x00, 0x00, 0x10, 0x00, 0x2c, 0x00, 0x4e,
   0x00, 0x47, 0x80, 0x43, 0xc0, 0x21, 0xe0, 0x10, 0x70, 0x10, 0x38, 0x20,
   0x1c, 0x40, 0x0e, 0x80, 0x06, 0x00, 0x01, 0x00};
