/* XPM */
static char *serve_xpm[] = {
/* width height ncolors chars_per_pixel */
"31 17 7 1",
/* colors */
"a c #0000FF",
"b c #C6C3C6",
"c c black",
"d c white",
"e c #000084",
"f c #848284",
"g c none",
/* pixels */
"ggggggggggggggggggggggggggggggg",
"ggggggggggggggggggggggggggggggg",
"ggggggggggggggggggggggggggggggg",
"ggggggggggggggggggggggggggggggg",
"ggggggggggggggggggggggggggggggg",
"ggggggggggggggggggggggggggggggg",
"eeeeeeegggggggggggggggggggggggg",
"aaaaaaacggggggggggggggggggggggg",
"aaaaaaacfffffffffgggggggggggggg",
"eeeeeeecbddddddddfffggggggggggg",
"eeeeeeecbddddddddddffgggggggggg",
"eeeeeeecbddddddcdddddcggggggggg",
"eeeeeeecbbbdddddcccccgggggggggg",
"eeeeeeecccbbbddddfffccccggggggg",
"eeeeeeecggcbbbbddddddddbfgggggg",
"cccccccggggccffffffffffccgggggg",
"gggggggggggggccccccccccgggggggg",
};
