/* XPM */
static char *help_xpm[] = {
/* width height ncolors chars_per_pixel */
"32 32 3 1",
/* colors */
"a c black",
"b c yellow",
"c c none",
/* pixels */
"cccccccccccccccccccccccccccccccc",
"cccccccccccccccccccccccccccccccc",
"cccccccccccccccccccccccccccccccc",
"cccccccccccccccccccccccccccccccc",
"cccccccccccccccccccccccccccccccc",
"ccccccccccccaaaaaaaacccccccccccc",
"cccccccaaaaabbbbbbbaaaaacccccccc",
"cccccaaabbbbbbbbbbbbbbbbaaaccccc",
"cccaabbbbbbbbbbbbbbbbbbbbbaacccc",
"ccabbbbbbbbbbbbbbbbbbbbbbbbbaccc",
"cabbbbbbbbbbbbbbbbbbbbbbbbbbbaac",
"aabbbabbbabbaaaabbabbbbbaaabbbac",
"abbbbabbbabbabbbbbabbbbbabbabbac",
"abbbbaaaaabbaaabbbabbbbbaaabbbac",
"abbbbabbbabbabbbbbabbbbbabbbbbac",
"cabbbabbbabbaaaabbaaaabbabbbbbac",
"caabbbbbbbbbbbbbbbbbbbbbbbbbbacc",
"ccaabbbbbbbbbbbbbbbbbbbbbbbaaccc",
"ccccaaabbbbbbbbbbbbbbbbbbaaacccc",
"ccccccaaabbbbbbbbbbbbaaaaacccccc",
"cccccccccabbbbbaaaaaaacccccccccc",
"cccccccccabbbbaccccccccccccccccc",
"cccccccccabbbacccccccccccccccccc",
"cccccccccabbaccccccccccccccccccc",
"ccccccccaabacccccccccccccccccccc",
"cccccccaaaaccccccccccccccccccccc",
"ccccccaacccccccccccccccccccccccc",
"cccccccccccccccccccccccccccccccc",
"cccccccccccccccccccccccccccccccc",
"cccccccccccccccccccccccccccccccc",
"cccccccccccccccccccccccccccccccc",
"cccccccccccccccccccccccccccccccc",
};
