/* XPM */
static char *macos_xpm[] = {
/* width height ncolors chars_per_pixel */
"40 36 197 2",
/* colors */
"aa c black",
"ab c #5E84FF",
"ac c #0821A5",
"ad c #0008AD",
"ae c #00009C",
"af c #577EF9",
"ag c #5263CE",
"ah c #3963CE",
"ai c #426BBD",
"aj c #52639C",
"ak c #3163BD",
"al c #7B7363",
"am c #2039AD",
"an c #3952AD",
"ao c #A5C6FF",
"ap c #8CC6FF",
"aq c #9CADD6",
"ar c #949CD6",
"as c #6B9CFF",
"at c #949CBD",
"au c #7B9CD6",
"av c #737BFF",
"aw c #9C9C9C",
"ax c #FFFFEF",
"ay c #D6FFFF",
"az c #DEF7FF",
"ba c #000063",
"bb c #2B4FB7",
"bc c #3142A5",
"bd c #0446CE",
"be c #0021DE",
"bf c #1018A5",
"bg c #102994",
"bh c #0010BD",
"bi c #0018B5",
"bj c #29427B",
"bk c #84A5D6",
"bl c #6B8CEF",
"bm c #6B8CD6",
"bn c #427BF7",
"bo c #5273D6",
"bp c #5E6FCE",
"bq c #5A7BC6",
"br c #1E5AD8",
"bs c #525AD6",
"bt c #0C29B7",
"bu c #E7EFF7",
"bv c #C6EFFF",
"bw c #ADD6FF",
"bx c #C1CEDA",
"by c #9CBDF7",
"bz c #94BDFF",
"ca c #4163B2",
"cb c #4162A0",
"cc c #0021A5",
"cd c #000094",
"ce c #00007B",
"cf c #526394",
"cg c #0852D6",
"ch c #1839C6",
"ci c #1031BD",
"cj c #1852C6",
"ck c #18189C",
"cl c #A5C6F7",
"cm c #94A5F7",
"cn c #84ADFF",
"co c #8CA5FF",
"cp c #7B8CDE",
"cq c #7B94D6",
"cr c #B5B5AD",
"cs c #6BADFF",
"ct c #737BDE",
"cu c #73A5FF",
"cv c #8494FF",
"cw c #F7F7F7",
"cx c #E7FFFF",
"cy c #EFF7FF",
"cz c #BDDEFF",
"da c #F7EFFF",
"db c #DEEFFF",
"dc c #425ECE",
"dd c #212100",
"de c #000042",
"df c #000010",
"dg c #5E94FF",
"dh c #2B44D3",
"di c #6B6342",
"dj c #4A5242",
"dk c #21427B",
"dl c #212994",
"dm c #0039A5",
"dn c #0021BD",
"do c #393110",
"dp c #738CC6",
"dq c #5273E7",
"dr c #7B8CA5",
"ds c #6B6BD6",
"dt c #5D7094",
"du c #526BD6",
"dv c #637BB5",
"dw c #4A7BCE",
"dx c #4A73BD",
"dy c #3967DA",
"dz c #7B84C6",
"ea c #6B8CCE",
"eb c #6B73E7",
"ec c #94CEFF",
"ed c #B5BDD6",
"ee c #9CB5F7",
"ef c #8CBDFF",
"eg c #63A4FC",
"eh c #0000A5",
"ei c #00008C",
"ej c #000073",
"ek c #636B73",
"el c #3942AD",
"em c #1842B5",
"en c #2931B5",
"eo c #2131BD",
"ep c #1029BD",
"eq c #8CADEF",
"er c #94ADE7",
"es c #739CE7",
"et c #849CD6",
"eu c #6B94F7",
"ev c #6B94DE",
"ew c #6B73FF",
"ex c #ADADB5",
"ey c #5A7BEF",
"ez c #8C9C9C",
"fa c #8CA5DE",
"fb c #EFF7F7",
"fc c #C6FFFF",
"fd c #CEF7FF",
"fe c #CEDEFF",
"ff c #4A67CE",
"fg c #295ACA",
"fh c #000021",
"fi c #A5B5DA",
"fj c #6389E4",
"fk c #5A83DA",
"fl c #0841F1",
"fm c #21428C",
"fn c #4A4A29",
"fo c #0018A5",
"fp c #00089C",
"fq c #00188C",
"fr c #ADBAEC",
"fs c #4A84EF",
"ft c #5284E7",
"fu c #848CAD",
"fv c #7384C6",
"fw c #636BD6",
"fx c #315ACE",
"fy c #6B737B",
"fz c #4A73CE",
"ga c #4273D6",
"gb c #C6D6EF",
"gc c #A5CEFF",
"gd c #BDC6D6",
"ge c #94B5F7",
"gf c #7BADFF",
"gg c #FFFFF7",
"gh c #F7FFFF",
"gi c #4684FF",
"gj c #0536C6",
"gk c #000084",
"gl c #00006B",
"gm c #000052",
"gn c #000039",
"go c #2163E7",
"gp c #2942B5",
"gq c #1031AD",
"gr c #39425A",
"gs c #08319C",
"gt c #001CB9",
"gu c #1039A5",
"gv c #0031BD",
"gw c #8CADE7",
"gx c #ADADAD",
"gy c #A5ADB5",
"gz c #9CA5C6",
"ha c #6B73DE",
"hb c #84A5DE",
"hc c #8CA5D6",
"hd c #6B94EF",
"he c #5A8CEF",
"hf c #528CF7",
"hg c #738CD6",
"hh c #CEEFFF",
"hi c #B5EFFF",
"hj c #D6D6DE",
"hk c #ADDEFF",
"hl c #B5D6FF",
"hm c #94DEFF",
"hn c #9CD6FF",
"ho c none",
/* pixels */
"hohohohohohohohohohohohohohohohohohohohohohohoaahohohohohohohohohohohohohohohoho",
"hohohohohohohohohohohohohohohohohohohohohohoaaaahohohohohohohohohohohohohohohoho",
"hohohohohohohohohohohohohohohohohohohohohodiaahohohohohohohohohohohohohohohohoho",
"hohohohohohohohohohobtchdcdcahagdcahduabeyaadtcxfreresataufjdvcyhohohohohohohoho",
"hohohohohohohohohohoaeaeadbibigvdngtbeflaaaabvgfgffjdwdxaibbdmfbhohohohohohohoho",
"hohohohohohohohohohoehepcjdcfwccahebgibfaahkbvgbdkcqeddgaudrcjhohohohohohohohoho",
"hohohohohohohohohohoehbtagbogadfenhfcvaaaahoczefaagrhnexbkfsajhohohohohohohohoho",
"hohohohohohohohohohoehgvagfkbodfencuafaagchhbwbzaagrhkaqetbmcahohohohohohohohoho",
"hohohohohohohohohohoadeofxbphagqdqcofhaahoapbygdbjhcgdcuetfufghohohohohohohohoho",
"hohohohohohohohohohoehcidcffbofjabeuaadocxbyereebwbyerbketeaakhohohohohohohohoho",
"hohohohohohohohohohoehgvagagahdsabafaaezfcgbbycuexfaasgxetfscfhohohohohohohohoho",
"hohohohohohohohohohoeheofgffbpdyabewaaazhohihlgdcuhcgyasetfubrgghohohohohohohoho",
"hohohohohohohohohohoadcidcagagboabbsaaaaaaaaaahlbyhcgwhchbeaakhohohohohohohohoho",
"hohohohohohohohohohoehgvfwfjftcteygiavbnafaaaafcgbaoecfeeqhfcfhohohohohohohohoho",
"hohohohohohohohohohoadeogaejelegcncmcsgfgcaafnhofcfdalaaclatbrhohohohohohohohoho",
"hohohohohohohohohohoadchboglgngmejckgpdqabaaddfyaaaaaaaabyesakhohohohohohohohoho",
"hohohohohohohohohohoehgvfwhdftbcbagmdebacdaaaaaaaaekhndbgeheajhohohohohohohohoho",
"hohohohohohohohohohoehepfxfffkfjeublfjabcnaadjhoayczgccnhbdpakhohohohohohohohoho",
"hohohohohohohohohohoaeehbtcieogjchdhbdbrafaaaaghegevfufsbqdtbdcwhohohohohohohoho",
"hohohohohohohohohohoaeehehehadadadadadbhflfhaahmhcfzgodtcacgfmdbhohohohohohohoho",
"hohohohohohohohohohohohohohohohohohohohohohoaahohohohohohohohohohohohohohohohoho",
"hohohohohohohohohohohohohohohohohohohohohohoaaaahohohohohohohohohohohohohohohoho",
"hohohohohohohohohohohohohohohohohohohohohohoawaahohohohohohohohohohohohohohohoho",
"hohohohohohohohohohohohohohohohohohohohohohohohohohohohohohohohohohohohohohohoho",
"hohohohohohohohohohohobpaccbbthohohohofibbdlcchofvgtgthohohohogtgtfvhohohohohoho",
"hohohohohohohohohohogsdyhohocecdbuhofrcihohocdbxhofvcehohohohocefvhohohohohohoho",
"hohohohohohohohohogpgkhohohohoareihoancrhohofrcyhohocefrhohofrcehohohohohohohoho",
"hohohohohohohohohocdgxhohohohohocehofvaehohohohohohofrcehohocefrhohohohohohohoho",
"hohohohohohohohofreihohohohohohoglcmhogkeifihohohohohofrcecefrhohohohohohohohoho",
"hohohohohohohohofrcehohohohohohofqduhohocaejaehohohohohocecehohohohohohohohohoho",
"hohohohohohohohofrgkhohohohohohocehghohohobucecphohohofrcecefrhohohohohohohohoho",
"hohohohohohohohohogkfkhohohohohogkdahohohohodvgqhohofrcehohocefrhohohohohohohoho",
"hohohohohohohohohobpcehohohohobpehhohghohohodzbphohocefrhohofrcehohohohohohohoho",
"hohohohohohohohohohoguemhohogzfpfrhofocphobubgaxhofvcehohohohocefvhohohohohohoho",
"hohohohohohohohohohohodzfogtamhohohohjehccbbaxhofvgtgthohohohogtgtfvhohohohohoho",
"hohohohohohohohohohohohohohohohohohohohohohohohohohohohohohohohohohohohohohohoho",
};
