#define brick2_width 32
#define brick2_height 32
static char brick2_bits[] = {
   0x10, 0x10, 0x10, 0x10, 0x10, 0x10, 0x10, 0x10, 0x10, 0x10, 0x10, 0x10,
   0x10, 0x10, 0x10, 0x10, 0xff, 0xff, 0xff, 0xff, 0x01, 0x01, 0x01, 0x01,
   0x01, 0x01, 0x01, 0x01, 0x01, 0x01, 0x01, 0x01, 0x01, 0x01, 0x01, 0x01,
   0x01, 0x01, 0x01, 0x01, 0x01, 0x01, 0x01, 0x01, 0x01, 0x01, 0x01, 0x01,
   0xff, 0xff, 0xff, 0xff, 0x10, 0x10, 0x10, 0x10, 0x10, 0x10, 0x10, 0x10,
   0x10, 0x10, 0x10, 0x10, 0x10, 0x10, 0x10, 0x10, 0x10, 0x10, 0x10, 0x10,
   0x10, 0x10, 0x10, 0x10, 0x10, 0x10, 0x10, 0x10, 0xff, 0xff, 0xff, 0xff,
   0x01, 0x01, 0x01, 0x01, 0x01, 0x01, 0x01, 0x01, 0x01, 0x01, 0x01, 0x01,
   0x01, 0x01, 0x01, 0x01, 0x01, 0x01, 0x01, 0x01, 0x01, 0x01, 0x01, 0x01,
   0x01, 0x01, 0x01, 0x01, 0xff, 0xff, 0xff, 0xff, 0x10, 0x10, 0x10, 0x10,
   0x10, 0x10, 0x10, 0x10, 0x10, 0x10, 0x10, 0x10};
