#define d2line1_width 32
#define d2line1_height 32
static char d2line1_bits[] = {
   0x88, 0x88, 0x88, 0x88, 0x11, 0x11, 0x11, 0x11, 0x22, 0x22, 0x22, 0x22,
   0x44, 0x44, 0x44, 0x44, 0x88, 0x88, 0x88, 0x88, 0x11, 0x11, 0x11, 0x11,
   0x22, 0x22, 0x22, 0x22, 0x44, 0x44, 0x44, 0x44, 0x88, 0x88, 0x88, 0x88,
   0x11, 0x11, 0x11, 0x11, 0x22, 0x22, 0x22, 0x22, 0x44, 0x44, 0x44, 0x44,
   0x88, 0x88, 0x88, 0x88, 0x11, 0x11, 0x11, 0x11, 0x22, 0x22, 0x22, 0x22,
   0x44, 0x44, 0x44, 0x44, 0x88, 0x88, 0x88, 0x88, 0x11, 0x11, 0x11, 0x11,
   0x22, 0x22, 0x22, 0x22, 0x44, 0x44, 0x44, 0x44, 0x88, 0x88, 0x88, 0x88,
   0x11, 0x11, 0x11, 0x11, 0x22, 0x22, 0x22, 0x22, 0x44, 0x44, 0x44, 0x44,
   0x88, 0x88, 0x88, 0x88, 0x11, 0x11, 0x11, 0x11, 0x22, 0x22, 0x22, 0x22,
   0x44, 0x44, 0x44, 0x44, 0x88, 0x88, 0x88, 0x88, 0x11, 0x11, 0x11, 0x11,
   0x22, 0x22, 0x22, 0x22, 0x44, 0x44, 0x44, 0x44};
