#define DrawSpline_width 32
#define DrawSpline_height 32
static unsigned char DrawSpline_bits[] = {
   0x00, 0x00, 0x00, 0x00, 0x30, 0x00, 0x00, 0x00, 0x48, 0x00, 0x00, 0x00,
   0x5c, 0x00, 0x00, 0x00, 0x9c, 0x00, 0x00, 0x00, 0x9c, 0x00, 0x80, 0x01,
   0x88, 0x00, 0x60, 0x02, 0x88, 0x00, 0x10, 0x0e, 0x08, 0x01, 0x08, 0x0e,
   0x08, 0x01, 0x04, 0x0e, 0x08, 0x02, 0x04, 0x10, 0x08, 0x06, 0x02, 0x10,
   0x08, 0x74, 0x01, 0x20, 0x08, 0xf8, 0x00, 0x20, 0x08, 0x70, 0x00, 0x20,
   0x08, 0x00, 0x00, 0x20, 0x08, 0x00, 0x00, 0x20, 0x08, 0x00, 0x00, 0x20,
   0x10, 0x00, 0x00, 0x20, 0x10, 0x00, 0x00, 0x20, 0x10, 0x00, 0x00, 0x20,
   0xe0, 0x00, 0x00, 0x20, 0xe0, 0x00, 0x00, 0x20, 0xe0, 0x00, 0x00, 0x20,
   0x80, 0x00, 0x00, 0x10, 0x00, 0x03, 0x00, 0x08, 0x00, 0x0c, 0x80, 0x07,
   0x00, 0xf0, 0xff, 0x03, 0x00, 0x00, 0x80, 0x03, 0x00, 0x00, 0x00, 0x00,
   0x00, 0x00, 0x00, 0x00, 0x00, 0x00, 0x00, 0x00};
