#define wave2_width 32
#define wave2_height 32
static char wave2_bits[] = {
   0x38, 0x82, 0x38, 0x82, 0x44, 0x44, 0x44, 0x44, 0x82, 0x38, 0x82, 0x38,
   0x01, 0x01, 0x01, 0x01, 0x38, 0x82, 0x38, 0x82, 0x44, 0x44, 0x44, 0x44,
   0x82, 0x38, 0x82, 0x38, 0x01, 0x01, 0x01, 0x01, 0x38, 0x82, 0x38, 0x82,
   0x44, 0x44, 0x44, 0x44, 0x82, 0x38, 0x82, 0x38, 0x01, 0x01, 0x01, 0x01,
   0x38, 0x82, 0x38, 0x82, 0x44, 0x44, 0x44, 0x44, 0x82, 0x38, 0x82, 0x38,
   0x01, 0x01, 0x01, 0x01, 0x38, 0x82, 0x38, 0x82, 0x44, 0x44, 0x44, 0x44,
   0x82, 0x38, 0x82, 0x38, 0x01, 0x01, 0x01, 0x01, 0x38, 0x82, 0x38, 0x82,
   0x44, 0x44, 0x44, 0x44, 0x82, 0x38, 0x82, 0x38, 0x01, 0x01, 0x01, 0x01,
   0x38, 0x82, 0x38, 0x82, 0x44, 0x44, 0x44, 0x44, 0x82, 0x38, 0x82, 0x38,
   0x01, 0x01, 0x01, 0x01, 0x38, 0x82, 0x38, 0x82, 0x44, 0x44, 0x44, 0x44,
   0x82, 0x38, 0x82, 0x38, 0x01, 0x01, 0x01, 0x01};
