#define wave1_width 32
#define wave1_height 32
static char wave1_bits[] = {
   0x38, 0x00, 0x38, 0x00, 0x44, 0x00, 0x44, 0x00, 0x82, 0x00, 0x82, 0x00,
   0x01, 0x01, 0x01, 0x01, 0x00, 0x82, 0x00, 0x82, 0x00, 0x44, 0x00, 0x44,
   0x00, 0x38, 0x00, 0x38, 0x00, 0x00, 0x00, 0x00, 0x38, 0x00, 0x38, 0x00,
   0x44, 0x00, 0x44, 0x00, 0x82, 0x00, 0x82, 0x00, 0x01, 0x01, 0x01, 0x01,
   0x00, 0x82, 0x00, 0x82, 0x00, 0x44, 0x00, 0x44, 0x00, 0x38, 0x00, 0x38,
   0x00, 0x00, 0x00, 0x00, 0x38, 0x00, 0x38, 0x00, 0x44, 0x00, 0x44, 0x00,
   0x82, 0x00, 0x82, 0x00, 0x01, 0x01, 0x01, 0x01, 0x00, 0x82, 0x00, 0x82,
   0x00, 0x44, 0x00, 0x44, 0x00, 0x38, 0x00, 0x38, 0x00, 0x00, 0x00, 0x00,
   0x38, 0x00, 0x38, 0x00, 0x44, 0x00, 0x44, 0x00, 0x82, 0x00, 0x82, 0x00,
   0x01, 0x01, 0x01, 0x01, 0x00, 0x82, 0x00, 0x82, 0x00, 0x44, 0x00, 0x44,
   0x00, 0x38, 0x00, 0x38, 0x00, 0x00, 0x00, 0x00};
