/* XPM */
static char *back_xpm[] = {
/* width height ncolors chars_per_pixel */
"20 22 25 1",
/* colors */
"a c white",
"b c #ccffff",
"c c #999999",
"d c #666666",
"e c #333333",
"f c black",
"g c black",
"h c black",
"i c black",
"j c black",
"k c black",
"l c black",
"m c black",
"n c black",
"o c black",
"p c black",
"q c black",
"r c black",
"s c black",
"t c black",
"u c black",
"v c black",
"w c black",
"x c black",
"y c none",
/* pixels */
"yyyyyyyyyyyyyyyyyyyy",
"yyyyyyyydyeeyyyyyyyy",
"yyyyyyyyceeeeeeyyyyy",
"yyyyyyyydyeeeeeeeyyy",
"yyyyyyyyceeeeeeeeeyy",
"yyyyyyyydyeeeeeeeeey",
"yyyyyyyyceeeeeeeeeee",
"yyyyyyyydyeeeeeeeeyf",
"yyyyyyyyyyeeeeeeyyff",
"yyyyyyyyyyyyeyycefff",
"yyyyyfyyyyyyceffffff",
"yyyyffyyycefffffffff",
"yyyfffffffffffffffff",
"yyfffffffffffffffffe",
"yffffffffffffffffffc",
"ffffffffffffffffffdy",
"yfffffffffffffffecyy",
"yyfffffffffffecyyyyy",
"yyyffffffecyyyyyyyyy",
"yyyyffyyyyyyyyyyyyyy",
"yyyyyfyyyyyyyyyyyyyy",
"yyyyyyyyyyyyyyyyyyyy",
};
