/* XPM */
static char * file_image_xpm[] = {
"20 25 6 1",
"       c none",
".      c White",
"X      c Black",
"G      c Green",
"B      c Blue",
"R      c Red",
"                    ",
"  XXXXXXXXX         ",
"  X.......XX        ",
"  X.......X.X       ",
"  X.......X..X      ",
"  X.......X...X     ",
"  X.......X....X    ",
"  X.......X.....X   ",
"  X.......XXXXXXXX  ",
"  X........X.X.X.X  ",
"  X.........X.X.XX  ",
"  X.........GGG..X  ",
"  X........GGGGG.X  ",
"  X....R...GGGGG.X  ",
"  X...RRR...GGG..X  ",
"  X..RRRRR.......X  ",
"  X.RRRRRRR......X  ",
"  X..............X  ",
"  X......BBBBB...X  ",
"  X......BBBBB...X  ",
"  X......BBBBB...X  ",
"  X......BBBBB...X  ",
"  X......BBBBB...X  ",
"  X..............X  ",
"  XXXXXXXXXXXXXXXX  "};


