/* XPM */
static char * file_dir_xpm[] = {
"20 25 5 1",
"       c none",
"W      c White",
"X      c Black",
"+      c #C000C0000000",
"*      c #800080000000",
"                    ",
"                    ",
"                    ",
"                    ",
"  XXXXXX            ",
" X******X           ",
"X********XXXXXXXXXXX",
"X********W+++++++++X",
"XWWWWWWWW++++++++++X",
"X++++++++++++++++++X",
"X++++++++++++++++++X",
"X++++++++++++++++++X",
"X++++++++++++++++++X",
"X++++++++++++++++++X",
"X++++++++++++++++++X",
"X++++++++++++++++++X",
"X++++++++++++++++++X",
"X++++++++++++++++++X",
"X++++++++++++++++++X",
"X++++++++++++++++++X",
"X++++++++++++++++++X",
"XXXXXXXXXXXXXXXXXXXX",
"                    ",
"                    ",
"                    "};



