/* XPM */
static char *white_c_xpm[] = {
/* width height ncolors chars_per_pixel */
"20 22 19 1",
/* colors */
"a c white",
"b c #ccffff",
"c c #999999",
"d c #333333",
"e c black",
"f c black",
"g c black",
"h c black",
"i c black",
"j c black",
"k c black",
"l c black",
"m c black",
"n c black",
"o c black",
"p c black",
"q c black",
"r c black",
"s c none",
/* pixels */
"dddddddddddddsssssss",
"daaaaaaaaaadadssssss",
"daaaaaaaaaadaadsssss",
"daaaeeeaaaadaaadssss",
"daaeeeeeaaadaaaadsss",
"daaeeaeeaaaedededess",
"daaeeaeeaaaeeeeeeess",
"daaeeaaaaaaaaccccess",
"daaeeaeeaaaaaacccess",
"daaeeaeeaaaaaaaacess",
"daaeeeeeaaaaaaaacess",
"daaaeeeaaeeeeaaacess",
"daaaaaaaaaaaaaaacess",
"daaeeeeeeeeeeaaacess",
"daaaaaaaaaaaaaaacess",
"daaeeeeeeeeeeaaacess",
"daaaaaaaaaaaaaaacess",
"daaeeeeeeeeeeaaacess",
"daaaaaaaaaaaaaaacess",
"daaaaaaaaaaaaaaacess",
"ddccccccccccccccdess",
"sseeeeeeeeeeeeeeeess",
};
