/* XPM */
static char *small_file_sound2[]={
"16 16 69 2",
"Qt c None",
"#. c #000000",
".3 c #004245",
".b c #00636f",
".V c #02595e",
".W c #026872",
".4 c #026b75",
".N c #026f7b",
".X c #027984",
".O c #02828d",
".P c #028894",
".H c #0293a1",
".G c #029aa5",
".y c #02a8b4",
".F c #02a9b3",
".# c #03494d",
"#b c #070707",
".9 c #0f0f0f",
".2 c #171717",
".U c #1f1f1f",
".M c #272727",
".q c #29bfcb",
".E c #2f2f2f",
".x c #2fc0cb",
".w c #373737",
".p c #3f3f3f",
".d c #404040",
".c c #515151",
".e c #5a5a5a",
".f c #626262",
".h c #656565",
".Z c #686868",
".i c #6e6e6e",
".k c #717171",
".Y c #727272",
".j c #767676",
".l c #797979",
".R c #7b7b7b",
".z c #7c7c7c",
".g c #7cd8df",
".m c #828282",
".Q c #898989",
".n c #8a8a8a",
".r c #8e8e8e",
".s c #929292",
".o c #939393",
".t c #959595",
".u c #9e9e9e",
".v c #a6a6a6",
"#c c #a9a9a9",
".B c #acacac",
".C c #b2b2b2",
".A c #b7b7b7",
"## c #b8b8b8",
".D c #bababa",
".a c #c1edf0",
".K c #c5c5c5",
"#a c #c7c7c7",
".L c #cecece",
".J c #cfcfcf",
".S c #d5d5d5",
".5 c #d7d7d7",
".0 c #d9d9d9",
".T c #e2e2e2",
".6 c #e6e6e6",
".1 c #ebebeb",
".8 c #f2f2f2",
".7 c #f6f6f6",
".I c #f7f7f7",
"QtQtQtQtQtQtQtQt.#.#.#QtQtQtQtQt",
"QtQtQtQtQtQtQt.#.a.b.c.dQtQtQtQt",
"QtQtQtQtQtQt.#.a.b.c.e.f.dQtQtQt",
"QtQtQtQtQt.#.a.g.b.h.i.j.dQtQtQt",
"QtQtQtQt.#.a.g.b.k.l.m.n.o.pQtQt",
"QtQt.#.#.a.g.q.b.r.s.t.u.v.wQtQt",
"Qt.#.a.a.g.x.y.b.z.A.B.C.D.EQtQt",
"Qt.#.F.F.F.G.H.b.C.I.J.K.L.MQtQt",
"Qt.#.N.N.N.O.P.b.C.Q.R.S.T.UQtQt",
"Qt.#.V.V.V.W.X.b.Y.Z.0.1.1.2QtQt",
"QtQt.p.U.3.V.4.b.Z.5.6.7.8.9QtQt",
"QtQtQtQt#..3.V.b###a.5.6.7#bQtQt",
"QtQtQtQtQt#..3.V.b###a.5#.QtQtQt",
"QtQtQtQtQtQt#..3.b#c###a#.QtQtQt",
"QtQtQtQtQtQtQt#..3.b#c#.QtQtQtQt",
"QtQtQtQtQtQtQtQt#.#.#.QtQtQtQtQt"};
