/* XPM */
static char *small_file_binary_xpm[] = {
/* width height ncolors chars_per_pixel */
"20 19 3 1",
/* colors */
"a c white",
"b c black",
"  c none",
/* pixels */
"bbbbbbbbbbbbbb      ",
"baaaaaaaaaaaabb     ",
"baaaaaaaaaaaabab    ",
"baaabbbaabbaabaab   ",
"baabbabbabbaabaaab  ",
"baabbabbabbaabbbbbb ",
"baabbabbabbaaabbbbbb",
"baabbabbabbaaaaaaabb",
"baaabbbaabbaaaaaaabb",
"baaaaaaaaaaaaaaaaabb",
"baabbaabbbaaaaaaaabb",
"baabbabbabbaaaaaaabb",
"baabbabbabbaaaaaaabb",
"baabbabbabbaaaaaaabb",
"baabbabbabbaaaaaaabb",
"baabbaabbbaaaaaaaabb",
"baaaaaaaaaaaaaaaaabb",
"bbbbbbbbbbbbbbbbbbbb",
" bbbbbbbbbbbbbbbbbbb",
};
