/* XPM */
static char *small_file_sound_xpm[] = {
/* width height ncolors chars_per_pixel */
"20 19 3 1",
/* colors */
"  c none",
"a c white",
"b c black",
/* pixels */
"bbbbbbbbbbbbbbbbbbb ",
"baaaaaaaaaaaaaaaaabb",
"baaaaaaaaaaaaabaaabb",
"baaaaaaabaaabaabaabb",
"baaaaaabbaaaabaababb",
"baaaaababaabaabababb",
"babbbbaabaaababababb",
"babaaaaababababababb",
"babaaaaababababababb",
"babaaaaababababababb",
"babbbbaababababababb",
"babbbbbabaaababababb",
"baaaaabbbaabaabababb",
"baaaaaabbaaaabaababb",
"baaaaaaabaaabaabaabb",
"baaaaaaaaaaaaabaaabb",
"baaaaaaaaaaaaaaaaabb",
"bbbbbbbbbbbbbbbbbbbb",
" bbbbbbbbbbbbbbbbbbb",
};
