/* XPM */
static char *tiny_file_special_xpm[] = {
/* width height ncolors chars_per_pixel */
"16 16 3 1",
/* colors */
"a c black",
"b c white",
"c c none",
/* pixels */
"cccccccccccccccc",
"cccccccccccccccc",
"ccaaaaaaaaaaaccc",
"caabbbbbbbbbaacc",
"cabbbbaaabbbbacc",
"cabbbbaaabbbbacc",
"cabbbbaaabbbbacc",
"cabbbbaaabbbbacc",
"cabbbbaaabbbbacc",
"cabbbbbbbbbbbacc",
"cabbbbaaabbbbacc",
"cabbbbaaabbbbacc",
"caabbbbbbbbbaacc",
"ccaaaaaaaaaaaccc",
"cccccccccccccccc",
"cccccccccccccccc",
};
