/* XPM */
static char *tiny_file_movie2_xpm[] = {
/* width height ncolors chars_per_pixel */
"16 16 4 1",
/* colors */
"a c black",
"b c #7D7D7D",
"c c white",
"d c none",
/* pixels */
"dabbbbbbbbbbbbad",
"dacbaaaaaaacbcad",
"dabbabbbbbbcbbad",
"dacbabbbbbbcbcad",
"dabbabbbbbbcbbad",
"dacbabbbbbbcbcad",
"dabbccccccccbbad",
"dacbbbbbbbbbbcad",
"dabbaaaaaaacbbad",
"dacbabbbbbbcbcad",
"dabbabbbbbbcbbad",
"dacbabbbbbbcbcad",
"dabbabbbbbbcbbad",
"dacbccccccccbcad",
"dabbbbbbbbbbbbad",
"dddddddddddddddd",
};
