/* XPM */
static char * dot_au [] = {
"32 32 10 1",
"       s None  c None",
".      m black c black",
"X      m black c white",
"o      m black c red",
"O      m black c gray75",
"+      m black c maroon",
"@      m black c gray25",
"#      m black c DarkOrchid",
"$      m black c blue",
"%      m black c DarkSlateBlue",
"    ..................          ",
"    .XXXXXXXXXXXXXXXX..         ",
"    .XXXXXXXXXXXXXXXX.X.        ",
"    .XXXXXXXXoXXXXXXX.XX.       ",
"    .XXXXXXXXoXXXXXXX.XXX.      ",
"    .XXXXXXXXoXXXXXXX.XXXX.     ",
"    .XXXXXXXXoXXXXXXX.XXXXX.    ",
"    .XXXXXXXoooXXXXXX.......O   ",
"    .XXXXXXX+++XXXXXXXXXXXX.O   ",
"    .XXXXXXX+++XXXXXXXXXXXX.O   ",
"    .XXX+XXX+++XX+XXXXXXXXX.O   ",
"    .XXX+XXX+++XX+XXX+XXXXX.O   ",
"    .XXX@XX@@@@X@@@XX@XXXXX.O   ",
"    .XXX@@X@@@@X@@@XX@XXXXX.O   ",
"    .XXX@@X@@@@X@@@XX@@XXXX.O   ",
"    .XX@@@X@@@@X@@@X@@@@XXX.O   ",
"    .##########X###X#######.O   ",
"    .XX#X####X#X######X#XXX.O   ",
"    .XXXX####X########XXXXX.O   ",
"    .XXXX$$$XX$$$$X$$XXXXXX.O   ",
"    .XXXX$$$XX$$$$X$$XXXXXX.O   ",
"    .XXXX%%%XX%%%%XX%XXXXXX.O   ",
"    .XXXXX%XXXX%X%XXXXXXXXX.O   ",
"    .XXXXX%XXXX%X%XXXXXXXXX.O   ",
"    .XXXXX%XXXX%XXXXXXXXXXX.O   ",
"    .XXXXXXXXXX%XXXXXXXXXXX.O   ",
"    .XXXXXXXXXX%XXXXXXXXXXX.O   ",
"    .XXXXXXXXXXXXXXXXXXXXXX.O   ",
"    .XXXXXXXXXXXXXXXXXXXXXX.O   ",
"    .XXXXXXXXXXXXXXXXXXXXXX.O   ",
"    ........................O   ",
"     OOOOOOOOOOOOOOOOOOOOOOOO   "};

