/* XPM */
static char * dot_xpm [] = {
/* dot_xpm pixmap
 * width height ncolors chars_per_pixel */
"32 32 11 1",
" 	s None	c None",
".	m black	c black",
"X	m white	c white",
"o	m black	c gray75",
"O	m black	c red",
"+	m white	c green",
"@	m black	c blue",
"#	m white	c #0000FFFFFFFF",
"$	m black	c #FFFF0000FFFF",
"%	m white	c yellow",
"&	m white	c gray85",
"    ..................          ",
"    .XXXXXXXXXXXXXXXX..         ",
"    .XXXXXXXXXXXXXXXX.X.        ",
"    .XXX...XXX..XXXXX.XX.       ",
"    .XXX...XXX.XXXXXX.XXX.      ",
"    .XXXX...X..XXXXXX.XXXX.     ",
"    .XXXX...X.XXXXXXX.XXXXX.    ",
"    .XXXXX.X...XXXXXX.......o   ",
"    .XXXX..X...XXXXXXXXXXXX.o   ",
"    .XXXX.XXX...XXXXXXXXXXX.o   ",
"    .XXX..XXX...XXXXXXXXXXX.o   ",
"    .XXXXXXXXXXXXXXXXXXXXXX.o   ",
"    .XXXXXXXXXXXXXXXXXXXXXX.o   ",
"    .XXX.................XX.o   ",
"    .XXX.OOO+++@@@XXX....XX.o   ",
"    .XXX.OOO+++@@@XXX....XX.o   ",
"    .XXX.OOO+++@@@XXX....XX.o   ",
"    .XXX.###$$$%%%OOOXXX.XX.o   ",
"    .XXX.###$$$%%%OOOXXX.XX.o   ",
"    .XXX.###$$$%%%OOOXXX.XX.o   ",
"    .XXX.OOO+++@@@+++ooo.XX.o   ",
"    .XXX.OOO+++@@@+++ooo.XX.o   ",
"    .XXX.OOO+++@@@+++ooo.XX.o   ",
"    .XXX.###$$$%%%@@@&&&.XX.o   ",
"    .XXX.###$$$%%%@@@&&&.XX.o   ",
"    .XXX.###$$$%%%@@@&&&.XX.o   ",
"    .XXX.................XX.o   ",
"    .XXXXXXXXXXXXXXXXXXXXXX.o   ",
"    .XXXXXXXXXXXXXXXXXXXXXX.o   ",
"    .XXXXXXXXXXXXXXXXXXXXXX.o   ",
"    ........................o   ",
"     oooooooooooooooooooooooo   "};
