/* XPM */
static char * dot_gif [] = {
/* dot_gif pixmap
 * width height ncolors chars_per_pixel */
"32 32 11 1",
" 	s None	c None",
".	m black	c black",
"X	m white	c white",
"o	m black	c gray75",
"O	m black	c red",
"+	m white	c green",
"@	m black	c blue",
"#	m white	c magenta",
"$	m black	c cyan",
"%	m white	c yellow",
"&	m white	c gray85",
"    ..................          ",
"    .XXXXXXXXXXXXXXXX..         ",
"    .XXX...XX.X....XX.X.        ",
"    .XX.XXXXX.X.XXXXX.XX.       ",
"    .XX.XXXXX.X.XXXXX.XXX.      ",
"    .XX.XX..X.X...XXX.XXXX.     ",
"    .XX.XXX.X.X.XXXXX.XXXXX.    ",
"    .XX.XXX.X.X.XXXXX.......o   ",
"    .XXX...XX.X.XXXXXXXXXXX.o   ",
"    .XXXXXXXXXXXXXXXXXXXXXX.o   ",
"    .XXXXXXXXXXXXXXXXXXXXXX.o   ",
"    .XXXXXXXXXXXXXXXXXXXXXX.o   ",
"    .XXXXXXXXXXXXXXXXXXXXXX.o   ",
"    .XXX.................XX.o   ",
"    .XXX.OOO+++@@@XXX....XX.o   ",
"    .XXX.OOO+++@@@XXX....XX.o   ",
"    .XXX.OOO+++@@@XXX....XX.o   ",
"    .XXX.###$$$%%%OOOXXX.XX.o   ",
"    .XXX.###$$$%%%OOOXXX.XX.o   ",
"    .XXX.###$$$%%%OOOXXX.XX.o   ",
"    .XXX.OOO+++@@@+++ooo.XX.o   ",
"    .XXX.OOO+++@@@+++ooo.XX.o   ",
"    .XXX.OOO+++@@@+++ooo.XX.o   ",
"    .XXX.###$$$%%%@@@&&&.XX.o   ",
"    .XXX.###$$$%%%@@@&&&.XX.o   ",
"    .XXX.###$$$%%%@@@&&&.XX.o   ",
"    .XXX.................XX.o   ",
"    .XXXXXXXXXXXXXXXXXXXXXX.o   ",
"    .XXXXXXXXXXXXXXXXXXXXXX.o   ",
"    .XXXXXXXXXXXXXXXXXXXXXX.o   ",
"    ........................o   ",
"     oooooooooooooooooooooooo   "};
