/* XPM */
static char * mfm_opendir5_xpm[] = {
"40 32 5 1",
" 	c #bfbfbfbfbfbf",
".	c black",
"X	c tan",
"o	c grey50",
"O	c wheat",
"                                        ",
"                                        ",
"                                        ",
"                                        ",
"                                        ",
"                          .......       ",
"                         .XXXXXXX.      ",
"                        .XXXXXXXXX.     ",
"          ..............XXXXXXXXXXX...  ",
"         .XXXXXXXXXXXXXXXXXXXXXXXXXXXX. ",
"         .XXXXXXXXXXXXXXXXXXXXXXXXXXXX.o",
"         .XXXXXXXXXXXXXXXXXXXXXXXXXXXX.o",
"         .XXXXXXXXXXXXXXXXXXXXXXXXXXXX.o",
"         .XXXXXXXXXXXXXXXXXXXXXXXXXXXX.o",
"         .XXXXXXXXXXXXXXXXXXXXXXXXXXXX.o",
" ...........................XXXXXXXXXX.o",
".OOOOOOOOOOOOOOOOOOOOOOOOOO.XXXXXXXXXX.o",
" .OOOOOOOOOOOOOOOOOOOOOOOOOO.XXXXXXXXX.o",
" .OOOOOOOOOOOOOOOOOOOOOOOOOO.XXXXXXXXX.o",
"  .OOOOOOOOOOOOOOOOOOOOOOOOOO.XXXXXXXX.o",
"   .OOOOOOOOOOOOOOOOOOOOOOOOOO.XXXXXXX.o",
"   .OOOOOOOOOOOOOOOOOOOOOOOOOO.XXXXXXX.o",
"    .OOOOOOOOOOOOOOOOOOOOOOOOOO.XXXXXX.o",
"     .OOOOOOOOOOOOOOOOOOOOOOOOOO.XXXXX.o",
"      .OOOOOOOOOOOOOOOOOOOOOOOOOO.XXXX.o",
"      .OOOOOOOOOOOOOOOOOOOOOOOOOO.XXXX.o",
"       .OOOOOOOOOOOOOOOOOOOOOOOOOO.XXX.o",
"        .OOOOOOOOOOOOOOOOOOOOOOOOOO.XX.o",
"        .OOOOOOOOOOOOOOOOOOOOOOOOOOO.X.o",
"         .............................o ",
"          ooooooooooooooooooooooooooooo ",
"                                        "};
