/* XPM */
static char * mfm_opendir_xpm[] = {
"40 32 5 1",
" 	c #bfbfbfbfbfbf",
".	c black",
"X	c tan",
"o	c wheat",
"O	c grey50",
"                                        ",
"                                        ",
"                                        ",
"                                        ",
"                                        ",
"                           .......      ",
"                          .XXXXXXX.     ",
"                         .XXXXXXXXX.    ",
"           ...........................  ",
"          .ooooooooooooooooooooooooooo. ",
"          .ooooooooooooooooooooooooooo.O",
"          .ooooooooooooooooooooooooooo.O",
"          .ooooooooooooooooooooooooooo.O",
"          .ooooooooooooooooooooooooooo.O",
"          .ooooooooooooooooooooooooooo.O",
"          .ooooooooooooooooooooooooooo.O",
"          .ooooooooooooooooooooooooooo.O",
"          .ooooooooooooooooooooooooooo.O",
"          .ooooooooooooooooooooooooooo.O",
"          .ooooooooooooooooooooooooooo.O",
"          .ooooooooooooooooooooooooooo.O",
"          .ooooooooooooooooooooooooooo.O",
"          .ooooooooooooooooooooooooooo.O",
"          .ooooooooooooooooooooooooooo.O",
"          .ooooooooooooooooooooooooooo.O",
"          .ooooooooooooooooooooooooooo.O",
"          .ooooooooooooooooooooooooooo.O",
"          .ooooooooooooooooooooooooooo.O",
"          .ooooooooooooooooooooooooooo.O",
"          .............................O",
"           OOOOOOOOOOOOOOOOOOOOOOOOOOOOO",
"                                        "};
