/* XPM */
static char *euroSans_40x40_xpm[] = {
/* width height ncolors chars_per_pixel */
"40 40 2 1",
/* colors */
"a c black",
"b c white",
/* pixels */
"bbbbbbbbbbbbbbbbbbbbbbbbbbbbbbbbbbbbbbbb",
"bbbbbbbbbbbbbbbbbbbbbbbbbbbbbbbbbbbbbbbb",
"bbbbbbbbbbbbbbaaaaaaaaaabbbbbbbbbbbbbbbb",
"bbbbbbbbbbbbaaaaaaaaaaaaaabbbbbbbbbbbbbb",
"bbbbbbbbbbaaaaaaaaaaaaaaaaaabbbbbbbbbbbb",
"bbbbbbbbbaaaaaabbbbbbbbaaaaaabbbbbbbbbbb",
"bbbbbbbbaaaaabbbbbbbbbbbbaaaabbbbbbbbbbb",
"bbbbbbbbaaaabbbbbbbbbbbbbbaabbbbbbbbbbbb",
"bbbbbbbaaaabbbbbbbbbbbbbbbbabbbbbbbbbbbb",
"bbbbbbbaaabbbbbbbbbbbbbbbbbbbbbbbbbbbbbb",
"bbbbbbaaaabbbbbbbbbbbbbbbbbbbbbbbbbbbbbb",
"bbbbbbaaabbbbbbbbbbbbbbbbbbbbbbbbbbbbbbb",
"bbaaaaaaaaaaaaaaaaaaaaaaaabbbbbbbbbbbbbb",
"bbaaaaaaaaaaaaaaaaaaaaaaaabbbbbbbbbbbbbb",
"baaaaaaaaaaaaaaaaaaaaaaaabbbbbbbbbbbbbbb",
"bbbbbaaabbbbbbbbbbbbbbbbbbbbbbbbbbbbbbbb",
"bbbbbaaabbbbbbbbbbbbbbbbbbbbbbbbbbbbbbbb",
"bbaaaaaaaaaaaaaaaaaaaaaabbbbbbbbbbbbbbbb",
"bbaaaaaaaaaaaaaaaaaaaaaabbbbbbbbbbbbbbbb",
"baaaaaaaaaaaaaaaaaaaaaabbbbbbbbbbbbbbbbb",
"bbbbbbaaabbbbbbbbbbbbbbbbbbbbbbbbbbbbbbb",
"bbbbbbaaaabbbbbbbbbbbbbbbbbbbbbbbbbbbbbb",
"bbbbbbbaaaabbbbbbbbbbbbbbbbbbbbbbbbbbbbb",
"bbbbbbbbaaaabbbbbbbbbbbbbbbabbbbbbbbbbbb",
"bbbbbbbbaaaaabbbbbbbbbbbbbaabbbbbbbbbbbb",
"bbbbbbbbbaaaaabbbbbbbbbbaaaabbbbbbbbbbbb",
"bbbbbbbbbbaaaaaabbbbbaaaaaaabbbbbbbbbbbb",
"bbbbbbbbbbbbaaaaaaaaaaaaaabbbbbbbbbbbbbb",
"bbbbbbbbbbbbbaaaaaaaaaaabbbbbbbbbbbbbbbb",
"bbbbbbbbbbbbbbbaaaaaaabbbbbbbbbbbbbbbbbb",
"bbbbbbbbbbbbbbbbbbbbbbbbbbbbbbbbbbbbbbbb",
"bbbbbbbbbbbbbbbbbbbbbbbbbbbbbbbbbbbbbbbb",
"bbbbbbbbbbbbbbbbbbbbbbbbbbbbbbbbbbbbbbbb",
"bbbbbbbbbbbbbbbbbbbbbbbbbbbbbbbbbbbbbbbb",
"bbbbbbbbbbbbbbbbbbbbbbbbbbbbbbbbbbbbbbbb",
"bbbbbbbbbbbbbbbbbbbbbbbbbbbbbbbbbbbbbbbb",
"bbbbbbbbbbbbbbbbbbbbbbbbbbbbbbbbbbbbbbbb",
"bbbbbbbbbbbbbbbbbbbbbbbbbbbbbbbbbbbbbbbb",
"bbbbbbbbbbbbbbbbbbbbbbbbbbbbbbbbbbbbbbbb",
"bbbbbbbbbbbbbbbbbbbbbbbbbbbbbbbbbbbbbbbb",
};
