/* XPM */
static char *euroSans_32x32_xpm[] = {
/* width height ncolors chars_per_pixel */
"32 32 2 1",
/* colors */
"a c black",
"b c white",
/* pixels */
"bbbbbbbbbbbbbbbbbbbbbbbbbbbbbbbb",
"bbbbbbbbbbbbbbbbbbbbbbbbbbbbbbbb",
"bbbbbbbbbbbbbbaaaaaaaaaabbbbbbbb",
"bbbbbbbbbbbbaaaaaaaaaaaaaabbbbbb",
"bbbbbbbbbbaaaaaaaaaaaaaaaaaabbbb",
"bbbbbbbbbaaaaaabbbbbbbbaaaaaabbb",
"bbbbbbbbaaaaabbbbbbbbbbbbaaaabbb",
"bbbbbbbbaaaabbbbbbbbbbbbbbaabbbb",
"bbbbbbbaaaabbbbbbbbbbbbbbbbabbbb",
"bbbbbbbaaabbbbbbbbbbbbbbbbbbbbbb",
"bbbbbbaaaabbbbbbbbbbbbbbbbbbbbbb",
"bbbbbbaaabbbbbbbbbbbbbbbbbbbbbbb",
"bbaaaaaaaaaaaaaaaaaaaaaaaabbbbbb",
"bbaaaaaaaaaaaaaaaaaaaaaaaabbbbbb",
"baaaaaaaaaaaaaaaaaaaaaaaabbbbbbb",
"bbbbbaaabbbbbbbbbbbbbbbbbbbbbbbb",
"bbbbbaaabbbbbbbbbbbbbbbbbbbbbbbb",
"bbaaaaaaaaaaaaaaaaaaaaaabbbbbbbb",
"bbaaaaaaaaaaaaaaaaaaaaaabbbbbbbb",
"baaaaaaaaaaaaaaaaaaaaaabbbbbbbbb",
"bbbbbbaaabbbbbbbbbbbbbbbbbbbbbbb",
"bbbbbbaaaabbbbbbbbbbbbbbbbbbbbbb",
"bbbbbbbaaaabbbbbbbbbbbbbbbbbbbbb",
"bbbbbbbbaaaabbbbbbbbbbbbbbbabbbb",
"bbbbbbbbaaaaabbbbbbbbbbbbbaabbbb",
"bbbbbbbbbaaaaabbbbbbbbbbaaaabbbb",
"bbbbbbbbbbaaaaaabbbbbaaaaaaabbbb",
"bbbbbbbbbbbbaaaaaaaaaaaaaabbbbbb",
"bbbbbbbbbbbbbaaaaaaaaaaabbbbbbbb",
"bbbbbbbbbbbbbbbaaaaaaabbbbbbbbbb",
"bbbbbbbbbbbbbbbbbbbbbbbbbbbbbbbb",
"bbbbbbbbbbbbbbbbbbbbbbbbbbbbbbbb",
};
