/* XPM */
static char *CheckOn_xp_xbm_xpm[] = {
/* width height ncolors chars_per_pixel */
"13 13 19 1",
/* colors */
"a c #F9F9F8",
"b c #F1F1EF",
"c c #21A121",
"d c #E7E7E3",
"e c #FCFCFB",
"f c #F7F7F6",
"g c #E5E5E1",
"h c #EFEFEC",
"i c #1C5180",
"j c #FDFDFD",
"k c #F5F5F3",
"l c #E2E2DD",
"m c #ECECE9",
"n c white",
"o c #FAFAF9",
"p c #F3F3F1",
"q c #E3E3DF",
"r c #EAEAE6",
"s c #FEFEFE",
/* pixels */
"iiiiiiiiiiiii",
"illlqgdrmhbpi",
"illqgdrmhbpki",
"ilqgdrmhbckfi",
"iqgdrmhbccfai",
"igdcmhbcccaoi",
"idrccbcccaoei",
"irmcccccaoeji",
"imhbcccaoejsi",
"ihbpkcaoejsni",
"ibpkfaoejsnni",
"ipkfaoejsnnni",
"iiiiiiiiiiiii",
};
