/* XPM */
static char *CheckOff_disabled_xp_xpm[] = {
/* width height ncolors chars_per_pixel */
"13 13 11 1",
/* colors */
"a c white",
"b c #F3F3F1",
"c c #F7F7F6",
"d c #FAFAF9",
"e c #FEFEFE",
"f c #E2E2DD",
"g c #F5F5F3",
"h c #F9F9F8",
"i c #FDFDFD",
"j c #F1F1EF",
"k c #FCFCFB",
/* pixels */
"fffffffffffff",
"fjjjjbbggchhf",
"fjjjbbggchhdf",
"fjjbbggchhdkf",
"fjbbggchhkkkf",
"fbbbgchhhkkkf",
"fbggghhhkkkif",
"fgggdkkkkkief",
"fgchdkkkkieef",
"fchhdkkkieeaf",
"fhhdkkkieeaaf",
"fhdkkkieeaaaf",
"fffffffffffff",
};
