/* XPM */
static char *dsv_checkTgOn[] = {
	"22 22 4 1",
	". c none",
	"b c black   m black g4 black",
	"w c white   m white g4 white",
	"r c red     m black g4 black",
	"......................",
	".bbbbbbbbbbbbbbbbbbbb.",
	".bwwwwwwwwwwwwwwwwwwb.",
	".bwwwwwwwwwwwwwwwwwbb.",
	".bww...............bb.",
	".bww...............bb.",
	".bww..rr.......rr..bb.",
	".bww...rr.....rr...bb.",
	".bww....rr...rr....bb.",
	".bww.....rr.rr.....bb.",
	".bww......rrr......bb.",
	".bww......rrr......bb.",
	".bww.....rr.rr.....bb.",
	".bww....rr...rr....bb.",
	".bww...rr.....rr...bb.",
	".bww..rr.......rr..bb.",
	".bww...............bb.",
	".bww...............bb.",
	".bww...............bb.",
	".bwbbbbbbbbbbbbbbbbbb.",
	".bbbbbbbbbbbbbbbbbbbb.",
	"......................"
};
