/* XPM */
static char *RadioOn_disabled_xp_xpm[] = {
/* width height ncolors chars_per_pixel */
"13 13 30 1",
/* colors */
"a c #F7F7F6",
"b c #DDE2E5",
"c c #F9F9F8",
"d c #DEE4E5",
"e c #FBFBFA",
"f c #FCFCFB",
"g c #FDFDFC",
"h c #FAFAF9",
"i c #F1F1EF",
"j c #F3F3F1",
"k c #6486A1",
"l c #F5F5F3",
"m c #A6B5BF",
"n c #DEE3E5",
"o c #98C997",
"p c #9ACC98",
"q c #EFEFEC",
"r c #B3C3CE",
"s c #DADCDA",
"t c #A0D29E",
"u c #B9C8D5",
"v c #E2E8DE",
"w c #ABBAC6",
"x c #FDFDFD",
"y c #A9DCA6",
"z c #98C897",
"A c #B2C1CD",
"B c #B5C4D0",
"C c #F5F5F4",
"D c none",
/* pixels */
"DDDisAmAsiDDD",
"DDbmrsqsBmbDD",
"DbwsqijjCbAbD",
"imsjjlCaccbmi",
"srqjivyvlhhus",
"AsilvytpseenA",
"mqjCyttpoffcm",
"AsjavppzsggdA",
"sBCclsosaxxus",
"imbchefgxxdmi",
"DbAbhefgxdAbD",
"DDbmuncdumbDD",
"DDDisAmAsiDDD",
};
