#define rightTab_width 16
#define rightTab_height 16
#define rightTab_x_hot -1
#define rightTab_y_hot -1
static char rightTab_bits[] = {
   0x00, 0x00, 0x00, 0x00, 0x00, 0x03, 0x80, 0x03, 0xc0, 0x03, 0xe0, 0x03,
   0xf0, 0x03, 0xf8, 0x03, 0xf8, 0x03, 0xf0, 0x03, 0xe0, 0x03, 0xc0, 0x03,
   0x80, 0x03, 0x00, 0x03, 0x00, 0x00, 0x00, 0x00};
