#define Letter_width 48
#define Letter_height 48
#define Letter_x_hot -1
#define Letter_y_hot -1
static char Letter_bits[] = {
   0x00, 0x00, 0x00, 0x00, 0x00, 0x00, 0x00, 0x00, 0x00, 0x00, 0x00, 0x00,
   0x00, 0x00, 0x00, 0x00, 0x00, 0x00, 0x00, 0x00, 0x00, 0x00, 0x00, 0x00,
   0x00, 0x00, 0x00, 0x00, 0x00, 0x00, 0x00, 0x00, 0x00, 0x00, 0x00, 0x00,
   0x00, 0x00, 0x00, 0x00, 0x00, 0x00, 0x00, 0x00, 0x00, 0x00, 0x00, 0x00,
   0x00, 0x00, 0x00, 0x00, 0x00, 0x00, 0xf8, 0xff, 0xff, 0xff, 0xff, 0x1f,
   0x08, 0x00, 0x00, 0x00, 0x00, 0x10, 0x08, 0x00, 0x00, 0x00, 0x00, 0x10,
   0x08, 0x00, 0x00, 0x00, 0xaa, 0x12, 0x08, 0x00, 0x00, 0x00, 0xfc, 0x11,
   0x08, 0x00, 0x00, 0x00, 0x06, 0x13, 0x08, 0x00, 0x00, 0x00, 0x34, 0x11,
   0x08, 0x00, 0x00, 0x00, 0x46, 0x13, 0x08, 0x00, 0x00, 0x00, 0x34, 0x11,
   0x08, 0x00, 0x00, 0x00, 0x26, 0x13, 0x08, 0x00, 0x00, 0x00, 0xac, 0x11,
   0x08, 0x00, 0x00, 0x00, 0x06, 0x13, 0x08, 0x00, 0x00, 0x00, 0xfc, 0x11,
   0x08, 0x00, 0x00, 0x00, 0xaa, 0x12, 0x08, 0x00, 0x00, 0x00, 0x00, 0x10,
   0x08, 0x00, 0x00, 0x00, 0x00, 0x10, 0x08, 0x00, 0x00, 0x00, 0x00, 0x10,
   0x08, 0x00, 0x00, 0x00, 0x00, 0x10, 0x08, 0x00, 0x00, 0xf0, 0x1f, 0x10,
   0x08, 0x00, 0x00, 0x00, 0x00, 0x10, 0x08, 0x00, 0x00, 0xf0, 0x07, 0x10,
   0x08, 0x00, 0x00, 0x00, 0x00, 0x10, 0x08, 0x00, 0x00, 0xf0, 0x0f, 0x10,
   0x08, 0x00, 0x00, 0x00, 0x00, 0x10, 0x08, 0x00, 0x00, 0x77, 0x7f, 0x10,
   0x08, 0x00, 0x00, 0x00, 0x00, 0x10, 0x08, 0x00, 0x00, 0x70, 0x3f, 0x10,
   0x08, 0x00, 0x00, 0x00, 0x00, 0x10, 0x08, 0x00, 0x00, 0x00, 0x00, 0x10,
   0xf8, 0xff, 0xff, 0xff, 0xff, 0x1f, 0x00, 0x00, 0x00, 0x00, 0x00, 0x00,
   0x00, 0x00, 0x00, 0x00, 0x00, 0x00, 0x00, 0x00, 0x00, 0x00, 0x00, 0x00,
   0x00, 0x00, 0x00, 0x00, 0x00, 0x00, 0x00, 0x00, 0x00, 0x00, 0x00, 0x00,
   0x00, 0x00, 0x00, 0x00, 0x00, 0x00, 0x00, 0x00, 0x00, 0x00, 0x00, 0x00,
   0x00, 0x00, 0x00, 0x00, 0x00, 0x00, 0x00, 0x00, 0x00, 0x00, 0x00, 0x00};
