#define Mail_width 48
#define Mail_height 48
#define Mail_x_hot -1
#define Mail_y_hot -1
static char Mail_bits[] = {
   0x00, 0x00, 0x00, 0x1f, 0x00, 0x00, 0x00, 0x00, 0xc0, 0xfb, 0x0f, 0x00,
   0x00, 0x00, 0xe0, 0xc0, 0x0f, 0x00, 0x00, 0x00, 0x30, 0xc0, 0x0f, 0x00,
   0x00, 0x00, 0x18, 0xc0, 0x07, 0x00, 0x00, 0x00, 0x0c, 0xc0, 0x07, 0x00,
   0x00, 0x00, 0x06, 0xc0, 0x05, 0x00, 0x00, 0x00, 0x03, 0xc0, 0x04, 0x00,
   0x00, 0x80, 0x01, 0xc0, 0x06, 0x00, 0x00, 0xc0, 0x1f, 0xc0, 0x07, 0x00,
   0x00, 0xe0, 0x7f, 0xc0, 0x07, 0x00, 0x00, 0x70, 0xe0, 0xc0, 0x05, 0x00,
   0x00, 0x38, 0x80, 0xe1, 0x04, 0x00, 0x00, 0x18, 0x80, 0xf1, 0x04, 0x00,
   0x00, 0x0c, 0x00, 0xfb, 0x04, 0x00, 0x00, 0x0c, 0x00, 0xdf, 0x04, 0x00,
   0x00, 0x86, 0x1f, 0xce, 0x04, 0x00, 0x00, 0xe6, 0x7f, 0xc6, 0x04, 0x00,
   0x00, 0xf6, 0xff, 0xc6, 0x04, 0x00, 0x00, 0xf6, 0xff, 0xc6, 0x04, 0x00,
   0x00, 0xf6, 0xff, 0x06, 0x04, 0x00, 0x00, 0xf6, 0xff, 0x06, 0x04, 0x00,
   0x00, 0xf6, 0xff, 0x06, 0x04, 0x00, 0x00, 0xf6, 0x9f, 0x06, 0x04, 0x00,
   0x00, 0xf6, 0x8f, 0x06, 0x06, 0x00, 0x00, 0xf6, 0x87, 0x06, 0x03, 0x00,
   0x00, 0xf6, 0x83, 0x86, 0x01, 0x00, 0x00, 0xf6, 0xa1, 0xc6, 0x00, 0x00,
   0x00, 0xf6, 0x94, 0x66, 0x00, 0x00, 0x00, 0x76, 0xca, 0x36, 0x00, 0x00,
   0x00, 0x26, 0x20, 0x1e, 0x00, 0x00, 0x00, 0xe4, 0x1f, 0x0e, 0x00, 0x00,
   0x00, 0x02, 0x00, 0x07, 0x00, 0x00, 0x00, 0x03, 0x80, 0x01, 0x00, 0x00,
   0x80, 0x01, 0xc0, 0x00, 0x00, 0x00, 0xc0, 0x07, 0xf0, 0x00, 0x00, 0x00,
   0x00, 0x0c, 0x6e, 0x00, 0x00, 0x00, 0x20, 0xf8, 0x63, 0x00, 0x00, 0x00,
   0x20, 0x00, 0x60, 0x00, 0x14, 0x00, 0x00, 0x20, 0x60, 0x10, 0x00, 0x04,
   0x02, 0x22, 0xe4, 0xa2, 0x91, 0x00, 0x24, 0x30, 0x65, 0x00, 0x88, 0x44,
   0x14, 0x22, 0x6d, 0x22, 0x88, 0x62, 0x64, 0x02, 0x68, 0x01, 0x80, 0x00,
   0x04, 0x22, 0x7a, 0x00, 0x03, 0x10, 0x00, 0x10, 0xe8, 0x00, 0x11, 0x10,
   0x80, 0x00, 0x00, 0x08, 0x10, 0x00, 0x40, 0x00, 0x00, 0x08, 0x00, 0x00};
