#define sound_width 48
#define sound_height 48
static char sound_bits[] = {
   0x00, 0x00, 0x00, 0x00, 0x00, 0x00, 0x00, 0xe0, 0x03, 0x00, 0x00, 0x00,
   0x00, 0x1c, 0x06, 0x00, 0x00, 0x00, 0x00, 0x03, 0x1c, 0x00, 0x00, 0x00,
   0x80, 0x06, 0x70, 0x00, 0x00, 0x00, 0xc0, 0x18, 0xc0, 0x01, 0x00, 0x00,
   0x40, 0x30, 0x00, 0x07, 0x00, 0x00, 0x40, 0xc3, 0x10, 0x0c, 0x00, 0x00,
   0x40, 0x0d, 0x03, 0x30, 0x00, 0x00, 0x40, 0x35, 0x4c, 0xe1, 0x00, 0x00,
   0x40, 0xd6, 0x18, 0x88, 0x01, 0x00, 0x40, 0x49, 0xe3, 0x22, 0x03, 0x00,
   0x40, 0xa2, 0x84, 0x89, 0x0e, 0x00, 0x40, 0x49, 0x0a, 0x43, 0x0a, 0x00,
   0x40, 0x95, 0x37, 0x2c, 0x0d, 0x00, 0x40, 0x62, 0xcd, 0x98, 0x0a, 0x00,
   0x40, 0xb5, 0x32, 0x73, 0x0d, 0x00, 0x40, 0x50, 0xa1, 0xa5, 0x0a, 0x00,
   0x40, 0x5b, 0x42, 0xe2, 0x0d, 0x00, 0x40, 0x28, 0xac, 0xa6, 0x0a, 0x00,
   0x40, 0x9d, 0x9a, 0x65, 0x0f, 0x00, 0x40, 0x2a, 0x47, 0xe5, 0x0a, 0x00,
   0x40, 0x1b, 0x25, 0x63, 0x0d, 0x00, 0x40, 0x48, 0x43, 0xa5, 0x0b, 0x00,
   0x40, 0xab, 0x55, 0x63, 0x0f, 0x00, 0x40, 0x1a, 0x83, 0xe5, 0x0a, 0x00,
   0x40, 0x75, 0x2e, 0x63, 0x0f, 0x00, 0x40, 0xb2, 0x40, 0xa7, 0x0b, 0x00,
   0x40, 0x65, 0x8a, 0x65, 0x0d, 0x00, 0x80, 0x4a, 0x81, 0xe2, 0x0a, 0x00,
   0x80, 0xb8, 0xe9, 0x66, 0x0f, 0x00, 0x80, 0x40, 0xbf, 0xa5, 0x0a, 0x00,
   0x00, 0xb3, 0x54, 0xe2, 0x0d, 0x00, 0x00, 0x46, 0xb3, 0xe5, 0x0e, 0x00,
   0x00, 0x18, 0xcd, 0x66, 0x0f, 0x00, 0x00, 0x30, 0x6c, 0xa5, 0x0b, 0x00,
   0x00, 0xc0, 0x90, 0xe2, 0x0f, 0x00, 0x00, 0x00, 0xc3, 0xa6, 0x0a, 0x00,
   0x00, 0x00, 0x0c, 0xe5, 0x0d, 0x00, 0x00, 0x00, 0x18, 0xa6, 0x0e, 0x00,
   0x00, 0x00, 0xe0, 0xe0, 0x07, 0x00, 0x00, 0x00, 0x80, 0xe1, 0x01, 0x00,
   0x00, 0x00, 0x00, 0xe6, 0x00, 0x00, 0x00, 0x00, 0x00, 0x78, 0x00, 0x00,
   0x00, 0x00, 0x00, 0x00, 0x00, 0x00, 0x00, 0x00, 0x00, 0x00, 0x00, 0x00,
   0x00, 0x00, 0x00, 0x00, 0x00, 0x00, 0x00, 0x00, 0x00, 0x00, 0x00, 0x00};
