#define wheel4_width 16
#define wheel4_height 16
static char wheel4_bits[] = {
   0xe0, 0x07, 0x18, 0x1f, 0x04, 0x3f, 0x06, 0x4f, 0x0e, 0x47, 0x3f, 0x87,
   0xff, 0x83, 0xff, 0x83, 0xc1, 0xff, 0xc1, 0xff, 0xe1, 0xfc, 0xe2, 0x70,
   0xf2, 0x60, 0xfc, 0x20, 0xf8, 0x18, 0xe0, 0x07};
