#define wheel2_width 16
#define wheel2_height 16
static char wheel2_bits[] = {
   0xe0, 0x07, 0xf8, 0x18, 0xfc, 0x20, 0xfa, 0x70, 0xf2, 0x78, 0xe1, 0xfc,
   0xc1, 0xff, 0xc1, 0xff, 0xff, 0x83, 0xff, 0x83, 0x3f, 0x87, 0x1e, 0x4f,
   0x0e, 0x5f, 0x04, 0x3f, 0x18, 0x1f, 0xe0, 0x07};
