#define wheel1_width 16
#define wheel1_height 16
static char wheel1_bits[] = {
   0xe0, 0x07, 0x18, 0x18, 0x3c, 0x3c, 0x3e, 0x7c, 0x7e, 0x7e, 0x7d, 0xbe,
   0xf1, 0x8f, 0xc1, 0x83, 0xc1, 0x83, 0xf1, 0x8f, 0x7d, 0xbe, 0x7e, 0x7e,
   0x3e, 0x7c, 0x3c, 0x3c, 0x18, 0x18, 0xe0, 0x07};
