#define wheel3_width 16
#define wheel3_height 16
static char wheel3_bits[] = {
   0xe0, 0x07, 0xf8, 0x1f, 0xe4, 0x27, 0xc2, 0x43, 0xc3, 0x43, 0x87, 0xe1,
   0x9f, 0xf9, 0xff, 0xff, 0xff, 0xff, 0x8f, 0xf9, 0x87, 0xe1, 0xc2, 0x43,
   0xc2, 0x43, 0xe4, 0x27, 0xf8, 0x1f, 0xe0, 0x07};
