#define CheckOn12_width 12
#define CheckOn12_height 12
static unsigned char CheckOn12_bits[] = {
   0x00, 0x00, 0x00, 0x00, 0x00, 0x0c, 0x00, 0x0e, 0x02, 0x07, 0x84, 0x03,
   0xcc, 0x01, 0xf8, 0x00, 0x78, 0x00, 0x30, 0x00, 0x30, 0x00, 0x00, 0x00};
