/* XPM */
static char *CheckOnNext_xpm[] = {
/* width height ncolors chars_per_pixel */
"15 15 4 1",
/* colors */
"a c black",
"b c white",
"c c #555555",
"d c #aaaaaa",
/* pixels */
"dddddcccccddddd",
"dddccaaaaaccddd",
"ddcaadddddcdcdd",
"dcacddbbbbddddd",
"dcadbbbbbbbbddd",
"caddbbbbbbbbddb",
"cadbbbbbbbbbbdb",
"cadbbbbbbbbbbdb",
"cadbbbbbbbbbbdb",
"cadbbbbbbbbbbdb",
"dccdbbbbbbbbdbd",
"dcddbbbbbbbbdbd",
"ddcdddbbbbddbdd",
"ddddbdddddbbddd",
"dddddbbbbbddddd",
};
