#define CheckOn14_width 14
#define CheckOn14_height 14
static unsigned char CheckOn14_bits[] = {
   0x00, 0x00, 0x00, 0x00, 0x00, 0x00, 0x00, 0x18, 0x00, 0x1c, 0x00, 0x1e,
   0x0c, 0x0f, 0x9c, 0x07, 0xfc, 0x03, 0xf8, 0x01, 0xf0, 0x00, 0x60, 0x00,
   0x00, 0x00, 0x00, 0x00};
