#define ComboDn_8_width 8
#define ComboDn_8_height 8
static unsigned char ComboDn_8_bits[] = {
   0x18, 0x18, 0x18, 0x7e, 0x3c, 0x18, 0x00, 0x7e};
