/* XPM */
static char *ComboDn_disabled_xp_xpm[] = {
/* width height ncolors chars_per_pixel */
"17 19 37 1",
/* colors */
"a c #C6C6C6",
"b c #DBDBDB",
"c c #EDEDED",
"d c #E4E4E4",
"e c #D6D6D6",
"f c #E1E1E1",
"g c #D2D2D2",
"h c #C8C8C8",
"i c white",
"j c #CECECE",
"k c #C5C5C5",
"l c #DADADA",
"m c #CBCBCB",
"n c #5E5E5E",
"o c #D5D5D5",
"p c #BFBFBF",
"q c #D1D1D1",
"r c #E9E9E9",
"s c #DDDDDD",
"t c #CDCDCD",
"u c #C4C4C4",
"v c #D8D8D8",
"w c #CACACA",
"x c #C1C1C1",
"y c #D4D4D4",
"z c #DFDFDF",
"A c #D0D0D0",
"B c #C7C7C7",
"C c #DCDCDC",
"D c #CCCCCC",
"E c #C3C3C3",
"F c #D7D7D7",
"G c #E2E2E2",
"H c #D3D3D3",
"I c #C9C9C9",
"J c #DEDEDE",
"K c #CFCFCF",
/* pixels */
"iiiiiiiiiiiiiiiii",
"icJFgjjtwIhhBkEdi",
"iJrdzJJClveeygthi",
"iFdGsllvFygggKtwi",
"igzJlFFFyKtttttmi",
"igzJlFFFyKtttttmi",
"ijCbvooootDDmDDmi",
"itllFnFFtmmnmmmmi",
"iIFFnnnqqmnnnmmwi",
"iIFFFnnnqnnnmmmwi",
"ihoooqnnnnnmmmwIi",
"iayyyyynnnAAmmwBi",
"ikgyyyyHnAwwwwBai",
"ixKggHHHHAjjDhBki",
"ixKggHHHHAjjDhBki",
"ixDKqKKKAjttwhkui",
"ipIDttttDwIIBkuEi",
"iGkhhhhhhaaakuEfi",
"iiiiiiiiiiiiiiiii",
};
