#define ComboDn_win_width 14
#define ComboDn_win_height 14
static unsigned char ComboDn_win_bits[] = {
   0x00, 0x00, 0xe0, 0x01, 0xe0, 0x01, 0xe0, 0x01, 0xe0, 0x01, 0xe0, 0x01,
   0xfc, 0x0f, 0xf8, 0x07, 0xf0, 0x03, 0xe0, 0x01, 0xc0, 0x00, 0x00, 0x00,
   0xfc, 0x0f, 0x00, 0x00};
