#define ScrollLt_win_width 16
#define ScrollLt_win_height 16
static char ScrollLt_win_bits[] = {
   0x00, 0x00, 0x00, 0x00, 0x00, 0x00, 0x80, 0x00, 0xc0, 0x00, 0xe0, 0x00,
   0xf0, 0x1f, 0xf8, 0x1f, 0xf8, 0x1f, 0xf0, 0x1f, 0xe0, 0x00, 0xc0, 0x00,
   0x80, 0x00, 0x00, 0x00, 0x00, 0x00, 0x00, 0x00};
