#define ScrollRt_width 14
#define ScrollRt_height 14
static char ScrollRt_bits[] = {
   0x00, 0x00, 0x00, 0x00, 0x0c, 0x00, 0x3c, 0x00, 0xfc, 0x00, 0xfc, 0x03,
   0xfc, 0x0f, 0xfc, 0x0f, 0xfc, 0x03, 0xfc, 0x00, 0x3c, 0x00, 0x0c, 0x00,
   0x00, 0x00, 0x00, 0x00};
