#define ScrollDn_width 11
#define ScrollDn_height 11
static unsigned char ScrollDn_bits[] = {
   0x00, 0x00, 0x00, 0x00, 0x00, 0x00, 0x00, 0x00, 0xfc, 0x01, 0xf8, 0x00,
   0x70, 0x00, 0x20, 0x00, 0x00, 0x00, 0x00, 0x00, 0x00, 0x00};
