#define ScrollLt_width 8
#define ScrollLt_height 8
static unsigned char ScrollLt_bits[] = {
   0x00, 0x60, 0x78, 0x7e, 0x7e, 0x78, 0x60, 0x00};
