#define ScrollLt_win_width 14
#define ScrollLt_win_height 14
static unsigned char ScrollLt_win_bits[] = {
   0x00, 0x00, 0x00, 0x00, 0x40, 0x00, 0x60, 0x00, 0x70, 0x00, 0xf8, 0x0f,
   0xfc, 0x0f, 0xfc, 0x0f, 0xf8, 0x0f, 0x70, 0x00, 0x60, 0x00, 0x40, 0x00,
   0x00, 0x00, 0x00, 0x00};
