#define ScrollUp_win_width 14
#define ScrollUp_win_height 14
static unsigned char ScrollUp_win_bits[] = {
   0x00, 0x00, 0x00, 0x00, 0xc0, 0x00, 0xe0, 0x01, 0xf0, 0x03, 0xf8, 0x07,
   0xfc, 0x0f, 0xe0, 0x01, 0xe0, 0x01, 0xe0, 0x01, 0xe0, 0x01, 0xe0, 0x01,
   0x00, 0x00, 0x00, 0x00};
