#define ScrollLtMotif_width 12
#define ScrollLtMotif_height 11
static unsigned char ScrollLtMotif_bits[] = {
   0x00, 0x00, 0x00, 0x00, 0x00, 0x00, 0x80, 0x01, 0xe0, 0x01, 0xf8, 0x01,
   0xe0, 0x01, 0x80, 0x01, 0x00, 0x00, 0x00, 0x00, 0x00, 0x00};
