#define ScrollLt_width 14
#define ScrollLt_height 14
static unsigned char ScrollLt_bits[] = {
   0x00, 0x00, 0x00, 0x00, 0x00, 0x01, 0x80, 0x01, 0xc0, 0x01, 0xe0, 0x01,
   0xf0, 0x01, 0xf0, 0x01, 0xe0, 0x01, 0xc0, 0x01, 0x80, 0x01, 0x00, 0x01,
   0x00, 0x00, 0x00, 0x00};
