#define ScrollRt_width 14
#define ScrollRt_height 14
static unsigned char ScrollRt_bits[] = {
   0x00, 0x00, 0x00, 0x00, 0x20, 0x00, 0x60, 0x00, 0xe0, 0x00, 0xe0, 0x01,
   0xe0, 0x03, 0xe0, 0x03, 0xe0, 0x01, 0xe0, 0x00, 0x60, 0x00, 0x20, 0x00,
   0x00, 0x00, 0x00, 0x00};
