#define ScrollDn_width 8
#define ScrollDn_height 8
static unsigned char ScrollDn_bits[] = {
   0x00, 0x7e, 0x7e, 0x3c, 0x3c, 0x18, 0x18, 0x00};
