#define xbm_width 12
#define xbm_height 12
static char xbm_bits[] = {
0x00, 0x00, 
0x00, 0x00, 
0x0C, 0x00, 
0x3C, 0x00, 
0xFC, 0x00, 
0xFC, 0x03, 
0xFC, 0x03, 
0xFC, 0x00, 
0x3C, 0x00, 
0x0C, 0x00, 
0x00, 0x00, 
0x00, 0x00, 
};
