/* XPM */
static char *ScrollDn_entered.xp_xpm[] = {
/* width height ncolors chars_per_pixel */
"16 16 16 1",
/* colors */
"a c #A0C0F0",
"b c black",
"c c #70A0D0",
"d c #F0F0F0",
"e c #A0B0D0",
"f c #C0D0D0",
"g c #D0E0F0",
"h c #80A0D0",
"i c #A0C0D0",
"j c #B0D0F0",
"k c #E0E0F0",
"l c #B0C0D0",
"m c #C0D0F0",
"n c #7090D0",
"o c #90B0D0",
"p c none",
/* pixels */
"ppddddddddddddpp",
"pkkkggggggggmkdp",
"dkkkkgggggggggdf",
"dkkkkkggggggggdl",
"dkkkggggggggggdl",
"dgkgogggggogggde",
"dgkooogggoooggde",
"dgggooogooogggde",
"dggggoooooggggdo",
"dgggggooogggggdo",
"dmgggggoggggggdo",
"dmggggggggggggdo",
"dmggggggggggggde",
"dkgggggggggggkdi",
"pdddddddddddddjp",
"ppohcnnnnccchopp",
};
