#define ScrollUpMotif_width 11
#define ScrollUpMotif_height 12
static unsigned char ScrollUpMotif_bits[] = {
   0x00, 0x00, 0x00, 0x00, 0x00, 0x00, 0x20, 0x00, 0x20, 0x00, 0x70, 0x00,
   0x70, 0x00, 0xf8, 0x00, 0xf8, 0x00, 0x00, 0x00, 0x00, 0x00, 0x00, 0x00};
