#define xbm_width 12
#define xbm_height 12
static char xbm_bits[] = {
0x00, 0x00, 
0x00, 0x00, 
0x00, 0x03, 
0xC0, 0x03, 
0xF0, 0x03, 
0xFC, 0x03, 
0xFC, 0x03, 
0xF0, 0x03, 
0xC0, 0x03, 
0x00, 0x03, 
0x00, 0x00, 
0x00, 0x00, 
};
