#define ScrollLt_width 14
#define ScrollLt_height 14
static char ScrollLt_bits[] = {
   0x00, 0x00, 0x00, 0x00, 0x00, 0x0c, 0x00, 0x0f, 0xc0, 0x0f, 0xf0, 0x0f,
   0xfc, 0x0f, 0xfc, 0x0f, 0xf0, 0x0f, 0xc0, 0x0f, 0x00, 0x0f, 0x00, 0x0c,
   0x00, 0x00, 0x00, 0x00};
