#define VHPanel_m_width 16
#define VHPanel_m_height 16
static char VHPanel_m_bits[] = {
   0xc0, 0x03, 0xc0, 0x03, 0xc0, 0x03, 0xc6, 0x63, 0xce, 0x73, 0xdc, 0x3b,
   0xff, 0xff, 0xff, 0xff, 0xff, 0xff, 0xdc, 0x3b, 0xce, 0x73, 0xc6, 0x63,
   0xc0, 0x03, 0xc0, 0x03, 0xc0, 0x03, 0x00, 0x00};
