#define VHPanel_width 16
#define VHPanel_height 16
static char VHPanel_bits[] = {
   0x80, 0x01, 0x80, 0x01, 0x80, 0x01, 0x80, 0x01, 0x84, 0x21, 0x88, 0x11,
   0x90, 0x09, 0xbf, 0xfd, 0x90, 0x09, 0x88, 0x11, 0x84, 0x21, 0x80, 0x01,
   0x80, 0x01, 0x80, 0x01, 0x80, 0x01, 0x00, 0x00};
