/* XPM */
static char *cross2_xpm[] = {
/* width height ncolors chars_per_pixel */
"32 32 3 1",
/* colors */
"a c white",
"b c black",
"c c none",
/* pixels */
"cccccccccccccbbbbbcccccccccccccc",
"cccccccccccccaabaacccccccccccccc",
"cccccccccccccccbaccccccccccccccc",
"cccccccccccccccbbbcccccccccccccc",
"cccccccccccccccbaacccccccccccccc",
"cccccccccccccccbaccccccccccccccc",
"ccccccccccccbbbbbbbbcccccccccccc",
"ccccccccccbbaaabaaaabbcccccccccc",
"cccccccccbaacccbacccaabccccccccc",
"ccccccccbacccccbbbbcccabcccccccc",
"cccccccbaccccccbaaaccccabccccccc",
"cccccccbaccccccbaccccccabccccccc",
"ccccccbacccccccbbbccccccabcccccc",
"ccccccbacbaccccbaaccccccabccccab",
"bacbacbacbacbacbacccccccabccccab",
"baabaabaabaabaabbbbbbbbbbbbbbbbb",
"bbbbbbbbbbbbbbbbbaabaabaabaabaab",
"baccccbacccccccabcabcabcabcabcab",
"baccccbaccccccaabccccabcabcccccc",
"ccccccbaccccccbbbcccccccabcccccc",
"cccccccbaccccccabccccccabccccccc",
"cccccccbaccccaaabccccccabccccccc",
"ccccccccbacccbbbbcccccabcccccccc",
"cccccccccbaacccabcccaabccccccccc",
"ccccccccccbbaaaabaaabbcccccccccc",
"ccccccccccccbbbbbbbbcccccccccccc",
"cccccccccccccccabccccccccccccccc",
"ccccccccccccccaabccccccccccccccc",
"ccccccccccccccbbbccccccccccccccc",
"cccccccccccccccabccccccccccccccc",
"ccccccccccccccaabaaccccccccccccc",
"ccccccccccccccbbbbbccccccccccccc",
};
