/* XPM */
static char *double_crossHair_xpm[] = {
/* width height ncolors chars_per_pixel */
"32 32 3 1",
/* colors */
"a c white",
"b c black",
"c c none",
/* pixels */
"cccccccccccccccccccccccccccccccc",
"cccccccccccccccccccccccccccccccc",
"cccccccccccccccccccccccccccccccc",
"cccccccccccccccccccccccccccccccc",
"cccccccccccccccccccccccccccccccc",
"cccccccccccccccccccccccccccccccc",
"cccccccccccccccabacccccccccccccc",
"cccccccccccccccabacccccccccccccc",
"cccccccccccccccabacccccccccccccc",
"cccccccccccccccabacccccccccccccc",
"cccccccccccccccabacccccccccccccc",
"cccccccccccccccabacccccccccccccc",
"cccccccccccccccabacccccccccccccc",
"cccccccccccccccabacccccccccccccc",
"cccccccccccccccbbbcccccccccccccc",
"ccccccaaaaaaaabcccbaaaaaaacccccc",
"ccccccbbbbbbbbbcccbbbbbbbbcccccc",
"ccccccaaaaaaaabcccbaaaaaaacccccc",
"cccccccccccccccbbbcccccccccccccc",
"cccccccccccccccabacccccccccccccc",
"cccccccccccccccabacccccccccccccc",
"cccccccccccccccabacccccccccccccc",
"cccccccccccccccabacccccccccccccc",
"cccccccccccccccabacccccccccccccc",
"cccccccccccccccabacccccccccccccc",
"cccccccccccccccabacccccccccccccc",
"cccccccccccccccccccccccccccccccc",
"cccccccccccccccccccccccccccccccc",
"cccccccccccccccccccccccccccccccc",
"cccccccccccccccccccccccccccccccc",
"cccccccccccccccccccccccccccccccc",
"cccccccccccccccccccccccccccccccc",
};
