/* XPM */
static char *hand_with_document_xpm[] = {
/* width height ncolors chars_per_pixel */
"32 32 3 1",
/* colors */
"a c white",
"b c black",
"c c none",
/* pixels */
"cccbbbbbbbcccccccccccccccccccccc",
"ccbbaaaaabcccccccccccccccccccccc",
"cbabaaaaabcccccccccccccccccccccc",
"bbbbaaaaabcccccccccccccccccccccc",
"baaaaaaaabcccccccccccccccccccccc",
"baaaaaaaabbbcccccccccccccccccccc",
"baaaabaaabaabccccccccccccccccccc",
"baaababaabaaabcccccccccccccccccc",
"baaabaababaaabcccccccccccccccccc",
"baaaabaabbaaaabccccccccccccccccc",
"baaaaabaaaaaaabccccccccccccccccc",
"baaaaaabaaaaaaabcccccccccccccccc",
"baaaaaaabbaaaaaacccccccccccccccc",
"baaaaaaaabbaaaaacccccccccccccccc",
"bbbbbbbbbbcbaaaccccccccccccccccc",
"ccccccccccccbacccccccccccccccccc",
"cccccccccccccccccccccccccccccccc",
"cccccccccccccccccccccccccccccccc",
"cccccccccccccccccccccccccccccccc",
"cccccccccccccccccccccccccccccccc",
"cccccccccccccccccccccccccccccccc",
"cccccccccccccccccccccccccccccccc",
"cccccccccccccccccccccccccccccccc",
"cccccccccccccccccccccccccccccccc",
"cccccccccccccccccccccccccccccccc",
"cccccccccccccccccccccccccccccccc",
"cccccccccccccccccccccccccccccccc",
"cccccccccccccccccccccccccccccccc",
"cccccccccccccccccccccccccccccccc",
"cccccccccccccccccccccccccccccccc",
"cccccccccccccccccccccccccccccccc",
"cccccccccccccccccccccccccccccccc",
};
