/* XPM */
static char *left_right_small_arrow_xpm[] = {
/* width height ncolors chars_per_pixel */
"32 32 3 1",
/* colors */
"a c white",
"b c black",
"c c none",
/* pixels */
"cccccccccccccccccccccccccccccccc",
"cccccccccccccccccccccccccccccccc",
"cccccccccccccccccccccccccccccccc",
"cccccccccccccccccccccccccccccccc",
"cccccccccccccccccccccccccccccccc",
"cccccccccccccccccccccccccccccccc",
"cccccccccccccccccccccccccccccccc",
"cccccccccccccccccccccccccccccccc",
"cccccccccccccccccccccccccccccccc",
"cccccccccccccccccccccccccccccccc",
"cccccccccccccccccccccccccccccccc",
"cccccccccccaacccccccaacccccccccc",
"ccccccccccabacccccccabaccccccccc",
"cccccccccabbacccccccabbacccccccc",
"ccccccccabbbaaaaaaaaabbbaccccccc",
"cccccccabbbbbbbbbbbbbbbbbacccccc",
"ccccccccabbbaaaaaaaaabbbaccccccc",
"cccccccccabbacccccccabbacccccccc",
"ccccccccccabacccccccabaccccccccc",
"cccccccccccaacccccccaacccccccccc",
"cccccccccccccccccccccccccccccccc",
"cccccccccccccccccccccccccccccccc",
"cccccccccccccccccccccccccccccccc",
"cccccccccccccccccccccccccccccccc",
"cccccccccccccccccccccccccccccccc",
"cccccccccccccccccccccccccccccccc",
"cccccccccccccccccccccccccccccccc",
"cccccccccccccccccccccccccccccccc",
"cccccccccccccccccccccccccccccccc",
"cccccccccccccccccccccccccccccccc",
"cccccccccccccccccccccccccccccccc",
"cccccccccccccccccccccccccccccccc",
};
