/* XPM */
static char *upDownCursor_xpm[] = {
/* width height ncolors chars_per_pixel */
"32 32 3 1",
/* colors */
"a c white",
"b c black",
"c c none",
/* pixels */
"cccccccccccccccccccccccccccccccc",
"cccccccccccccccccccccccccccccccc",
"cccccccccccccccccccccccccccccccc",
"ccccccccccccccaccccccccccccccccc",
"cccccccccccccabacccccccccccccccc",
"ccccccccccccabbbaccccccccccccccc",
"cccccccccccabbbbbacccccccccccccc",
"ccccccccccabbbbbbbaccccccccccccc",
"ccccccccccaaaabaaaaccccccccccccc",
"cccccccccccccabacccccccccccccccc",
"ccccccaaaaaaaaaaaaaaaaaccccccccc",
"ccccccabbbbbbbbbbbbbbbaccccccccc",
"ccccccaaaaaaaaaaaaaaaaaccccccccc",
"ccccccabbbbbbbbbbbbbbbaccccccccc",
"ccccccaaaaaaaaaaaaaaaaaccccccccc",
"cccccccccccccabacccccccccccccccc",
"ccccccccccaaaabaaaaccccccccccccc",
"ccccccccccabbbbbbbaccccccccccccc",
"cccccccccccabbbbbacccccccccccccc",
"ccccccccccccabbbaccccccccccccccc",
"cccccccccccccabacccccccccccccccc",
"ccccccccccccccaccccccccccccccccc",
"cccccccccccccccccccccccccccccccc",
"cccccccccccccccccccccccccccccccc",
"cccccccccccccccccccccccccccccccc",
"cccccccccccccccccccccccccccccccc",
"cccccccccccccccccccccccccccccccc",
"cccccccccccccccccccccccccccccccc",
"cccccccccccccccccccccccccccccccc",
"cccccccccccccccccccccccccccccccc",
"cccccccccccccccccccccccccccccccc",
"cccccccccccccccccccccccccccccccc",
};
