/* XPM */
static char *wait1_xpm[] = {
/* width height ncolors chars_per_pixel */
"32 32 3 1",
/* colors */
"a c white",
"b c black",
"c c none",
/* pixels */
"cccccccccccccccccccccccccccccccc",
"cccccccccccccccccccccccccccccccc",
"cccccccccccccccccccccccccccccccc",
"cccccccccccccccccccccccccccccccc",
"ccccccccccaaaaaaaaaaaccccccccccc",
"cccccccccccacccccccacccccccccccc",
"cccccccccccaaaaaaaaacccccccccccc",
"cccccccccccacccccccacccccccccccc",
"cccccccccccacccccccacccccccccccc",
"cccccccccccacccccccacccccccccccc",
"cccccccccccacccccccacccccccccccc",
"ccccccccccccacccccaccccccccccccc",
"cccccccccccccacccacccccccccccccc",
"ccccccccccccccacaccccccccccccccc",
"ccccccccccccccacaccccccccccccccc",
"ccccccccccccccacaccccccccccccccc",
"cccccccccccccacccacccccccccccccc",
"ccccccccccccacccccaccccccccccccc",
"cccccccccccacccccccacccccccccccc",
"cccccccccccacccccccacccccccccccc",
"cccccccccccacccccccacccccccccccc",
"cccccccccccacccccccacccccccccccc",
"cccccccccccaaaaaaaaacccccccccccc",
"cccccccccccacccccccacccccccccccc",
"ccccccccccaaaaaaaaaaaccccccccccc",
"cccccccccccccccccccccccccccccccc",
"cccccccccccccccccccccccccccccccc",
"cccccccccccccccccccccccccccccccc",
"cccccccccccccccccccccccccccccccc",
"cccccccccccccccccccccccccccccccc",
"cccccccccccccccccccccccccccccccc",
"cccccccccccccccccccccccccccccccc",
};
