/* XPM */
static char * disk_3D_blue_xpm[] = {
/* width height ncolors chars_per_pixel */
"32 32 7 1",
/* colors */
"       c none",
".      c #1010FF",
"X      c navy",
"o      c #8080ff",
"O      c grey",
"+      c white",
"*      c black",
/* pixels */
"                                ",
"                                ",
"   ..*.....................o... ",
"  ...*.....................o... ",
"  ...*.....................o.*. ",
"  ...*.....................o.*. ",
"  ...*.....................o... ",
"  ...*.....................o... ",
"  ...*.....................o... ",
"  ...*.....................o... ",
"  ...*.....................o... ",
"  ...*.....................o... ",
"  ...*.....................o... ",
"  ...*.....................o... ",
"  ...*.....................o... ",
"  ...*.....................o... ",
"  ...*.....................o... ",
"  ...ooooooooooooooooooooooo... ",
"  ............................. ",
"  ............................. ",
"  ............................. ",
"  ........*****************.... ",
"  ........*OOOOOOOOOOOO*..oo... ",
"  ........*OOOOOOOOOOOO*...o... ",
"  ........*OO****+OOOOO*...o... ",
"  ........*OO*...+OOOOO*...o... ",
"  ........*OO*...+OOOOO*...o... ",
"  ........*OO*...+OOOOO*...o... ",
"  ........*OO*...+OOOOO*...o... ",
"  ........*OO+++++OOOOO*...o... ",
"   .......*OOOOOOOOOOOO*...o..  ",
"                                "};
