/* XPM */
static char *disk_repair_xpm[] = {
/* width height ncolors chars_per_pixel */
"32 32 8 1",
/* colors */
"a c black",
"b c #808000",
"c c #000080",
"d c #808080",
"e c #c0c0c0",
"f c yellow",
"g c white",
"h c none",
/* pixels */
"hhhhhhhhaahhhhhhhhhhhhhhhhhhhhhh",
"hhhhhhhadgahhhhhhhhhhhhhhhhhhhhh",
"hhhhhhhaddahaaahhhhhhhhhhhhhhhhh",
"hhhhhhhhaadadgdahhhhhhhhhhhhhhhh",
"hhhhhhhhhhadddgdahhhhhhhhhhhhhhh",
"hhhhhhhhhadddddgdahhhhhhhhhhhhhh",
"hhhhhhhhhadddddddahhhhhhhhhhhhhh",
"hhhhhhhhhaeddddddahhhhhhhhhhhhhh",
"hhhhhhhhhhaeddddaahhahhhhhhhhhhh",
"hhhhhhhhaadaeddaddaadahhhhhhhhhh",
"hhhhhaaabbahaaaaddagddahhhhhhhhh",
"hhhhabbbbbacccdeaaddgddaeeeeeecc",
"hhhabbbbbahcccdgaddddgaggggggecc",
"hhabbbbbfahcccdaeddddagggggggecc",
"habbbbbfbahcccdgaeddaggggggggecc",
"abbbbbfbahhcccdggaeagggggggggecc",
"bbbbbfbahhhcccdgggaggggggggggecc",
"hbbbfbahhhhcccdggggggggggggggecc",
"hhbfbahhhhhcccdggggggggggggggecc",
"hhhbahhhhhhcccdggggggggggggggecc",
"hhhhhhhhhhhcccdggggggggggggggecc",
"hhhhhhhhhhhcccceeeeeeeeeeeeeeccc",
"hhhhhhhhhhhccccccccccccccccccccc",
"hhhhhhhhhhhccccccccccccccccccccc",
"hhhhhhhhhhhccccccccccccccccccccc",
"hhhhhhhhhhhcccccceeeeeeeeccccccc",
"hhhhhhhhhhhccccceeeeeeeeeecccccc",
"hhhhhhhhhhhccccceecceeeeeecccccc",
"hhhhhhhhhhhccccceecceeeeeecccccc",
"hhhhhhhhhhhccccceecceeeeeecccccc",
"hhhhhhhhhhhccccceecceeeeeecccccc",
"hhhhhhhhhhhhcccceeeeeeeeeeccccch",
};
