/* XPM */
static char *drive_x_net_con_xpm[] = {
/* width height ncolors chars_per_pixel */
"16 16 63 1",
/* colors */
"a c #303030",
"b c #606060",
"c c #909090",
"d c #A87800",
"e c #C0C0C0",
"f c #F0F0F0",
"g c #808088",
"h c #E8E8D8",
"i c #F0E8D0",
"j c #707080",
"k c #E8E0B8",
"l c #383838",
"m c #686868",
"n c #989898",
"o c #C8C8C8",
"p c #D0B048",
"q c #D8B040",
"r c #F8F8F8",
"s c #A07000",
"t c #D8F0F8",
"u c #484858",
"v c #101010",
"w c #404040",
"x c #707070",
"y c #9898B0",
"z c #A0A0A0",
"A c #D0D0D0",
"B c #D8B828",
"C c #808090",
"D c #D0A020",
"E c #D8A810",
"F c #F8F0C8",
"G c #181818",
"H c #484848",
"I c #707088",
"J c #787878",
"K c #A8A8A8",
"L c #D8D8D8",
"M c #686870",
"N c #D8B048",
"O c #E8C028",
"P c #A87000",
"Q c #C8A040",
"R c #D0A830",
"S c #E0F0F8",
"T c #202020",
"U c #505050",
"V c #808080",
"W c #B0B0B0",
"X c #C09828",
"Y c #E0E0E0",
"Z c #404048",
"0 c #B88818",
"1 c #B89010",
"2 c #F0E0A8",
"3 c #606070",
"4 c #585858",
"5 c #888888",
"6 c #B8B8B8",
"7 c #E8E8E8",
"8 c #90A0A8",
"9 c #C8C8D8",
". c none",
/* pixels */
"................",
"...7LoAYoAA.....",
"YY6Jm6fr7Lfoeo..",
"6ALeYLfr7Lf7955Y",
"znWeYYALAenJwCjJ",
"zKnVz6A5JmVbayIm",
".55ozVVJHxJM3UUJ",
"..eVx5zxlZuHUxK.",
"...7ocUgaGU5e...",
".....fV8vl6.....",
".....DqpXQo.....",
"nnnnnNhri1nnnnn.",
"nttSSRkF20ttttT4",
"TTTTTEOBOdTTTTTw",
".x444PssPsw44444",
".....Ax444xA....",
};
