/* XPM */
static char *drive_hd2_xpm[] = {
/* width height ncolors chars_per_pixel */
"16 16 39 1",
/* colors */
"a c #888888",
"b c #484848",
"c c #D0D0D0",
"d c #080808",
"e c #909090",
"f c #606070",
"g c #505050",
"h c #D8D8D8",
"i c #989898",
"j c #808088",
"k c #585858",
"l c #404048",
"m c #E0E0E0",
"n c #9898B0",
"o c #A0A0A0",
"p c #707080",
"q c #606060",
"r c #484850",
"s c #E8E8E8",
"t c #A8A8A8",
"u c #686868",
"v c #505058",
"w c #F0F0F0",
"x c #B0B0B0",
"y c #808090",
"z c #707070",
"A c #F8F8F8",
"B c #303030",
"C c #C8C8D8",
"D c #B8B8B8",
"E c #707088",
"F c #787878",
"G c #383838",
"H c #C0C0C0",
"I c #808080",
"J c #686870",
"K c #404040",
"L c #C8C8C8",
"M c none",
/* pixels */
"MMMMMMMMMMMMMMMM",
"MMMMMMMMMMMMMMMM",
"MMMMMMMMMMMMMMMM",
"MMMMMMMMMMMMMMMM",
"MMMMMMMMMMMMMMMM",
"MMMshLcmLccMMMMM",
"mmDFuDwAshwLHLMM",
"DchHmhwAshwsCaaM",
"oixHmmchcHiFKypF",
"otiIoDcaFuIqBnEu",
"MaaLoIIFbzFJfggF",
"MMHIzaozGlvbgztM",
"MMMMLeqjrbkaHMMM",
"MMMMMMhtaocMMMMM",
"MMMMMMMMMMMMMMMM",
"MMMMMMMMMMMMMMMM",
};
