/* XPM */
static char *drive_hd_xpm[] = {
/* width height ncolors chars_per_pixel */
"32 20 5 1",
/* colors */
"a c black",
"b c #808080",
"c c #c0c0c0",
"d c white",
". c none",
/* pixels */
"................................",
"................................",
"...aaaaaaaaaaaaaaaaaaaaaaaaaa...",
"...adddddddddddddddddddddddca...",
"...adccccccccccccccccccccccba...",
"...adccccccccccccccccccccccba...",
"...adccccccccccccccccccccccba...",
"...adccccccccccccccccccccccba...",
"...adccccccccccccccccccccccba...",
"...adccccccccccccccccccccccba...",
"...adcaaaaaaaaaaaaaaaaaaaacba...",
"...adccccccccccccccccccccccba...",
"...adcaaaaaaaaaaaaaaaaaaaacba...",
"...adccccccccccccccccccccccba...",
"...adcccaaaccccccccccccccccba...",
"...acbbbbbbbbbbbbbbbbbbbbbbba...",
"...aaaaaaaaaaaaaaaaaaaaaaaaaa...",
"................................",
"................................",
"................................",
};
