/* XPM */
static char *drive_cd_xpm[] = {
/* width height ncolors chars_per_pixel */
"16 16 61 1",
/* colors */
"a c #909090",
"b c #C0C0C0",
"c c #F0F0F0",
"d c #808088",
"e c #B0A8C0",
"f c #B0B0B8",
"g c #D8D8F8",
"h c #080808",
"i c #686868",
"j c #989898",
"k c #C8C8C8",
"l c #F8F8F8",
"m c #585860",
"n c #888890",
"o c #889088",
"p c #B8B8C0",
"q c #E8E0F8",
"r c #F0D8F8",
"s c #787888",
"t c #D0D0F8",
"u c #707070",
"v c #A0A0A0",
"w c #D0D0D0",
"x c #C0C0C8",
"y c #F0F0F8",
"z c #F8E8F8",
"A c #808090",
"B c #B0B0C0",
"C c #E0D8F8",
"D c #484848",
"E c #787878",
"F c #A8A8A8",
"G c #C8C8F8",
"H c #D8D8D8",
"I c #686870",
"J c #9898A0",
"K c #C0C0E0",
"L c #C8C8D0",
"M c #B0B0D8",
"N c #B8B8C8",
"O c #E8E8F8",
"P c #505050",
"Q c #808080",
"R c #A8A8C0",
"S c #B0B0B0",
"T c #E0E0E0",
"U c #707078",
"V c #A0A0A8",
"W c #C0C0D0",
"X c #C8C0C8",
"Y c #F8F0F8",
"Z c #585858",
"0 c #586050",
"1 c #888888",
"2 c #B8B8B8",
"3 c #E0E0F8",
"4 c #E8E8E8",
"5 c #484850",
"6 c #787880",
"7 c #D0D0F0",
"8 c none",
/* pixels */
"88888wbLpk888888",
"888824yO3KV88888",
"888bcly3gtMv8888",
"888BylzrCGt6w888",
"888MG3Xsytgdv888",
"88H7gqeuYGGU1888",
"888NgtrrllOZj888",
"888ftGtgllFPS888",
"4THkRtgOykSv2w88",
"2TccHfWpJ2ww2EQ8",
"2b2kT4Tbbbadno0a",
"v2wb22S1QEnpHwIE",
"811kwkE1vxwVdmD1",
"88bQu1ijjAmDPuv8",
"8888kaP65DZQ2888",
"888888HS1vw88888",
};
